<?xml version="1.0" encoding="UTF-8"?>
<svg version="1.1" xmlns="http://www.w3.org/2000/svg" width="360" height="360">
<path d="M0 0 C118.8 0 237.6 0 360 0 C360 118.8 360 237.6 360 360 C241.2 360 122.4 360 0 360 C0 241.2 0 122.4 0 0 Z " fill="#F7F7F7" transform="translate(0,0)"/>
<path d="M0 0 C-1.32144108 2.79108116 -2.80382361 5.25786389 -4.625 7.75 C-5.29402344 8.67039062 -5.29402344 8.67039062 -5.9765625 9.609375 C-6.31429687 10.06828125 -6.65203125 10.5271875 -7 11 C-5.11537364 14.89820084 -2.99446572 18.66388274 -0.875 22.4375 C-0.48119141 23.13891113 -0.08738281 23.84032227 0.31835938 24.56298828 C3.56418371 30.30550069 6.97177365 35.93105072 10.46875 41.5234375 C12 44 12 44 13 46 C18.28091083 46.20709454 22.07871072 46.01899047 27 44 C34.76242805 43.15318967 41.67419115 45.5970012 49 48 C49.94617188 48.28875 50.89234375 48.5775 51.8671875 48.875 C54.22553678 49.71888217 56.05476667 50.42070165 58 52 C59.0850764 54.87877413 59.05239985 56.85600879 59 60 C59.87011719 60.18175781 59.87011719 60.18175781 60.7578125 60.3671875 C64.34467824 61.13664715 67.74235341 61.90401402 71.1875 63.1875 C74.7079124 64.20450803 76.45763533 63.98043788 80 63 C82.46082921 61.37230419 84.58291804 59.43317093 86.75 57.4375 C87.98976247 56.33467382 89.23065273 55.23311419 90.47265625 54.1328125 C91.07480957 53.59430664 91.67696289 53.05580078 92.29736328 52.50097656 C95.2871155 49.86533036 98.41949387 47.41674945 101.55078125 44.953125 C103.36053165 43.50994286 105.14617693 42.0364135 106.91796875 40.546875 C107.89378906 39.72703125 108.86960938 38.9071875 109.875 38.0625 C110.75929687 37.31097656 111.64359375 36.55945313 112.5546875 35.78515625 C114.8295085 34.12446424 116.25192791 33.40262452 119 33 C119 32.34 119 31.68 119 31 C122.14839906 30.65017788 123.62023779 30.75366776 126.3125 32.5 C129.12035767 36.65978913 128.36163182 41.05502099 127.47924805 45.80078125 C126.76219156 48.9638906 125.98746916 52.10685876 125.1875 55.25 C124.92646484 56.30574219 124.66542969 57.36148438 124.39648438 58.44921875 C123.60681741 61.63518375 122.80430126 64.81770133 122 68 C121.43299382 70.26547493 120.86656138 72.53109356 120.30078125 74.796875 C119.8671875 76.53125 119.43359375 78.265625 119 80 C119.52174805 80.14550293 120.04349609 80.29100586 120.58105469 80.44091797 C129.27190656 82.95172937 137.74878463 86.04515468 146.25 89.125 C147.0465802 89.41312561 147.8431604 89.70125122 148.66387939 89.99810791 C198.4747596 108.04581811 198.4747596 108.04581811 204 115 C203.90683549 117.88809981 203.01035346 118.98792096 201.125 121.1875 C196.45693389 125.1690858 191.03857488 123.94719953 185.25 123.7421875 C182.02091767 123.69864176 182.02091767 123.69864176 180.0625 125.5078125 C179.711875 126.00023437 179.36125 126.49265625 179 127 C187.26635814 131.4215404 195.36689861 131.9882634 204.5625 130.375 C207.30775576 129.14735788 207.30775576 129.14735788 208.375 125.875 C208.684375 124.451875 208.684375 124.451875 209 123 C212.1214778 124.35804554 213.96958229 125.81375855 216.125 128.4375 C216.62257813 129.03433594 217.12015625 129.63117188 217.6328125 130.24609375 C221.00771613 134.57561298 221.00771613 134.57561298 220.9375 138.4375 C219.82187908 142.67685951 218.69903648 143.76337329 215 146 C183.94031362 156.16876147 129.80572466 129.83549202 101 117 C101 117.66 101 118.32 101 119 C97.04 119 93.08 119 89 119 C89 126.92 89 134.84 89 143 C96.92 143 104.84 143 113 143 C113 150.92 113 158.84 113 167 C120.92 167 128.84 167 137 167 C137 174.92 137 182.84 137 191 C144.92 191 152.84 191 161 191 C161 198.92 161 206.84 161 215 C168.92 215 176.84 215 185 215 C185 222.92 185 230.84 185 239 C192.92 239 200.84 239 209 239 C209 246.92 209 254.84 209 263 C153.56 263 98.12 263 41 263 C41 255.08 41 247.16 41 239 C33.08 239 25.16 239 17 239 C17 231.08 17 223.16 17 215 C9.08 215 1.16 215 -7 215 C-7 207.08 -7 199.16 -7 191 C-14.92 191 -22.84 191 -31 191 C-31 183.08 -31 175.16 -31 167 C-38.92 167 -46.84 167 -55 167 C-55 159.08 -55 151.16 -55 143 C-62.92 143 -70.84 143 -79 143 C-79 137.72 -79 132.44 -79 127 C-76.36 127.66 -73.72 128.32 -71 129 C-71.5775 128.68546875 -72.155 128.3709375 -72.75 128.046875 C-73.4925 127.61890625 -74.235 127.1909375 -75 126.75 C-75.7425 126.33234375 -76.485 125.9146875 -77.25 125.484375 C-77.8275 124.99453125 -78.405 124.5046875 -79 124 C-79 122.68 -79 121.36 -79 120 C-77.83355957 119.64808594 -76.66711914 119.29617187 -75.46533203 118.93359375 C-70.01829163 117.28993334 -64.57157556 115.64520008 -59.125 114 C-58.14315735 113.70343506 -57.1613147 113.40687012 -56.14971924 113.10131836 C-43.5123077 109.28314399 -30.88258516 105.44284178 -18.27124023 101.53930664 C-12.59128902 99.78464356 -6.8992945 98.08519809 -1.1875 96.4375 C8.64031579 93.59960633 18.31605379 90.28977528 28 87 C24.29378768 83.29378768 19.51299319 81.01063326 14.23046875 80.98828125 C13.26753906 81.05402344 12.30460937 81.11976563 11.3125 81.1875 C2.17004701 81.52654237 -6.22639408 76.51437695 -13.1875 70.875 C-15.68065099 68.49546096 -17.67606477 66.22709212 -19 63 C-18.6 58.6 -18.6 58.6 -17 57 C-15.33382885 56.95936168 -13.66611905 56.957279 -12 57 C-12.99390293 54.10111647 -13.95612026 52.0523726 -15.9375 49.6875 C-19.06984954 45.60595363 -21 41.17903428 -21 36 C-13.25 36.875 -13.25 36.875 -11 38 C-12.2287449 34.00148761 -13.59726459 30.44272537 -16 27 C-18.88204515 25.72096098 -21.35217162 25.21926769 -24.4765625 24.85546875 C-27 24 -27 24 -28.65771484 20.9465332 C-29.10066895 19.97417725 -29.54362305 19.00182129 -30 18 C-31.10512939 17.97494385 -32.21025879 17.9498877 -33.34887695 17.92407227 C-37.44714044 17.82993491 -41.54523694 17.72972959 -45.64331055 17.62768555 C-47.41735937 17.58436066 -49.19144923 17.54268381 -50.96557617 17.50268555 C-53.51493705 17.4449238 -56.0640918 17.38124638 -58.61328125 17.31640625 C-59.40712723 17.29969376 -60.20097321 17.28298126 -61.01887512 17.26576233 C-64.24683077 17.17882282 -66.91751099 17.02749634 -70 16 C-70 15.34 -70 14.68 -70 14 C-69.08299316 13.86424561 -68.16598633 13.72849121 -67.22119141 13.58862305 C-63.77234769 13.07445158 -60.32463214 12.55366066 -56.87744141 12.02856445 C-55.39410894 11.8039584 -53.91039002 11.58188753 -52.42626953 11.36254883 C-41.41939883 9.73341321 -31.30605334 7.77920927 -21.25 2.8125 C-13.89409395 -0.46128236 -7.98050659 -0.65493519 0 0 Z " fill="#FCFCFC" transform="translate(103,97)"/>
<path d="M0 0 C-1.32144108 2.79108116 -2.80382361 5.25786389 -4.625 7.75 C-5.29402344 8.67039062 -5.29402344 8.67039062 -5.9765625 9.609375 C-6.31429687 10.06828125 -6.65203125 10.5271875 -7 11 C-5.11537364 14.89820084 -2.99446572 18.66388274 -0.875 22.4375 C-0.48119141 23.13891113 -0.08738281 23.84032227 0.31835938 24.56298828 C3.56418371 30.30550069 6.97177365 35.93105072 10.46875 41.5234375 C12 44 12 44 13 46 C18.28091083 46.20709454 22.07871072 46.01899047 27 44 C34.76242805 43.15318967 41.67419115 45.5970012 49 48 C49.94617188 48.28875 50.89234375 48.5775 51.8671875 48.875 C54.22553678 49.71888217 56.05476667 50.42070165 58 52 C59.0850764 54.87877413 59.05239985 56.85600879 59 60 C59.87011719 60.18175781 59.87011719 60.18175781 60.7578125 60.3671875 C64.34467824 61.13664715 67.74235341 61.90401402 71.1875 63.1875 C74.7079124 64.20450803 76.45763533 63.98043788 80 63 C82.46082921 61.37230419 84.58291804 59.43317093 86.75 57.4375 C87.98976247 56.33467382 89.23065273 55.23311419 90.47265625 54.1328125 C91.07480957 53.59430664 91.67696289 53.05580078 92.29736328 52.50097656 C95.2871155 49.86533036 98.41949387 47.41674945 101.55078125 44.953125 C103.36053165 43.50994286 105.14617693 42.0364135 106.91796875 40.546875 C107.89378906 39.72703125 108.86960938 38.9071875 109.875 38.0625 C110.75929687 37.31097656 111.64359375 36.55945313 112.5546875 35.78515625 C114.8295085 34.12446424 116.25192791 33.40262452 119 33 C119 32.34 119 31.68 119 31 C122.14839906 30.65017788 123.62023779 30.75366776 126.3125 32.5 C129.12035767 36.65978913 128.36163182 41.05502099 127.47924805 45.80078125 C126.76219156 48.9638906 125.98746916 52.10685876 125.1875 55.25 C124.92646484 56.30574219 124.66542969 57.36148438 124.39648438 58.44921875 C123.60681741 61.63518375 122.80430126 64.81770133 122 68 C121.43299382 70.26547493 120.86656138 72.53109356 120.30078125 74.796875 C119.8671875 76.53125 119.43359375 78.265625 119 80 C119.52174805 80.14550293 120.04349609 80.29100586 120.58105469 80.44091797 C129.27190656 82.95172937 137.74878463 86.04515468 146.25 89.125 C147.0465802 89.41312561 147.8431604 89.70125122 148.66387939 89.99810791 C198.4747596 108.04581811 198.4747596 108.04581811 204 115 C203.90683549 117.88809981 203.01035346 118.98792096 201.125 121.1875 C196.45693389 125.1690858 191.03857488 123.94719953 185.25 123.7421875 C182.02091767 123.69864176 182.02091767 123.69864176 180.0625 125.5078125 C179.711875 126.00023437 179.36125 126.49265625 179 127 C187.26635814 131.4215404 195.36689861 131.9882634 204.5625 130.375 C207.30775576 129.14735788 207.30775576 129.14735788 208.375 125.875 C208.684375 124.451875 208.684375 124.451875 209 123 C212.1214778 124.35804554 213.96958229 125.81375855 216.125 128.4375 C216.62257813 129.03433594 217.12015625 129.63117188 217.6328125 130.24609375 C221.00771613 134.57561298 221.00771613 134.57561298 220.9375 138.4375 C219.82187908 142.67685951 218.69903648 143.76337329 215 146 C187.47539767 155.01139542 148.14962167 134.81594698 122.125 125.3125 C121.49209045 125.08184845 120.85918091 124.8511969 120.20709229 124.61355591 C113.58670315 122.19180905 107.09076743 119.6486085 100.69213867 116.69165039 C91.87119351 112.6734166 84.43064261 112.54896944 75 114 C73.45744491 114.21009114 71.91445242 114.41698958 70.37109375 114.62109375 C67.73596436 114.97407973 65.1022388 115.33348269 62.4699707 115.70727539 C53.99752772 116.90522184 45.50501632 117.88103422 37 118.8125 C35.90422638 118.93266983 35.90422638 118.93266983 34.78631592 119.05526733 C31.61210033 119.40304984 28.43780576 119.7500981 25.26339722 120.09611511 C14.32685641 121.2889676 3.39336163 122.50929349 -7.54052734 123.72616577 C-11.04130667 124.11568768 -14.54212751 124.5048338 -18.04296875 124.89379883 C-19.1519754 125.01704529 -20.26098206 125.14029175 -21.40359497 125.26727295 C-23.57679726 125.50860331 -25.75003472 125.74961719 -27.92330933 125.99029541 C-32.73253226 126.5232663 -37.54117051 127.06012067 -42.34814453 127.61303711 C-43.16491669 127.70620209 -43.98168884 127.79936707 -44.82321167 127.89535522 C-46.29834782 128.0639128 -47.77325181 128.23452419 -49.24783325 128.40786743 C-58.77734389 129.49183807 -68.22600341 130.46977185 -77 126 C-78.03017628 125.03111567 -79.03847705 124.03705044 -80 123 C-79.67 122.01 -79.34 121.02 -79 120 C-76.13054013 118.89334824 -73.35890354 117.98634658 -70.41015625 117.14453125 C-69.52705276 116.88173874 -68.64394928 116.61894623 -67.73408508 116.34819031 C-64.8467766 115.49160199 -61.95477933 114.65213453 -59.0625 113.8125 C-57.08181003 113.22786182 -55.10150405 112.64192116 -53.12158203 112.0546875 C-49.20271612 110.89319725 -45.28237517 109.73691589 -41.36083984 108.58447266 C-34.68008293 106.61627798 -28.02539782 104.56844293 -21.375 102.5 C-14.66159048 100.42060668 -7.94016897 98.3854622 -1.1875 96.4375 C8.64031579 93.59960633 18.31605379 90.28977528 28 87 C24.29378768 83.29378768 19.51299319 81.01063326 14.23046875 80.98828125 C13.26753906 81.05402344 12.30460937 81.11976563 11.3125 81.1875 C2.17004701 81.52654237 -6.22639408 76.51437695 -13.1875 70.875 C-15.68065099 68.49546096 -17.67606477 66.22709212 -19 63 C-18.6 58.6 -18.6 58.6 -17 57 C-15.33382885 56.95936168 -13.66611905 56.957279 -12 57 C-12.99390293 54.10111647 -13.95612026 52.0523726 -15.9375 49.6875 C-19.06984954 45.60595363 -21 41.17903428 -21 36 C-13.25 36.875 -13.25 36.875 -11 38 C-12.2287449 34.00148761 -13.59726459 30.44272537 -16 27 C-18.88204515 25.72096098 -21.35217162 25.21926769 -24.4765625 24.85546875 C-27 24 -27 24 -28.65771484 20.9465332 C-29.10066895 19.97417725 -29.54362305 19.00182129 -30 18 C-31.10512939 17.97494385 -32.21025879 17.9498877 -33.34887695 17.92407227 C-37.44714044 17.82993491 -41.54523694 17.72972959 -45.64331055 17.62768555 C-47.41735937 17.58436066 -49.19144923 17.54268381 -50.96557617 17.50268555 C-53.51493705 17.4449238 -56.0640918 17.38124638 -58.61328125 17.31640625 C-59.40712723 17.29969376 -60.20097321 17.28298126 -61.01887512 17.26576233 C-64.24683077 17.17882282 -66.91751099 17.02749634 -70 16 C-70 15.34 -70 14.68 -70 14 C-69.08299316 13.86424561 -68.16598633 13.72849121 -67.22119141 13.58862305 C-63.77234769 13.07445158 -60.32463214 12.55366066 -56.87744141 12.02856445 C-55.39410894 11.8039584 -53.91039002 11.58188753 -52.42626953 11.36254883 C-41.41939883 9.73341321 -31.30605334 7.77920927 -21.25 2.8125 C-13.89409395 -0.46128236 -7.98050659 -0.65493519 0 0 Z " fill="#050505" transform="translate(103,97)"/>
<path d="M0 0 C7.92 0 15.84 0 24 0 C24 7.92 24 15.84 24 24 C31.92 24 39.84 24 48 24 C48 31.92 48 39.84 48 48 C55.92 48 63.84 48 72 48 C72 55.92 72 63.84 72 72 C79.92 72 87.84 72 96 72 C96 79.92 96 87.84 96 96 C103.92 96 111.84 96 120 96 C120 103.92 120 111.84 120 120 C116.04 120 112.08 120 108 120 C107 116 107 116 106.8125 113.75 C105.09613142 107.94075252 100.89357104 103.41806914 96 100 C95.9175 100.5775 95.835 101.155 95.75 101.75 C94.7766189 104.6701433 93.32386725 106.01787793 91 108 C83.16500577 110.61166474 74.48069075 109.191371 67 106 C66.34 105.34 65.68 104.68 65 104 C66.5703125 102.0078125 66.5703125 102.0078125 69 100 C72.2421875 99.6796875 72.2421875 99.6796875 75.875 99.875 C80.80602443 100.1199537 84.3874331 99.81963648 89 98 C89.33 96.02 89.66 94.04 90 92 C86.1841002 88.66657029 82.24021722 86.49676392 77.625 84.5 C76.86316406 84.16669678 76.10132813 83.83339355 75.31640625 83.48999023 C56.55957295 75.41795658 37.36751942 68.28582739 18.02148438 61.76586914 C16.52004883 61.25914673 16.52004883 61.25914673 14.98828125 60.7421875 C13.68177612 60.30688721 13.68177612 60.30688721 12.34887695 59.86279297 C10.13343555 59.04901375 8.08543074 58.10076966 6 57 C6.69144567 49.91268191 8.29560929 43.15599823 10 36.25 C10.27328125 35.12722656 10.5465625 34.00445312 10.828125 32.84765625 C12.72151403 25.07919245 12.72151403 25.07919245 13.57324219 21.77856445 C14.49968095 17.91751963 14.93635421 13.52773581 12.8125 10.0625 C10.57501375 8.75087013 8.55687669 8.34552388 6 8 C6 8.66 6 9.32 6 10 C2.25 11.125 2.25 11.125 0 10 C0 6.7 0 3.4 0 0 Z " fill="#F0F0F0" transform="translate(216,120)"/>
<path d="M0 0 C1.46541625 0.02279659 2.93042392 0.07463871 4.39453125 0.140625 C8.26171875 0.264375 8.26171875 0.264375 12.20703125 0.390625 C12.20703125 8.310625 12.20703125 16.230625 12.20703125 24.390625 C20.12703125 24.390625 28.04703125 24.390625 36.20703125 24.390625 C36.22765625 27.835 36.24828125 31.279375 36.26953125 34.828125 C36.27863525 35.91536865 36.28773926 37.0026123 36.29711914 38.12280273 C36.2996167 38.97302002 36.30211426 39.8232373 36.3046875 40.69921875 C36.30992432 41.57376709 36.31516113 42.44831543 36.32055664 43.34936523 C36.20703125 45.390625 36.20703125 45.390625 35.20703125 46.390625 C31.96855237 46.42264386 28.74109193 46.32201812 25.50390625 46.23046875 C22.28639729 46.19597022 22.28639729 46.19597022 19.84765625 47.39453125 C15.70426235 48.95749788 12.48552218 50.04166456 8.20703125 48.390625 C4.54675967 44.26934804 2.03066405 39.58210236 -0.60546875 34.765625 C-1.34647884 33.46565844 -2.09059314 32.16745616 -2.83789062 30.87109375 C-4.21920872 28.47127788 -5.57662075 26.06322015 -6.92114258 23.64208984 C-8.75916196 20.44934925 -10.71624748 17.4305009 -12.79296875 14.390625 C-11.13928437 10.80764217 -9.02600672 7.63868023 -6.79296875 4.390625 C-6.42429687 3.67390625 -6.055625 2.9571875 -5.67578125 2.21875 C-3.79296875 0.390625 -3.79296875 0.390625 0 0 Z " fill="#ECECEC" transform="translate(107.79296875,95.609375)"/>
<path d="M0 0 C11.88 0 23.76 0 36 0 C36.99 1.98 37.98 3.96 39 6 C41.53264961 6.99428544 41.53264961 6.99428544 44.375 7.25 C47.97407765 8.02701941 49.52999706 8.40172334 51.83203125 11.33203125 C55 17.71361671 55 17.71361671 55 21 C50.05 20.01 50.05 20.01 45 19 C45.99 21.64 46.98 24.28 48 27 C47.01 27.99 46.02 28.98 45 30 C41.7 30 38.4 30 35 30 C35 22.08 35 14.16 35 6 C27.08 6 19.16 6 11 6 C11 13.92 11 21.84 11 30 C3.08 30 -4.84 30 -13 30 C-13 22.08 -13 14.16 -13 6 C-6.565 5.505 -6.565 5.505 0 5 C0 3.35 0 1.7 0 0 Z " fill="#EEEEEE" transform="translate(37,114)"/>
<path d="M0 0 C0.86496094 0.37125 1.72992188 0.7425 2.62109375 1.125 C3.26175781 1.41375 3.90242188 1.7025 4.5625 2 C4.5625 2.99 4.5625 3.98 4.5625 5 C0.6025 5 -3.3575 5 -7.4375 5 C-7.4375 12.92 -7.4375 20.84 -7.4375 29 C-15.3575 29 -23.2775 29 -31.4375 29 C-31.4375 21.08 -31.4375 13.16 -31.4375 5 C-37.0475 5 -42.6575 5 -48.4375 5 C-48.4375 4.67 -48.4375 4.34 -48.4375 4 C-46.7875 3.67 -45.1375 3.34 -43.4375 3 C-43.4375 2.67 -43.4375 2.34 -43.4375 2 C-39.15155274 1.42450989 -34.86485657 0.85506727 -30.57739258 0.29101562 C-29.12144744 0.09863267 -27.66571272 -0.09535022 -26.21020508 -0.29101562 C-24.10812922 -0.57330879 -22.00534319 -0.84968213 -19.90234375 -1.125 C-18.00923462 -1.37636719 -18.00923462 -1.37636719 -16.07788086 -1.6328125 C-10.18117244 -2.22758478 -5.47333805 -2.39927147 0 0 Z " fill="#EEEEEE" transform="translate(199.4375,211)"/>
<path d="M0 0 C1.5625 1.5625 1.5625 1.5625 1.5625 3.5625 C-10.01832304 7.52805456 -21.6978526 11.09890044 -33.4375 14.5625 C-33.4375 15.2225 -33.4375 15.8825 -33.4375 16.5625 C-45.04697797 19.80993855 -56.75307067 22.52766624 -68.52050781 25.13671875 C-71.59321696 25.8193238 -74.6637922 26.51102539 -77.734375 27.203125 C-79.70039853 27.64117428 -81.66654014 28.078694 -83.6328125 28.515625 C-84.54427032 28.72181458 -85.45572815 28.92800415 -86.39480591 29.14044189 C-87.24694672 29.32773865 -88.09908752 29.5150354 -88.97705078 29.70800781 C-89.72012482 29.87359192 -90.46319885 30.03917603 -91.22879028 30.20977783 C-93.70428284 30.60510416 -95.93530909 30.75119478 -98.4375 30.5625 C-100.75 28.5625 -100.75 28.5625 -102.4375 26.5625 C-95.82561428 24.53529626 -89.21343666 22.50904665 -82.60107422 20.48339844 C-80.36110123 19.7970843 -78.12119027 19.11056764 -75.88134766 18.42382812 C-72.62419479 17.42522097 -69.36683729 16.42728485 -66.109375 15.4296875 C-65.03415085 15.10023636 -63.9589267 14.77078522 -62.85112 14.43135071 C-56.96550097 12.63100597 -51.07362357 10.85437428 -45.17320251 9.10319519 C-35.88302736 6.34444056 -26.71513694 3.34425378 -17.60742188 0.02539062 C-11.12745856 -2.22645045 -6.24103926 -3.6806129 0 0 Z " fill="#202020" transform="translate(133.4375,188.4375)"/>
<path d="M0 0 C2.60292899 0.9668022 4.9457407 1.96642892 7.31152344 3.43017578 C10.09656379 5.05638441 12.80676256 6.18195579 15.828125 7.3046875 C17.54999023 7.95195801 17.54999023 7.95195801 19.30664062 8.61230469 C20.52544922 9.07024414 21.74425781 9.52818359 23 10 C24.87033535 10.72735264 26.74064476 11.45478232 28.60923767 12.18659973 C56.84904418 23.24434591 85.2212396 33.87322342 115 40 C116.01707031 40.21011719 117.03414063 40.42023438 118.08203125 40.63671875 C122.22611499 41.15264885 126.32775467 41.18425564 130.5 41.1875 C131.32886719 41.19974609 132.15773438 41.21199219 133.01171875 41.22460938 C137.74931608 41.2359073 141.54658418 40.8290815 146 39 C145.62724214 41.70249451 145.21551151 42.79935135 143.1875 44.6875 C132.64176779 51.01493932 116.64939048 46.47300541 105.60595703 43.82666016 C75.40104681 36.18641799 45.64297642 25.17415231 17 13 C16.08089844 12.65710938 15.16179687 12.31421875 14.21484375 11.9609375 C11.11993814 10.61817422 9.34876013 8.40468299 7 6 C5.74613544 5.060256 4.47470443 4.14353225 3.1875 3.25 C2.135625 2.5075 1.08375 1.765 0 1 C0 0.67 0 0.34 0 0 Z " fill="#2A2A2A" transform="translate(177,197)"/>
<path d="M0 0 C1.79244141 0.01740234 1.79244141 0.01740234 3.62109375 0.03515625 C5.41740234 0.04869141 5.41740234 0.04869141 7.25 0.0625 C8.17683594 0.07410156 9.10367188 0.08570313 10.05859375 0.09765625 C10.05859375 0.42765625 10.05859375 0.75765625 10.05859375 1.09765625 C15.50359375 1.59265625 15.50359375 1.59265625 21.05859375 2.09765625 C21.05859375 10.01765625 21.05859375 17.93765625 21.05859375 26.09765625 C13.13859375 26.09765625 5.21859375 26.09765625 -2.94140625 26.09765625 C-3.13512729 21.9520259 -3.32168317 17.80629379 -3.50390625 13.66015625 C-3.55998047 12.47615234 -3.61605469 11.29214844 -3.67382812 10.07226562 C-3.72216797 8.94755859 -3.77050781 7.82285156 -3.8203125 6.6640625 C-3.86744385 5.62193604 -3.9145752 4.57980957 -3.96313477 3.50610352 C-3.93095377 -0.06092478 -3.60610027 0.11972444 0 0 Z " fill="#FEFEFE" transform="translate(146.94140625,213.90234375)"/>
<path d="M0 0 C7.92 0 15.84 0 24 0 C24 7.92 24 15.84 24 24 C18.72 24 13.44 24 8 24 C7.67 24.66 7.34 25.32 7 26 C2.71 25.67 -1.58 25.34 -6 25 C-6 24.67 -6 24.34 -6 24 C-4.02 24 -2.04 24 0 24 C0 16.08 0 8.16 0 0 Z " fill="#FEFEFE" transform="translate(96,72)"/>
<path d="M0 0 C1.60746056 0.42523816 3.21089836 0.86570126 4.8125 1.3125 C5.70582031 1.55613281 6.59914062 1.79976562 7.51953125 2.05078125 C10.1744818 3.0667702 11.26878093 3.77772603 13 6 C13.2487793 8.17651367 13.2487793 8.17651367 13.07421875 10.66796875 C13.02612061 11.47258545 12.97802246 12.27720215 12.9284668 13.10620117 C12.84894775 14.12302979 12.76942871 15.1398584 12.6875 16.1875 C12.460625 19.425625 12.23375 22.66375 12 26 C4.08 26 -3.84 26 -12 26 C-12 18.08 -12 10.16 -12 2 C-8.04 2 -4.08 2 0 2 C0 1.34 0 0.68 0 0 Z " fill="#FEFEFE" transform="translate(204,214)"/>
<path d="M0 0 C7.92 0 15.84 0 24 0 C25.01044795 3.03134384 25.05032949 4.74395943 24.87890625 7.88671875 C24.81425171 9.154552 24.81425171 9.154552 24.74829102 10.44799805 C24.68697998 11.51703369 24.62566895 12.58606934 24.5625 13.6875 C24.376875 17.090625 24.19125 20.49375 24 24 C16.08 24 8.16 24 0 24 C0 16.08 0 8.16 0 0 Z " fill="#FEFEFE" transform="translate(48,120)"/>
<path d="M0 0 C7.92 0 15.84 0 24 0 C24 7.92 24 15.84 24 24 C16.08 24 8.16 24 0 24 C0 16.08 0 8.16 0 0 Z " fill="#EDEDED" transform="translate(336,336)"/>
<path d="M0 0 C7.92 0 15.84 0 24 0 C24 7.92 24 15.84 24 24 C16.08 24 8.16 24 0 24 C0 16.08 0 8.16 0 0 Z " fill="#FFFFFF" transform="translate(312,336)"/>
<path d="M0 0 C7.92 0 15.84 0 24 0 C24 7.92 24 15.84 24 24 C16.08 24 8.16 24 0 24 C0 16.08 0 8.16 0 0 Z " fill="#EDEDED" transform="translate(288,336)"/>
<path d="M0 0 C7.92 0 15.84 0 24 0 C24 7.92 24 15.84 24 24 C16.08 24 8.16 24 0 24 C0 16.08 0 8.16 0 0 Z " fill="#FFFFFF" transform="translate(264,336)"/>
<path d="M0 0 C7.92 0 15.84 0 24 0 C24 7.92 24 15.84 24 24 C16.08 24 8.16 24 0 24 C0 16.08 0 8.16 0 0 Z " fill="#EDEDED" transform="translate(240,336)"/>
<path d="M0 0 C7.92 0 15.84 0 24 0 C24 7.92 24 15.84 24 24 C16.08 24 8.16 24 0 24 C0 16.08 0 8.16 0 0 Z " fill="#FFFFFF" transform="translate(216,336)"/>
<path d="M0 0 C7.92 0 15.84 0 24 0 C24 7.92 24 15.84 24 24 C16.08 24 8.16 24 0 24 C0 16.08 0 8.16 0 0 Z " fill="#EDEDED" transform="translate(192,336)"/>
<path d="M0 0 C7.92 0 15.84 0 24 0 C24 7.92 24 15.84 24 24 C16.08 24 8.16 24 0 24 C0 16.08 0 8.16 0 0 Z " fill="#FFFFFF" transform="translate(168,336)"/>
<path d="M0 0 C7.92 0 15.84 0 24 0 C24 7.92 24 15.84 24 24 C16.08 24 8.16 24 0 24 C0 16.08 0 8.16 0 0 Z " fill="#EDEDED" transform="translate(144,336)"/>
<path d="M0 0 C7.92 0 15.84 0 24 0 C24 7.92 24 15.84 24 24 C16.08 24 8.16 24 0 24 C0 16.08 0 8.16 0 0 Z " fill="#FFFFFF" transform="translate(120,336)"/>
<path d="M0 0 C7.92 0 15.84 0 24 0 C24 7.92 24 15.84 24 24 C16.08 24 8.16 24 0 24 C0 16.08 0 8.16 0 0 Z " fill="#EDEDED" transform="translate(96,336)"/>
<path d="M0 0 C7.92 0 15.84 0 24 0 C24 7.92 24 15.84 24 24 C16.08 24 8.16 24 0 24 C0 16.08 0 8.16 0 0 Z " fill="#FFFFFF" transform="translate(72,336)"/>
<path d="M0 0 C7.92 0 15.84 0 24 0 C24 7.92 24 15.84 24 24 C16.08 24 8.16 24 0 24 C0 16.08 0 8.16 0 0 Z " fill="#EDEDED" transform="translate(48,336)"/>
<path d="M0 0 C7.92 0 15.84 0 24 0 C24 7.92 24 15.84 24 24 C16.08 24 8.16 24 0 24 C0 16.08 0 8.16 0 0 Z " fill="#FFFFFF" transform="translate(24,336)"/>
<path d="M0 0 C7.92 0 15.84 0 24 0 C24 7.92 24 15.84 24 24 C16.08 24 8.16 24 0 24 C0 16.08 0 8.16 0 0 Z " fill="#EDEDED" transform="translate(0,336)"/>
<path d="M0 0 C7.92 0 15.84 0 24 0 C24 7.92 24 15.84 24 24 C16.08 24 8.16 24 0 24 C0 16.08 0 8.16 0 0 Z " fill="#FFFFFF" transform="translate(336,312)"/>
<path d="M0 0 C7.92 0 15.84 0 24 0 C24 7.92 24 15.84 24 24 C16.08 24 8.16 24 0 24 C0 16.08 0 8.16 0 0 Z " fill="#EDEDED" transform="translate(312,312)"/>
<path d="M0 0 C7.92 0 15.84 0 24 0 C24 7.92 24 15.84 24 24 C16.08 24 8.16 24 0 24 C0 16.08 0 8.16 0 0 Z " fill="#FFFFFF" transform="translate(288,312)"/>
<path d="M0 0 C7.92 0 15.84 0 24 0 C24 7.92 24 15.84 24 24 C16.08 24 8.16 24 0 24 C0 16.08 0 8.16 0 0 Z " fill="#EDEDED" transform="translate(264,312)"/>
<path d="M0 0 C7.92 0 15.84 0 24 0 C24 7.92 24 15.84 24 24 C16.08 24 8.16 24 0 24 C0 16.08 0 8.16 0 0 Z " fill="#FFFFFF" transform="translate(240,312)"/>
<path d="M0 0 C7.92 0 15.84 0 24 0 C24 7.92 24 15.84 24 24 C16.08 24 8.16 24 0 24 C0 16.08 0 8.16 0 0 Z " fill="#EDEDED" transform="translate(216,312)"/>
<path d="M0 0 C7.92 0 15.84 0 24 0 C24 7.92 24 15.84 24 24 C16.08 24 8.16 24 0 24 C0 16.08 0 8.16 0 0 Z " fill="#FFFFFF" transform="translate(192,312)"/>
<path d="M0 0 C7.92 0 15.84 0 24 0 C24 7.92 24 15.84 24 24 C16.08 24 8.16 24 0 24 C0 16.08 0 8.16 0 0 Z " fill="#EDEDED" transform="translate(168,312)"/>
<path d="M0 0 C7.92 0 15.84 0 24 0 C24 7.92 24 15.84 24 24 C16.08 24 8.16 24 0 24 C0 16.08 0 8.16 0 0 Z " fill="#FFFFFF" transform="translate(144,312)"/>
<path d="M0 0 C7.92 0 15.84 0 24 0 C24 7.92 24 15.84 24 24 C16.08 24 8.16 24 0 24 C0 16.08 0 8.16 0 0 Z " fill="#EDEDED" transform="translate(120,312)"/>
<path d="M0 0 C7.92 0 15.84 0 24 0 C24 7.92 24 15.84 24 24 C16.08 24 8.16 24 0 24 C0 16.08 0 8.16 0 0 Z " fill="#FFFFFF" transform="translate(96,312)"/>
<path d="M0 0 C7.92 0 15.84 0 24 0 C24 7.92 24 15.84 24 24 C16.08 24 8.16 24 0 24 C0 16.08 0 8.16 0 0 Z " fill="#EDEDED" transform="translate(72,312)"/>
<path d="M0 0 C7.92 0 15.84 0 24 0 C24 7.92 24 15.84 24 24 C16.08 24 8.16 24 0 24 C0 16.08 0 8.16 0 0 Z " fill="#FFFFFF" transform="translate(48,312)"/>
<path d="M0 0 C7.92 0 15.84 0 24 0 C24 7.92 24 15.84 24 24 C16.08 24 8.16 24 0 24 C0 16.08 0 8.16 0 0 Z " fill="#EDEDED" transform="translate(24,312)"/>
<path d="M0 0 C7.92 0 15.84 0 24 0 C24 7.92 24 15.84 24 24 C16.08 24 8.16 24 0 24 C0 16.08 0 8.16 0 0 Z " fill="#FFFFFF" transform="translate(0,312)"/>
<path d="M0 0 C7.92 0 15.84 0 24 0 C24 7.92 24 15.84 24 24 C16.08 24 8.16 24 0 24 C0 16.08 0 8.16 0 0 Z " fill="#EDEDED" transform="translate(336,288)"/>
<path d="M0 0 C7.92 0 15.84 0 24 0 C24 7.92 24 15.84 24 24 C16.08 24 8.16 24 0 24 C0 16.08 0 8.16 0 0 Z " fill="#FFFFFF" transform="translate(312,288)"/>
<path d="M0 0 C7.92 0 15.84 0 24 0 C24 7.92 24 15.84 24 24 C16.08 24 8.16 24 0 24 C0 16.08 0 8.16 0 0 Z " fill="#EDEDED" transform="translate(288,288)"/>
<path d="M0 0 C7.92 0 15.84 0 24 0 C24 7.92 24 15.84 24 24 C16.08 24 8.16 24 0 24 C0 16.08 0 8.16 0 0 Z " fill="#FFFFFF" transform="translate(264,288)"/>
<path d="M0 0 C7.92 0 15.84 0 24 0 C24 7.92 24 15.84 24 24 C16.08 24 8.16 24 0 24 C0 16.08 0 8.16 0 0 Z " fill="#EDEDED" transform="translate(240,288)"/>
<path d="M0 0 C7.92 0 15.84 0 24 0 C24 7.92 24 15.84 24 24 C16.08 24 8.16 24 0 24 C0 16.08 0 8.16 0 0 Z " fill="#FFFFFF" transform="translate(216,288)"/>
<path d="M0 0 C7.92 0 15.84 0 24 0 C24 7.92 24 15.84 24 24 C16.08 24 8.16 24 0 24 C0 16.08 0 8.16 0 0 Z " fill="#EDEDED" transform="translate(192,288)"/>
<path d="M0 0 C7.92 0 15.84 0 24 0 C24 7.92 24 15.84 24 24 C16.08 24 8.16 24 0 24 C0 16.08 0 8.16 0 0 Z " fill="#FFFFFF" transform="translate(168,288)"/>
<path d="M0 0 C7.92 0 15.84 0 24 0 C24 7.92 24 15.84 24 24 C16.08 24 8.16 24 0 24 C0 16.08 0 8.16 0 0 Z " fill="#EDEDED" transform="translate(144,288)"/>
<path d="M0 0 C7.92 0 15.84 0 24 0 C24 7.92 24 15.84 24 24 C16.08 24 8.16 24 0 24 C0 16.08 0 8.16 0 0 Z " fill="#FFFFFF" transform="translate(120,288)"/>
<path d="M0 0 C7.92 0 15.84 0 24 0 C24 7.92 24 15.84 24 24 C16.08 24 8.16 24 0 24 C0 16.08 0 8.16 0 0 Z " fill="#EDEDED" transform="translate(96,288)"/>
<path d="M0 0 C7.92 0 15.84 0 24 0 C24 7.92 24 15.84 24 24 C16.08 24 8.16 24 0 24 C0 16.08 0 8.16 0 0 Z " fill="#FFFFFF" transform="translate(72,288)"/>
<path d="M0 0 C7.92 0 15.84 0 24 0 C24 7.92 24 15.84 24 24 C16.08 24 8.16 24 0 24 C0 16.08 0 8.16 0 0 Z " fill="#EDEDED" transform="translate(48,288)"/>
<path d="M0 0 C7.92 0 15.84 0 24 0 C24 7.92 24 15.84 24 24 C16.08 24 8.16 24 0 24 C0 16.08 0 8.16 0 0 Z " fill="#FFFFFF" transform="translate(24,288)"/>
<path d="M0 0 C7.92 0 15.84 0 24 0 C24 7.92 24 15.84 24 24 C16.08 24 8.16 24 0 24 C0 16.08 0 8.16 0 0 Z " fill="#EDEDED" transform="translate(0,288)"/>
<path d="M0 0 C7.92 0 15.84 0 24 0 C24 7.92 24 15.84 24 24 C16.08 24 8.16 24 0 24 C0 16.08 0 8.16 0 0 Z " fill="#FFFFFF" transform="translate(336,264)"/>
<path d="M0 0 C7.92 0 15.84 0 24 0 C24 7.92 24 15.84 24 24 C16.08 24 8.16 24 0 24 C0 16.08 0 8.16 0 0 Z " fill="#EDEDED" transform="translate(312,264)"/>
<path d="M0 0 C7.92 0 15.84 0 24 0 C24 7.92 24 15.84 24 24 C16.08 24 8.16 24 0 24 C0 16.08 0 8.16 0 0 Z " fill="#FFFFFF" transform="translate(288,264)"/>
<path d="M0 0 C7.92 0 15.84 0 24 0 C24 7.92 24 15.84 24 24 C16.08 24 8.16 24 0 24 C0 16.08 0 8.16 0 0 Z " fill="#EDEDED" transform="translate(264,264)"/>
<path d="M0 0 C7.92 0 15.84 0 24 0 C24 7.92 24 15.84 24 24 C16.08 24 8.16 24 0 24 C0 16.08 0 8.16 0 0 Z " fill="#FFFFFF" transform="translate(240,264)"/>
<path d="M0 0 C7.92 0 15.84 0 24 0 C24 7.92 24 15.84 24 24 C16.08 24 8.16 24 0 24 C0 16.08 0 8.16 0 0 Z " fill="#EDEDED" transform="translate(216,264)"/>
<path d="M0 0 C7.92 0 15.84 0 24 0 C24 7.92 24 15.84 24 24 C16.08 24 8.16 24 0 24 C0 16.08 0 8.16 0 0 Z " fill="#FFFFFF" transform="translate(192,264)"/>
<path d="M0 0 C7.92 0 15.84 0 24 0 C24 7.92 24 15.84 24 24 C16.08 24 8.16 24 0 24 C0 16.08 0 8.16 0 0 Z " fill="#EDEDED" transform="translate(168,264)"/>
<path d="M0 0 C7.92 0 15.84 0 24 0 C24 7.92 24 15.84 24 24 C16.08 24 8.16 24 0 24 C0 16.08 0 8.16 0 0 Z " fill="#FFFFFF" transform="translate(144,264)"/>
<path d="M0 0 C7.92 0 15.84 0 24 0 C24 7.92 24 15.84 24 24 C16.08 24 8.16 24 0 24 C0 16.08 0 8.16 0 0 Z " fill="#EDEDED" transform="translate(120,264)"/>
<path d="M0 0 C7.92 0 15.84 0 24 0 C24 7.92 24 15.84 24 24 C16.08 24 8.16 24 0 24 C0 16.08 0 8.16 0 0 Z " fill="#FFFFFF" transform="translate(96,264)"/>
<path d="M0 0 C7.92 0 15.84 0 24 0 C24 7.92 24 15.84 24 24 C16.08 24 8.16 24 0 24 C0 16.08 0 8.16 0 0 Z " fill="#EDEDED" transform="translate(72,264)"/>
<path d="M0 0 C7.92 0 15.84 0 24 0 C24 7.92 24 15.84 24 24 C16.08 24 8.16 24 0 24 C0 16.08 0 8.16 0 0 Z " fill="#FFFFFF" transform="translate(48,264)"/>
<path d="M0 0 C7.92 0 15.84 0 24 0 C24 7.92 24 15.84 24 24 C16.08 24 8.16 24 0 24 C0 16.08 0 8.16 0 0 Z " fill="#EDEDED" transform="translate(24,264)"/>
<path d="M0 0 C7.92 0 15.84 0 24 0 C24 7.92 24 15.84 24 24 C16.08 24 8.16 24 0 24 C0 16.08 0 8.16 0 0 Z " fill="#EDEDED" transform="translate(336,240)"/>
<path d="M0 0 C7.92 0 15.84 0 24 0 C24 7.92 24 15.84 24 24 C16.08 24 8.16 24 0 24 C0 16.08 0 8.16 0 0 Z " fill="#EDEDED" transform="translate(240,240)"/>
<path d="M0 0 C7.92 0 15.84 0 24 0 C24 7.92 24 15.84 24 24 C16.08 24 8.16 24 0 24 C0 16.08 0 8.16 0 0 Z " fill="#FFFFFF" transform="translate(216,240)"/>
<path d="M0 0 C7.92 0 15.84 0 24 0 C24 7.92 24 15.84 24 24 C16.08 24 8.16 24 0 24 C0 16.08 0 8.16 0 0 Z " fill="#EDEDED" transform="translate(192,240)"/>
<path d="M0 0 C7.92 0 15.84 0 24 0 C24 7.92 24 15.84 24 24 C16.08 24 8.16 24 0 24 C0 16.08 0 8.16 0 0 Z " fill="#FFFFFF" transform="translate(168,240)"/>
<path d="M0 0 C7.92 0 15.84 0 24 0 C24 7.92 24 15.84 24 24 C16.08 24 8.16 24 0 24 C0 16.08 0 8.16 0 0 Z " fill="#EDEDED" transform="translate(144,240)"/>
<path d="M0 0 C7.92 0 15.84 0 24 0 C24 7.92 24 15.84 24 24 C16.08 24 8.16 24 0 24 C0 16.08 0 8.16 0 0 Z " fill="#FFFFFF" transform="translate(120,240)"/>
<path d="M0 0 C7.92 0 15.84 0 24 0 C24 7.92 24 15.84 24 24 C16.08 24 8.16 24 0 24 C0 16.08 0 8.16 0 0 Z " fill="#EDEDED" transform="translate(96,240)"/>
<path d="M0 0 C7.92 0 15.84 0 24 0 C24 7.92 24 15.84 24 24 C16.08 24 8.16 24 0 24 C0 16.08 0 8.16 0 0 Z " fill="#FFFFFF" transform="translate(72,240)"/>
<path d="M0 0 C7.92 0 15.84 0 24 0 C24 7.92 24 15.84 24 24 C16.08 24 8.16 24 0 24 C0 16.08 0 8.16 0 0 Z " fill="#EDEDED" transform="translate(48,240)"/>
<path d="M0 0 C7.92 0 15.84 0 24 0 C24 7.92 24 15.84 24 24 C16.08 24 8.16 24 0 24 C0 16.08 0 8.16 0 0 Z " fill="#FFFFFF" transform="translate(24,240)"/>
<path d="M0 0 C7.92 0 15.84 0 24 0 C24 7.92 24 15.84 24 24 C16.08 24 8.16 24 0 24 C0 16.08 0 8.16 0 0 Z " fill="#EDEDED" transform="translate(0,240)"/>
<path d="M0 0 C7.92 0 15.84 0 24 0 C24 7.92 24 15.84 24 24 C16.08 24 8.16 24 0 24 C0 16.08 0 8.16 0 0 Z " fill="#FFFFFF" transform="translate(336,216)"/>
<path d="M0 0 C7.92 0 15.84 0 24 0 C24 7.92 24 15.84 24 24 C16.08 24 8.16 24 0 24 C0 16.08 0 8.16 0 0 Z " fill="#EDEDED" transform="translate(336,192)"/>
<path d="M0 0 C7.92 0 15.84 0 24 0 C24 7.92 24 15.84 24 24 C16.08 24 8.16 24 0 24 C0 16.08 0 8.16 0 0 Z " fill="#FFFFFF" transform="translate(312,192)"/>
<path d="M0 0 C7.92 0 15.84 0 24 0 C24 7.92 24 15.84 24 24 C16.08 24 8.16 24 0 24 C0 16.08 0 8.16 0 0 Z " fill="#EDEDED" transform="translate(0,192)"/>
<path d="M0 0 C7.92 0 15.84 0 24 0 C24 7.92 24 15.84 24 24 C16.08 24 8.16 24 0 24 C0 16.08 0 8.16 0 0 Z " fill="#FFFFFF" transform="translate(336,168)"/>
<path d="M0 0 C7.92 0 15.84 0 24 0 C24 7.92 24 15.84 24 24 C16.08 24 8.16 24 0 24 C0 16.08 0 8.16 0 0 Z " fill="#EDEDED" transform="translate(312,168)"/>
<path d="M0 0 C7.92 0 15.84 0 24 0 C24 7.92 24 15.84 24 24 C16.08 24 8.16 24 0 24 C0 16.08 0 8.16 0 0 Z " fill="#FFFFFF" transform="translate(288,168)"/>
<path d="M0 0 C7.92 0 15.84 0 24 0 C24 7.92 24 15.84 24 24 C16.08 24 8.16 24 0 24 C0 16.08 0 8.16 0 0 Z " fill="#FFFFFF" transform="translate(48,168)"/>
<path d="M0 0 C7.92 0 15.84 0 24 0 C24 7.92 24 15.84 24 24 C16.08 24 8.16 24 0 24 C0 16.08 0 8.16 0 0 Z " fill="#EDEDED" transform="translate(24,168)"/>
<path d="M0 0 C7.92 0 15.84 0 24 0 C24 7.92 24 15.84 24 24 C16.08 24 8.16 24 0 24 C0 16.08 0 8.16 0 0 Z " fill="#FFFFFF" transform="translate(0,168)"/>
<path d="M0 0 C7.92 0 15.84 0 24 0 C24 7.92 24 15.84 24 24 C16.08 24 8.16 24 0 24 C0 16.08 0 8.16 0 0 Z " fill="#EDEDED" transform="translate(336,144)"/>
<path d="M0 0 C7.92 0 15.84 0 24 0 C24 7.92 24 15.84 24 24 C16.08 24 8.16 24 0 24 C0 16.08 0 8.16 0 0 Z " fill="#FFFFFF" transform="translate(312,144)"/>
<path d="M0 0 C7.92 0 15.84 0 24 0 C24 7.92 24 15.84 24 24 C16.08 24 8.16 24 0 24 C0 16.08 0 8.16 0 0 Z " fill="#EDEDED" transform="translate(288,144)"/>
<path d="M0 0 C7.92 0 15.84 0 24 0 C24 7.92 24 15.84 24 24 C16.08 24 8.16 24 0 24 C0 16.08 0 8.16 0 0 Z " fill="#FFFFFF" transform="translate(264,144)"/>
<path d="M0 0 C7.92 0 15.84 0 24 0 C24 7.92 24 15.84 24 24 C16.08 24 8.16 24 0 24 C0 16.08 0 8.16 0 0 Z " fill="#EDEDED" transform="translate(240,144)"/>
<path d="M0 0 C7.92 0 15.84 0 24 0 C24 7.92 24 15.84 24 24 C16.08 24 8.16 24 0 24 C0 16.08 0 8.16 0 0 Z " fill="#FFFFFF" transform="translate(24,144)"/>
<path d="M0 0 C7.92 0 15.84 0 24 0 C24 7.92 24 15.84 24 24 C16.08 24 8.16 24 0 24 C0 16.08 0 8.16 0 0 Z " fill="#EDEDED" transform="translate(0,144)"/>
<path d="M0 0 C7.92 0 15.84 0 24 0 C24 7.92 24 15.84 24 24 C16.08 24 8.16 24 0 24 C0 16.08 0 8.16 0 0 Z " fill="#FFFFFF" transform="translate(336,120)"/>
<path d="M0 0 C7.92 0 15.84 0 24 0 C24 7.92 24 15.84 24 24 C16.08 24 8.16 24 0 24 C0 16.08 0 8.16 0 0 Z " fill="#EDEDED" transform="translate(312,120)"/>
<path d="M0 0 C7.92 0 15.84 0 24 0 C24 7.92 24 15.84 24 24 C16.08 24 8.16 24 0 24 C0 16.08 0 8.16 0 0 Z " fill="#FFFFFF" transform="translate(288,120)"/>
<path d="M0 0 C7.92 0 15.84 0 24 0 C24 7.92 24 15.84 24 24 C16.08 24 8.16 24 0 24 C0 16.08 0 8.16 0 0 Z " fill="#EDEDED" transform="translate(264,120)"/>
<path d="M0 0 C7.92 0 15.84 0 24 0 C24 7.92 24 15.84 24 24 C16.08 24 8.16 24 0 24 C0 16.08 0 8.16 0 0 Z " fill="#FFFFFF" transform="translate(240,120)"/>
<path d="M0 0 C7.92 0 15.84 0 24 0 C24 7.92 24 15.84 24 24 C16.08 24 8.16 24 0 24 C0 16.08 0 8.16 0 0 Z " fill="#EDEDED" transform="translate(168,120)"/>
<path d="M0 0 C7.92 0 15.84 0 24 0 C24 7.92 24 15.84 24 24 C16.08 24 8.16 24 0 24 C0 16.08 0 8.16 0 0 Z " fill="#FFFFFF" transform="translate(0,120)"/>
<path d="M0 0 C7.92 0 15.84 0 24 0 C24 7.92 24 15.84 24 24 C16.08 24 8.16 24 0 24 C0 16.08 0 8.16 0 0 Z " fill="#EDEDED" transform="translate(336,96)"/>
<path d="M0 0 C7.92 0 15.84 0 24 0 C24 7.92 24 15.84 24 24 C16.08 24 8.16 24 0 24 C0 16.08 0 8.16 0 0 Z " fill="#FFFFFF" transform="translate(312,96)"/>
<path d="M0 0 C7.92 0 15.84 0 24 0 C24 7.92 24 15.84 24 24 C16.08 24 8.16 24 0 24 C0 16.08 0 8.16 0 0 Z " fill="#EDEDED" transform="translate(288,96)"/>
<path d="M0 0 C7.92 0 15.84 0 24 0 C24 7.92 24 15.84 24 24 C16.08 24 8.16 24 0 24 C0 16.08 0 8.16 0 0 Z " fill="#FFFFFF" transform="translate(264,96)"/>
<path d="M0 0 C7.92 0 15.84 0 24 0 C24 7.92 24 15.84 24 24 C16.08 24 8.16 24 0 24 C0 16.08 0 8.16 0 0 Z " fill="#EDEDED" transform="translate(240,96)"/>
<path d="M0 0 C7.92 0 15.84 0 24 0 C24 7.92 24 15.84 24 24 C16.08 24 8.16 24 0 24 C0 16.08 0 8.16 0 0 Z " fill="#FFFFFF" transform="translate(216,96)"/>
<path d="M0 0 C7.92 0 15.84 0 24 0 C24 7.92 24 15.84 24 24 C16.08 24 8.16 24 0 24 C0 16.08 0 8.16 0 0 Z " fill="#EDEDED" transform="translate(192,96)"/>
<path d="M0 0 C7.92 0 15.84 0 24 0 C24 7.92 24 15.84 24 24 C16.08 24 8.16 24 0 24 C0 16.08 0 8.16 0 0 Z " fill="#FFFFFF" transform="translate(168,96)"/>
<path d="M0 0 C7.92 0 15.84 0 24 0 C24 7.92 24 15.84 24 24 C16.08 24 8.16 24 0 24 C0 16.08 0 8.16 0 0 Z " fill="#EDEDED" transform="translate(144,96)"/>
<path d="M0 0 C7.92 0 15.84 0 24 0 C24 7.92 24 15.84 24 24 C16.08 24 8.16 24 0 24 C0 16.08 0 8.16 0 0 Z " fill="#FFFFFF" transform="translate(120,96)"/>
<path d="M0 0 C7.92 0 15.84 0 24 0 C24 7.92 24 15.84 24 24 C16.08 24 8.16 24 0 24 C0 16.08 0 8.16 0 0 Z " fill="#FFFFFF" transform="translate(336,72)"/>
<path d="M0 0 C7.92 0 15.84 0 24 0 C24 7.92 24 15.84 24 24 C16.08 24 8.16 24 0 24 C0 16.08 0 8.16 0 0 Z " fill="#EDEDED" transform="translate(312,72)"/>
<path d="M0 0 C7.92 0 15.84 0 24 0 C24 7.92 24 15.84 24 24 C16.08 24 8.16 24 0 24 C0 16.08 0 8.16 0 0 Z " fill="#FFFFFF" transform="translate(288,72)"/>
<path d="M0 0 C7.92 0 15.84 0 24 0 C24 7.92 24 15.84 24 24 C16.08 24 8.16 24 0 24 C0 16.08 0 8.16 0 0 Z " fill="#EDEDED" transform="translate(264,72)"/>
<path d="M0 0 C7.92 0 15.84 0 24 0 C24 7.92 24 15.84 24 24 C16.08 24 8.16 24 0 24 C0 16.08 0 8.16 0 0 Z " fill="#FFFFFF" transform="translate(240,72)"/>
<path d="M0 0 C7.92 0 15.84 0 24 0 C24 7.92 24 15.84 24 24 C16.08 24 8.16 24 0 24 C0 16.08 0 8.16 0 0 Z " fill="#EDEDED" transform="translate(216,72)"/>
<path d="M0 0 C7.92 0 15.84 0 24 0 C24 7.92 24 15.84 24 24 C16.08 24 8.16 24 0 24 C0 16.08 0 8.16 0 0 Z " fill="#FFFFFF" transform="translate(192,72)"/>
<path d="M0 0 C7.92 0 15.84 0 24 0 C24 7.92 24 15.84 24 24 C16.08 24 8.16 24 0 24 C0 16.08 0 8.16 0 0 Z " fill="#EDEDED" transform="translate(168,72)"/>
<path d="M0 0 C7.92 0 15.84 0 24 0 C24 7.92 24 15.84 24 24 C16.08 24 8.16 24 0 24 C0 16.08 0 8.16 0 0 Z " fill="#FFFFFF" transform="translate(144,72)"/>
<path d="M0 0 C7.92 0 15.84 0 24 0 C24 7.92 24 15.84 24 24 C16.08 24 8.16 24 0 24 C0 16.08 0 8.16 0 0 Z " fill="#EDEDED" transform="translate(120,72)"/>
<path d="M0 0 C7.92 0 15.84 0 24 0 C24 7.92 24 15.84 24 24 C16.08 24 8.16 24 0 24 C0 16.08 0 8.16 0 0 Z " fill="#FFFFFF" transform="translate(48,72)"/>
<path d="M0 0 C7.92 0 15.84 0 24 0 C24 7.92 24 15.84 24 24 C16.08 24 8.16 24 0 24 C0 16.08 0 8.16 0 0 Z " fill="#EDEDED" transform="translate(24,72)"/>
<path d="M0 0 C7.92 0 15.84 0 24 0 C24 7.92 24 15.84 24 24 C16.08 24 8.16 24 0 24 C0 16.08 0 8.16 0 0 Z " fill="#FFFFFF" transform="translate(0,72)"/>
<path d="M0 0 C7.92 0 15.84 0 24 0 C24 7.92 24 15.84 24 24 C16.08 24 8.16 24 0 24 C0 16.08 0 8.16 0 0 Z " fill="#EDEDED" transform="translate(336,48)"/>
<path d="M0 0 C7.92 0 15.84 0 24 0 C24 7.92 24 15.84 24 24 C16.08 24 8.16 24 0 24 C0 16.08 0 8.16 0 0 Z " fill="#FFFFFF" transform="translate(312,48)"/>
<path d="M0 0 C7.92 0 15.84 0 24 0 C24 7.92 24 15.84 24 24 C16.08 24 8.16 24 0 24 C0 16.08 0 8.16 0 0 Z " fill="#EDEDED" transform="translate(288,48)"/>
<path d="M0 0 C7.92 0 15.84 0 24 0 C24 7.92 24 15.84 24 24 C16.08 24 8.16 24 0 24 C0 16.08 0 8.16 0 0 Z " fill="#FFFFFF" transform="translate(264,48)"/>
<path d="M0 0 C7.92 0 15.84 0 24 0 C24 7.92 24 15.84 24 24 C16.08 24 8.16 24 0 24 C0 16.08 0 8.16 0 0 Z " fill="#EDEDED" transform="translate(240,48)"/>
<path d="M0 0 C7.92 0 15.84 0 24 0 C24 7.92 24 15.84 24 24 C16.08 24 8.16 24 0 24 C0 16.08 0 8.16 0 0 Z " fill="#FFFFFF" transform="translate(216,48)"/>
<path d="M0 0 C7.92 0 15.84 0 24 0 C24 7.92 24 15.84 24 24 C16.08 24 8.16 24 0 24 C0 16.08 0 8.16 0 0 Z " fill="#EDEDED" transform="translate(192,48)"/>
<path d="M0 0 C7.92 0 15.84 0 24 0 C24 7.92 24 15.84 24 24 C16.08 24 8.16 24 0 24 C0 16.08 0 8.16 0 0 Z " fill="#FFFFFF" transform="translate(168,48)"/>
<path d="M0 0 C7.92 0 15.84 0 24 0 C24 7.92 24 15.84 24 24 C16.08 24 8.16 24 0 24 C0 16.08 0 8.16 0 0 Z " fill="#EDEDED" transform="translate(144,48)"/>
<path d="M0 0 C7.92 0 15.84 0 24 0 C24 7.92 24 15.84 24 24 C16.08 24 8.16 24 0 24 C0 16.08 0 8.16 0 0 Z " fill="#FFFFFF" transform="translate(120,48)"/>
<path d="M0 0 C7.92 0 15.84 0 24 0 C24 7.92 24 15.84 24 24 C16.08 24 8.16 24 0 24 C0 16.08 0 8.16 0 0 Z " fill="#EDEDED" transform="translate(96,48)"/>
<path d="M0 0 C7.92 0 15.84 0 24 0 C24 7.92 24 15.84 24 24 C16.08 24 8.16 24 0 24 C0 16.08 0 8.16 0 0 Z " fill="#FFFFFF" transform="translate(72,48)"/>
<path d="M0 0 C7.92 0 15.84 0 24 0 C24 7.92 24 15.84 24 24 C16.08 24 8.16 24 0 24 C0 16.08 0 8.16 0 0 Z " fill="#EDEDED" transform="translate(48,48)"/>
<path d="M0 0 C7.92 0 15.84 0 24 0 C24 7.92 24 15.84 24 24 C16.08 24 8.16 24 0 24 C0 16.08 0 8.16 0 0 Z " fill="#FFFFFF" transform="translate(24,48)"/>
<path d="M0 0 C7.92 0 15.84 0 24 0 C24 7.92 24 15.84 24 24 C16.08 24 8.16 24 0 24 C0 16.08 0 8.16 0 0 Z " fill="#EDEDED" transform="translate(0,48)"/>
<path d="M0 0 C7.92 0 15.84 0 24 0 C24 7.92 24 15.84 24 24 C16.08 24 8.16 24 0 24 C0 16.08 0 8.16 0 0 Z " fill="#FFFFFF" transform="translate(336,24)"/>
<path d="M0 0 C7.92 0 15.84 0 24 0 C24 7.92 24 15.84 24 24 C16.08 24 8.16 24 0 24 C0 16.08 0 8.16 0 0 Z " fill="#EDEDED" transform="translate(312,24)"/>
<path d="M0 0 C7.92 0 15.84 0 24 0 C24 7.92 24 15.84 24 24 C16.08 24 8.16 24 0 24 C0 16.08 0 8.16 0 0 Z " fill="#FFFFFF" transform="translate(288,24)"/>
<path d="M0 0 C7.92 0 15.84 0 24 0 C24 7.92 24 15.84 24 24 C16.08 24 8.16 24 0 24 C0 16.08 0 8.16 0 0 Z " fill="#EDEDED" transform="translate(264,24)"/>
<path d="M0 0 C7.92 0 15.84 0 24 0 C24 7.92 24 15.84 24 24 C16.08 24 8.16 24 0 24 C0 16.08 0 8.16 0 0 Z " fill="#FFFFFF" transform="translate(240,24)"/>
<path d="M0 0 C7.92 0 15.84 0 24 0 C24 7.92 24 15.84 24 24 C16.08 24 8.16 24 0 24 C0 16.08 0 8.16 0 0 Z " fill="#EDEDED" transform="translate(216,24)"/>
<path d="M0 0 C7.92 0 15.84 0 24 0 C24 7.92 24 15.84 24 24 C16.08 24 8.16 24 0 24 C0 16.08 0 8.16 0 0 Z " fill="#FFFFFF" transform="translate(192,24)"/>
<path d="M0 0 C7.92 0 15.84 0 24 0 C24 7.92 24 15.84 24 24 C16.08 24 8.16 24 0 24 C0 16.08 0 8.16 0 0 Z " fill="#EDEDED" transform="translate(168,24)"/>
<path d="M0 0 C7.92 0 15.84 0 24 0 C24 7.92 24 15.84 24 24 C16.08 24 8.16 24 0 24 C0 16.08 0 8.16 0 0 Z " fill="#FFFFFF" transform="translate(144,24)"/>
<path d="M0 0 C7.92 0 15.84 0 24 0 C24 7.92 24 15.84 24 24 C16.08 24 8.16 24 0 24 C0 16.08 0 8.16 0 0 Z " fill="#EDEDED" transform="translate(120,24)"/>
<path d="M0 0 C7.92 0 15.84 0 24 0 C24 7.92 24 15.84 24 24 C16.08 24 8.16 24 0 24 C0 16.08 0 8.16 0 0 Z " fill="#FFFFFF" transform="translate(96,24)"/>
<path d="M0 0 C7.92 0 15.84 0 24 0 C24 7.92 24 15.84 24 24 C16.08 24 8.16 24 0 24 C0 16.08 0 8.16 0 0 Z " fill="#EDEDED" transform="translate(72,24)"/>
<path d="M0 0 C7.92 0 15.84 0 24 0 C24 7.92 24 15.84 24 24 C16.08 24 8.16 24 0 24 C0 16.08 0 8.16 0 0 Z " fill="#FFFFFF" transform="translate(48,24)"/>
<path d="M0 0 C7.92 0 15.84 0 24 0 C24 7.92 24 15.84 24 24 C16.08 24 8.16 24 0 24 C0 16.08 0 8.16 0 0 Z " fill="#EDEDED" transform="translate(24,24)"/>
<path d="M0 0 C7.92 0 15.84 0 24 0 C24 7.92 24 15.84 24 24 C16.08 24 8.16 24 0 24 C0 16.08 0 8.16 0 0 Z " fill="#FFFFFF" transform="translate(0,24)"/>
<path d="M0 0 C7.92 0 15.84 0 24 0 C24 7.92 24 15.84 24 24 C16.08 24 8.16 24 0 24 C0 16.08 0 8.16 0 0 Z " fill="#EDEDED" transform="translate(336,0)"/>
<path d="M0 0 C7.92 0 15.84 0 24 0 C24 7.92 24 15.84 24 24 C16.08 24 8.16 24 0 24 C0 16.08 0 8.16 0 0 Z " fill="#FFFFFF" transform="translate(312,0)"/>
<path d="M0 0 C7.92 0 15.84 0 24 0 C24 7.92 24 15.84 24 24 C16.08 24 8.16 24 0 24 C0 16.08 0 8.16 0 0 Z " fill="#EDEDED" transform="translate(288,0)"/>
<path d="M0 0 C7.92 0 15.84 0 24 0 C24 7.92 24 15.84 24 24 C16.08 24 8.16 24 0 24 C0 16.08 0 8.16 0 0 Z " fill="#FFFFFF" transform="translate(264,0)"/>
<path d="M0 0 C7.92 0 15.84 0 24 0 C24 7.92 24 15.84 24 24 C16.08 24 8.16 24 0 24 C0 16.08 0 8.16 0 0 Z " fill="#EDEDED" transform="translate(240,0)"/>
<path d="M0 0 C7.92 0 15.84 0 24 0 C24 7.92 24 15.84 24 24 C16.08 24 8.16 24 0 24 C0 16.08 0 8.16 0 0 Z " fill="#FFFFFF" transform="translate(216,0)"/>
<path d="M0 0 C7.92 0 15.84 0 24 0 C24 7.92 24 15.84 24 24 C16.08 24 8.16 24 0 24 C0 16.08 0 8.16 0 0 Z " fill="#EDEDED" transform="translate(192,0)"/>
<path d="M0 0 C7.92 0 15.84 0 24 0 C24 7.92 24 15.84 24 24 C16.08 24 8.16 24 0 24 C0 16.08 0 8.16 0 0 Z " fill="#FFFFFF" transform="translate(168,0)"/>
<path d="M0 0 C7.92 0 15.84 0 24 0 C24 7.92 24 15.84 24 24 C16.08 24 8.16 24 0 24 C0 16.08 0 8.16 0 0 Z " fill="#EDEDED" transform="translate(144,0)"/>
<path d="M0 0 C7.92 0 15.84 0 24 0 C24 7.92 24 15.84 24 24 C16.08 24 8.16 24 0 24 C0 16.08 0 8.16 0 0 Z " fill="#FFFFFF" transform="translate(120,0)"/>
<path d="M0 0 C7.92 0 15.84 0 24 0 C24 7.92 24 15.84 24 24 C16.08 24 8.16 24 0 24 C0 16.08 0 8.16 0 0 Z " fill="#EDEDED" transform="translate(96,0)"/>
<path d="M0 0 C7.92 0 15.84 0 24 0 C24 7.92 24 15.84 24 24 C16.08 24 8.16 24 0 24 C0 16.08 0 8.16 0 0 Z " fill="#FFFFFF" transform="translate(72,0)"/>
<path d="M0 0 C7.92 0 15.84 0 24 0 C24 7.92 24 15.84 24 24 C16.08 24 8.16 24 0 24 C0 16.08 0 8.16 0 0 Z " fill="#EDEDED" transform="translate(48,0)"/>
<path d="M0 0 C7.92 0 15.84 0 24 0 C24 7.92 24 15.84 24 24 C16.08 24 8.16 24 0 24 C0 16.08 0 8.16 0 0 Z " fill="#EDEDED" transform="translate(0,0)"/>
<path d="M0 0 C1 1 1 1 1.11352539 3.31665039 C1.10828857 4.31688232 1.10305176 5.31711426 1.09765625 6.34765625 C1.09515869 7.31968994 1.09266113 8.29172363 1.09008789 9.29321289 C1.08098389 10.53707764 1.07187988 11.78094238 1.0625 13.0625 C1.041875 17.001875 1.02125 20.94125 1 25 C-6.92 25 -14.84 25 -23 25 C-23 17.41 -23 9.82 -23 2 C-20.504375 1.67 -18.00875 1.34 -15.4375 1 C-14.66591553 0.89558594 -13.89433105 0.79117188 -13.09936523 0.68359375 C-8.70946609 0.11968164 -4.43637937 -0.18270803 0 0 Z " fill="#EDEDED" transform="translate(143,215)"/>
<path d="M0 0 C4.69848693 0.03380206 9.31624605 0.57420419 14 1 C14 8.92 14 16.84 14 25 C6.08 25 -1.84 25 -10 25 C-10 19.06 -10 13.12 -10 7 C-10.99 6.67 -11.98 6.34 -13 6 C-12.22914063 5.73445312 -11.45828125 5.46890625 -10.6640625 5.1953125 C-9.66117187 4.84210938 -8.65828125 4.48890625 -7.625 4.125 C-6.62726563 3.77695313 -5.62953125 3.42890625 -4.6015625 3.0703125 C-1.89557882 2.15217498 -1.89557882 2.15217498 0 0 Z " fill="#FEFEFE" transform="translate(322,239)"/>
<path d="M0 0 C7.92 0 15.84 0 24 0 C24 3.3 24 6.6 24 10 C24.66 10 25.32 10 26 10 C24.45688712 13.96155879 21.96708452 15.93971996 18.6875 18.5625 C17.74261719 19.32691406 16.79773438 20.09132812 15.82421875 20.87890625 C13.2916553 22.78095598 10.74880831 24.43282878 8 26 C8 25.34 8 24.68 8 24 C5.36 24 2.72 24 0 24 C0 16.08 0 8.16 0 0 Z " fill="#FCFCFC" transform="translate(192,120)"/>
<path d="M0 0 C-0.99 0.33 -1.98 0.66 -3 1 C-3 7.93 -3 14.86 -3 22 C-10.92 22 -18.84 22 -27 22 C-27 16.06 -27 10.12 -27 4 C-28.32 3.67 -29.64 3.34 -31 3 C-28.81639682 0.81639682 -24.15863596 1.24610239 -21.125 0.9375 C-19.83565552 0.80335693 -19.83565552 0.80335693 -18.52026367 0.66650391 C-12.33251051 0.05512338 -6.21942145 -0.2515721 0 0 Z " fill="#FDFDFD" transform="translate(123,218)"/>
<path d="M0 0 C3.3 0.33 6.6 0.66 10 1 C12.54078927 1.19903668 15.08240716 1.38800833 17.625 1.5625 C20.780625 1.7790625 20.780625 1.7790625 24 2 C24 8.6 24 15.2 24 22 C16.08 22 8.16 22 0 22 C0 14.74 0 7.48 0 0 Z " fill="#EDEDED" transform="translate(288,242)"/>
<path d="M0 0 C7.92 0 15.84 0 24 0 C24 6.93 24 13.86 24 21 C24.66 21.33 25.32 21.66 26 22 C26 22.66 26 23.32 26 24 C19.91433926 23.32611934 14.39849637 21.15369439 8.6875 19.0625 C7.67365234 18.70220703 6.65980469 18.34191406 5.61523438 17.97070312 C4.65294922 17.62072266 3.69066406 17.27074219 2.69921875 16.91015625 C1.38183716 16.43267944 1.38183716 16.43267944 0.0378418 15.94555664 C-2 15 -2 15 -3 13 C-2.01 13 -1.02 13 0 13 C0 8.71 0 4.42 0 0 Z " fill="#FCFCFC" transform="translate(240,168)"/>
<path d="M0 0 C7.92 0 15.84 0 24 0 C24 3.96 24 7.92 24 12 C26.64 11.34 29.28 10.68 32 10 C32.495 10.99 32.495 10.99 33 12 C30.31374546 12.50763865 27.62631617 13.00627197 24.9375 13.5 C24.18533203 13.64308594 23.43316406 13.78617188 22.65820312 13.93359375 C18.02259825 14.776431 13.7110385 15.15015262 9 15 C9 15.66 9 16.32 9 17 C10.32 17.33 11.64 17.66 13 18 C13.38218767 19.65614657 13.71395102 21.32457024 14 23 C13 24 13 24 10.05859375 24.09765625 C6.70572917 24.06510417 3.35286458 24.03255208 0 24 C0 16.08 0 8.16 0 0 Z " fill="#FDFDFD" transform="translate(24,96)"/>
<path d="M0 0 C0 5.94 0 11.88 0 18 C-7.92 18 -15.84 18 -24 18 C-24 12.72 -24 7.44 -24 2 C-22.35 1.67 -20.7 1.34 -19 1 C-19 0.67 -19 0.34 -19 0 C-12.4857805 -1.08570325 -6.49372246 -1.62343061 0 0 Z " fill="#EDEDED" transform="translate(96,222)"/>
<path d="M0 0 C7.54117764 2.05213462 14.99337113 4.50245709 22 8 C23 10 23 10 23 21 C15.08 21 7.16 21 -1 21 C-1.020625 17.720625 -1.04125 14.44125 -1.0625 11.0625 C-1.071604 10.02746338 -1.08070801 8.99242676 -1.09008789 7.92602539 C-1.09383423 6.71160767 -1.09383423 6.71160767 -1.09765625 5.47265625 C-1.10289307 4.64000244 -1.10812988 3.80734863 -1.11352539 2.94946289 C-1 1 -1 1 0 0 Z " fill="#EDEDED" transform="translate(217,219)"/>
<path d="M0 0 C0.66 0 1.32 0 2 0 C2.433125 0.928125 2.86625 1.85625 3.3125 2.8125 C4.74969877 5.92812418 4.74969877 5.92812418 6.6875 7.625 C8 9 8 9 8 13 C6.02 13.66 4.04 14.32 2 15 C2.40208382 20.62917348 4.28930302 23.00386479 8 27 C7.67 27.66 7.34 28.32 7 29 C6.67 28.67 6.34 28.34 6 28 C3.13944586 27.76284045 0.30272344 27.57809383 -2.5625 27.4375 C-5.346875 27.293125 -8.13125 27.14875 -11 27 C-11 19.08 -11 11.16 -11 3 C-6.545 2.505 -6.545 2.505 -2 2 C-1.34 1.34 -0.68 0.68 0 0 Z " fill="#F9F9F9" transform="translate(83,141)"/>
<path d="M0 0 C7.92 0 15.84 0 24 0 C24 7.92 24 15.84 24 24 C21.03 24.33 18.06 24.66 15 25 C14.34 25.33 13.68 25.66 13 26 C13.165 25.175 13.33 24.35 13.5 23.5 C14.68739367 16.55830509 14.68739367 16.55830509 12.8125 10.0625 C10.57501375 8.75087013 8.55687669 8.34552388 6 8 C6 8.66 6 9.32 6 10 C2.25 11.125 2.25 11.125 0 10 C0 6.7 0 3.4 0 0 Z " fill="#ECECEC" transform="translate(216,120)"/>
<path d="M0 0 C7.92 0 15.84 0 24 0 C24 3.63 24 7.26 24 11 C21.10538781 11.9829057 18.20941921 12.96143701 15.3125 13.9375 C14.49587891 14.21529297 13.67925781 14.49308594 12.83789062 14.77929688 C4.57559743 17.55569499 4.57559743 17.55569499 1 18 C0 17 0 17 -0.09765625 13.18359375 C-0.09191138 11.60152953 -0.07889593 10.01948969 -0.0625 8.4375 C-0.041875 5.653125 -0.02125 2.86875 0 0 Z " fill="#EEEEEE" transform="translate(48,192)"/>
<path d="M0 0 C-0.43119141 0.84111328 -0.43119141 0.84111328 -0.87109375 1.69921875 C-2.03630668 3.98402578 -2.03630668 3.98402578 -2.91015625 6.39453125 C-4.31550364 9.34337883 -5.3857931 11.00141064 -8 13 C-13.78552669 13.59687252 -19.27083025 12.84564918 -25 12 C-26.93626626 11.76063294 -28.87356845 11.52922111 -30.8125 11.3125 C-31.54082031 11.20550781 -32.26914063 11.09851563 -33.01953125 10.98828125 C-35.49560111 11.00293255 -36.7978114 11.88491721 -39 13 C-46.94919957 14.62187699 -54.89783468 15.33603451 -63 15 C-63 14.34 -63 13.68 -63 13 C-62.19071045 12.89042969 -61.3814209 12.78085938 -60.54760742 12.66796875 C-46.4538377 10.70069881 -33.20467091 8.84255199 -20.26123047 2.609375 C-13.40485912 -0.58353542 -7.56503976 -0.88855279 0 0 Z " fill="#0F0F0F" transform="translate(103,97)"/>
<path d="M0 0 C2.01822917 0.55338542 4.03645833 1.10677083 6.0546875 1.66015625 C8.07273593 2.21132607 8.07273593 2.21132607 10 1 C12.69565202 1.16780163 15.32405554 1.61155645 18 2 C17.34 2.66 16.68 3.32 16 4 C18.64 3.67 21.28 3.34 24 3 C24 7.29 24 11.58 24 16 C16.08 16 8.16 16 0 16 C0 10.72 0 5.44 0 0 Z " fill="#ECECEC" transform="translate(24,224)"/>
<path d="M0 0 C4.75917161 0.72080657 8.77015091 1.37011208 11.77734375 5.35546875 C15 11.82880435 15 11.82880435 15 15 C11.7 14.34 8.4 13.68 5 13 C5.99 15.64 6.98 18.28 8 21 C7.01 21.99 6.02 22.98 5 24 C1.7 24 -1.6 24 -5 24 C-5 17.07 -5 10.14 -5 3 C-4.34 3 -3.68 3 -3 3 C-2.67 3.99 -2.34 4.98 -2 6 C-0.70644173 7.37195574 0.62298702 8.71182656 2 10 C1.01 7.03 0.02 4.06 -1 1 C-0.67 0.67 -0.34 0.34 0 0 Z " fill="#ECECEC" transform="translate(77,120)"/>
<path d="M0 0 C5.61 0 11.22 0 17 0 C17 7.26 17 14.52 17 22 C18.32 22.33 19.64 22.66 21 23 C21 23.33 21 23.66 21 24 C16.07790659 24.89051032 16.07790659 24.89051032 13 24 C10.0186675 20.95281166 8.07282319 17.39104074 6 13.6875 C5.12408203 12.22280273 5.12408203 12.22280273 4.23046875 10.72851562 C0 3.52086688 0 3.52086688 0 0 Z " fill="#FAFAFA" transform="translate(103,120)"/>
<path d="M0 0 C2.875 2 2.875 2 5 4 C-0.51398797 6.20559519 -6.07243249 8.26212853 -12 9 C-12.66 8.67 -13.32 8.34 -14 8 C-13.67 8.66 -13.34 9.32 -13 10 C-30.23509561 15.92125984 -30.23509561 15.92125984 -38 15 C-38.99 14.34 -39.98 13.68 -41 13 C-41 12.34 -41 11.68 -41 11 C-40.25951416 10.7733667 -39.51902832 10.5467334 -38.75610352 10.31323242 C-35.35788483 9.27246328 -31.96018998 8.22999381 -28.5625 7.1875 C-27.39783203 6.83107422 -26.23316406 6.47464844 -25.03320312 6.10742188 C-19.26212697 4.33545765 -13.5097972 2.54056312 -7.80932617 0.55175781 C-5.03231698 -0.29509697 -2.86464975 -0.45573973 0 0 Z " fill="#0F0F0F" transform="translate(128,187)"/>
<path d="M0 0 C2.3125 -0.25 2.3125 -0.25 5 0 C6.9375 1.625 6.9375 1.625 8 4 C7.16162022 8.02422296 5.6422749 10.87731148 3 14 C3.53725895 10.62294375 4.11064623 7.303314 5 4 C3.68 4 2.36 4 1 4 C0.7525 4.928125 0.505 5.85625 0.25 6.8125 C-1.10250966 10.26139964 -1.96495729 11.06860919 -5 13 C-5.45375 13.556875 -5.9075 14.11375 -6.375 14.6875 C-8.81503527 16.65829771 -10.97292391 16.20180507 -14 16 C-14.2371875 16.54269531 -14.474375 17.08539063 -14.71875 17.64453125 C-16.33862072 20.62252528 -18.34742591 23.07016559 -20.5 25.6875 C-21.2940625 26.66074219 -22.088125 27.63398438 -22.90625 28.63671875 C-25 31 -25 31 -27 32 C-26.67 31.01 -26.34 30.02 -26 29 C-27.98 28.34 -29.96 27.68 -32 27 C-28.43900899 23.34685765 -24.72542083 19.96318877 -20.8125 16.6875 C-20.24732666 16.21328613 -19.68215332 15.73907227 -19.09985352 15.25048828 C-17.40259018 13.83040237 -15.70138748 12.41513985 -14 11 C-13.03320312 10.18917969 -12.06640625 9.37835938 -11.0703125 8.54296875 C-9.76707031 7.46982422 -9.76707031 7.46982422 -8.4375 6.375 C-7.67308594 5.74335938 -6.90867188 5.11171875 -6.12109375 4.4609375 C-4.02396307 3.01650495 -2.4903749 2.41788604 0 2 C0 1.34 0 0.68 0 0 Z " fill="#080808" transform="translate(222,128)"/>
<path d="M0 0 C3.92052503 1.25209544 7.64947755 2.66952265 11.38671875 4.390625 C24.06644969 10.14790279 36.5935567 15.2129594 50 19 C50.33 18.34 50.66 17.68 51 17 C49.35 16.67 47.7 16.34 46 16 C46.33 14.35 46.66 12.7 47 11 C49.86724686 11.57344937 50.8614515 11.8614515 53 14 C55.06874034 14.6425235 55.06874034 14.6425235 57 15 C56.505 17.475 56.505 17.475 56 20 C55.34 20 54.68 20 54 20 C54 20.66 54 21.32 54 22 C54.99 22.33 55.98 22.66 57 23 C55 24 55 24 51.9375 23.1875 C49 22 49 22 48 20 C40.43004912 17.2150412 32.19922085 15.91109437 24.3125 14.3125 C22.66991211 13.97508789 22.66991211 13.97508789 20.99414062 13.63085938 C18.33005588 13.08408216 15.66536115 12.54051433 13 12 C13 11.34 13 10.68 13 10 C12.36191406 9.82984375 11.72382813 9.6596875 11.06640625 9.484375 C10.24011719 9.24203125 9.41382813 8.9996875 8.5625 8.75 C7.32693359 8.40195313 7.32693359 8.40195313 6.06640625 8.046875 C4 7 4 7 3.3125 5 C3.209375 4.34 3.10625 3.68 3 3 C1.52109931 1.26973898 1.52109931 1.26973898 0 0 Z " fill="#434343" transform="translate(120,173)"/>
<path d="M0 0 C2.78833402 1.34919388 3.60481971 3.20550541 4.9375 5.9375 C4.9375 6.5975 4.9375 7.2575 4.9375 7.9375 C-1.31967402 11.99620747 -7.82319284 11.83972635 -14.92578125 10.328125 C-21.55113636 8.44886364 -21.55113636 8.44886364 -24.0625 5.9375 C-22.5 3.9453125 -22.5 3.9453125 -20.0625 1.9375 C-16.75 1.6171875 -16.75 1.6171875 -13.0625 1.8125 C-8.14757625 2.0519984 -4.36253333 -0.13219798 0 0 Z " fill="#E5E5E5" transform="translate(305.0625,218.0625)"/>
<path d="M0 0 C1.05960938 0.00676758 1.05960938 0.00676758 2.140625 0.01367188 C3.88545275 0.02546125 5.630237 0.04339676 7.375 0.0625 C7.375 4.3525 7.375 8.6425 7.375 13.0625 C1.9372398 14.15005204 0.50613638 13.67236456 -4.4375 11.625 C-5.59894531 11.15191406 -6.76039063 10.67882812 -7.95703125 10.19140625 C-8.83746094 9.81886719 -9.71789062 9.44632813 -10.625 9.0625 C-10.0390625 2.91015625 -10.0390625 2.91015625 -9.625 1.0625 C-6.55966836 -0.47016582 -3.35745728 -0.04026471 0 0 Z " fill="#EDEDED" transform="translate(232.625,167.9375)"/>
<path d="M0 0 C1.18851562 0.28875 2.37703125 0.5775 3.6015625 0.875 C16.90520521 3.92013437 32.55534946 6.79467623 46 3 C45.375 4.875 45.375 4.875 44 7 C30.4799812 12.65164745 14.37651619 8.02876066 1 4 C0.34 3.67 -0.32 3.34 -1 3 C-0.67 2.01 -0.34 1.02 0 0 Z " fill="#0C0C0C" transform="translate(276,235)"/>
<path d="M0 0 C0.66 0.33 1.32 0.66 2 1 C1.67 1.66 1.34 2.32 1 3 C2.65 3 4.3 3 6 3 C6 3.66 6 4.32 6 5 C4.02 5 2.04 5 0 5 C-0.2371875 5.54269531 -0.474375 6.08539063 -0.71875 6.64453125 C-2.33862072 9.62252528 -4.34742591 12.07016559 -6.5 14.6875 C-7.2940625 15.66074219 -8.088125 16.63398438 -8.90625 17.63671875 C-11 20 -11 20 -13 21 C-12.67 20.01 -12.34 19.02 -12 18 C-13.98 17.34 -15.96 16.68 -18 16 C-14.25333462 12.14044075 -10.31478678 8.63380746 -6.1875 5.1875 C-5.59001953 4.68541016 -4.99253906 4.18332031 -4.37695312 3.66601562 C-2.91971152 2.44193268 -1.46010135 1.22067038 0 0 Z " fill="#0C0C0C" transform="translate(208,139)"/>
<path d="M0 0 C4.75917161 0.72080657 8.77015091 1.37011208 11.77734375 5.35546875 C15 11.82880435 15 11.82880435 15 15 C11.37 14.67 7.74 14.34 4 14 C3.13395466 12.23494565 2.28251358 10.46271926 1.4375 8.6875 C0.72400391 7.20830078 0.72400391 7.20830078 -0.00390625 5.69921875 C-1 3 -1 3 0 0 Z " fill="#242424" transform="translate(77,120)"/>
<path d="M0 0 C7.625 0.875 7.625 0.875 11 2 C11.74609375 3.7421875 11.74609375 3.7421875 12.4375 5.875 C13.84549607 8.94399143 14.60282063 9.82736238 17.75 11.1953125 C25.94973171 13.47883897 25.94973171 13.47883897 34 12 C33.67 12.99 33.34 13.98 33 15 C26.14667986 15.38792378 20.53006607 13.99955127 14 12 C13.03449219 11.71382812 12.06898437 11.42765625 11.07421875 11.1328125 C8.71308158 10.43148463 6.35537187 9.72040658 4 9 C3.67 9.66 3.34 10.32 3 11 C2.49384702 9.73160474 1.99530901 8.46016898 1.5 7.1875 C1.2215625 6.47980469 0.943125 5.77210938 0.65625 5.04296875 C0 3 0 3 0 0 Z " fill="#2C2C2C" transform="translate(82,133)"/>
<path d="M0 0 C6.6 0 13.2 0 20 0 C20 2.64 20 5.28 20 8 C20.99 8.33 21.98 8.66 23 9 C19.42515711 10.1916143 18.71412118 9.74788456 15.33203125 8.34765625 C14.43935547 7.98349609 13.54667969 7.61933594 12.62695312 7.24414062 C11.69818359 6.85419922 10.76941406 6.46425781 9.8125 6.0625 C8.87212891 5.67642578 7.93175781 5.29035156 6.96289062 4.89257812 C4.63830372 3.93678351 2.31770801 2.97232993 0 2 C0 1.34 0 0.68 0 0 Z " fill="#F5F5F5" transform="translate(268,192)"/>
<path d="M0 0 C2.875 2 2.875 2 5 4 C-6.53341289 8.61336516 -6.53341289 8.61336516 -12 9 C-14.5625 7.625 -14.5625 7.625 -16 6 C-15 3 -15 3 -13.14453125 2.05078125 C-4.43697479 -0.70588235 -4.43697479 -0.70588235 0 0 Z " fill="#060606" transform="translate(128,187)"/>
<path d="M0 0 C4.62 0 9.24 0 14 0 C14.125 11.75 14.125 11.75 13 14 C11.35 13.67 9.7 13.34 8 13 C7.79375 11.72125 7.5875 10.4425 7.375 9.125 C6.91516467 6.92186032 6.91516467 6.92186032 6 5 C3.00571856 3.38852558 3.00571856 3.38852558 0 3 C0 2.01 0 1.02 0 0 Z " fill="#EAEAEA" transform="translate(154,144)"/>
<path d="M0 0 C5.94 0 11.88 0 18 0 C14.85852075 3.14147925 11.9477271 4.53527012 7.9375 6.1875 C7.30005859 6.46013672 6.66261719 6.73277344 6.00585938 7.01367188 C1.28148496 9 1.28148496 9 -1 9 C-0.67 6.03 -0.34 3.06 0 0 Z " fill="#F5F5F5" transform="translate(72,96)"/>
<path d="M0 0 C0.33 0.66 0.66 1.32 1 2 C3.97 2 6.94 2 10 2 C10 2.33 10 2.66 10 3 C8.77023438 2.96519531 8.77023438 2.96519531 7.515625 2.9296875 C6.43796875 2.91164063 5.3603125 2.89359375 4.25 2.875 C3.18265625 2.85179688 2.1153125 2.82859375 1.015625 2.8046875 C-2.04704183 3.00304675 -3.34848143 3.60769681 -6 5 C-13.94919957 6.62187699 -21.89783468 7.33603451 -30 7 C-30 6.34 -30 5.68 -30 5 C-20.1 3.35 -10.2 1.7 0 0 Z " fill="#333333" transform="translate(70,105)"/>
<path d="M0 0 C2 2 2 2 2.125 5.125 C2.08375 6.07375 2.0425 7.0225 2 8 C2.8971875 8.1546875 2.8971875 8.1546875 3.8125 8.3125 C6.28243264 9.08876455 7.32251235 10.07088921 9 12 C8.67 12.99 8.34 13.98 8 15 C6.02 13.35 4.04 11.7 2 10 C1.67 11.32 1.34 12.64 1 14 C0.34 14 -0.32 14 -1 14 C-3.43160605 10.63316085 -4 9.26649636 -4 5 C-3.67 4.01 -3.34 3.02 -3 2 C-2.01 2 -1.02 2 0 2 C0 1.34 0 0.68 0 0 Z " fill="#F3F3F3" transform="translate(310,210)"/>
<path d="M0 0 C0 0.99 0 1.98 0 3 C0.59167969 2.855625 1.18335938 2.71125 1.79296875 2.5625 C5.92529941 1.59177306 9.7229762 0.72406298 14 1 C10.49424762 3.01078066 7.00069215 3.79280998 3.0625 4.625 C1.85722656 4.88539063 0.65195312 5.14578125 -0.58984375 5.4140625 C-3.52393377 5.91820168 -6.04290869 6.28312576 -9 6 C-11.3125 4 -11.3125 4 -13 2 C-11.5882217 1.46605821 -10.17029756 0.94834896 -8.75 0.4375 C-7.96109375 0.14746094 -7.1721875 -0.14257812 -6.359375 -0.44140625 C-3.80896548 -1.04522837 -2.44677771 -0.8473932 0 0 Z " fill="#353535" transform="translate(44,213)"/>
<path d="M0 0 C2.86724686 0.57344937 3.8614515 0.8614515 6 3 C8.06874034 3.6425235 8.06874034 3.6425235 10 4 C9.67 5.65 9.34 7.3 9 9 C8.34 9 7.68 9 7 9 C7 9.66 7 10.32 7 11 C7.99 11.33 8.98 11.66 10 12 C9.01 12.495 9.01 12.495 8 13 C5.9375 12.25 5.9375 12.25 4 11 C3.67 10.01 3.34 9.02 3 8 C3.33 7.34 3.66 6.68 4 6 C2.35 5.67 0.7 5.34 -1 5 C-0.67 3.35 -0.34 1.7 0 0 Z " fill="#2D2D2D" transform="translate(167,184)"/>
<path d="M0 0 C0.93065133 2.60582371 1.14917407 3.64198224 0.0625 6.25 C-0.288125 6.8275 -0.63875 7.405 -1 8 C-5.21912747 7.5205537 -7.79663178 6.83374881 -11 4 C-7.65667474 -0.27945633 -5.29105716 -0.4070044 0 0 Z " fill="#E3E3E3" transform="translate(292,220)"/>
<path d="M0 0 C3.33980382 0.58593049 6.2614127 1.41716614 9.375 2.75 C14.49732828 4.87011775 19.7094357 6.59705056 24.99755859 8.24902344 C27.91778629 9.18623045 29.79849183 9.79849183 32 12 C31.01 12.33 30.02 12.66 29 13 C29 12.34 29 11.68 29 11 C21.16506404 8.75461606 13.2987232 6.93126294 5.3125 5.3125 C3.66991211 4.97508789 3.66991211 4.97508789 1.99414062 4.63085938 C-0.66994412 4.08408216 -3.33463885 3.54051433 -6 3 C-5.67 2.34 -5.34 1.68 -5 1 C-2.69 1.33 -0.38 1.66 2 2 C1.34 1.34 0.68 0.68 0 0 Z " fill="#5A5A5A" transform="translate(139,182)"/>
<path d="M0 0 C0.66 0.33 1.32 0.66 2 1 C1.67 1.66 1.34 2.32 1 3 C2.65 3 4.3 3 6 3 C6 3.66 6 4.32 6 5 C4.02 5 2.04 5 0 5 C-0.226875 5.53625 -0.45375 6.0725 -0.6875 6.625 C-2.43382056 9.78500863 -4.6402849 12.2676983 -7 15 C-7 12 -7 12 -6 10 C-6.99 9.67 -7.98 9.34 -9 9 C-6 6 -3 3 0 0 Z " fill="#323232" transform="translate(208,139)"/>
<path d="M0 0 C5.13756468 0.64016973 9.58790181 2.19700333 14.375 4.0625 C15.47908203 4.48499023 15.47908203 4.48499023 16.60546875 4.91601562 C18.4055736 5.60566618 20.2030621 6.30213932 22 7 C18.90279155 7.87840996 17.09354597 7.99435406 14 7 C14 7.66 14 8.32 14 9 C12.37276701 8.54965877 10.74826336 8.08944646 9.125 7.625 C8.22007812 7.36976563 7.31515625 7.11453125 6.3828125 6.8515625 C4 6 4 6 2 4 C2.66 3.67 3.32 3.34 4 3 C2.68 2.01 1.36 1.02 0 0 Z " fill="#373737" transform="translate(220,216)"/>
<path d="M0 0 C2.3125 -0.25 2.3125 -0.25 5 0 C6.9375 1.625 6.9375 1.625 8 4 C7.16162022 8.02422296 5.6422749 10.87731148 3 14 C3.53725895 10.62294375 4.11064623 7.303314 5 4 C1.1691947 3.55839752 1.1691947 3.55839752 -0.484375 5.3125 C-0.90203125 5.869375 -1.3196875 6.42625 -1.75 7 C-2.4925 7.99 -3.235 8.98 -4 10 C-4 7 -4 7 -2 4 C-2.66 3.67 -3.32 3.34 -4 3 C-2.68 2.67 -1.36 2.34 0 2 C0 1.34 0 0.68 0 0 Z " fill="#262626" transform="translate(222,128)"/>
<path d="M0 0 C4.3177458 0.50797009 8.03302114 1.19682779 12 3 C12 3.99 12 4.98 12 6 C8.04 6 4.08 6 0 6 C0 4.02 0 2.04 0 0 Z " fill="#F1F1F1" transform="translate(192,210)"/>
<path d="M0 0 C-0.33 0.66 -0.66 1.32 -1 2 C-2.36125 1.8453125 -2.36125 1.8453125 -3.75 1.6875 C-8.74636157 1.62606933 -12.88781822 3.92462554 -17.328125 6.00390625 C-20 7 -20 7 -23 6 C-23 5.34 -23 4.68 -23 4 C-15.46853452 -0.46309065 -8.59141782 -0.43995881 0 0 Z " fill="#3E3E3E" transform="translate(103,97)"/>
<path d="M0 0 C1.41777182 0.08785338 2.83429039 0.19604647 4.25 0.3125 C5.43335937 0.39951172 5.43335937 0.39951172 6.640625 0.48828125 C9.39184062 1.0849853 10.88035957 2.18663789 13 4 C11.2097939 4.67057887 9.41778511 5.3363469 7.625 6 C6.62726563 6.37125 5.62953125 6.7425 4.6015625 7.125 C2 8 2 8 0 8 C0 5.36 0 2.72 0 0 Z " fill="#ECECEC" transform="translate(120,180)"/>
<path d="M0 0 C3.875 0.875 3.875 0.875 5 2 C5.1875 4.4375 5.1875 4.4375 5 7 C4.34 7.66 3.68 8.32 3 9 C0.875 8.625 0.875 8.625 -1 8 C-1.625 5.6875 -1.625 5.6875 -2 3 C-1.34 2.01 -0.68 1.02 0 0 Z " fill="#EAEAEA" transform="translate(113,167)"/>
<path d="M0 0 C1.65 0 3.3 0 5 0 C5 2.64 5 5.28 5 8 C2.69 7.67 0.38 7.34 -2 7 C-1.34 4.69 -0.68 2.38 0 0 Z " fill="#F6F6F6" transform="translate(293,221)"/>
<path d="M0 0 C2.97 0 5.94 0 9 0 C9 0.33 9 0.66 9 1 C7.35 1.33 5.7 1.66 4 2 C3.67 4.31 3.34 6.62 3 9 C3.99 8.67 4.98 8.34 6 8 C6 8.66 6 9.32 6 10 C2.25 11.125 2.25 11.125 0 10 C0 6.7 0 3.4 0 0 Z " fill="#E4E4E4" transform="translate(216,120)"/>
<path d="M0 0 C2.64 0 5.28 0 8 0 C7.875 1.75 7.875 1.75 7 4 C3.9375 6.25 3.9375 6.25 1 8 C-0.35439668 5.29120665 -0.06501451 2.99066732 0 0 Z " fill="#E9E9E9" transform="translate(192,144)"/>
<path d="M0 0 C3.41943506 0.42269769 6.72174346 0.91991217 10 2 C11.625 4.625 11.625 4.625 12 7 C3.64989059 5.82713348 3.64989059 5.82713348 0.9375 2.375 C0.628125 1.59125 0.31875 0.8075 0 0 Z " fill="#EBEBEB" transform="translate(80,128)"/>
<path d="M0 0 C1.6510403 0.39553053 3.2958515 0.81713897 4.9375 1.25 C5.85402344 1.48203125 6.77054687 1.7140625 7.71484375 1.953125 C10 3 10 3 10.81640625 5.109375 C10.87699219 5.73328125 10.93757813 6.3571875 11 7 C3.5263755 6.50992626 3.5263755 6.50992626 1 4.0625 C0 2 0 2 0 0 Z " fill="#ECECEC" transform="translate(77,120)"/>
<path d="M0 0 C2 2 2 2 2.125 4.625 C2.08375 5.40875 2.0425 6.1925 2 7 C4.97 7.99 7.94 8.98 11 10 C11 10.66 11 11.32 11 12 C9.37433394 11.52309796 7.74948689 11.04340334 6.125 10.5625 C5.22007812 10.29566406 4.31515625 10.02882812 3.3828125 9.75390625 C1 9 1 9 -1 8 C-0.67 5.36 -0.34 2.72 0 0 Z " fill="#E1E1E1" transform="translate(223,169)"/>
<path d="M0 0 C0.33 0.66 0.66 1.32 1 2 C3.97 2 6.94 2 10 2 C10 2.33 10 2.66 10 3 C9.18015625 2.97679688 8.3603125 2.95359375 7.515625 2.9296875 C6.43796875 2.91164063 5.3603125 2.89359375 4.25 2.875 C3.18265625 2.85179688 2.1153125 2.82859375 1.015625 2.8046875 C-2.00138183 3.0000895 -3.39598994 3.61119463 -6 5 C-8.140625 5.1953125 -8.140625 5.1953125 -10.25 5.125 C-12.10625 5.063125 -12.10625 5.063125 -14 5 C-11.47047712 1.84888788 -9.23243734 1.41201983 -5.3125 0.8125 C-4.31863281 0.65394531 -3.32476562 0.49539062 -2.30078125 0.33203125 C-1.54152344 0.22246094 -0.78226563 0.11289063 0 0 Z " fill="#525252" transform="translate(70,105)"/>
<path d="M0 0 C5.03405033 0.47194222 9.48120657 2.88335384 14 5 C10.80153844 6.06615385 9.69739078 5.95342597 6.5 5.25 C5.7265625 5.09015625 4.953125 4.9303125 4.15625 4.765625 C1.76405127 3.9162211 0.63598319 2.90864706 -1 1 C-0.67 0.67 -0.34 0.34 0 0 Z " fill="#0C0C0C" transform="translate(129,179)"/>
<path d="M0 0 C3.60555842 1.33920741 6.70914824 3.02548894 10 5 C11.65369357 5.69822617 13.31727014 6.37498605 15 7 C14.34 7.66 13.68 8.32 13 9 C13.99 10.485 13.99 10.485 15 12 C11.15630634 10.43405073 8.90538994 7.90538994 6 5 C4.9136572 4.22440774 3.80935844 3.47326874 2.6875 2.75 C1.800625 2.1725 0.91375 1.595 0 1 C0 0.67 0 0.34 0 0 Z " fill="#5C5C5C" transform="translate(177,197)"/>
<path d="M0 0 C5.23175837 -0.38281159 8.37802694 0.78145293 13 3 C12.01 3.66 11.02 4.32 10 5 C10 4.34 10 3.68 10 3 C7.69 3.33 5.38 3.66 3 4 C2.01 2.68 1.02 1.36 0 0 Z " fill="#2B2B2B" transform="translate(189,205)"/>
<path d="M0 0 C2.03144641 0.93446535 4.03533587 1.93224776 6 3 C5.67 3.99 5.34 4.98 5 6 C2.36 5.67 -0.28 5.34 -3 5 C-2.625 3.0625 -2.625 3.0625 -2 1 C-1.34 0.67 -0.68 0.34 0 0 Z " fill="#151515" transform="translate(119,173)"/>
<path d="M0 0 C4.62 0 9.24 0 14 0 C14 0.99 14 1.98 14 3 C12.22992286 3.08114106 10.45877902 3.13925505 8.6875 3.1875 C7.70136719 3.22230469 6.71523437 3.25710937 5.69921875 3.29296875 C3 3 3 3 0 0 Z " fill="#FAFAFA" transform="translate(127,138)"/>
<path d="M0 0 C2.31 0.33 4.62 0.66 7 1 C7.33 1.99 7.66 2.98 8 4 C5.03 4 2.06 4 -1 4 C-0.67 2.68 -0.34 1.36 0 0 Z " fill="#E6E6E6" transform="translate(265,236)"/>
<path d="M0 0 C2.97 0.33 5.94 0.66 9 1 C7 5 7 5 4 7 C4.33 6.01 4.66 5.02 5 4 C3.02 3.34 1.04 2.68 -1 2 C-0.67 1.34 -0.34 0.68 0 0 Z " fill="#4B4B4B" transform="translate(191,153)"/>
<path d="M0 0 C1.32 0 2.64 0 4 0 C4 1.98 4 3.96 4 6 C2.35 5.67 0.7 5.34 -1 5 C-0.67 3.35 -0.34 1.7 0 0 Z " fill="#E7E7E7" transform="translate(155,150)"/>
<path d="M0 0 C0.93972656 0.12568359 0.93972656 0.12568359 1.8984375 0.25390625 C3.12433594 0.40666016 3.12433594 0.40666016 4.375 0.5625 C5.59316406 0.71912109 5.59316406 0.71912109 6.8359375 0.87890625 C9.04899186 1.18237328 9.04899186 1.18237328 11 0 C11 0.99 11 1.98 11 3 C7.04 3 3.08 3 -1 3 C-0.67 2.01 -0.34 1.02 0 0 Z " fill="#EAEAEA" transform="translate(193,213)"/>
<path d="M0 0 C2.64 0.33 5.28 0.66 8 1 C8.33 2.32 8.66 3.64 9 5 C9.66 5 10.32 5 11 5 C11 5.66 11 6.32 11 7 C7.22272911 5.18690997 3.62730178 3.0926741 0 1 C0 0.67 0 0.34 0 0 Z " fill="#DEDEDE" transform="translate(297,205)"/>
<path d="M0 0 C4.16138263 -0.08159574 7.9472484 0.01751476 12 1 C8.64672361 3.23551759 8.09256343 3.17283528 4.3125 2.625 C3.50425781 2.51414062 2.69601563 2.40328125 1.86328125 2.2890625 C1.24839844 2.19367188 0.63351563 2.09828125 0 2 C0 1.34 0 0.68 0 0 Z " fill="#181818" transform="translate(33,111)"/>
<path d="M0 0 C1.32 0 2.64 0 4 0 C4 1.65 4 3.3 4 5 C2.35 4.67 0.7 4.34 -1 4 C-0.67 2.68 -0.34 1.36 0 0 Z " fill="#D7D7D7" transform="translate(212,202)"/>
<path d="M0 0 C1.98 0.495 1.98 0.495 4 1 C4 2.32 4 3.64 4 5 C2.35 5 0.7 5 -1 5 C-0.67 3.35 -0.34 1.7 0 0 Z " fill="#D8D8D8" transform="translate(138,172)"/>
<path d="M0 0 C1.98 0.495 1.98 0.495 4 1 C3.67 2.32 3.34 3.64 3 5 C1.68 5 0.36 5 -1 5 C-0.67 3.35 -0.34 1.7 0 0 Z " fill="#DFDFDF" transform="translate(228,207)"/>
<path d="M0 0 C1.32 0 2.64 0 4 0 C3.67 1.65 3.34 3.3 3 5 C1.68 4.67 0.36 4.34 -1 4 C-0.67 2.68 -0.34 1.36 0 0 Z " fill="#E2E2E2" transform="translate(204,199)"/>
<path d="M0 0 C1.32 0 2.64 0 4 0 C3.67 1.65 3.34 3.3 3 5 C1.68 4.67 0.36 4.34 -1 4 C-0.67 2.68 -0.34 1.36 0 0 Z " fill="#DCDCDC" transform="translate(189,194)"/>
<path d="M0 0 C1.98 0.495 1.98 0.495 4 1 C3.67 2.32 3.34 3.64 3 5 C1.68 5 0.36 5 -1 5 C-0.67 3.35 -0.34 1.7 0 0 Z " fill="#E3E3E3" transform="translate(167,184)"/>
<path d="M0 0 C1.32 0 2.64 0 4 0 C3.67 1.65 3.34 3.3 3 5 C1.68 4.67 0.36 4.34 -1 4 C-0.67 2.68 -0.34 1.36 0 0 Z " fill="#DDDDDD" transform="translate(152,178)"/>
<path d="M0 0 C1.98 0.495 1.98 0.495 4 1 C3.67 2.32 3.34 3.64 3 5 C1.68 5 0.36 5 -1 5 C-0.67 3.35 -0.34 1.7 0 0 Z " fill="#DFDFDF" transform="translate(145,175)"/>
<path d="M0 0 C1.98 1.65 3.96 3.3 6 5 C5.01 5.495 5.01 5.495 4 6 C4.99 7.98 5.98 9.96 7 12 C6.01 12.495 6.01 12.495 5 13 C4.16209211 11.21046815 3.32980604 9.41830305 2.5 7.625 C1.80390625 6.12839844 1.80390625 6.12839844 1.09375 4.6015625 C0 2 0 2 0 0 Z " fill="#4E4E4E" transform="translate(76,121)"/>
<path d="M0 0 C3.8063457 0.67170806 7.35206816 1.72746564 11 3 C11 3.66 11 4.32 11 5 C7.37 4.01 3.74 3.02 0 2 C0 1.34 0 0.68 0 0 Z " fill="#F4F4F4" transform="translate(227,223)"/>
<path d="M0 0 C1.98 0.495 1.98 0.495 4 1 C3.67 2.32 3.34 3.64 3 5 C1.68 4.67 0.36 4.34 -1 4 C-0.67 2.68 -0.34 1.36 0 0 Z " fill="#EDEDED" transform="translate(220,205)"/>
<path d="M0 0 C1.98 0.495 1.98 0.495 4 1 C3.67 2.32 3.34 3.64 3 5 C1.68 4.67 0.36 4.34 -1 4 C-0.67 2.68 -0.34 1.36 0 0 Z " fill="#EAEAEA" transform="translate(159,181)"/>
<path d="M0 0 C1.2065625 0.0309375 1.2065625 0.0309375 2.4375 0.0625 C-1.1875 5.8125 -1.1875 5.8125 -4.5625 8.0625 C-3.5625 6.0625 -2.5625 4.0625 -1.5625 2.0625 C-2.2225 1.7325 -2.8825 1.4025 -3.5625 1.0625 C-2.5625 0.0625 -2.5625 0.0625 0 0 Z " fill="#464646" transform="translate(221.5625,129.9375)"/>
<path d="M0 0 C1.32 0 2.64 0 4 0 C4 1.65 4 3.3 4 5 C2.68 5 1.36 5 0 5 C0 3.35 0 1.7 0 0 Z " fill="#E1E1E1" transform="translate(242,213)"/>
<path d="M0 0 C0.66 0 1.32 0 2 0 C2.93065133 2.60582371 3.14917407 3.64198224 2.0625 6.25 C1.5365625 7.11625 1.5365625 7.11625 1 8 C0.34 7.67 -0.32 7.34 -1 7 C-0.67 4.69 -0.34 2.38 0 0 Z " fill="#F5F5F5" transform="translate(324,232)"/>
<path d="M0 0 C1.32 0.33 2.64 0.66 4 1 C4 2.32 4 3.64 4 5 C2.68 5 1.36 5 0 5 C0 3.35 0 1.7 0 0 Z " fill="#ECECEC" transform="translate(173,187)"/>
<path d="M0 0 C3.96 1.98 3.96 1.98 8 4 C5 5 5 5 1.8125 3.5625 C0.884375 3.046875 -0.04375 2.53125 -1 2 C-0.67 1.34 -0.34 0.68 0 0 Z " fill="#F6F6F6" transform="translate(25,222)"/>
<path d="M0 0 C0.99 0.33 1.98 0.66 3 1 C3 2.32 3 3.64 3 5 C1.68 5 0.36 5 -1 5 C-0.67 3.35 -0.34 1.7 0 0 Z " fill="#E8E8E8" transform="translate(236,210)"/>
<path d="M0 0 C0.99 0.33 1.98 0.66 3 1 C3 2.32 3 3.64 3 5 C1.68 5 0.36 5 -1 5 C-0.67 3.35 -0.34 1.7 0 0 Z " fill="#EFEFEF" transform="translate(197,196)"/>
<path d="M0 0 C-1.14728098 3.44184294 -2.03284654 4.08007717 -5 6 C-5.99 6.33 -6.98 6.66 -8 7 C-6.47663111 3.31852519 -4.31953005 0 0 0 Z " fill="#262626" transform="translate(222,135)"/>
<path d="M0 0 C0.66 1.32 1.32 2.64 2 4 C1.01 4.66 0.02 5.32 -1 6 C-1.66 5.67 -2.32 5.34 -3 5 C-1.125 1.125 -1.125 1.125 0 0 Z " fill="#313131" transform="translate(194,160)"/>
</svg>
