<?xml version="1.0" encoding="UTF-8"?>
<svg version="1.1" xmlns="http://www.w3.org/2000/svg" width="1280" height="1280">
<path d="M0 0 C2.69961329 0.00008067 5.39905475 -0.00678268 8.09863281 -0.02050781 C33.45805215 -0.13975516 58.53799915 1.23781377 83.70385742 4.37280273 C84.55833466 4.47823395 85.41281189 4.58366516 86.29318237 4.69229126 C169.93092011 15.12579729 251.53760406 42.66876779 393.76635742 131.18530273 C394.71647705 131.91233398 394.71647705 131.91233398 395.68579102 132.65405273 C407.02919636 141.35746304 417.94438682 150.54151077 428.52416992 160.15795898 C430.47844167 161.92497473 432.4569548 163.65443803 434.45385742 165.37280273 C444.22263147 173.91071125 453.5778115 182.90503768 462.76635742 192.06030273 C463.45979248 192.74914551 464.15322754 193.43798828 464.86767578 194.14770508 C468.77949358 198.0713211 472.50402904 202.1017238 476.12280273 206.29663086 C478.55918014 209.0963658 481.1028472 211.79105483 483.64135742 214.49780273 C488.94010208 220.20015145 493.89533778 226.11244654 498.76635742 232.18530273 C499.74912392 233.37803615 500.73360673 234.56935674 501.71948242 235.75952148 C527.79111241 267.31844111 550.17827356 302.06514965 569.61450195 338.05786133 C570.76688737 340.18628154 571.93630235 342.30475104 573.10620117 344.42358398 C609.0076754 410.21485001 630.72368972 485.08885413 643.76635742 592.18530273 C643.9110144 593.9430603 643.9110144 593.9430603 644.05859375 595.73632812 C644.98884234 608.94950282 644.95370413 622.17894202 644.95166016 635.41894531 C644.95157948 638.11855861 644.95844283 640.81800006 644.97216797 643.51757812 C645.09159321 668.91482811 643.73098655 693.99859143 640.45385742 719.18530273 C640.34620056 720.0272821 640.2385437 720.86926147 640.12762451 721.73675537 C636.85498615 747.24230943 631.9625773 772.22270483 625.76635742 797.18530273 C625.50129395 798.26424805 625.23623047 799.34319336 624.96313477 800.45483398 C614.20023471 843.80334178 598.23049874 886.54588523 577.76147461 926.22143555 C576.68327454 928.34926709 575.64827853 930.49485147 574.61791992 932.64624023 C555.53380184 972.21462586 530.18452168 1009.65924223 502.20336914 1043.4440918 C500.1213261 1045.96687993 498.07228948 1048.51622043 496.01635742 1051.06030273 C492.42352508 1055.44934884 488.68329416 1059.6801106 484.86401367 1063.87280273 C483.07128296 1065.84914646 481.31840515 1067.84987004 479.57885742 1069.87280273 C471.04094891 1079.64157678 462.04662247 1088.99675681 452.89135742 1098.18530273 C452.20251465 1098.87873779 451.51367188 1099.57217285 450.80395508 1100.28662109 C446.88033906 1104.19843889 442.84993636 1107.92297436 438.6550293 1111.54174805 C435.85529436 1113.97812545 433.16060533 1116.52179251 430.45385742 1119.06030273 C424.7515087 1124.3590474 418.83921361 1129.31428309 412.76635742 1134.18530273 C411.57362401 1135.16806923 410.38230342 1136.15255205 409.19213867 1137.13842773 C380.86841214 1160.5408214 349.94836435 1181.45882023 317.76635742 1199.18530273 C316.68547852 1199.78600586 315.60459961 1200.38670898 314.4909668 1201.00561523 C268.61190228 1226.41555866 219.80863891 1246.19216585 169.02270508 1259.34008789 C165.98784641 1260.12781324 162.96088329 1260.94059511 159.93432617 1261.75952148 C134.91983279 1268.41006332 109.37762962 1272.85035337 83.70385742 1275.99780273 C82.9061795 1276.09699005 82.10850159 1276.19617737 81.28665161 1276.29837036 C57.14072993 1279.26067893 33.02488529 1280.52460046 8.70288086 1280.44604492 C4.76815395 1280.43530764 0.83388336 1280.44603184 -3.10083008 1280.45874023 C-26.95591244 1280.4733209 -50.58069263 1278.94871445 -74.23364258 1275.87280273 C-75.07462494 1275.76547821 -75.9156073 1275.65815369 -76.78207397 1275.5475769 C-92.03107594 1273.59525408 -107.16005218 1271.2299909 -122.23364258 1268.18530273 C-123.31758301 1267.96793457 -124.40152344 1267.75056641 -125.51831055 1267.52661133 C-173.99148319 1257.65151825 -221.74249509 1241.66134234 -266.43139648 1220.50854492 C-269.15470643 1219.22257699 -271.88619586 1217.95580802 -274.62036133 1216.69311523 C-331.98876408 1190.03005173 -383.52770634 1152.56044603 -430.23364258 1110.18530273 C-431.66643555 1108.89366211 -431.66643555 1108.89366211 -433.12817383 1107.57592773 C-439.78938523 1101.52985936 -446.23689918 1095.28553758 -452.60864258 1088.93530273 C-453.73206055 1087.81877319 -453.73206055 1087.81877319 -454.87817383 1086.6796875 C-458.96052427 1082.58596688 -462.87005172 1078.40075512 -466.64331055 1074.02075195 C-468.90371622 1071.41195094 -471.25587544 1068.89867136 -473.60864258 1066.37280273 C-477.82638345 1061.80232368 -481.84316897 1057.11591403 -485.74145508 1052.26733398 C-487.61233342 1049.95366155 -489.50096136 1047.66343695 -491.41333008 1045.38452148 C-517.92198667 1013.72880808 -540.48025457 978.61157202 -560.08178711 942.31274414 C-561.23417253 940.18432393 -562.4035875 938.06585443 -563.57348633 935.94702148 C-599.47496056 870.15575546 -621.19097487 795.28175134 -634.23364258 688.18530273 C-634.37829956 686.42754517 -634.37829956 686.42754517 -634.52587891 684.63427734 C-635.45612749 671.42110265 -635.42098928 658.19166345 -635.41894531 644.95166016 C-635.41886464 642.25204686 -635.42572799 639.55260541 -635.43945312 636.85302734 C-635.55834625 611.56893645 -634.22713396 586.57586779 -630.98364258 561.49780273 C-630.82457428 560.24741714 -630.82457428 560.24741714 -630.66229248 558.97177124 C-627.20999874 531.9932176 -622.08578418 505.5198537 -615.23364258 479.18530273 C-614.9700293 478.16162598 -614.70641602 477.13794922 -614.43481445 476.08325195 C-603.11091998 432.55437187 -586.92447473 390.2865837 -566.32788086 350.31616211 C-565.07542601 347.8772005 -563.84111946 345.42932406 -562.60473633 342.98217773 C-543.40563778 305.26966273 -519.65964733 269.51341545 -492.6706543 236.92651367 C-490.58861126 234.40372554 -488.53957463 231.85438503 -486.48364258 229.31030273 C-482.89081024 224.92125663 -479.15057932 220.69049487 -475.33129883 216.49780273 C-473.53856812 214.52145901 -471.78569031 212.52073543 -470.04614258 210.49780273 C-461.50823406 200.72902869 -452.51390763 191.37384866 -443.35864258 182.18530273 C-442.6697998 181.49186768 -441.98095703 180.79843262 -441.27124023 180.08398438 C-437.34762421 176.17216658 -433.31722152 172.44763111 -429.12231445 168.82885742 C-426.32257952 166.39248002 -423.62789048 163.84881296 -420.92114258 161.31030273 C-415.21879386 156.01155807 -409.30649877 151.05632238 -403.23364258 146.18530273 C-402.04090916 145.20253624 -400.84958857 144.21805342 -399.65942383 143.23217773 C-389.46944884 134.81790454 -378.96346559 126.8974402 -368.23364258 119.18530273 C-367.6611377 118.7736084 -367.08863281 118.36191406 -366.4987793 117.93774414 C-362.78865403 115.28631919 -359.02380219 112.72028577 -355.23364258 110.18530273 C-354.44070801 109.65356445 -353.64777344 109.12182617 -352.83081055 108.57397461 C-273.24780661 55.41165264 -181.59770784 18.922528 -43.23364258 1.18530273 C-42.16041748 1.09917725 -41.08719238 1.01305176 -39.98144531 0.92431641 C-26.66596025 -0.01266522 -13.34269984 -0.00210983 0 0 Z " fill="#5EC285" transform="translate(635.233642578125,-0.185302734375)"/>
<path d="M0 0 C2.69961329 0.00008067 5.39905475 -0.00678268 8.09863281 -0.02050781 C33.45805215 -0.13975516 58.53799915 1.23781377 83.70385742 4.37280273 C84.55833466 4.47823395 85.41281189 4.58366516 86.29318237 4.69229126 C169.93092011 15.12579729 251.53760406 42.66876779 393.76635742 131.18530273 C394.71647705 131.91233398 394.71647705 131.91233398 395.68579102 132.65405273 C407.02919636 141.35746304 417.94438682 150.54151077 428.52416992 160.15795898 C430.47844167 161.92497473 432.4569548 163.65443803 434.45385742 165.37280273 C444.22263147 173.91071125 453.5778115 182.90503768 462.76635742 192.06030273 C463.45979248 192.74914551 464.15322754 193.43798828 464.86767578 194.14770508 C468.77949358 198.0713211 472.50402904 202.1017238 476.12280273 206.29663086 C478.55918014 209.0963658 481.1028472 211.79105483 483.64135742 214.49780273 C488.94010208 220.20015145 493.89533778 226.11244654 498.76635742 232.18530273 C499.74912392 233.37803615 500.73360673 234.56935674 501.71948242 235.75952148 C527.79111241 267.31844111 550.17827356 302.06514965 569.61450195 338.05786133 C570.76688737 340.18628154 571.93630235 342.30475104 573.10620117 344.42358398 C609.0076754 410.21485001 630.72368972 485.08885413 643.76635742 592.18530273 C643.9110144 593.9430603 643.9110144 593.9430603 644.05859375 595.73632812 C644.98884234 608.94950282 644.95370413 622.17894202 644.95166016 635.41894531 C644.95157948 638.11855861 644.95844283 640.81800006 644.97216797 643.51757812 C645.09159321 668.91482811 643.73098655 693.99859143 640.45385742 719.18530273 C640.34620056 720.0272821 640.2385437 720.86926147 640.12762451 721.73675537 C636.85498615 747.24230943 631.9625773 772.22270483 625.76635742 797.18530273 C625.50129395 798.26424805 625.23623047 799.34319336 624.96313477 800.45483398 C614.20023471 843.80334178 598.23049874 886.54588523 577.76147461 926.22143555 C576.68327454 928.34926709 575.64827853 930.49485147 574.61791992 932.64624023 C555.53380184 972.21462586 530.18452168 1009.65924223 502.20336914 1043.4440918 C500.1213261 1045.96687993 498.07228948 1048.51622043 496.01635742 1051.06030273 C492.42352508 1055.44934884 488.68329416 1059.6801106 484.86401367 1063.87280273 C483.07128296 1065.84914646 481.31840515 1067.84987004 479.57885742 1069.87280273 C471.04094891 1079.64157678 462.04662247 1088.99675681 452.89135742 1098.18530273 C452.20251465 1098.87873779 451.51367188 1099.57217285 450.80395508 1100.28662109 C446.88033906 1104.19843889 442.84993636 1107.92297436 438.6550293 1111.54174805 C435.85529436 1113.97812545 433.16060533 1116.52179251 430.45385742 1119.06030273 C424.7515087 1124.3590474 418.83921361 1129.31428309 412.76635742 1134.18530273 C411.57362401 1135.16806923 410.38230342 1136.15255205 409.19213867 1137.13842773 C380.86841214 1160.5408214 349.94836435 1181.45882023 317.76635742 1199.18530273 C316.68547852 1199.78600586 315.60459961 1200.38670898 314.4909668 1201.00561523 C268.61190228 1226.41555866 219.80863891 1246.19216585 169.02270508 1259.34008789 C165.98784641 1260.12781324 162.96088329 1260.94059511 159.93432617 1261.75952148 C134.91983279 1268.41006332 109.37762962 1272.85035337 83.70385742 1275.99780273 C82.9061795 1276.09699005 82.10850159 1276.19617737 81.28665161 1276.29837036 C57.14072993 1279.26067893 33.02488529 1280.52460046 8.70288086 1280.44604492 C4.76815395 1280.43530764 0.83388336 1280.44603184 -3.10083008 1280.45874023 C-26.95591244 1280.4733209 -50.58069263 1278.94871445 -74.23364258 1275.87280273 C-75.07462494 1275.76547821 -75.9156073 1275.65815369 -76.78207397 1275.5475769 C-92.03107594 1273.59525408 -107.16005218 1271.2299909 -122.23364258 1268.18530273 C-123.31758301 1267.96793457 -124.40152344 1267.75056641 -125.51831055 1267.52661133 C-173.99148319 1257.65151825 -221.74249509 1241.66134234 -266.43139648 1220.50854492 C-269.15470643 1219.22257699 -271.88619586 1217.95580802 -274.62036133 1216.69311523 C-331.98876408 1190.03005173 -383.52770634 1152.56044603 -430.23364258 1110.18530273 C-431.66643555 1108.89366211 -431.66643555 1108.89366211 -433.12817383 1107.57592773 C-439.78938523 1101.52985936 -446.23689918 1095.28553758 -452.60864258 1088.93530273 C-453.73206055 1087.81877319 -453.73206055 1087.81877319 -454.87817383 1086.6796875 C-458.96052427 1082.58596688 -462.87005172 1078.40075512 -466.64331055 1074.02075195 C-468.90371622 1071.41195094 -471.25587544 1068.89867136 -473.60864258 1066.37280273 C-477.82638345 1061.80232368 -481.84316897 1057.11591403 -485.74145508 1052.26733398 C-487.61233342 1049.95366155 -489.50096136 1047.66343695 -491.41333008 1045.38452148 C-517.92198667 1013.72880808 -540.48025457 978.61157202 -560.08178711 942.31274414 C-561.23417253 940.18432393 -562.4035875 938.06585443 -563.57348633 935.94702148 C-599.47496056 870.15575546 -621.19097487 795.28175134 -634.23364258 688.18530273 C-634.37829956 686.42754517 -634.37829956 686.42754517 -634.52587891 684.63427734 C-635.45612749 671.42110265 -635.42098928 658.19166345 -635.41894531 644.95166016 C-635.41886464 642.25204686 -635.42572799 639.55260541 -635.43945312 636.85302734 C-635.55834625 611.56893645 -634.22713396 586.57586779 -630.98364258 561.49780273 C-630.82457428 560.24741714 -630.82457428 560.24741714 -630.66229248 558.97177124 C-627.20999874 531.9932176 -622.08578418 505.5198537 -615.23364258 479.18530273 C-614.9700293 478.16162598 -614.70641602 477.13794922 -614.43481445 476.08325195 C-603.11091998 432.55437187 -586.92447473 390.2865837 -566.32788086 350.31616211 C-565.07542601 347.8772005 -563.84111946 345.42932406 -562.60473633 342.98217773 C-543.40563778 305.26966273 -519.65964733 269.51341545 -492.6706543 236.92651367 C-490.58861126 234.40372554 -488.53957463 231.85438503 -486.48364258 229.31030273 C-482.89081024 224.92125663 -479.15057932 220.69049487 -475.33129883 216.49780273 C-473.53856812 214.52145901 -471.78569031 212.52073543 -470.04614258 210.49780273 C-461.50823406 200.72902869 -452.51390763 191.37384866 -443.35864258 182.18530273 C-442.6697998 181.49186768 -441.98095703 180.79843262 -441.27124023 180.08398438 C-437.34762421 176.17216658 -433.31722152 172.44763111 -429.12231445 168.82885742 C-426.32257952 166.39248002 -423.62789048 163.84881296 -420.92114258 161.31030273 C-415.21879386 156.01155807 -409.30649877 151.05632238 -403.23364258 146.18530273 C-402.04090916 145.20253624 -400.84958857 144.21805342 -399.65942383 143.23217773 C-389.46944884 134.81790454 -378.96346559 126.8974402 -368.23364258 119.18530273 C-367.6611377 118.7736084 -367.08863281 118.36191406 -366.4987793 117.93774414 C-362.78865403 115.28631919 -359.02380219 112.72028577 -355.23364258 110.18530273 C-354.44070801 109.65356445 -353.64777344 109.12182617 -352.83081055 108.57397461 C-273.24780661 55.41165264 -181.59770784 18.922528 -43.23364258 1.18530273 C-42.16041748 1.09917725 -41.08719238 1.01305176 -39.98144531 0.92431641 C-26.66596025 -0.01266522 -13.34269984 -0.00210983 0 0 Z M-89.23364258 64.18530273 C-91.10463623 64.50023682 -91.10463623 64.50023682 -93.01342773 64.8215332 C-162.40677182 76.70200502 -229.46319827 100.53970524 -290.23364258 136.18530273 C-291.89896711 137.14761163 -293.56433064 138.10985305 -295.22973633 139.07202148 C-322.106801 154.75343923 -347.50097659 173.0837997 -371.23364258 193.18530273 C-371.84546387 193.70334473 -372.45728516 194.22138672 -373.08764648 194.75512695 C-376.00824012 197.23448555 -378.91625349 199.7274864 -381.81176758 202.23608398 C-384.05176326 204.17601198 -386.31151853 206.08737671 -388.59301758 207.97827148 C-397.00216418 215.01152648 -404.84361193 222.58123369 -412.60864258 230.31030273 C-413.11893005 230.81541382 -413.62921753 231.3205249 -414.15496826 231.84094238 C-420.26248551 237.89951685 -425.95687752 244.09196282 -431.3347168 250.82299805 C-433.48924524 253.50327796 -435.74819577 255.99875318 -438.10864258 258.49780273 C-442.83127069 263.63584721 -447.127373 269.01579416 -451.38989258 274.53295898 C-453.27192641 276.96673547 -455.1866178 279.36693342 -457.13989258 281.74389648 C-464.5612662 290.79471097 -471.20891915 300.24082783 -477.72485352 309.9597168 C-479.14285224 312.05137963 -480.5887506 314.11870611 -482.05395508 316.17749023 C-482.47845947 316.77609863 -482.90296387 317.37470703 -483.34033203 317.99145508 C-484.46357177 319.56931239 -485.59252437 321.14309855 -486.72192383 322.71655273 C-488.49474955 325.12923892 -488.49474955 325.12923892 -488.23364258 328.18530273 C-488.89364258 328.18530273 -489.55364258 328.18530273 -490.23364258 328.18530273 C-491.5578145 329.99295102 -491.5578145 329.99295102 -492.85864258 332.37280273 C-495.23940032 336.48977162 -497.69950496 340.5357815 -500.23364258 344.56030273 C-503.44055476 349.75011481 -506.2589425 355.02724821 -508.91333008 360.51733398 C-510.05834704 362.83108128 -511.28210917 365.03536765 -512.60864258 367.24780273 C-514.47567327 370.06331771 -514.47567327 370.06331771 -514.23364258 373.18530273 C-514.89364258 373.18530273 -515.55364258 373.18530273 -516.23364258 373.18530273 C-520.42001631 381.17434939 -520.42001631 381.17434939 -523.85864258 389.49780273 C-524.86714291 392.20241727 -525.79806102 394.30839346 -527.23364258 396.74780273 C-529.20856898 400.1422075 -530.75303308 403.56297437 -532.23364258 407.18530273 C-532.60360352 408.04897461 -532.97356445 408.91264648 -533.35473633 409.80249023 C-536.09875234 416.24793594 -538.55378358 422.74685652 -540.82739258 429.37280273 C-541.94332333 432.52356348 -543.25351764 435.569727 -544.57739258 438.63842773 C-547.6352911 445.91849132 -549.93598352 453.39251887 -552.23364258 460.93530273 C-552.64976007 462.28703441 -553.06642536 463.63859758 -553.48364258 464.98999023 C-554.10887903 467.0161071 -554.73298566 469.0425299 -555.35314941 471.07020569 C-556.4075797 474.51755509 -557.4757831 477.9595823 -558.5715332 481.39404297 C-560.92669508 488.7876617 -563.10631521 496.15434837 -564.73364258 503.74780273 C-565.03709595 505.12995972 -565.03709595 505.12995972 -565.34667969 506.54003906 C-565.76846803 508.4638689 -566.18766132 510.38826953 -566.60424805 512.31323242 C-567.22205539 515.13242778 -567.86662384 517.94419219 -568.51879883 520.75561523 C-575.87872841 552.85230738 -580.31816806 586.41793449 -580.43676758 619.36499023 C-580.44735703 621.33724075 -580.44735703 621.33724075 -580.4581604 623.34933472 C-580.47772894 627.58632961 -580.48285405 631.82326691 -580.48364258 636.06030273 C-580.48393715 636.78407608 -580.48423172 637.50784943 -580.48453522 638.2535553 C-580.48830657 695.65392728 -574.30095577 753.18688145 -556.54223633 808.06811523 C-555.58789136 811.02867972 -554.69483898 814.00167902 -553.83129883 816.98999023 C-550.82282539 827.38684623 -547.42856199 837.47725147 -543.33081055 847.49487305 C-542.076477 850.57069763 -540.8456837 853.65560777 -539.61254883 856.73999023 C-532.5450615 874.26424167 -524.69908687 891.29484611 -516.23364258 908.18530273 C-515.75572266 909.1437207 -515.27780273 910.10213867 -514.78540039 911.08959961 C-505.21040623 930.18444038 -494.22379297 948.51290827 -482.23364258 966.18530273 C-481.60466064 967.1125415 -480.97567871 968.03978027 -480.32763672 968.99511719 C-468.91561252 985.72476294 -456.9603929 1001.87172394 -443.75317383 1017.22827148 C-441.31549566 1020.0892364 -438.95798871 1023.00166327 -436.60864258 1025.93530273 C-433.1642238 1030.17316798 -429.51596636 1034.04951813 -425.56958008 1037.82202148 C-423.64274712 1039.77140934 -421.8650202 1041.74922041 -420.08129883 1043.82592773 C-415.71308347 1048.86072901 -411.01819836 1053.54700152 -406.29614258 1058.24780273 C-405.01320313 1059.53654297 -405.01320313 1059.53654297 -403.7043457 1060.85131836 C-399.26101941 1065.28786612 -394.75506778 1069.58102011 -389.99169922 1073.67236328 C-387.58264055 1075.74553875 -385.2555662 1077.90377454 -382.92114258 1080.06030273 C-377.51866738 1084.98107575 -371.93126677 1089.61230763 -366.23364258 1094.18530273 C-365.10165471 1095.10919723 -363.97016771 1096.03370563 -362.83911133 1096.95874023 C-327.59475988 1125.65443916 -288.00509009 1150.84618748 -246.59692383 1169.59936523 C-243.67271132 1170.97826219 -240.98253142 1172.49367883 -238.23364258 1174.18530273 C-235.91088312 1175.22817433 -233.58771594 1176.21852859 -231.23364258 1177.18530273 C-230.37899414 1177.54495117 -229.5243457 1177.90459961 -228.64379883 1178.27514648 C-225.51209495 1179.59088248 -222.37343436 1180.88899104 -219.23364258 1182.18530273 C-218.12118164 1182.6506543 -217.0087207 1183.11600586 -215.86254883 1183.59545898 C-205.95041326 1187.66670853 -195.85849462 1191.06853948 -185.6730957 1194.38891602 C-180.57489793 1196.05327962 -175.48250958 1197.72665889 -170.43676758 1199.54467773 C-157.34560405 1204.19465369 -143.92349504 1207.27872583 -130.40698242 1210.42749023 C-127.9033126 1211.02538153 -125.42058711 1211.65382999 -122.94067383 1212.34155273 C-109.80966872 1215.95585825 -96.26976122 1217.61614423 -82.82055664 1219.62231445 C-79.7838619 1220.09894242 -76.77697934 1220.64194508 -73.76098633 1221.23217773 C-66.59396188 1222.55497509 -59.36587108 1223.21892681 -52.10864258 1223.81030273 C-50.90593216 1223.90835709 -50.90593216 1223.90835709 -49.67892456 1224.00839233 C-32.60482394 1225.33725777 -15.52011913 1225.48849642 1.59542084 1225.49626923 C3.6617913 1225.49777214 5.72813127 1225.50266221 7.79449463 1225.50811768 C33.18810047 1225.55824017 58.78769587 1224.9059313 83.95385742 1221.24780273 C85.13141602 1221.09118164 86.30897461 1220.93456055 87.5222168 1220.77319336 C94.37680357 1219.82316504 101.06031562 1218.52258895 107.77954102 1216.86669922 C110.90901146 1216.1527584 114.02772661 1215.64431506 117.20385742 1215.18530273 C125.11601139 1214.0330473 133.15425323 1212.73878999 140.74682617 1210.18139648 C144.02169052 1209.10107254 147.25902229 1208.41447681 150.64135742 1207.74780273 C155.15994399 1206.80544891 159.30513486 1205.73047269 163.56323242 1203.98608398 C166.4805504 1202.92571131 169.44562354 1202.20038386 172.45385742 1201.43530273 C178.98126389 1199.75944944 185.37336894 1197.75249531 191.76635742 1195.62280273 C192.65025146 1195.32986328 193.53414551 1195.03692383 194.44482422 1194.73510742 C199.3316612 1193.08899543 204.04675437 1191.25966719 208.76635742 1189.18530273 C211.83516747 1187.98865982 214.915155 1186.8249093 217.99682617 1185.66186523 C228.44447447 1181.6172835 238.66416436 1177.05419876 248.85620117 1172.41162109 C251.12818337 1171.37879158 253.4042241 1170.35529 255.68041992 1169.33178711 C263.95224259 1165.58257271 271.91575737 1161.57005223 279.73144531 1156.94042969 C282.71030824 1155.21771667 285.72988099 1153.67905975 288.82885742 1152.18530273 C294.79797382 1149.25199851 300.39290572 1145.84532739 306.00952148 1142.2902832 C307.82394514 1141.14908233 309.64901915 1140.02681826 311.47729492 1138.90795898 C335.13016493 1124.38358583 357.5781572 1108.10611466 378.76635742 1090.18530273 C379.39413086 1089.65662598 380.0219043 1089.12794922 380.66870117 1088.58325195 C390.82880109 1080.01536643 400.84326109 1071.27400546 410.14526367 1061.77124023 C411.84745444 1060.10596445 413.62932249 1058.5900764 415.45385742 1057.06030273 C420.77277794 1052.46622551 425.37829932 1047.20447255 430.09399414 1042.01049805 C431.82361221 1040.12281561 433.57427932 1038.25704505 435.33276367 1036.39624023 C442.12187635 1029.21159193 448.59934774 1021.91738546 454.76635742 1014.18530273 C455.7578161 1012.98310412 456.75145571 1011.78270207 457.74682617 1010.58374023 C465.87501599 1000.76048494 473.41602425 990.60015557 480.76635742 980.18530273 C481.53334961 979.11151367 482.3003418 978.03772461 483.09057617 976.93139648 C508.24586064 941.2676198 530.07855475 901.79190412 545.99829102 861.13232422 C546.52803228 859.78944864 547.06806969 858.45060477 547.61645508 857.11523438 C556.25655805 835.97775938 563.91111966 814.11206748 569.12475586 791.87768555 C569.80811689 789.01006551 570.53617162 786.15651908 571.27416992 783.30249023 C572.8287704 777.27682755 574.31810159 771.23737182 575.76635742 765.18530273 C575.98678711 764.2682959 576.2072168 763.35128906 576.43432617 762.40649414 C581.03349574 742.90531831 583.40162295 723.05665796 585.76635742 703.18530273 C585.85806213 702.41907593 585.94976685 701.65284912 586.04425049 700.86340332 C588.25473729 682.23964778 588.96891796 663.8714953 588.95385742 645.12280273 C588.95391785 643.97078369 588.95397827 642.81876465 588.95404053 641.63183594 C588.94066959 623.72473287 588.42563661 606.02255395 586.76635742 588.18530273 C586.61931299 586.40936093 586.4734119 584.63332395 586.32885742 582.85717773 C583.66130772 551.77931226 577.54089449 520.93524231 569.57885742 490.81030273 C569.25470856 489.58349792 569.25470856 489.58349792 568.92401123 488.33190918 C566.76497421 480.20316657 564.54239733 472.12852135 561.76635742 464.18530273 C561.20201198 462.46758364 560.64099967 460.74876702 560.08276367 459.02905273 C559.4981645 457.24779084 558.91352877 455.46654094 558.32885742 453.68530273 C558.04204102 452.7997168 557.75522461 451.91413086 557.4597168 451.00170898 C555.79068401 445.9388523 553.90316749 441.09030244 551.68359375 436.24438477 C550.39170782 433.34426075 549.35802747 430.37484547 548.32885742 427.37280273 C546.04316544 420.86629304 543.5007912 414.51484452 540.76635742 408.18530273 C540.40413086 407.33709961 540.0419043 406.48889648 539.66870117 405.61499023 C538.33414711 402.5399341 537.02501633 399.60562346 535.26635742 396.74780273 C533.90269218 394.41820794 532.97882284 392.26000062 532.01635742 389.74780273 C529.40240815 382.99850403 526.06616768 376.61807892 522.76635742 370.18530273 C522.10635742 370.18530273 521.44635742 370.18530273 520.76635742 370.18530273 C520.39510742 368.92717773 520.02385742 367.66905273 519.64135742 366.37280273 C517.73444321 360.58757507 514.80322154 355.44330372 511.76635742 350.18530273 C511.10635742 350.18530273 510.44635742 350.18530273 509.76635742 350.18530273 C509.6503418 349.61682617 509.53432617 349.04834961 509.41479492 348.46264648 C508.70333731 345.96397307 507.68000422 344.00098214 506.39135742 341.74780273 C505.97112305 341.0065918 505.55088867 340.26538086 505.11791992 339.50170898 C489.98148897 313.5597912 471.90815633 289.10262579 452.39916992 266.29077148 C449.88297525 263.34109924 447.44742773 260.33059856 445.01635742 257.31030273 C442.03094984 253.63963256 438.94966052 250.23446804 435.5390625 246.95898438 C433.81048028 245.2294499 432.22896064 243.43818634 430.64526367 241.57592773 C426.416606 236.71152019 421.89570691 232.16788805 417.32885742 227.62280273 C416.11746094 226.40560547 416.11746094 226.40560547 414.8815918 225.16381836 C410.59306795 220.88220591 406.23034491 216.76048196 401.63574219 212.80957031 C398.663204 210.22679683 395.81813269 207.51170825 392.95385742 204.81030273 C387.09194739 199.33152408 381.04828123 194.18015667 374.76635742 189.18530273 C373.64959084 188.27753152 372.53375521 187.36861421 371.41870117 186.45874023 C347.29093373 166.84322983 321.6065932 149.84906037 294.76635742 134.18530273 C293.99324219 133.7323584 293.22012695 133.27941406 292.42358398 132.81274414 C287.26888694 129.81237299 282.0426684 126.96570241 276.76635742 124.18530273 C275.13923828 123.32582031 275.13923828 123.32582031 273.47924805 122.44897461 C223.65976872 96.27456136 169.98292855 77.9394683 114.76635742 67.18530273 C113.63359375 66.96245605 112.50083008 66.73960938 111.33374023 66.51000977 C96.29439162 63.60006472 81.24195889 61.53518229 66.01635742 59.93530273 C64.83520355 59.81067657 64.83520355 59.81067657 63.63018799 59.68353271 C44.2829875 57.66875843 25.09441289 56.94710772 5.64135742 56.93530273 C4.48250031 56.93429565 3.32364319 56.93328857 2.12966919 56.93225098 C-28.59425938 56.95017856 -58.92046472 59.03922042 -89.23364258 64.18530273 Z " fill="#E4E5E4" transform="translate(635.233642578125,-0.185302734375)"/>
<path d="M0 0 C0 0.66 0 1.32 0 2 C0.969375 2.0825 1.93875 2.165 2.9375 2.25 C10.45068051 3.32547544 17.31738926 7.59794362 24 11 C24 11.66 24 12.32 24 13 C24.598125 13.144375 25.19625 13.28875 25.8125 13.4375 C27.56150404 13.8872439 29.28677023 14.42892341 31 15 C31 15.66 31 16.32 31 17 C31.78375 17.185625 32.5675 17.37125 33.375 17.5625 C38.50803788 19.59801502 42.55931914 22.75420114 47 26 C48.78276177 27.27682223 50.56904454 28.54862069 52.35546875 29.8203125 C54.66466155 31.46481227 56.97102781 33.11312814 59.27099609 34.77050781 C60.49840556 35.64331692 61.73698196 36.50051619 62.98291016 37.34667969 C64.68876828 38.51707242 66.34877568 39.75371379 68 41 C68 41.66 68 42.32 68 43 C68.8353125 43.309375 68.8353125 43.309375 69.6875 43.625 C74.00429584 46.19174347 77.12326015 50.37015719 79 55 C80.06163081 61.93348265 79.8559749 67.64815981 75.875 73.5625 C71.98235098 78.40668545 68.23104384 81.77181957 62 83 C60.21190426 83.14045465 58.41835034 83.21985966 56.625 83.25 C55.70976563 83.27578125 54.79453125 83.3015625 53.8515625 83.328125 C48.03427872 82.65873892 44.17701219 79.49219042 39.9375 75.6875 C30.62760791 67.59979166 19.96393234 60.45877118 9.20874023 54.43725586 C8.47985596 53.96296143 7.75097168 53.48866699 7 53 C7 52.34 7 51.68 7 51 C6.32839844 50.91363281 5.65679688 50.82726562 4.96484375 50.73828125 C1.17433402 49.79439938 -2.01918955 48.01610011 -5.4375 46.1875 C-22.27963886 37.60258908 -38.45109105 36.35322993 -57 39 C-57 39.66 -57 40.32 -57 41 C-57.825 41.309375 -58.65 41.61875 -59.5 41.9375 C-68.34882033 46.4453896 -73.43067501 56.15696647 -77 65 C-77.3823529 66.65610843 -77.73349898 68.32134992 -78 70 C-78.66 70 -79.32 70 -80 70 C-80.12117187 70.66644531 -80.24234375 71.33289063 -80.3671875 72.01953125 C-82 81 -82 81 -82.49462891 83.45019531 C-83.78277705 90.03041703 -84.40179491 96.42884739 -84.625 103.125 C-84.68300781 104.48238281 -84.68300781 104.48238281 -84.7421875 105.8671875 C-85.34533974 121.4629812 -84.86984643 136.87568412 -83.828125 152.44140625 C-83.62347834 155.52291272 -83.43240058 158.60507259 -83.2421875 161.6875 C-83.11278954 163.6771362 -82.9826094 165.66672172 -82.8515625 167.65625 C-82.79626373 168.56266235 -82.74096497 169.46907471 -82.68399048 170.4029541 C-82.33631957 175.42498417 -81.6536848 180.18328826 -80.4624939 185.07675171 C-79.8226674 187.73742514 -79.41260783 190.42094513 -79 193.125 C-78.46687535 196.46760692 -77.85064876 199.49783748 -76.875 202.75 C-75.81648719 206.68161901 -75.94143949 209.93422768 -76 214 C-75.12323608 213.84180786 -75.12323608 213.84180786 -74.22875977 213.68041992 C-61.44956544 211.41427394 -48.67595499 209.62061011 -35.75 208.4375 C-35.08483368 208.37401367 -34.41966736 208.31052734 -33.73434448 208.24511719 C-25.59694628 207.47481569 -17.48779419 206.94616343 -9.3157959 206.72605896 C-5.25395914 206.61199653 -1.19452096 206.44935503 2.86560059 206.28616333 C4.85102015 206.22107124 6.83741791 206.18055786 8.82385254 206.16622925 C20.63118632 206.40649988 20.63118632 206.40649988 30.56103516 200.97583008 C32.98806598 198.10965103 34.95889801 195.05089921 36.85572815 191.81651306 C38.80222489 188.72648097 41.21665827 186.04705446 43.625 183.3125 C44.54440678 182.23951178 45.46256204 181.16544862 46.37890625 180.08984375 C46.81992676 179.57276855 47.26094727 179.05569336 47.71533203 178.52294922 C49.7005335 176.16953098 51.62884887 173.77082433 53.5625 171.375 C57.36696006 166.69939345 61.35551653 162.22795096 65.4453125 157.80078125 C67.45481924 155.59769818 69.42584205 153.37415701 71.3828125 151.125 C82.0656686 138.88548275 93.52902386 127.36943615 105 115.875 C105.87585754 114.99526016 105.87585754 114.99526016 106.76940918 114.0977478 C113.00485497 107.84050665 119.27177452 101.73159839 126 96 C127.77570221 94.38032183 129.54708307 92.75588282 131.3125 91.125 C136.71493316 86.20492695 142.28914757 81.55644987 148 77 C148.76256104 76.38801758 148.76256104 76.38801758 149.54052734 75.76367188 C165.08104422 63.30843963 181.00883659 51.6077224 198.01171875 41.21875 C199.70432974 40.181236 201.38477538 39.12391762 203.0625 38.0625 C210.29079648 33.5448147 217.88469343 30.56272839 226 28 C226 27.34 226 26.68 226 26 C229.3179135 24.62677616 232.65736786 23.31181101 236 22 C236.67063477 21.73203613 237.34126953 21.46407227 238.03222656 21.18798828 C255.94943531 14.07133995 272.00373636 10.64779882 291.3125 10.625 C292.04422424 10.62291534 292.77594849 10.62083069 293.52984619 10.61868286 C295.64139966 10.61936468 297.75190607 10.63762033 299.86328125 10.6640625 C301.09344971 10.67904785 302.32361816 10.6940332 303.59106445 10.70947266 C307.03590492 11.00306001 309.77475366 11.79187418 313 13 C314.70687497 13.40207541 316.41521998 13.79796296 318.125 14.1875 C324.77654515 15.95942801 330.21908872 19.35587254 336 23 C336.94101562 23.5259375 337.88203125 24.051875 338.8515625 24.59375 C339.56054688 25.0578125 340.26953125 25.521875 341 26 C341 26.66 341 27.32 341 28 C341.680625 28.185625 342.36125 28.37125 343.0625 28.5625 C352.81559319 33.33529029 360.14230897 44.98305977 364.07421875 54.76953125 C365.07730516 57.18625 366.26948711 59.44139424 367.5 61.75 C372.61463242 71.97199826 374.72479633 82.56745059 375.75 93.875 C375.86996338 95.16946045 375.98992676 96.4639209 376.11352539 97.79760742 C377.89643573 118.20161352 377.65008953 138.36861946 375.1875 158.6875 C375.10490936 159.3733316 375.02231873 160.05916321 374.93722534 160.76577759 C371.58394843 187.8978039 371.58394843 187.8978039 362.4375 196.375 C356.31529677 200.45646882 351.3019033 200.72361204 344 200 C336.79572571 198.18981978 332.9736054 192.96616695 329 187 C327.61902335 184.23804671 327.83038396 181.9581952 327.8125 178.875 C327.79832031 177.77929688 327.78414062 176.68359375 327.76953125 175.5546875 C327.98386235 172.24890274 328.6340236 169.34883927 329.49438477 166.16064453 C330.43064471 162.15972687 330.71381414 158.08697524 331.0625 154 C331.14411377 153.06849121 331.22572754 152.13698242 331.30981445 151.17724609 C331.47134084 149.30302468 331.6295365 147.42851283 331.78417969 145.55371094 C331.96432731 143.42209992 332.17038241 141.29269872 332.3828125 139.1640625 C334.38001851 115.96574649 335.61902613 85.9032603 320.234375 66.80859375 C317.11014473 63.55531919 313.91473572 61.25393875 310 59 C310 58.34 310 57.68 310 57 C295.23896101 53.77102272 278.00883342 53.19846172 263.89453125 59.23046875 C261.77296827 60.09221701 259.64967437 60.65984546 257.4375 61.25 C238.38421905 66.91683318 219.96338955 78.3720714 204 90 C202.33496928 91.14820926 200.66837559 92.29415635 199 93.4375 C194.29445983 96.71899512 189.77497824 100.22678317 185.2890625 103.80053711 C181.21600281 107 181.21600281 107 179 107 C179 107.66 179 108.32 179 109 C177.3046875 110.5234375 177.3046875 110.5234375 174.875 112.375 C169.69893815 116.39753949 164.74156374 120.62847013 159.82373047 124.96240234 C157.01864815 127.40322957 154.48511661 129.57505084 151 131 C151 131.66 151 132.32 151 133 C149.53125 134.4453125 149.53125 134.4453125 147.5 136.125 C144.53322639 138.64257902 141.72425751 141.22168976 139 144 C136.40787456 146.63777932 133.75815391 149.10869418 130.9375 151.5 C127.59277137 154.37711608 124.76192599 157.47051201 121.9140625 160.83203125 C119.70774516 163.33102333 117.37316307 165.65910047 115 168 C109.96696803 172.97948907 105.26618673 178.13394031 100.875 183.6875 C99 186 99 186 96.70703125 188.25 C93.37408208 191.63585312 90.4423428 195.26499499 87.48632812 198.97851562 C86.3666298 200.35463341 85.18762184 201.68205506 84 203 C83.34 203 82.68 203 82 203 C82 203.66 82 204.32 82 205 C82.81041748 204.99476318 83.62083496 204.98952637 84.45581055 204.98413086 C87.5292127 204.9668535 90.60258971 204.95443745 93.67602539 204.94506836 C95.63364327 204.93770264 97.59123871 204.92498174 99.54882812 204.91210938 C106.70801421 204.89389262 113.75654686 205.13595971 120.88842773 205.75268555 C125.98187234 206.15752347 131.08153078 206.28014749 136.1875 206.4375 C153.2906977 207.04615472 170.42783555 207.83393978 187.3137207 210.75341797 C194.51028583 211.98337914 201.74116471 212.86590762 208.98727417 213.74121094 C219.88986514 215.06105806 230.75003704 216.40230323 241.53271484 218.52099609 C244.57703957 219.11202767 247.62639971 219.67392439 250.67578125 220.23828125 C277.97038301 225.34250997 305.04329531 231.18183091 331.61669922 239.29199219 C334.82620655 240.24544141 338.06486679 241.06217635 341.3125 241.875 C348.53399593 243.76634417 355.6021213 246.09150024 362.6875 248.4375 C363.81647705 248.8092334 364.9454541 249.1809668 366.10864258 249.56396484 C373.55707178 252.06038349 380.78642977 254.89470061 388 258 C389.13139404 258.47928955 390.26278809 258.9585791 391.4284668 259.45239258 C438.86515771 279.57208143 496.80589306 306.29660205 517.9375 357.14453125 C518.288125 358.08683594 518.63875 359.02914063 519 360 C519.5878125 361.55267578 519.5878125 361.55267578 520.1875 363.13671875 C527.08465411 384.52268617 523.58570319 406.39297348 513.625 426.0625 C510.28206235 431.85399286 506.39110418 436.96989185 502 442 C501.2884375 442.83273437 500.576875 443.66546875 499.84375 444.5234375 C491.02981786 454.6098035 481.23100105 462.7474383 470 470 C469.44248047 470.36061523 468.88496094 470.72123047 468.31054688 471.09277344 C457.02660689 478.30231718 445.08778899 484.26780599 433 490 C432.19111328 490.38559082 431.38222656 490.77118164 430.54882812 491.16845703 C422.02493769 495.16605375 413.61163528 499.06171029 404 497 C397.67873783 494.48417994 392.79233604 489.80555855 389.890625 483.64453125 C387.93859668 477.848377 388.05106526 471.3222171 390.5 465.6875 C395.28565108 457.82558903 403.74959309 454.51730359 411.9375 451.1875 C426.95244673 444.85400524 440.93643185 437.79341811 454 428 C455.46759766 426.90365234 455.46759766 426.90365234 456.96484375 425.78515625 C467.35712696 417.67375824 477.53092752 406.45780167 480 393 C481.16123133 380.27111813 476.53339714 368.80422519 468.55078125 358.98828125 C465.81494043 355.87769502 462.93652971 352.92047761 460 350 C459.15566406 349.15566406 458.31132813 348.31132813 457.44140625 347.44140625 C444.62340106 335.2477179 429.60578139 326.15386124 414 318 C413.34741211 317.65517578 412.69482422 317.31035156 412.02246094 316.95507812 C400.82510657 311.06656681 389.23563567 306.09356643 377.60717773 301.1262207 C375.17664791 300.07630647 372.76338919 298.99436889 370.3515625 297.90234375 C346.53564063 287.2911066 320.48372364 280.98116329 295.25 274.6875 C294.42149536 274.48071625 293.59299072 274.2739325 292.73937988 274.06088257 C283.95016212 271.87558585 275.14461353 269.77538227 266.3046875 267.8046875 C265.58847229 267.64501999 264.87225708 267.48535248 264.13433838 267.32084656 C258.06950614 265.98535025 251.97900642 264.81655998 245.86889648 263.70874023 C243.42728283 263.26146287 240.98867963 262.79710524 238.55493164 262.30883789 C226.62985078 259.94137653 214.62902408 258.44806657 202.5625 257 C201.49415924 256.86993561 200.42581848 256.73987122 199.32510376 256.60586548 C184.10445347 254.75466499 168.87973388 253.10357009 153.59790039 251.84960938 C152.37321045 251.74841797 151.14852051 251.64722656 149.88671875 251.54296875 C148.83701904 251.46071045 147.78731934 251.37845215 146.70581055 251.29370117 C144 251 144 251 142.07324219 250.49951172 C132.03968137 248.0820994 120.46047011 248.76409925 110.16253662 248.37197876 C104.83092504 248.16802979 99.50514342 247.92366255 94.17822266 247.61962891 C88.25119853 247.28623588 82.32649269 247.05318749 76.39279175 246.87747192 C74.06386461 246.79308011 71.73585451 246.67686633 69.41018677 246.52755737 C57.01604999 245.39433083 57.01604999 245.39433083 45.80047607 249.64498901 C41.7878332 253.84859358 38.94882803 258.65147411 36.22528076 263.75616455 C34.57973713 266.76962011 32.65375862 269.42779498 30.6171875 272.19140625 C29.36728719 273.98002329 28.11984901 275.77036366 26.875 277.5625 C26.20178711 278.53155273 25.52857422 279.50060547 24.83496094 280.49902344 C19.50363363 288.20718115 14.33584429 296.00443299 9.31982422 303.92089844 C7.96229972 306.05938875 6.59315465 308.19011749 5.22265625 310.3203125 C-0.8550282 319.80878482 -6.69413463 329.4315967 -12.4375 339.125 C-12.77856781 339.700224 -13.11963562 340.275448 -13.47103882 340.86810303 C-15.08378151 343.59116846 -16.68706591 346.31912034 -18.27685547 349.05566406 C-19.36566109 350.91610551 -20.4766187 352.76391346 -21.61767578 354.59277344 C-22.08544434 355.36395508 -22.55321289 356.13513672 -23.03515625 356.9296875 C-23.64629272 357.90397705 -23.64629272 357.90397705 -24.26977539 358.89794922 C-25.94095512 363.70866719 -23.60068398 368.36529838 -21.62109375 372.76953125 C-21.1202124 373.8889209 -20.61933105 375.00831055 -20.10327148 376.16162109 C-19.54859548 377.37884572 -18.99332046 378.59579754 -18.4375 379.8125 C-17.85815235 381.09195875 -17.27880669 382.37141841 -16.69946289 383.65087891 C5.58271018 432.64382534 30.98524389 480.27738753 61 525 C61.59377441 525.8859082 62.18754883 526.77181641 62.79931641 527.68457031 C78.18194811 550.57238922 94.31345455 572.82640918 112 594 C112.62720947 594.75458496 112.62720947 594.75458496 113.26708984 595.52441406 C119.10172514 602.53619395 125.08425529 609.3712622 131.296875 616.05078125 C133.30095163 618.21122276 135.22704639 620.42656978 137.14453125 622.6640625 C141.38066471 627.52302144 145.92206254 632.07251743 150.48803711 636.6184082 C151.93524385 638.06025221 153.37702026 639.50737116 154.81835938 640.95507812 C160.04139121 646.18253123 165.35499203 651.23014138 171 656 C171.62318115 656.53520264 172.2463623 657.07040527 172.88842773 657.62182617 C198.74756042 679.73623093 231.16151934 704.87556405 267 703 C275.51324476 702.13879282 283.26950031 698.21704755 289.1875 692 C312.48089159 661.92915266 310.14108138 612.98431849 305.875 577.375 C305.32486612 573.23650065 304.67423241 569.11991175 304 565 C303.78764568 563.64483919 303.57627633 562.28952378 303.36572266 560.93408203 C300.56886038 543.0253788 297.23685183 525.34707061 292.71142578 507.78417969 C292.00245546 505.0096095 291.32294858 502.22938346 290.65234375 499.4453125 C288.71516716 491.43982783 286.67120958 483.57358049 283.9453125 475.79296875 C282.95401222 472.86412702 282.12697017 469.92022182 281.3125 466.9375 C279.25094941 459.5901337 276.8515641 452.36331972 274.4375 445.125 C274.04925049 443.95960693 273.66100098 442.79421387 273.26098633 441.59350586 C271.27881951 435.68436473 269.21371384 429.8257138 267 424 C266.75982651 423.36749329 266.51965302 422.73498657 266.27220154 422.08331299 C259.10805099 403.27127855 251.78010807 384.58206074 243.46533203 366.24267578 C241.78362657 362.52118095 240.12337792 358.79045492 238.46484375 355.05859375 C237.56382153 353.03463485 236.66232543 351.01088803 235.76052856 348.98727417 C235.17362357 347.67016123 234.58709155 346.35288202 234.00094604 345.03543091 C233.18792026 343.21005255 232.3713887 341.38623688 231.5546875 339.5625 C231.08530762 338.51191406 230.61592773 337.46132813 230.13232422 336.37890625 C229.20919516 334.09767265 229.20919516 334.09767265 228 333 C227.21910018 325.16096718 228.47249513 319.05984854 233.375 312.75 C238.2701913 307.62170435 242.85125695 305.89578916 249.8125 305.6875 C255.07045843 305.74162604 257.72571107 306.98285487 262 310 C262.81984375 310.57621094 263.6396875 311.15242188 264.484375 311.74609375 C267.4473855 314.40084073 268.71063406 316.7271594 270.4375 320.3125 C270.76476074 320.99143311 271.09202148 321.67036621 271.42919922 322.36987305 C272.63808561 324.90485314 273.81975695 327.45155744 275 330 C275.49677246 331.0621875 275.99354492 332.124375 276.50537109 333.21875 C283.60539907 348.45161458 290.27701017 363.82508562 296.5 379.4375 C296.78514465 380.15281891 297.07028931 380.86813782 297.36407471 381.60513306 C302.68615448 394.99294111 307.84150178 408.44983227 312.5625 422.0625 C312.85423096 422.90047119 313.14596191 423.73844238 313.4465332 424.60180664 C330.11836762 472.63115121 342.35127057 521.58600908 349 572 C349.11859375 572.85368164 349.2371875 573.70736328 349.359375 574.58691406 C352.8021205 599.9874084 352.66865612 627.64237003 349 653 C348.87641113 653.86254395 348.75282227 654.72508789 348.62548828 655.61376953 C345.09435143 679.03055705 337.29843406 703.25141513 321 721 C320.30261719 721.77730469 319.60523438 722.55460938 318.88671875 723.35546875 C307.1185702 735.83430477 289.45909163 745.01332967 272.17358398 746.19287109 C228.11926307 747.40527422 191.76863605 728.05963551 158 701 C157.05769531 700.25105469 156.11539062 699.50210938 155.14453125 698.73046875 C149.51389009 694.19577749 144.11093248 689.46017713 138.80078125 684.5546875 C137.33279392 683.2156865 135.86008362 681.88083647 134.34741211 680.5925293 C128.14717528 675.30554973 122.41980959 669.57134302 116.67260742 663.80297852 C114.941053 662.066064 113.20421641 660.33456111 111.46679688 658.60351562 C105.76311839 652.90325894 100.22124521 647.15119557 95 641 C93.54554483 639.39231627 92.08779105 637.78760285 90.625 636.1875 C86.78071755 631.92254692 83.10473095 627.5513915 79.49609375 623.0859375 C77.68801844 620.85060183 75.86887237 618.62811795 74.03515625 616.4140625 C66.23708333 606.96519752 58.88149618 597.24621011 51.69238281 587.32763672 C50.11580215 585.15926972 48.52542061 583.00194752 46.9296875 580.84765625 C11.61943927 532.92741581 -17.54644737 480.877707 -44.1875 427.75 C-44.75267334 426.62432617 -45.31784668 425.49865234 -45.90014648 424.33886719 C-46.42165283 423.29375977 -46.94315918 422.24865234 -47.48046875 421.171875 C-47.94348389 420.2447168 -48.40649902 419.31755859 -48.88354492 418.36230469 C-50 416 -50 416 -51 413 C-51.66 412.67 -52.32 412.34 -53 412 C-53.27150879 412.85980469 -53.54301758 413.71960938 -53.82275391 414.60546875 C-54.98472669 417.95596015 -56.34317367 421.09687201 -57.8359375 424.3125 C-58.40608307 425.55059587 -58.97580726 426.78888585 -59.54516602 428.02734375 C-59.84351349 428.67429199 -60.14186096 429.32124023 -60.44924927 429.98779297 C-65.76764051 441.54782083 -70.84001779 453.18370127 -75.5625 465 C-76.03800293 466.18335938 -76.51350586 467.36671875 -77.00341797 468.5859375 C-79.86905906 475.82887842 -82.40544891 483.12750334 -84.82470703 490.52685547 C-86.10704168 494.31632218 -87.57024759 497.99712683 -89.08837891 501.69628906 C-107.27138436 547.6456301 -123.46615144 615.07707762 -104.54296875 662.6640625 C-99.85629755 672.82882166 -93.74987518 679.71006794 -83.38671875 684.109375 C-68.73312172 687.96291609 -53.02858555 684.67514151 -39 680 C-38.3390332 679.79133301 -37.67806641 679.58266602 -36.99707031 679.36767578 C-14.95618527 672.34654236 4.53465236 659.47811137 23.52416992 646.59716797 C29.68105853 642.6253343 34.69814957 642.09078371 42 643 C48.30707299 645.40515222 52.6707899 650.12624277 56.1015625 655.83203125 C57.21563627 658.5203397 57.40791596 660.71667906 57.5 663.625 C57.57734375 665.06746094 57.57734375 665.06746094 57.65625 666.5390625 C56.11955762 674.64328541 51.7536367 679.83109679 45.140625 684.5625 C42.86893663 686.08304055 40.56412657 687.54513868 38.25 689 C37.02860414 689.78790829 35.80790693 690.57690061 34.58789062 691.36694336 C25.29555949 697.34392599 15.86112176 703.01003477 6 708 C5.24348145 708.38446289 4.48696289 708.76892578 3.70751953 709.16503906 C-26.85715054 724.53275027 -60.50503282 735.35212477 -94.6796875 725.9921875 C-117.0123119 718.18395941 -132.88942812 703.36907713 -143.203125 682.23095703 C-157.70289177 651.20232267 -157.52815439 614.34141743 -153 581 C-152.87641113 580.06655762 -152.75282227 579.13311523 -152.62548828 578.17138672 C-149.42979168 554.71691048 -144.20464534 531.56896184 -136.69091797 509.12060547 C-135.51870657 505.52278632 -134.48343925 501.88611898 -133.4375 498.25 C-130.37317709 487.68692534 -126.92212899 477.27834846 -123 467 C-122.64486328 466.06841064 -122.28972656 465.13682129 -121.92382812 464.17700195 C-110.89269794 435.39516898 -98.45119953 407.23644735 -84.3203125 379.83203125 C-83.70804489 378.63690618 -83.09598233 377.44167605 -82.48413086 376.24633789 C-81.31010834 373.96162848 -80.12390538 371.68312622 -78.92407227 369.41186523 C-78.13214478 367.86994507 -78.13214478 367.86994507 -77.32421875 366.296875 C-76.85072998 365.39291992 -76.37724121 364.48896484 -75.8894043 363.55761719 C-73.24359696 355.94919619 -79.94606604 345.1981446 -83.125 338.3125 C-84.85822003 334.51194522 -86.08383336 330.67675455 -87.19140625 326.65234375 C-88.05469445 323.82059162 -89.08514206 321.07077422 -90.13696289 318.30444336 C-94.85718035 305.70072833 -99.23592815 292.92219311 -103 280 C-103.37125 278.75089844 -103.7425 277.50179688 -104.125 276.21484375 C-107 266.42233732 -107 266.42233732 -107 263 C-132.51135415 268.59225278 -157.77273807 275.13943653 -182 285 C-182.81774902 285.3312085 -183.63549805 285.66241699 -184.47802734 286.00366211 C-211.64230737 297.09426006 -242.95843337 311.91862357 -255.9375 339.9375 C-259.47368324 349.04054597 -258.82761994 357.14091191 -255 366 C-254.6596875 366.80179688 -254.319375 367.60359375 -253.96875 368.4296875 C-242.59693338 393.09423571 -216.84698961 408.67477061 -193.921875 421.2578125 C-192.97260132 421.78242065 -192.97260132 421.78242065 -192.00415039 422.31762695 C-190.31604077 423.24210575 -188.61739053 424.14726549 -186.91796875 425.05078125 C-182.5253509 427.9850735 -178.79813221 431.92985671 -177 437 C-176.10326054 444.13615823 -176.10122025 450.45121017 -180.5078125 456.3515625 C-185.26306556 461.60474782 -190.39817635 465.1379563 -197.625 465.75 C-206.99162112 465.54910732 -215.17828611 459.64651756 -223 455 C-223.80598633 454.5241748 -224.61197266 454.04834961 -225.44238281 453.55810547 C-234.38198365 448.22587092 -242.95802916 442.48088857 -251.25 436.1875 C-251.92885254 435.67276123 -252.60770508 435.15802246 -253.30712891 434.62768555 C-257.88856945 431.06681771 -261.97438037 427.17275485 -266 423 C-266.825 422.175 -267.65 421.35 -268.5 420.5 C-269.325 419.675 -270.15 418.85 -271 418 C-271.51046875 417.52433594 -272.0209375 417.04867188 -272.546875 416.55859375 C-289.38061389 400.53565421 -300.86994664 377.91954447 -301.48193359 354.55151367 C-301.64089158 328.25255889 -290.94659415 307.80897329 -272.6875 289.3125 C-253.98570631 270.87669956 -228.89115758 255.62848728 -204.109375 247.16015625 C-201.35879826 246.13387322 -198.79996974 244.96400526 -196.15234375 243.703125 C-188.91500097 240.38382915 -181.40217566 238.04093059 -173.8125 235.6875 C-173.06119812 235.45243744 -172.30989624 235.21737488 -171.53582764 234.97518921 C-160.1486664 231.42223523 -148.69612837 228.20936325 -137.125 225.3125 C-136.44200836 225.14019867 -135.75901672 224.96789734 -135.05532837 224.79037476 C-123.09864911 221.79399994 -123.09864911 221.79399994 -118 222 C-118.42276463 219.66429807 -118.84598231 217.32867966 -119.26977539 214.99316406 C-119.6358099 212.97445821 -120.00085966 210.95557359 -120.36499023 208.93652344 C-121.54643207 202.40398238 -121.54643207 202.40398238 -122.828125 195.890625 C-127.21781365 174.12897702 -128.60350959 152.15702716 -129 130 C-129.02489502 128.76564209 -129.02489502 128.76564209 -129.05029297 127.50634766 C-129.12363261 123.41653096 -129.12225928 119.3344488 -129.04150391 115.24414062 C-129.01142912 113.61797899 -128.99159058 111.99161754 -128.97802734 110.36523438 C-128.71440343 84.28880768 -123.76427635 59.37307768 -112 36 C-111.34 36 -110.68 36 -110 36 C-109.85691406 34.92105469 -109.85691406 34.92105469 -109.7109375 33.8203125 C-106.83087602 22.39501365 -93.95986039 11.35960129 -84.5 5.125 C-57.54947335 -10.80203902 -28.9796107 -10.01879918 0 0 Z " fill="#F0F7F4" transform="translate(529,270)"/>
<path d="M0 0 C9.7043987 7.05774451 17.59565509 16.52592567 20.58984375 28.32421875 C22.8337451 42.96300377 19.95355148 56.95193609 11.5078125 69.15625 C4.63372668 77.70774432 -6.10913384 84.27800452 -17 86 C-31.44216226 86.76088393 -41.75990844 85.18199669 -54 77 C-55.3303125 76.13375 -55.3303125 76.13375 -56.6875 75.25 C-65.49771442 66.67789948 -71.97201244 54.57996846 -72.29272461 42.21313477 C-72.42723719 27.15935041 -67.98918225 16.35346412 -57.6875 5.25 C-41.62678157 -9.9503228 -18.48339794 -11.5351449 0 0 Z " fill="#EFF7F2" transform="translate(668,606)"/>
<path d="M0 0 C-1.59012352 4.19498535 -3.55732462 7.3309199 -6.25 10.9375 C-10.71060568 17.03288698 -14.83572183 23.3061847 -18.875 29.6875 C-19.46418213 30.6170752 -20.05336426 31.54665039 -20.66040039 32.50439453 C-23.61892043 37.18747293 -26.55097275 41.88575794 -29.45703125 46.6015625 C-30.00182129 47.47981689 -30.54661133 48.35807129 -31.10791016 49.26293945 C-32.13991873 50.92866829 -33.16467148 52.59892041 -34.18115234 54.27416992 C-34.64086426 55.01513916 -35.10057617 55.7561084 -35.57421875 56.51953125 C-35.97213623 57.17026611 -36.37005371 57.82100098 -36.7800293 58.49145508 C-38 60 -38 60 -41 61 C-42.62154886 56.18570004 -44.23873152 51.36996078 -45.85229492 46.55297852 C-46.39901828 44.92271691 -46.94682773 43.29281905 -47.49584961 41.66333008 C-50.42123277 32.97834745 -53.27956486 24.28026885 -55.89453125 15.49609375 C-56.10865158 14.78413345 -56.32277191 14.07217316 -56.54338074 13.33863831 C-57.38863113 10.4520834 -58 8.0254254 -58 5 C-52.47395386 4.27405725 -46.94626992 3.56274598 -41.41674805 2.86376953 C-39.54386185 2.62507306 -37.67144192 2.382683 -35.79956055 2.13623047 C-23.79399965 0.5586695 -12.11099724 -0.35952494 0 0 Z " fill="#70C88A" transform="translate(522,520)"/>
</svg>
