<?xml version="1.0" encoding="UTF-8"?>
<svg version="1.1" xmlns="http://www.w3.org/2000/svg" width="612" height="612">
<path d="M0 0 C201.96 0 403.92 0 612 0 C612 201.96 612 403.92 612 612 C410.04 612 208.08 612 0 612 C0 410.04 0 208.08 0 0 Z " fill="#FEFEFE" transform="translate(0,0)"/>
<path d="M0 0 C3.26833389 2.08444824 6.13569563 4.39359277 9 7 C9.65226563 7.56074219 10.30453125 8.12148438 10.9765625 8.69921875 C17.63023381 14.80946272 22.16631113 22.45133621 27 30 C35.57412518 43.21844299 44.77126662 57.11103409 56.875 67.375 C70.34357984 78.85510841 79.26053337 92.62899006 83 110 C84.19464033 125.51714208 83.08067995 138.04936584 74 151 C73.443125 151.825 72.88625 152.65 72.3125 153.5 C71.879375 153.995 71.44625 154.49 71 155 C70.34 155 69.68 155 69 155 C69 155.66 69 156.32 69 157 C56.11271495 167.28118963 42.97405797 168.48013543 27 167 C18.35091487 165.48208358 9.54679471 163.24532919 1.39453125 159.9453125 C-3.79900071 157.89501114 -9.48477803 157.58295611 -15 157 C-16.02738281 156.88914062 -17.05476563 156.77828125 -18.11328125 156.6640625 C-31.99678969 155.93790141 -46.25328633 160.39202848 -59.4609375 164.2890625 C-67.22992648 166.51563872 -74.3053889 167.39902889 -82.375 167.5 C-83.73093262 167.52779541 -83.73093262 167.52779541 -85.11425781 167.55615234 C-96.25484877 167.45182437 -104.97952316 162.81979428 -112.875 155.1875 C-122.83995506 144.53530666 -126.37548603 131.50864231 -126.21484375 117.17578125 C-124.8220003 96.58702259 -112.84814412 80.4905711 -98.546875 66.6328125 C-86.38882764 54.83184132 -76.41638932 42.21756958 -67.59643555 27.75610352 C-52.81875247 3.66694919 -28.6905705 -15.31194868 0 0 Z " fill="#020202" transform="translate(327,278)"/>
<path d="M0 0 C8.07833283 4.35104179 13.3585454 10.09371614 17.0625 18.4375 C17.45566406 19.26378906 17.84882813 20.09007812 18.25390625 20.94140625 C24.65185113 36.61302732 21.81268688 55.36711632 15.77734375 70.703125 C10.69440027 81.74684621 3.02679456 91.7499138 -8.0625 97.125 C-8.91070312 97.54136719 -9.75890625 97.95773437 -10.6328125 98.38671875 C-17.25679042 101.4068036 -24.88269669 101.70360278 -31.83984375 99.53125 C-37.20526901 97.0139377 -40.5035213 94.22425819 -43.9375 89.4375 C-44.42347656 88.98503906 -44.90945313 88.53257812 -45.41015625 88.06640625 C-53.02252321 79.94784609 -55.54546932 65.42613321 -55.22265625 54.703125 C-53.54850678 35.53067348 -46.97017171 18.99627285 -32.9375 5.4375 C-23.50915988 -1.72525007 -11.33839916 -4.61055324 0 0 Z " fill="#030303" transform="translate(369.9375,168.5625)"/>
<path d="M0 0 C14.12636286 8.21166622 22.62819916 20.85241887 27.13110352 36.47241211 C28.6661962 42.59433715 28.91143108 48.52033133 28.875 54.8125 C28.86936035 55.82779785 28.8637207 56.8430957 28.85791016 57.88916016 C28.66952752 69.51852407 26.83815345 78.24978045 19.5625 87.5 C18.84900391 88.47453125 18.84900391 88.47453125 18.12109375 89.46875 C13.81381996 95.00835008 8.45186348 98.13244845 1.5625 99.5 C-9.70511005 100.40980702 -17.66169449 97.54157478 -26.4375 90.5 C-38.63974694 79.36416792 -45.95971458 63.1708091 -46.74609375 46.6796875 C-47.11058183 31.67394832 -45.28434916 17.33687218 -34.9296875 5.67578125 C-25.04461843 -3.48634993 -12.44044709 -5.88442742 0 0 Z " fill="#020202" transform="translate(267.4375,169.5)"/>
<path d="M0 0 C8.58894356 5.29429337 13.70160486 12.63207087 16.40625 22.41796875 C18.79212757 40.32515975 15.53019575 56.53903337 4.46875 71.10546875 C-1.0043436 77.46609104 -6.83894903 82.14486677 -14.23828125 86.0859375 C-15.21861328 86.62541016 -15.21861328 86.62541016 -16.21875 87.17578125 C-23.15875981 90.38683057 -31.88128977 90.3628848 -39.1171875 88.2421875 C-47.00702484 84.67670376 -52.1483784 78.58785875 -56.23828125 71.0859375 C-61.10426939 57.46918058 -60.37371162 43.24907093 -54.94921875 29.91796875 C-48.44880114 16.2045209 -38.89828641 5.22614488 -24.78125 -0.84765625 C-17.05215746 -3.17405345 -7.4700595 -3.53247933 0 0 Z " fill="#030303" transform="translate(446.23828125,248.9140625)"/>
<path d="M0 0 C13.59811591 9.23403206 22.8330706 22.11719077 26.25 38.3125 C28.40358044 52.21288282 26.97219685 64.49485696 18.55859375 76.09765625 C13.39794039 82.39649882 7.41021236 85.4225943 -0.671875 86.28515625 C-14.06932632 86.72038419 -23.41731456 81.27301057 -33.125 72.4375 C-45.79906038 59.24927895 -49.63849112 42.72002299 -49.33984375 25.0078125 C-48.92145737 15.73387038 -45.19860749 8.29282179 -38.83203125 1.62109375 C-27.86952656 -8.07920357 -12.09580195 -7.21669118 0 0 Z " fill="#030303" transform="translate(198,252)"/>
<path d="M0 0 C1 3 1 3 1 6 C-2.67764836 9.58639157 -7.08680853 12.46462766 -12 14 C-8 9.33333333 -4 4.66666667 0 0 Z " fill="#232323" transform="translate(242,330)"/>
<path d="M0 0 C0.66 0.99 1.32 1.98 2 3 C0.824375 3.928125 0.824375 3.928125 -0.375 4.875 C-2.96837647 6.89858661 -2.96837647 6.89858661 -5 9 C-5 4.61031544 -2.87194899 3.23094261 0 0 Z " fill="#2D2D2D" transform="translate(274,286)"/>
</svg>
