<?xml version="1.0" encoding="UTF-8"?>
<svg version="1.1" xmlns="http://www.w3.org/2000/svg" width="512" height="512">
<path d="M0 0 C1.09441406 -0.020625 2.18882812 -0.04125 3.31640625 -0.0625 C10.9256625 -0.09895153 17.72368799 0.41343294 24.08984375 4.8984375 C24.61707031 5.46820313 25.14429688 6.03796875 25.6875 6.625 C26.23277344 7.18960938 26.77804687 7.75421875 27.33984375 8.3359375 C30.1429 12.14063989 30.99987709 15.73039668 31.00447559 20.40151405 C31.01030779 21.42328731 31.01613998 22.44506057 31.02214891 23.49779665 C31.01836958 24.61345204 31.01459026 25.72910743 31.01069641 26.87857056 C31.01643473 28.6642743 31.01643473 28.6642743 31.02228898 30.48605287 C31.03082335 33.78689859 31.03038497 37.08752161 31.02610838 40.38836098 C31.02364288 43.94938455 31.03265299 47.51038189 31.04014587 51.07139587 C31.05289843 58.04545354 31.05468599 65.01947271 31.05234561 71.99354006 C31.05056341 77.65987595 31.05230998 83.32620015 31.05657005 88.99253464 C31.05746284 90.20166439 31.05746284 90.20166439 31.05837366 91.43522101 C31.05958538 93.07268315 31.06079952 94.71014528 31.06201603 96.34760742 C31.07289309 111.70415894 31.07072791 127.0606885 31.06463119 142.41724126 C31.05945825 156.4763861 31.07072711 170.53546174 31.08972941 184.59459288 C31.10908293 199.02390057 31.11736842 213.45317548 31.11360615 227.88249624 C31.11169079 235.9862282 31.11421447 244.08990119 31.12832069 252.19362259 C31.14020362 259.08993677 31.14167405 265.98615568 31.12953053 272.8824711 C31.12362084 276.40285269 31.1225997 279.92305974 31.13453293 283.44342995 C31.1473008 287.25417316 31.13697749 291.06464865 31.1242218 294.87539673 C31.13159609 295.99551356 31.13897037 297.11563039 31.14656812 298.26969016 C31.1357583 299.7945268 31.1357583 299.7945268 31.12473011 301.35016823 C31.12481263 302.67037733 31.12481263 302.67037733 31.12489682 304.01725733 C30.66918001 306.73133307 29.93210839 307.6183832 27.75 309.25 C25.32141113 309.63095093 25.32141113 309.63095093 22.40820312 309.63818359 C21.31697144 309.64764008 20.22573975 309.65709656 19.10144043 309.6668396 C17.92327759 309.66076691 16.74511475 309.65469421 15.53125 309.6484375 C13.71711609 309.65274277 13.71711609 309.65274277 11.86633301 309.65713501 C9.30753105 309.65917786 6.74871355 309.65363268 4.18994141 309.64111328 C0.26559646 309.62506379 -3.65771847 309.64095562 -7.58203125 309.66015625 C-10.06510645 309.65817386 -12.548181 309.65433027 -15.03125 309.6484375 C-16.79849426 309.65754654 -16.79849426 309.65754654 -18.60144043 309.6668396 C-19.69267212 309.65738312 -20.78390381 309.64792664 -21.90820312 309.63818359 C-22.86956177 309.63579681 -23.83092041 309.63341003 -24.82141113 309.63095093 C-27.75959269 309.17006477 -28.45655357 308.57929527 -30.25 306.25 C-30.62719816 304.02070934 -30.62719816 304.02070934 -30.63031673 301.35854816 C-30.64297665 299.83648666 -30.64297665 299.83648666 -30.65589231 298.28367645 C-30.64988227 297.16560597 -30.64387222 296.0475355 -30.63768005 294.89558411 C-30.64306559 293.71035162 -30.64845113 292.52511914 -30.65399987 291.30397052 C-30.66585963 288.00816116 -30.66419471 284.71285539 -30.65683305 281.4170655 C-30.65211552 277.86476065 -30.6645989 274.31251079 -30.67485046 270.76022339 C-30.69207389 263.79756714 -30.69287086 256.835001 -30.68763756 249.87232897 C-30.68359985 244.21218082 -30.68503467 238.55205934 -30.69038582 232.89191246 C-30.69113424 232.08699859 -30.69188266 231.28208472 -30.69265376 230.45277953 C-30.69418522 228.81766297 -30.69572357 227.18254642 -30.69726873 225.54742988 C-30.71100752 210.20121688 -30.70554726 194.85505481 -30.69408352 179.50884297 C-30.68415797 165.47232525 -30.6970776 151.43593948 -30.72101771 137.39944211 C-30.74540978 122.98937664 -30.75501581 108.57937261 -30.74836498 94.16928691 C-30.74487193 86.07820501 -30.74711004 77.98722451 -30.76461601 69.89615822 C-30.7793397 63.00540084 -30.77997176 56.11481618 -30.7625451 49.22406218 C-30.75403243 45.70910457 -30.75189147 42.19445546 -30.76719666 38.67951393 C-30.78359607 34.86596276 -30.76889626 31.05288753 -30.75120544 27.23933411 C-30.76081045 26.13241724 -30.77041546 25.02550038 -30.78031152 23.88504058 C-30.71667142 17.22068823 -29.7925128 12.93668238 -26.25 7.25 C-24.06640625 5.19140625 -24.06640625 5.19140625 -21.8125 3.8125 C-21.07128906 3.33941406 -20.33007812 2.86632812 -19.56640625 2.37890625 C-13.48246781 -0.58611603 -6.60767276 0.03069767 0 0 Z " fill="#04A9BF" transform="translate(389.25,68.75)"/>
<path d="M0 0 C0.7139946 -0.00570007 1.4279892 -0.01140015 2.16362 -0.01727295 C3.67408777 -0.02671151 5.18457602 -0.03325239 6.69506836 -0.03710938 C8.99304661 -0.04679629 11.29012289 -0.07782106 13.58789062 -0.109375 C15.05858846 -0.11590756 16.52929267 -0.12115704 18 -0.125 C18.68145584 -0.1373468 19.36291168 -0.1496936 20.0650177 -0.16241455 C25.67659767 -0.13652731 29.66989357 1.3146723 33.78125 5.140625 C34.35230469 5.82125 34.92335938 6.501875 35.51171875 7.203125 C36.38763672 8.2240625 36.38763672 8.2240625 37.28125 9.265625 C39.49667835 12.29276677 39.82468005 14.8474185 39.83064651 18.48384857 C39.83448766 19.36230391 39.8383288 20.24075925 39.84228635 21.14583445 C39.84141987 22.11167758 39.84055338 23.07752072 39.83966064 24.07263184 C39.84263177 25.09805006 39.84560289 26.12346828 39.84866405 27.17995977 C39.8573688 30.63235114 39.85886078 34.08470789 39.86035156 37.53710938 C39.86497837 40.00556004 39.87000284 42.47400999 39.87539673 44.94245911 C39.88853341 51.65921215 39.89500427 58.3759516 39.89940739 65.09271431 C39.90216908 69.28468579 39.90640622 73.47665496 39.91091156 77.66862488 C39.92310261 89.27011215 39.93340326 100.87159758 39.93678665 112.47309113 C39.937116 113.58685669 39.937116 113.58685669 39.937452 114.72312257 C39.93777942 115.83957447 39.93777942 115.83957447 39.93811345 116.97858095 C39.93855692 118.48685996 39.93900348 119.99513896 39.93945312 121.50341797 C39.93967455 122.25157884 39.93989598 122.99973971 39.94012412 123.77057213 C39.94407508 135.90281931 39.96153886 148.03500654 39.98481265 160.16723055 C40.00850278 172.61668903 40.02098738 185.06611738 40.02215457 197.51559877 C40.02307249 204.5082504 40.02885425 211.50082384 40.04697418 218.49345398 C40.06394624 225.06630855 40.0656454 231.63904054 40.05683517 238.21191978 C40.05606102 240.6295022 40.06045689 243.04709239 40.07029343 245.46465492 C40.08289832 248.75448973 40.07719878 252.04378808 40.06671143 255.33361816 C40.07476783 256.2994613 40.08282423 257.26530444 40.09112477 258.26041555 C40.08124001 259.57809856 40.08124001 259.57809856 40.07115555 260.92240143 C40.07175264 261.68211447 40.07234972 262.44182752 40.07296491 263.22456217 C39.59479607 265.75592491 38.71515071 266.64431039 36.69921875 268.203125 C34.31532288 268.59753418 34.31532288 268.59753418 31.46508789 268.62304688 C29.86311302 268.64691467 29.86311302 268.64691467 28.22877502 268.67126465 C27.07562302 268.67146606 25.92247101 268.67166748 24.734375 268.671875 C23.54952011 268.67948853 22.36466522 268.68710205 21.14390564 268.69494629 C18.63640451 268.70575915 16.1288583 268.70859561 13.62133789 268.70410156 C9.77999921 268.70312963 5.94065929 268.74473417 2.09960938 268.7890625 C-0.33463124 268.7942695 -2.76887882 268.79695769 -5.203125 268.796875 C-6.35425278 268.81327026 -7.50538055 268.82966553 -8.69139099 268.84655762 C-9.7625264 268.8372522 -10.8336618 268.82794678 -11.93725586 268.81835938 C-13.34931557 268.82144104 -13.34931557 268.82144104 -14.78990173 268.82458496 C-18.48815848 267.90924096 -19.32626508 266.44621852 -21.30078125 263.203125 C-21.88589593 259.90976809 -21.83622055 256.66103943 -21.80198669 253.32330322 C-21.81028829 251.81958935 -21.81028829 251.81958935 -21.81875759 250.28549743 C-21.83238407 246.92217673 -21.81738332 243.55959552 -21.80249023 240.19628906 C-21.80627276 237.7865365 -21.81177225 235.37678611 -21.81886292 232.96704102 C-21.83139329 227.0978262 -21.82523745 221.2288076 -21.81018733 215.35961512 C-21.79331877 208.52047206 -21.79653878 201.68138248 -21.80028141 194.84222504 C-21.80616067 182.63403108 -21.79198831 170.42594023 -21.76733398 158.21777344 C-21.74343408 146.38179657 -21.73632144 134.54595759 -21.74682617 122.70996094 C-21.75824926 109.81617803 -21.76014666 96.92245891 -21.74572808 84.02867675 C-21.74420229 82.65215159 -21.74268193 81.27562643 -21.74116707 79.89910126 C-21.74003035 78.88325659 -21.74003035 78.88325659 -21.73887066 77.84688981 C-21.73413691 73.08460561 -21.73597296 68.32234997 -21.74023247 63.56006622 C-21.74568926 57.14144447 -21.73486253 50.72297089 -21.71327782 44.30438232 C-21.70772127 41.9506062 -21.70723422 39.59681174 -21.71223068 37.24303436 C-21.71820323 34.0254399 -21.70563977 30.8084238 -21.6884613 27.59088135 C-21.69447135 26.66333424 -21.70048139 25.73578713 -21.70667356 24.78013253 C-21.64056965 17.9523395 -20.79430692 11.25970485 -16.36328125 5.828125 C-15.34234375 5.02375 -15.34234375 5.02375 -14.30078125 4.203125 C-13.62015625 3.64625 -12.93953125 3.089375 -12.23828125 2.515625 C-8.34823089 -0.11957041 -4.51707889 0.0279218 0 0 Z " fill="#00B288" transform="translate(291.30078125,109.796875)"/>
<path d="M0 0 C3.19346547 0.09781786 4.37475043 0.70836689 6.86328125 2.77734375 C9.5444591 5.68943644 12.05218984 8.70500274 14.5 11.8125 C14.93715332 12.3580957 15.37430664 12.90369141 15.82470703 13.46582031 C18.11633117 16.32637052 20.37428259 19.20928471 22.60546875 22.1171875 C24.62205894 24.72903203 26.71218497 27.25567993 28.86328125 29.7578125 C29.41773926 30.41426758 29.97219727 31.07072266 30.54345703 31.74707031 C31.61100659 33.00707683 32.6933482 34.25475174 33.79248047 35.48730469 C36.47681709 38.69352131 37.83202512 40.88291463 37.90625 45.13671875 C37.5 48.8125 37.5 48.8125 36.3125 50.75 C33.92316214 52.15064633 32.28328027 52.67996284 29.5 52.8125 C24.94975274 50.65994195 22.11072908 47.33830857 19 43.5 C18.53980469 42.94376953 18.07960938 42.38753906 17.60546875 41.81445312 C16.73297869 40.75886304 15.8634032 39.70085036 14.99804688 38.6394043 C12.84794631 36.0173048 10.67081406 33.41747688 8.5 30.8125 C8.17 128.8225 7.84 226.8325 7.5 327.8125 C148.41 327.4825 289.32 327.1525 434.5 326.8125 C425.94881742 319.53495722 425.94881742 319.53495722 417.25 312.4375 C414.5 309.8125 414.5 309.8125 413.375 307.25 C413.54607967 303.91394647 414.35467854 302.37304497 416.5 299.8125 C419.3125 298.3125 419.3125 298.3125 422.5 297.8125 C427.17339163 299.7258111 430.75845468 302.49617016 434.5 305.8125 C439.12909834 309.82909165 443.84049549 313.68714187 448.6875 317.4375 C450.41536715 318.79415131 452.13974159 320.155048 453.86181641 321.51904297 C455.43627708 322.76218644 457.02068274 323.99270283 458.60546875 325.22265625 C466.1025383 331.3873834 466.1025383 331.3873834 466.6875 335.875 C465.89027136 341.54542909 460.7586585 344.57540876 456.5 347.8125 C454.9779351 349.0401413 453.45712313 350.26933747 451.9375 351.5 C451.11765625 352.14839844 450.2978125 352.79679687 449.453125 353.46484375 C444.97921291 357.0214855 440.55320809 360.63667667 436.12084961 364.24487305 C434.82767939 365.29713522 433.53260182 366.34705902 432.23535156 367.39428711 C430.7265248 368.62737302 429.24890712 369.8984558 427.77734375 371.17578125 C424.1252593 373.80052119 421.90395602 373.30972084 417.5 372.8125 C414.72422328 371.20075868 414.54700481 369.98244047 413.6875 366.875 C413.47666714 363.4313966 413.61990354 362.63008325 415.5 359.8125 C417.63739523 357.84960143 419.93094639 356.11668592 422.25 354.375 C423.47462134 353.43966951 424.69858523 352.50347758 425.921875 351.56640625 C426.46424805 351.15720947 427.00662109 350.7480127 427.56542969 350.32641602 C430.26030765 348.21751417 432.87117482 346.00318765 435.5 343.8125 C223.64 343.3175 223.64 343.3175 7.5 342.8125 C7.5 355.0225 7.5 367.2325 7.5 379.8125 C4.5 382.8125 4.5 382.8125 2.5625 383.2109375 C-3.0052284 383.14766786 -3.0052284 383.14766786 -5.4375 381.5 C-7.92695813 377.54615474 -7.62948187 373.57242428 -7.59765625 369.08203125 C-7.5962413 368.33161057 -7.59482635 367.58118988 -7.59336853 366.80802917 C-7.5877756 364.4136454 -7.57522444 362.01935547 -7.5625 359.625 C-7.55748408 358.00065239 -7.55292134 356.37630332 -7.54882812 354.75195312 C-7.53780848 350.77209931 -7.52054873 346.79231556 -7.5 342.8125 C-8.57483643 342.82821045 -9.64967285 342.8439209 -10.75708008 342.86010742 C-14.74333203 342.91439111 -18.72955128 342.94884421 -22.71606445 342.97729492 C-24.44170627 342.99238516 -26.16730972 343.01285975 -27.89282227 343.03881836 C-30.37265488 343.07519209 -32.85198064 343.09222359 -35.33203125 343.10546875 C-36.48998955 343.12869453 -36.48998955 343.12869453 -37.67134094 343.15238953 C-43.01459235 343.1540699 -43.01459235 343.1540699 -45.4855957 341.4152832 C-47.38166882 338.41944205 -47.03313549 335.21745869 -46.5 331.8125 C-44.68836733 329.13818511 -43.62238923 328.85329641 -40.5 327.8125 C-29.61 327.8125 -18.72 327.8125 -7.5 327.8125 C-7.83 230.1325 -8.16 132.4525 -8.5 31.8125 C-11.8 36.1025 -15.1 40.3925 -18.5 44.8125 C-23.67284624 51.44935932 -23.67284624 51.44935932 -27.0625 52.9375 C-30.55169796 52.75856677 -33.03823982 51.27426018 -35.5 48.8125 C-35.9890791 43.90067339 -36.06410279 41.7486706 -33.48046875 37.4609375 C-32.56858188 36.35377755 -31.6363719 35.26313142 -30.6875 34.1875 C-29.67393043 32.97181146 -28.66092578 31.75565174 -27.6484375 30.5390625 C-27.12604492 29.92450195 -26.60365234 29.30994141 -26.06542969 28.67675781 C-23.56714029 25.70156477 -21.1960065 22.62977177 -18.8125 19.5625 C-4.2319776 0.98242337 -4.2319776 0.98242337 0 0 Z " fill="#003C69" transform="translate(46.5,64.1875)"/>
<path d="M0 0 C0.73336075 -0.00287018 1.4667215 -0.00574036 2.2223053 -0.00869751 C3.76792171 -0.01073199 5.31356422 -0.00524529 6.85913086 0.00732422 C9.21201813 0.02336497 11.56318191 0.00746798 13.91601562 -0.01171875 C15.42318084 -0.00973576 16.93034499 -0.00589092 18.4375 0 C19.13455551 -0.00607269 19.83161102 -0.01214539 20.54978943 -0.0184021 C26.19209199 0.06194004 30.22783612 1.48393322 34.3671875 5.3359375 C34.93824219 6.0165625 35.50929687 6.6971875 36.09765625 7.3984375 C36.97357422 8.419375 36.97357422 8.419375 37.8671875 9.4609375 C40.87129458 13.56572293 40.43079328 17.89167637 40.42559814 22.74938965 C40.42856927 23.61146577 40.43154039 24.4735419 40.43460155 25.36174154 C40.44329951 28.26135306 40.4447977 31.16092334 40.44628906 34.06054688 C40.45091634 36.13491403 40.45594088 38.20928033 40.46133423 40.28364563 C40.47446617 45.92605113 40.48090437 51.56844472 40.48534489 57.21086311 C40.48827344 60.73279608 40.49237776 64.25472578 40.49684906 67.7766571 C40.51052412 78.78694662 40.52019157 89.79722869 40.52405095 100.80752611 C40.52853631 113.53484695 40.54610634 126.26206064 40.57505155 138.98934889 C40.59662985 148.81697801 40.60675312 158.6445769 40.60809207 168.47222948 C40.60914258 174.34706264 40.61510271 180.22179508 40.63291168 186.09660339 C40.64932657 191.61888612 40.65158006 197.14099168 40.64277267 202.66329002 C40.64199884 204.69385946 40.64639026 206.72443817 40.65623093 208.7549839 C40.66884609 211.51936537 40.66313095 214.28310935 40.65264893 217.04748535 C40.66070533 217.85769056 40.66876173 218.66789577 40.67706227 219.50265265 C40.62896348 224.89743172 40.62896348 224.89743172 38.91397476 227.39656258 C36.55088808 228.85008074 34.70604419 228.77976213 31.94335938 228.78662109 C30.85212769 228.79607758 29.760896 228.80553406 28.63659668 228.8152771 C27.45843384 228.80920441 26.280271 228.80313171 25.06640625 228.796875 C23.25227234 228.80118027 23.25227234 228.80118027 21.40148926 228.80557251 C18.8426873 228.80761536 16.2838698 228.80207018 13.72509766 228.78955078 C9.80075271 228.77350129 5.87743778 228.78939312 1.953125 228.80859375 C-0.5299502 228.80661136 -3.01302475 228.80276777 -5.49609375 228.796875 C-7.26333801 228.80598404 -7.26333801 228.80598404 -9.06628418 228.8152771 C-10.70313171 228.80109238 -10.70313171 228.80109238 -12.37304688 228.78662109 C-13.33440552 228.78423431 -14.29576416 228.78184753 -15.28625488 228.77938843 C-17.71484375 228.3984375 -17.71484375 228.3984375 -19.34282112 227.39530087 C-21.52761471 224.21551784 -21.1266422 220.79287986 -21.09579468 217.06767273 C-21.10047465 216.2077133 -21.10515462 215.34775387 -21.10997641 214.46173507 C-21.12197927 211.56898013 -21.11244847 208.67669433 -21.10302734 205.78393555 C-21.10709078 203.71443403 -21.11243138 201.64493467 -21.11895752 199.57543945 C-21.13266652 193.94517469 -21.127317 188.31507433 -21.11782026 182.68480659 C-21.11023917 176.79790784 -21.11726524 170.91102343 -21.12197876 165.02412415 C-21.12744212 155.1336514 -21.12023081 145.24324577 -21.10595703 135.3527832 C-21.08964296 123.91649158 -21.0949077 112.48036051 -21.11143625 101.04407281 C-21.1250507 91.23167156 -21.12697055 81.41931865 -21.11912024 71.606911 C-21.11444178 65.7437345 -21.11382341 59.88063344 -21.12372971 54.01746178 C-21.13239596 48.50253414 -21.12638349 42.98781332 -21.10904694 37.47290802 C-21.10507972 35.44844468 -21.10622015 33.42396394 -21.11283493 31.39950752 C-21.12103143 28.63615438 -21.11075145 25.8734641 -21.09579468 23.1101532 C-21.10583293 21.90795317 -21.10583293 21.90795317 -21.11607397 20.68146628 C-21.05101219 14.48492339 -19.51945457 10.44049712 -15.33984375 5.7109375 C-10.31499653 1.28428638 -6.67067192 -0.0579461 0 0 Z " fill="#F06730" transform="translate(202.71484375,149.6015625)"/>
<path d="M0 0 C2.25399927 0.02907913 4.50565714 0.02055963 6.75976562 0.00756836 C14.98053785 0.04297186 20.88525037 0.15993169 27.31445312 5.84155273 C32.43166749 11.65028255 33.74397149 16.4477401 33.76739502 24.08337402 C33.77310516 25.20210403 33.77881531 26.32083405 33.78469849 27.47346497 C33.78581635 28.69128159 33.7869342 29.90909821 33.78808594 31.16381836 C33.79553329 33.09870369 33.79553329 33.09870369 33.8031311 35.07267761 C33.81621394 38.60359588 33.82269137 42.13449518 33.82714176 45.66543388 C33.83007765 47.87244291 33.8341833 50.07944681 33.83864594 52.28645325 C33.8523067 59.19504378 33.8619817 66.10362252 33.86584783 73.01222563 C33.87033271 80.98185143 33.88790638 88.95130608 33.91684842 96.92087984 C33.93846167 103.08661643 33.94855182 109.25230483 33.94988894 115.4180789 C33.95093674 119.09867665 33.95683963 122.7791132 33.97470856 126.45967102 C33.99424456 130.56298233 33.98990175 134.66593447 33.98339844 138.76928711 C33.99722061 140.59601204 33.99722061 140.59601204 34.01132202 142.4596405 C34.00575287 143.57837051 34.00018372 144.69710052 33.9944458 145.84973145 C33.99591236 146.81941612 33.99737892 147.7891008 33.99888992 148.78816986 C33.51536001 152.27015458 32.12843934 154.96506652 29.62695312 157.46655273 C27.92469473 157.57581218 26.2179256 157.61562647 24.51220703 157.62768555 C23.42082428 157.63729309 22.32944153 157.64690063 21.20498657 157.65679932 C20.01650116 157.66104919 18.82801575 157.66529907 17.60351562 157.66967773 C15.78513687 157.67822784 15.78513687 157.67822784 13.93002319 157.68695068 C11.3592822 157.69641812 8.78852898 157.70294155 6.21777344 157.70678711 C2.27582722 157.71649395 -1.66559816 157.74750237 -5.60742188 157.77905273 C-8.09960626 157.78558218 -10.5917944 157.79083288 -13.08398438 157.79467773 C-14.26842133 157.80702454 -15.45285828 157.81937134 -16.67318726 157.83209229 C-17.77087433 157.82909119 -18.8685614 157.82609009 -19.99951172 157.82299805 C-20.96690277 157.82664368 -21.93429382 157.83028931 -22.93099976 157.83404541 C-25.37304687 157.46655273 -25.37304687 157.46655273 -27.14639282 156.1317749 C-29.52174823 152.90715385 -29.50171608 149.93120099 -29.51348877 146.07246399 C-29.51919891 144.95240463 -29.52490906 143.83234528 -29.53079224 142.67834473 C-29.5319101 141.44869995 -29.53302795 140.21905518 -29.53417969 138.95214844 C-29.53914459 137.65758224 -29.5441095 136.36301605 -29.54922485 135.02922058 C-29.56234356 131.47525592 -29.56879317 127.92131016 -29.57323551 124.36732507 C-29.57616806 122.14522756 -29.58027329 119.92313519 -29.58473969 117.70104027 C-29.59841535 110.74384851 -29.60808076 103.78666853 -29.61194158 96.82946426 C-29.61641786 88.80777818 -29.63394536 80.78626287 -29.66294217 72.76462871 C-29.68459278 66.55897084 -29.69464771 60.35336089 -29.69598269 54.14766568 C-29.69702863 50.44402734 -29.70289062 46.74054952 -29.72080231 43.03695107 C-29.74041759 38.90050613 -29.73598059 34.76441608 -29.72949219 30.62792969 C-29.73870697 29.40840607 -29.74792175 28.18888245 -29.75741577 26.93240356 C-29.7189843 19.10583112 -28.83585595 13.48001938 -24.68554688 6.71655273 C-17.43574754 -0.33730608 -9.49519343 -0.1339545 0 0 Z " fill="#E8215A" transform="translate(122.373046875,220.533447265625)"/>
<path d="M0 0 C1.09441406 -0.020625 2.18882812 -0.04125 3.31640625 -0.0625 C10.9256625 -0.09895153 17.72368799 0.41343294 24.08984375 4.8984375 C24.61707031 5.46820313 25.14429688 6.03796875 25.6875 6.625 C26.23277344 7.18960938 26.77804687 7.75421875 27.33984375 8.3359375 C30.59296502 12.75153146 30.99677579 16.75682114 30.97705078 22.15161133 C30.97734283 22.82533783 30.97763489 23.49906433 30.97793579 24.19320679 C30.97654938 26.40628214 30.96102111 28.61901516 30.9453125 30.83203125 C30.94157991 32.37188025 30.9387341 33.91173163 30.93673706 35.45158386 C30.92911994 39.49415708 30.90948808 43.53658539 30.8873291 47.57910156 C30.86322159 52.43497473 30.85408053 57.29089649 30.84242249 62.14681244 C30.82306245 69.51464224 30.78472669 76.88215443 30.75 84.25 C10.62 84.25 -9.51 84.25 -30.25 84.25 C-30.41043524 67.35082167 -30.41043524 67.35082167 -30.4453125 60.11328125 C-30.46916734 55.18650956 -30.49730057 50.26003697 -30.55175781 45.33349609 C-30.59541523 41.35882299 -30.61917877 37.3844709 -30.62950897 33.40957642 C-30.63686487 31.89778596 -30.651229 30.38601186 -30.67292023 28.87435913 C-30.87609906 14.11989881 -30.87609906 14.11989881 -26.25 7.25 C-24.06640625 5.19140625 -24.06640625 5.19140625 -21.8125 3.8125 C-21.07128906 3.33941406 -20.33007812 2.86632812 -19.56640625 2.37890625 C-13.48246781 -0.58611603 -6.60767276 0.03069767 0 0 Z " fill="#48C1D0" transform="translate(389.25,68.75)"/>
<path d="M0 0 C0.7139946 -0.00570007 1.4279892 -0.01140015 2.16362 -0.01727295 C3.67408777 -0.02671151 5.18457602 -0.03325239 6.69506836 -0.03710938 C8.99304661 -0.04679629 11.29012289 -0.07782106 13.58789062 -0.109375 C15.05858846 -0.11590756 16.52929267 -0.12115704 18 -0.125 C18.68145584 -0.1373468 19.36291168 -0.1496936 20.0650177 -0.16241455 C25.67659767 -0.13652731 29.66989357 1.3146723 33.78125 5.140625 C34.35230469 5.82125 34.92335938 6.501875 35.51171875 7.203125 C36.38763672 8.2240625 36.38763672 8.2240625 37.28125 9.265625 C39.81777777 12.73151418 39.8217607 15.71128665 39.81274414 19.86791992 C39.81262329 21.04511597 39.81250244 22.22231201 39.81237793 23.43518066 C39.80726196 24.67215698 39.802146 25.9091333 39.796875 27.18359375 C39.79586792 28.32074829 39.79486084 29.45790283 39.79382324 30.6295166 C39.78858555 34.88322964 39.77462431 39.13692832 39.76171875 43.390625 C39.73078125 57.6528125 39.73078125 57.6528125 39.69921875 72.203125 C19.56921875 72.203125 -0.56078125 72.203125 -21.30078125 72.203125 C-21.36265625 63.31375 -21.42453125 54.424375 -21.48828125 45.265625 C-21.51559326 42.47617432 -21.54290527 39.68672363 -21.57104492 36.81274414 C-21.57981415 34.57959424 -21.58745705 32.34643951 -21.59375 30.11328125 C-21.6090979 28.97177612 -21.6244458 27.830271 -21.64025879 26.6541748 C-21.6427082 19.11733308 -21.29496218 11.8734113 -16.36328125 5.828125 C-15.34234375 5.02375 -15.34234375 5.02375 -14.30078125 4.203125 C-13.62015625 3.64625 -12.93953125 3.089375 -12.23828125 2.515625 C-8.34823089 -0.11957041 -4.51707889 0.0279218 0 0 Z " fill="#30C19F" transform="translate(291.30078125,109.796875)"/>
<path d="M0 0 C0.73336075 -0.00287018 1.4667215 -0.00574036 2.2223053 -0.00869751 C3.76792171 -0.01073199 5.31356422 -0.00524529 6.85913086 0.00732422 C9.21201813 0.02336497 11.56318191 0.00746798 13.91601562 -0.01171875 C15.42318084 -0.00973576 16.93034499 -0.00589092 18.4375 0 C19.13455551 -0.00607269 19.83161102 -0.01214539 20.54978943 -0.0184021 C26.19209199 0.06194004 30.22783612 1.48393322 34.3671875 5.3359375 C34.93824219 6.0165625 35.50929687 6.6971875 36.09765625 7.3984375 C36.97357422 8.419375 36.97357422 8.419375 37.8671875 9.4609375 C40.1100784 12.52560385 40.40922514 15.09839391 40.39868164 18.77807617 C40.39856079 19.67103394 40.39843994 20.5639917 40.39831543 21.48400879 C40.39319946 22.41869995 40.3880835 23.35339111 40.3828125 24.31640625 C40.38180542 25.17834595 40.38079834 26.04028564 40.37976074 26.92834473 C40.37452947 30.14755585 40.3605682 33.36674802 40.34765625 36.5859375 C40.32703125 43.7840625 40.30640625 50.9821875 40.28515625 58.3984375 C20.15515625 58.3984375 0.02515625 58.3984375 -20.71484375 58.3984375 C-20.77671875 51.2621875 -20.83859375 44.1259375 -20.90234375 36.7734375 C-20.92965576 34.53095215 -20.95696777 32.2884668 -20.98510742 29.97802734 C-20.99387428 28.18848203 -21.00151775 26.39893071 -21.0078125 24.609375 C-21.0231604 23.69003174 -21.0385083 22.77068848 -21.05432129 21.82348633 C-21.05705555 15.09173643 -19.90806827 10.88024419 -15.33984375 5.7109375 C-10.31499653 1.28428638 -6.67067192 -0.0579461 0 0 Z " fill="#F38357" transform="translate(202.71484375,149.6015625)"/>
<path d="M0 0 C2.25399927 0.02907913 4.50565714 0.02055963 6.75976562 0.00756836 C14.98053785 0.04297186 20.88525037 0.15993169 27.31445312 5.84155273 C33.01438802 12.3117491 33.75837128 17.4805953 33.72460938 25.95483398 C33.72211182 27.24172119 33.71961426 28.5286084 33.71704102 29.85449219 C33.70793701 31.47959717 33.69883301 33.10470215 33.68945312 34.77905273 C33.66882813 39.95592773 33.64820313 45.13280273 33.62695312 50.46655273 C12.83695312 50.46655273 -7.95304688 50.46655273 -29.37304688 50.46655273 C-29.43492188 45.18655273 -29.49679688 39.90655273 -29.56054688 34.46655273 C-29.58785889 32.81655273 -29.6151709 31.16655273 -29.64331055 29.46655273 C-29.72651229 20.85645638 -29.30343706 14.2420034 -24.68554688 6.71655273 C-17.43574754 -0.33730608 -9.49519343 -0.1339545 0 0 Z " fill="#EC4B79" transform="translate(122.373046875,220.533447265625)"/>
<path d="M0 0 C1.01597645 0.88804361 2.02485579 1.78425723 3.02734375 2.6875 C4.15817446 3.67674918 5.29105794 4.66365577 6.42578125 5.6484375 C7.00553711 6.15213867 7.58529297 6.65583984 8.18261719 7.17480469 C11.09842104 9.64964314 14.12677305 11.9743522 17.15234375 14.3125 C18.8803036 15.66903594 20.60458414 17.03004705 22.32666016 18.39404297 C23.90112083 19.63718644 25.48552649 20.86770283 27.0703125 22.09765625 C34.56738205 28.2623834 34.56738205 28.2623834 35.15234375 32.75 C34.35511511 38.42042909 29.22350225 41.45040876 24.96484375 44.6875 C23.44277885 45.9151413 21.92196688 47.14433747 20.40234375 48.375 C19.5825 49.02339844 18.76265625 49.67179687 17.91796875 50.33984375 C13.44405666 53.8964855 9.01805184 57.51167667 4.58569336 61.11987305 C3.29252314 62.17213522 1.99744557 63.22205902 0.70019531 64.26928711 C-0.80863145 65.50237302 -2.28624913 66.7734558 -3.7578125 68.05078125 C-7.40989695 70.67552119 -9.63120023 70.18472084 -14.03515625 69.6875 C-16.81093297 68.07575868 -16.98815144 66.85744047 -17.84765625 63.75 C-18.0582942 60.30958023 -17.91206746 59.50286682 -16.03515625 56.6875 C-13.83923956 54.80203067 -11.65756195 53.04455599 -9.34765625 51.3125 C-8.07327778 50.33716575 -6.79982912 49.36061533 -5.52734375 48.3828125 C-4.91987305 47.9177832 -4.31240234 47.45275391 -3.68652344 46.97363281 C-1.72182204 45.4434662 0.16218627 43.83712817 2.02734375 42.1875 C4.5963783 40.00108761 7.04465236 38.34490592 9.96484375 36.6875 C11.311162 35.70505155 12.64925672 34.71073436 13.96484375 33.6875 C12.49019451 29.98467196 10.60655933 28.46564244 7.33984375 26.25 C2.24733711 22.6568786 -2.6730741 18.89969177 -7.53515625 15 C-8.22947754 14.45351807 -8.92379883 13.90703613 -9.63916016 13.34399414 C-13.19065009 10.47796355 -16.1926529 7.98424693 -18.03515625 3.6875 C-17.27342934 0.15585704 -16.59644213 -1.75121412 -14.03515625 -4.3125 C-8.9841525 -6.74446477 -3.96482151 -3.02081639 0 0 Z " fill="#E8215A" transform="translate(478.03515625,367.3125)"/>
<path d="M0 0 C3.19346547 0.09781786 4.37475043 0.70836689 6.86328125 2.77734375 C9.5444591 5.68943644 12.05218984 8.70500274 14.5 11.8125 C14.93715332 12.3580957 15.37430664 12.90369141 15.82470703 13.46582031 C18.11633117 16.32637052 20.37428259 19.20928471 22.60546875 22.1171875 C24.62205894 24.72903203 26.71218497 27.25567993 28.86328125 29.7578125 C29.41773926 30.41426758 29.97219727 31.07072266 30.54345703 31.74707031 C31.61100659 33.00707683 32.6933482 34.25475174 33.79248047 35.48730469 C36.47681709 38.69352131 37.83202512 40.88291463 37.90625 45.13671875 C37.5 48.8125 37.5 48.8125 36.3125 50.75 C33.92316214 52.15064633 32.28328027 52.67996284 29.5 52.8125 C25.00006547 50.67219501 22.1542095 47.41978996 19.0625 43.625 C18.57950439 43.04274658 18.09650879 42.46049316 17.59887695 41.8605957 C14.09425297 37.61033214 10.73731276 33.26966975 7.5 28.8125 C6.37707576 27.31094542 5.25209095 25.8109295 4.125 24.3125 C2.8125 22.5625 2.8125 22.5625 1.5 20.8125 C-1.82364558 21.92038186 -2.17420787 22.39205228 -4.03125 25.171875 C-4.5068335 25.86990234 -4.98241699 26.56792969 -5.47241211 27.28710938 C-5.97651611 28.03798828 -6.48062012 28.78886719 -7 29.5625 C-10.96217214 35.30312296 -14.99206516 40.9342627 -19.4375 46.3125 C-20.09105469 47.12992676 -20.09105469 47.12992676 -20.7578125 47.96386719 C-22.74940596 50.32467143 -24.20570439 51.70904009 -27.14453125 52.7421875 C-30.34748426 52.83779804 -31.94497853 51.65779328 -34.5 49.8125 C-35.5 48.8125 -35.5 48.8125 -35.86328125 45.1640625 C-35.79260955 40.42378492 -33.74225231 37.65033576 -30.6875 34.1875 C-29.67393043 32.97181146 -28.66092578 31.75565174 -27.6484375 30.5390625 C-27.12604492 29.92450195 -26.60365234 29.30994141 -26.06542969 28.67675781 C-23.56714029 25.70156477 -21.1960065 22.62977177 -18.8125 19.5625 C-4.2319776 0.98242337 -4.2319776 0.98242337 0 0 Z " fill="#E8215A" transform="translate(46.5,64.1875)"/>
<path d="M0 0 C0.66 0.33 1.32 0.66 2 1 C-0.64 3.64 -3.28 6.28 -6 9 C-6 6 -6 6 -3.5625 3.375 C-2.716875 2.59125 -1.87125 1.8075 -1 1 C-0.67 0.67 -0.34 0.34 0 0 Z " fill="#ED4172" transform="translate(103,223)"/>
<path d="M0 0 C0.66 0.33 1.32 0.66 2 1 C-0.64 3.64 -3.28 6.28 -6 9 C-6 6 -6 6 -3.5625 3.375 C-2.716875 2.59125 -1.87125 1.8075 -1 1 C-0.67 0.67 -0.34 0.34 0 0 Z " fill="#38BDCE" transform="translate(368,72)"/>
</svg>
