<?xml version="1.0" encoding="UTF-8"?>
<svg version="1.1" xmlns="http://www.w3.org/2000/svg" width="512" height="512">
<path d="M0 0 C3.38964643 1.72680101 5.45096 2.88736575 7.15161169 6.3337509 C8.01480881 9.04653997 8.25407087 11.13597074 8.26171303 13.97248554 C8.26917852 14.95430815 8.27664401 15.93613076 8.28433573 16.94770557 C8.282401 18.01871593 8.28046626 19.0897263 8.2784729 20.19319153 C8.2842653 21.33677476 8.2900577 22.48035799 8.29602563 23.65859526 C8.31305989 27.4987436 8.31590513 31.33877199 8.31884766 35.17895508 C8.32704027 37.92843422 8.33822427 40.67789928 8.34928894 43.42736816 C8.37155979 49.35101119 8.38657412 55.27463694 8.39665604 61.19831276 C8.41124327 69.76294067 8.43678021 78.32750841 8.46498732 86.89210101 C8.51045451 100.78767055 8.54706962 114.68324875 8.578125 128.57885742 C8.60831084 142.07691977 8.64266127 155.57496093 8.68261719 169.07299805 C8.68507874 169.9050562 8.68754028 170.73711434 8.69007643 171.59438638 C8.70245103 175.76858929 8.71490757 179.94279195 8.72740483 184.1169945 C8.83097154 218.74463392 8.92017516 253.37229802 9 288 C10.74147524 286.11630176 12.48070625 284.23061027 14.21875 282.34375 C14.94916504 281.55436035 14.94916504 281.55436035 15.69433594 280.74902344 C18.7528948 277.42450293 21.67084604 274.02484756 24.5 270.5 C27.69931722 266.52370574 31.02584945 262.73331702 34.5 259 C38.7895776 254.38998361 42.80410897 249.62216764 46.75390625 244.71484375 C49.88167179 240.93432714 53.21273883 237.35519125 56.53515625 233.74609375 C58.92707297 231.08124834 61.19254884 228.35168175 63.4375 225.5625 C67.09506264 221.02763839 70.94617027 216.74463817 74.91162109 212.48291016 C78.71398807 208.37220724 82.24270592 204.07724416 85.75390625 199.71484375 C88.0883059 196.89326505 90.51990598 194.19409288 93 191.5 C96.29331699 187.92207537 99.44651321 184.28460334 102.5 180.5 C106.3291156 175.75405391 110.37430312 171.26243774 114.5078125 166.78125 C117.82487844 163.07944601 120.91693548 159.21614094 123.9921875 155.3125 C127.66877568 151.07798598 130.52338739 149.40845953 136.0546875 148.94921875 C139.21966045 149.03183853 140.58405542 149.9557392 143 152 C147.77379744 157.13232183 152.09705139 162.5946365 156.3125 168.1875 C157.45035598 169.68632308 158.58837842 171.18501981 159.7265625 172.68359375 C160.55849121 173.7816333 160.55849121 173.7816333 161.40722656 174.90185547 C163.65401361 177.8615256 165.91913714 180.80685372 168.1875 183.75 C168.97898438 184.77867187 169.77046875 185.80734375 170.5859375 186.8671875 C172.27673985 189.06140026 173.96935944 191.25411921 175.6640625 193.4453125 C176.54705262 194.58840448 177.42986804 195.73163144 178.3125 196.875 C178.94224731 197.69000977 178.94224731 197.69000977 179.5847168 198.52148438 C181.79040973 201.38742388 183.93432852 204.28173306 186 207.25 C187.71230177 210.0479497 187.71230177 210.0479497 190 211 C190.27602051 210.28191162 190.55204102 209.56382324 190.83642578 208.82397461 C191.97214575 206.0676018 193.24314875 203.46122529 194.6171875 200.81640625 C195.39425049 199.31920044 195.39425049 199.31920044 196.18701172 197.79174805 C196.74404785 196.72609619 197.30108398 195.66044434 197.875 194.5625 C198.45652832 193.44721924 199.03805664 192.33193848 199.63720703 191.18286133 C203.78709342 183.25170472 208.02713787 175.3742183 212.33520508 167.52807617 C216.13438865 160.60576665 219.87380252 153.65278331 223.59362793 146.68765259 C225.79803586 142.56344893 228.01132828 138.44400009 230.22216797 134.32324219 C231.89763406 131.19134924 233.56084391 128.0532141 235.22265625 124.9140625 C236.18953703 123.10907109 237.15694829 121.30436369 238.125 119.5 C238.54982666 118.68772949 238.97465332 117.87545898 239.41235352 117.03857422 C241.72050946 112.76947842 243.73997523 109.59101033 248 107 C250.24609375 106.43359375 250.24609375 106.43359375 252.4375 106.4375 C253.15808594 106.41558594 253.87867188 106.39367187 254.62109375 106.37109375 C258.1845953 107.31316887 260.60079372 109.28675215 263 112 C264.51013415 114.92290217 265.39999897 117.95959523 266.3125 121.11328125 C266.74332886 122.5086335 266.74332886 122.5086335 267.18286133 123.93217468 C268.14134669 127.05338115 269.07054575 130.18253693 270 133.3125 C270.67263853 135.52464905 271.34716796 137.73622389 272.0234375 139.94726562 C273.32135205 144.20041288 274.61209482 148.45558699 275.89328003 152.71380424 C278.61414475 161.75620356 281.38703651 170.78215053 284.17044067 179.80547142 C286.19972926 186.38625306 288.2232532 192.96881151 290.24700928 199.55129623 C290.75009869 201.18732827 291.2533955 202.82329655 291.75689697 204.45920181 C293.20352888 209.15983986 294.64605867 213.8616953 296.08206177 218.56559181 C296.52415725 220.01140964 296.96771924 221.45677993 297.41281128 222.90167809 C298.02392435 224.88640221 298.62981488 226.8726467 299.234375 228.859375 C299.57694336 229.97795898 299.91951172 231.09654297 300.27246094 232.24902344 C301 235 301 235 301 238 C301.74121094 237.42894531 302.48242188 236.85789063 303.24609375 236.26953125 C304.88499137 235.00705141 306.52466808 233.74562189 308.16601562 232.48632812 C311.61239842 229.84177185 315.0481489 227.18455889 318.47265625 224.51171875 C319.98170919 223.34106636 321.49082301 222.17049245 323 221 C324.07592407 220.15465698 324.07592407 220.15465698 325.17358398 219.29223633 C329.74090234 215.76243226 333.35300868 213.04994323 339.3125 212.9375 C347.51358723 215.30052514 353.76529371 223.62688926 359.65625 229.55859375 C360.83785706 230.74232323 360.83785706 230.74232323 362.04333496 231.94996643 C364.53127102 234.44345012 367.01568624 236.94040784 369.5 239.4375 C371.1976841 241.14020587 372.89559858 242.84268207 374.59375 244.54492188 C378.7318328 248.69396412 382.86703935 252.84585576 387 257 C392.47685121 246.34393257 397.50512551 235.55459806 402.265625 224.56103516 C404.21658398 220.05717078 406.18268826 215.55992438 408.1484375 211.0625 C408.55132996 210.14017578 408.95422241 209.21785156 409.36932373 208.26757812 C413.50672748 198.81207515 417.74746389 189.40414128 422 180 C427.70075926 167.38621365 433.33138316 154.74469212 438.87857056 142.06259155 C441.10280146 136.97997547 443.33442487 131.90060056 445.56608582 126.82124329 C447.53467987 122.3401426 449.49983313 117.85758326 451.45947266 113.37255859 C453.50314804 108.69842478 455.56117343 104.03083396 457.62866211 99.3671875 C458.41083621 97.5966899 459.18827374 95.82409132 459.96069336 94.04931641 C461.03032279 91.5935465 462.11655169 89.1457868 463.20703125 86.69921875 C463.51776077 85.97518356 463.8284903 85.25114838 464.14863586 84.50517273 C466.09069979 80.20648327 468.01737202 77.55862445 472 75 C475.4246045 74.22411304 478.55344063 74.36049063 482 75 C485.92731254 77.56477553 486.80949599 79.12336897 487.8034668 83.69726562 C488.28277738 88.36753277 487.0163201 91.65119531 485.08203125 95.84375 C484.76313431 96.57404419 484.44423737 97.30433838 484.11567688 98.0567627 C483.09549233 100.37983932 482.04918059 102.68989543 481 105 C480.33907574 106.4864212 479.6793964 107.97339661 479.02099609 109.4609375 C477.30282098 113.32597635 475.56014404 117.17946094 473.80981445 121.0300293 C467.09609483 135.8054701 460.49962347 150.62926892 454 165.5 C448.08117262 179.03739581 442.08359024 192.5358474 436 206 C428.56846173 222.4491066 421.26734377 238.95290102 414.03268433 255.48950195 C413.34385516 257.06284147 412.65371862 258.63560934 411.96218872 260.20776367 C410.30626488 263.97856105 408.67811417 267.75715736 407.10302734 271.5625 C406.79753464 272.28969238 406.49204193 273.01688477 406.17729187 273.76611328 C405.60970934 275.11965388 405.05141442 276.47714819 404.50495911 277.83935547 C402.69491602 282.12279856 400.50137245 284.95483703 397 288 C394.97265625 288.8125 394.97265625 288.8125 393.0625 289 C392.43472656 289.0825 391.80695313 289.165 391.16015625 289.25 C385.75596768 288.62456045 381.88656183 285.25848185 378.18798828 281.52856445 C377.28750763 280.62785721 376.38702698 279.72714996 375.45925903 278.79914856 C374.49611339 277.820687 373.53313504 276.84206074 372.5703125 275.86328125 C371.57063552 274.85800236 370.57028917 273.85338872 369.56930542 272.84941101 C366.94873468 270.21743834 364.33730271 267.57657953 361.72772217 264.93371582 C359.05835638 262.23354849 356.38037589 259.54195466 353.703125 256.84960938 C348.46031961 251.57472202 343.22714675 246.2904096 338 241 C334.9230263 242.19529077 332.34053326 243.27830461 329.765625 245.35546875 C329.19537598 245.81010498 328.62512695 246.26474121 328.03759766 246.7331543 C327.44769043 247.21308838 326.8577832 247.69302246 326.25 248.1875 C325.01316385 249.17726208 323.77618447 250.1668452 322.5390625 251.15625 C321.93868164 251.63964844 321.33830078 252.12304688 320.71972656 252.62109375 C318.37423599 254.50174832 316.00169046 256.34650803 313.625 258.1875 C312.41660904 259.12492572 311.20826502 260.06241196 310 261 C311.68204282 271.10464884 314.87265216 280.72574941 317.92578125 290.48046875 C318.5166878 292.38068017 319.10719064 294.28101718 319.6973114 296.18147278 C320.93243694 300.15555218 322.17082271 304.12859455 323.41186523 308.10083008 C324.98969865 313.15115378 326.5618747 318.20321425 328.13187885 323.25597668 C329.64449477 328.12310277 331.16006303 332.98930807 332.67578125 337.85546875 C332.95839624 338.7636907 333.24101124 339.67191265 333.53219032 340.60765648 C336.90695271 351.44528237 340.35882191 362.2486134 344 373 C344.64701874 372.35076065 345.29403748 371.7015213 345.96066284 371.03260803 C352.05003135 364.92322651 358.14178503 358.81623566 364.23624992 352.7119379 C367.3696036 349.57335919 370.50201762 346.43385434 373.63232422 343.29223633 C376.65162904 340.26208924 379.67334949 337.23437081 382.69678116 334.2083416 C383.85152201 333.05174893 385.00538041 331.89427454 386.1583519 330.73591805 C387.76976491 329.11727688 389.38424886 327.50176096 390.99951172 325.88696289 C391.91884491 324.96540909 392.8381781 324.04385529 393.78536987 323.09437561 C397.00946268 320.04535119 399.32615588 319.51710092 403.80078125 319.60546875 C410.98545921 320.8943719 417.03073941 328.70650089 422.15234375 333.43359375 C424.82808836 335.84506729 427.56563425 338.12178235 430.375 340.375 C435.1714071 344.24218863 439.6704146 348.34980716 444.16357422 352.55810547 C447.51081785 355.67539336 450.92995906 358.63566482 454.5 361.5 C459.26108478 365.31994011 463.71273025 369.38938819 468.1640625 373.55859375 C471.51116869 376.67568554 474.93014141 379.63581113 478.5 382.5 C482.85346874 385.99946971 487.01586706 389.65763897 491.125 393.4375 C491.69412109 393.95828125 492.26324219 394.4790625 492.84960938 395.015625 C496.54471778 398.44388959 498.15279518 400.22475248 498.375 405.25 C498.32105895 408.59434537 497.97510877 410.76931271 496 413.5 C492.80596169 416.16169859 491.15228809 416.81790468 487.16015625 417.28515625 C481.33835599 416.51663651 477.40178833 412.79134435 473.3125 408.875 C469.50427905 405.28015797 465.65620475 401.83626681 461.5625 398.5625 C456.78378372 394.71889943 452.30842313 390.63039836 447.83618164 386.44165039 C444.48900673 383.32446055 441.06994977 380.36426202 437.5 377.5 C432.74585808 373.68563032 428.29931855 369.62350389 423.85571289 365.45898438 C419.50570404 361.40617302 414.99751545 357.63562129 410.33984375 353.9375 C408.08479874 352.07021732 406.03353646 350.1039823 404 348 C401.08839453 349.32539507 398.9318709 350.78411853 396.60913086 352.97680664 C395.63623863 353.89157021 395.63623863 353.89157021 394.64369202 354.82481384 C393.94529709 355.49235184 393.24690216 356.15988983 392.52734375 356.84765625 C391.78612778 357.55092545 391.0449118 358.25419464 390.28123474 358.97877502 C380.87069344 367.95854244 371.72329393 377.20451293 362.5625 386.4375 C359.08750116 389.93906175 355.60919085 393.43728659 352.12890625 396.93359375 C350.94476891 398.1301786 350.94476891 398.1301786 349.73670959 399.35093689 C349.01092209 400.08002762 348.28513458 400.80911835 347.53735352 401.56030273 C346.58168236 402.52382912 346.58168236 402.52382912 345.60670471 403.50682068 C342.70195884 406.2063251 340.14943833 406.23291603 336.265625 406.5234375 C332.74201384 405.70936182 330.37858673 403.61941625 328 401 C326.55859869 398.3676828 325.74963788 395.62250617 324.90625 392.75 C324.62769165 391.8621582 324.3491333 390.97431641 324.06213379 390.05957031 C323.01997428 386.71266379 322.01120799 383.35638719 321 380 C320.32036957 377.77989536 319.6376399 375.56075776 318.9546814 373.3416748 C315.15150735 360.9828887 311.40725227 348.60631502 307.66168213 336.22998047 C305.74638228 329.90235382 303.82850924 323.57551617 301.90625 317.25 C301.64422791 316.38758698 301.38220581 315.52517395 301.11224365 314.6366272 C297.27475516 302.02121673 293.31597474 289.46150846 289 277 C288.54594284 277.37343033 288.09188568 277.74686066 287.62406921 278.13160706 C278.19058996 285.88600848 268.63747681 293.41322847 258.80273438 300.65283203 C257.11066562 301.91730053 255.45045041 303.21313706 253.796875 304.52734375 C246.98020734 309.82609225 246.98020734 309.82609225 242.125 310.6875 C231.68896822 308.39157301 225.91733801 297.65854318 219.9050293 289.56103516 C215.92854237 284.20951283 211.85961882 278.93729923 207.75 273.6875 C202.69241591 267.22031204 197.75040576 260.69777707 193 254 C187.13235101 264.43751209 181.39474148 274.94023758 175.75 285.5 C175.2737619 286.39087311 175.2737619 286.39087311 174.78790283 287.29974365 C173.4898735 289.72828566 172.19207391 292.15695024 170.89459229 294.58578491 C162.86839865 309.60752737 154.77928625 324.59467853 146.60644531 339.53710938 C142.87676947 346.3670629 139.19189371 353.22053189 135.52163696 360.08255005 C134.56835522 361.86405768 133.61383646 363.64489692 132.65893555 365.42553711 C129.533463 371.25553012 126.42091054 377.09189822 123.33203125 382.94140625 C122.17985255 385.10685866 121.02751613 387.27222716 119.875 389.4375 C119.35494385 390.43185059 118.8348877 391.42620117 118.29907227 392.45068359 C112.53537299 403.2323135 112.53537299 403.2323135 107 406 C105.66955215 406.09134433 104.33464691 406.12194259 103.00106812 406.12025452 C102.16531754 406.12162918 101.32956696 406.12300385 100.4684906 406.12442017 C99.54995804 406.12082489 98.63142548 406.11722961 97.68505859 406.11352539 C96.71916306 406.11367142 95.75326752 406.11381744 94.75810242 406.1139679 C91.55485819 406.11326937 88.35167161 406.10547978 85.1484375 406.09765625 C82.93169181 406.09579186 80.71494571 406.09436805 78.49819946 406.09336853 C72.65546537 406.08954504 66.81275603 406.07971617 60.97003174 406.06866455 C53.96414705 406.05665127 46.9582541 406.05204739 39.95236206 406.04621124 C29.30155748 406.03650435 18.65080723 406.01734659 8 406 C8 430.42 8 454.84 8 480 C13.89992828 479.99111755 19.79985657 479.98223511 25.87857056 479.9730835 C64.8333741 479.91577076 103.78817815 479.86291463 142.74301147 479.83062744 C143.40757925 479.83007521 144.07214703 479.82952298 144.75685322 479.82895402 C159.1991147 479.81698286 173.64137674 479.80590207 188.0836396 479.79573868 C195.16594866 479.79074926 202.24825757 479.78556306 209.33056641 479.78027344 C210.3877382 479.77948888 210.3877382 479.77948888 211.466267 479.77868848 C234.31720353 479.76163795 257.16810054 479.7315889 280.01901312 479.69481112 C304.1633117 479.65602218 328.30758546 479.63201897 352.45191419 479.62364602 C366.91917534 479.61814985 381.38632305 479.60077311 395.85354929 479.56833413 C405.76608994 479.54723625 415.6785717 479.54078923 425.59113319 479.54599449 C431.31535759 479.54856362 437.03938336 479.54454759 442.76357269 479.5231781 C448.00068943 479.50376914 453.23747322 479.50269324 458.47460501 479.51640442 C460.37241786 479.51810001 462.27025117 479.5129781 464.16802354 479.50046727 C466.74253063 479.48447764 469.31582663 479.49302677 471.8903141 479.50780869 C472.63180307 479.49730063 473.37329203 479.48679258 474.13725036 479.4759661 C479.20946484 479.5420404 482.09509076 480.80444663 486 484 C487.91303463 487.0774905 488.00253398 488.85809708 487.9375 492.5 C486.82276962 496.66166007 485.28026327 498.27978168 482 501 C478.88520347 502.55739826 475.58110864 502.13923745 472.16221142 502.13142776 C471.33916373 502.1334804 470.51611604 502.13553303 469.66812751 502.13764787 C466.88031475 502.14335099 464.09255088 502.14185656 461.30473328 502.14044189 C459.29779227 502.14302363 457.29085178 502.14603625 455.283912 502.1494453 C449.74551476 502.157541 444.20713045 502.15930629 438.66872799 502.16004276 C432.7047364 502.16188886 426.7407516 502.16943392 420.77676392 502.17617798 C407.04436985 502.19048957 393.31197674 502.19629014 379.57957692 502.20086992 C372.7966732 502.20320425 366.01377033 502.20680671 359.23086727 502.2105653 C336.02193003 502.22340192 312.81299326 502.23412121 289.60405254 502.2375679 C288.14657918 502.23778954 286.68910582 502.23801132 285.23163246 502.23823325 C283.77059592 502.2384539 282.30955938 502.23867438 280.84852284 502.2388947 C277.91732577 502.23933726 274.98612871 502.23978437 272.05493164 502.24023438 C270.96477841 502.24039846 270.96477841 502.24039846 269.85260187 502.24056586 C246.2805215 502.2441975 222.70847187 502.26012099 199.13640328 502.28342474 C174.22698415 502.30800569 149.31758259 502.32173993 124.40815097 502.32293582 C121.67514948 502.32310728 118.94214799 502.32332271 116.2091465 502.32357025 C115.53618233 502.32362602 114.86321816 502.32368179 114.16986114 502.32373925 C103.32723052 502.32489119 92.48463137 502.3359253 81.64201138 502.35045731 C70.74925976 502.36480436 59.85655053 502.36781638 48.96379217 502.36001733 C43.05946725 502.3560985 37.15524851 502.3571003 31.25093651 502.37107468 C25.85054142 502.38373991 20.45033309 502.38268143 15.04993854 502.37048396 C13.0916433 502.3685141 11.13333516 502.37166429 9.17505809 502.38032833 C6.52157962 502.39132898 3.86877103 502.38399857 1.215312 502.3719368 C0.44770254 502.37953199 -0.31990693 502.38712718 -1.11077729 502.39495254 C-5.58414841 502.35078606 -8.46058655 501.78965799 -12 499 C-14.49980142 495.25029787 -14.28143584 492.33331709 -14.26006222 487.99231148 C-14.26386789 487.16304482 -14.26767356 486.33377817 -14.27159455 485.47938222 C-14.28197238 482.67638849 -14.27799282 479.87359495 -14.27415466 477.07058716 C-14.27860371 475.05040725 -14.28391664 473.03022909 -14.29002339 471.01005352 C-14.30425374 465.43970012 -14.30586573 459.86940238 -14.30542648 454.2990334 C-14.30707025 448.29892262 -14.32012841 442.29883507 -14.33161926 436.29873657 C-14.3533105 423.8543549 -14.36187893 411.40998572 -14.36665427 398.96558919 C-14.36691544 398.2889676 -14.36717662 397.61234601 -14.36744571 396.91522074 C-14.36770598 396.23726895 -14.36796626 395.55931716 -14.36823442 394.86082138 C-14.37131445 387.35417144 -14.37781836 379.84752503 -14.3844471 372.34087753 C-14.40409659 349.67674239 -14.42050026 327.01261108 -14.42332363 304.34846687 C-14.42346472 303.26070079 -14.42346472 303.26070079 -14.42360866 302.15095964 C-14.42398715 299.21201779 -14.42435115 296.27307593 -14.42471164 293.33413408 C-14.42498337 291.12200735 -14.42526004 288.90988063 -14.42553711 286.69775391 C-14.42562513 285.96678344 -14.42571315 285.23581298 -14.42580384 284.48269189 C-14.42871001 261.50941953 -14.45081122 238.53623126 -14.48706055 215.56298828 C-14.52776285 189.76684421 -14.55148202 163.97075745 -14.55178314 138.1745795 C-14.55187997 135.42530433 -14.5520467 132.67602917 -14.55226326 129.926754 C-14.55230737 129.24978688 -14.55235149 128.57281976 -14.55239694 127.87533848 C-14.55351804 116.96858132 -14.57094481 106.06190822 -14.59408258 95.15517814 C-14.61689519 84.19868135 -14.62074467 73.24228377 -14.60653328 62.2857696 C-14.59933808 56.34693978 -14.60033395 50.40840202 -14.62294388 44.46960449 C-14.64342662 39.0376796 -14.64103411 33.60627327 -14.62006903 28.17435466 C-14.61655356 26.20464721 -14.62157029 24.23490316 -14.63577347 22.26524378 C-14.65378769 19.59598229 -14.64125251 16.92857397 -14.62082577 14.2593708 C-14.63338914 13.48723415 -14.64595251 12.71509749 -14.6588966 11.91956276 C-14.59284105 7.91177337 -14.15730369 6.19248872 -11.58619839 3.04628932 C-7.52570068 -0.16651645 -5.20150073 -0.43345839 0 0 Z M249 147 C248.6690332 147.64211426 248.33806641 148.28422852 247.99707031 148.94580078 C241.18412699 162.14734375 234.26563298 175.27568244 227.12109375 188.30078125 C223.59588779 194.72789589 220.10632285 201.17402908 216.625 207.625 C216.05402588 208.67937256 215.48305176 209.73374512 214.89477539 210.82006836 C211.12415751 217.81334224 207.51299276 224.87391564 204 232 C205.09054688 233.34578125 205.09054688 233.34578125 206.203125 234.71875 C211.54157628 241.3339435 216.79988608 247.99262848 221.875 254.8125 C226.38959031 260.87066244 230.94768708 266.89272438 235.5625 272.875 C236.15853027 273.65464111 236.75456055 274.43428223 237.36865234 275.23754883 C237.92891113 275.96095459 238.48916992 276.68436035 239.06640625 277.4296875 C239.56084229 278.07147949 240.05527832 278.71327148 240.56469727 279.37451172 C242.09703436 281.24997625 242.09703436 281.24997625 245 283 C245.93199219 282.24976563 246.86398437 281.49953125 247.82421875 280.7265625 C254.13267036 275.65831216 260.4562734 270.61563099 266.875 265.6875 C267.9165625 264.87925781 268.958125 264.07101562 270.03125 263.23828125 C271.92951151 261.80709198 273.86527359 260.42354712 275.84375 259.10546875 C276.6790625 258.53441406 277.514375 257.96335937 278.375 257.375 C279.46941406 256.67503906 279.46941406 256.67503906 280.5859375 255.9609375 C282.51627948 253.28405442 281.8889663 251.39196175 281.42725563 248.2485733 C280.71658133 244.50841601 279.61991046 240.92182949 278.47143555 237.29589844 C278.21436829 236.4654451 277.95730103 235.63499176 277.69244385 234.77937317 C276.84700349 232.05398041 275.9919874 229.33169787 275.13671875 226.609375 C274.54182693 224.6991683 273.94750134 222.78878518 273.35371399 220.87823486 C271.79131387 215.85699868 270.22060239 210.83839907 268.64831543 205.82025146 C267.3740907 201.74851174 266.10578064 197.67494186 264.83780193 193.60125351 C263.31444316 188.70750256 261.78846748 183.81456928 260.26171875 178.921875 C259.97492437 178.00262993 259.68813 177.08338486 259.39264488 176.13628387 C256.35037025 166.39348272 253.28798085 156.66329428 250 147 C249.67 147 249.34 147 249 147 Z M131.49609375 181.45703125 C130.47012114 182.56961523 129.4510295 183.68856901 128.4375 184.8125 C127.89810791 185.40345459 127.35871582 185.99440918 126.80297852 186.60327148 C122.79772757 191.02656493 119.01238374 195.60030308 115.27734375 200.25390625 C112.78173453 203.26319147 110.16233195 206.13937022 107.5 209 C103.21039593 213.60998943 99.19588878 218.37783516 95.24609375 223.28515625 C92.11832821 227.06567286 88.78726117 230.64480875 85.46484375 234.25390625 C83.07292703 236.91875166 80.80745116 239.64831825 78.5625 242.4375 C74.90493736 246.97236161 71.05382973 251.25536183 67.08837891 255.51708984 C63.28601193 259.62779276 59.75729408 263.92275584 56.24609375 268.28515625 C53.11832821 272.06567286 49.78726117 275.64480875 46.46484375 279.25390625 C44.07292703 281.91875166 41.80745116 284.64831825 39.5625 287.4375 C36.34056252 291.43224789 32.99338154 295.24547626 29.5 299 C25.22476056 303.59616097 21.18521605 308.32717046 17.265625 313.234375 C15 316 15 316 13.27153015 317.53118896 C9.02950243 321.55121612 7.51399246 324.5444485 7.20532227 330.41601562 C7.20705768 332.91303437 7.24515829 335.41024732 7.31640625 337.90625 C7.32345581 339.07768555 7.33050537 340.24912109 7.33776855 341.45605469 C7.37421221 345.80452901 7.47194233 350.15231598 7.5625 354.5 C7.706875 364.235 7.85125 373.97 8 384 C37.37 384 66.74 384 97 384 C102.94 372.78 108.88 361.56 115 350 C121.1875 338.625 121.1875 338.625 124.01953125 333.4609375 C127.51268048 327.07947245 130.94414668 320.66510474 134.375 314.25 C135.65232168 311.86196736 136.92965215 309.47393943 138.20703125 307.0859375 C138.52333496 306.49458008 138.83963867 305.90322266 139.16552734 305.29394531 C144.16854134 295.94337872 149.20428324 286.61039231 154.23535156 277.27490234 C157.30408504 271.5798289 160.37065813 265.88359224 163.4375 260.1875 C164.54035504 258.13931778 165.6432193 256.09114052 166.74609375 254.04296875 C167.53089111 252.5741626 167.53089111 252.5741626 168.33154297 251.07568359 C169.53142525 248.8637847 170.75116891 246.67416992 172.00048828 244.49072266 C172.49404564 243.61375481 172.49404564 243.61375481 172.99757385 242.71907043 C173.92277218 241.07682639 174.85962316 239.44116314 175.79711914 237.8059082 C177.18496215 235.17106633 177.18496215 235.17106633 176.82373047 232.81298828 C175.41266823 229.70731307 173.20675743 227.18442422 171.0625 224.5625 C170.05017137 223.29996794 169.03846515 222.0369366 168.02734375 220.7734375 C167.51671387 220.13889648 167.00608398 219.50435547 166.47998047 218.85058594 C164.32542585 216.15650411 162.22450292 213.42478296 160.125 210.6875 C159.52909058 209.91092041 159.52909058 209.91092041 158.92114258 209.11865234 C157.6131069 207.4131899 156.30651963 205.70662409 155 204 C154.47051758 203.3090625 153.94103516 202.618125 153.39550781 201.90625 C151.67971409 199.66714412 149.9646959 197.42744667 148.25 195.1875 C147.71906738 194.49422607 147.18813477 193.80095215 146.64111328 193.08666992 C146.12532715 192.41224854 145.60954102 191.73782715 145.078125 191.04296875 C144.57216797 190.38345215 144.06621094 189.72393555 143.54492188 189.04443359 C142.46219535 187.61163461 141.39718926 186.16535266 140.34570312 184.70947266 C139.81396484 183.97647949 139.28222656 183.24348633 138.734375 182.48828125 C138.25709961 181.81966064 137.77982422 181.15104004 137.28808594 180.4621582 C136.86301758 179.979646 136.43794922 179.49713379 136 179 C133.65324056 178.76653527 133.65324056 178.76653527 131.49609375 181.45703125 Z " fill="#000000" transform="translate(14,5)"/>
</svg>
