<?xml version="1.0" encoding="UTF-8"?>
<svg version="1.1" xmlns="http://www.w3.org/2000/svg" width="338" height="280">
<path d="M0 0 C111.54 0 223.08 0 338 0 C338 92.4 338 184.8 338 280 C226.46 280 114.92 280 0 280 C0 187.6 0 95.2 0 0 Z " fill="#FDFDFD" transform="translate(0,0)"/>
<path d="M0 0 C3.80292573 5.81079649 7.07588176 10.92991989 6 18 C4.35263874 19.64736126 2.44844708 19.12604563 0.17895508 19.12698364 C-0.86432953 19.12980347 -1.90761414 19.13262329 -2.98251343 19.13552856 C-4.13683868 19.13350433 -5.29116394 19.1314801 -6.48046875 19.12939453 C-7.68845123 19.13114685 -8.89643372 19.13289917 -10.14102173 19.13470459 C-13.46325954 19.13836278 -16.78543543 19.13748968 -20.10766983 19.1343255 C-23.57723324 19.13180152 -27.04679392 19.13413955 -30.51635742 19.13571167 C-36.34391762 19.13753325 -42.17146516 19.13512735 -47.99902344 19.13037109 C-54.74561292 19.12492849 -61.49217219 19.12669116 -68.23876095 19.1321975 C-74.02134174 19.13672895 -79.80391341 19.13737902 -85.5864954 19.13475883 C-89.04451556 19.13319623 -92.50252151 19.13300182 -95.96054077 19.13629532 C-99.81354964 19.13970839 -103.66652439 19.13498377 -107.51953125 19.12939453 C-109.25101913 19.13243088 -109.25101913 19.13243088 -111.01748657 19.13552856 C-112.58241348 19.13129883 -112.58241348 19.13129883 -114.17895508 19.12698364 C-115.09115311 19.12660662 -116.00335114 19.12622959 -116.94319153 19.12584114 C-119 19 -119 19 -120 18 C-120.98091671 11.50142679 -119.47833603 6.20619276 -116.05773926 0.60665894 C-112.30184642 -3.3922386 -107.35918443 -3.28350977 -102.15527344 -3.50170898 C-97.55333526 -3.60612796 -92.96163645 -3.55908831 -88.359375 -3.49609375 C-85.91031971 -3.50377038 -83.46127522 -3.51629609 -81.01226807 -3.53346252 C-75.8872958 -3.557473 -70.76446775 -3.5429432 -65.63964844 -3.49731445 C-59.06252183 -3.4389943 -52.48761839 -3.44561883 -45.91036606 -3.47698879 C-39.64334085 -3.50464327 -33.37644444 -3.50231872 -27.109375 -3.49609375 C-25.90996025 -3.49697935 -24.7105455 -3.49786495 -23.47478485 -3.49877739 C-20.09189666 -3.49538478 -16.70987512 -3.47093147 -13.32714844 -3.43920898 C-11.81695129 -3.44113503 -11.81695129 -3.44113503 -10.27624512 -3.44309998 C-9.3566803 -3.43004822 -8.43711548 -3.41699646 -7.48968506 -3.40354919 C-6.69036434 -3.39810309 -5.89104362 -3.39265699 -5.06750107 -3.38704586 C-2.47189733 -2.90113671 -1.64256307 -2.02635487 0 0 Z " fill="#090909" transform="translate(224,171)"/>
<path d="M0 0 C11.64582225 -0.03066538 23.29164315 -0.05099966 34.9375 -0.0625 C36.22858925 -0.06378403 36.22858925 -0.06378403 37.54576111 -0.06509399 C66.70959128 -0.09071571 95.84584128 0.18703918 125 1 C125 2.65 125 4.3 125 6 C108.8496808 6.02332909 92.69936704 6.04097922 76.54903507 6.05181217 C69.05066936 6.05697511 61.55231409 6.06401776 54.05395508 6.07543945 C47.52069496 6.08538637 40.98744241 6.09185344 34.45417494 6.09408849 C30.99278193 6.09539559 27.53141058 6.09848136 24.07002449 6.10573006 C20.21212473 6.11374407 16.35424643 6.11399113 12.49633789 6.11352539 C11.34044159 6.11712067 10.18454529 6.12071594 8.99362183 6.12442017 C7.94889206 6.1230455 6.90416229 6.12167084 5.82777405 6.12025452 C4.45752878 6.12163721 4.45752878 6.12163721 3.05960178 6.12304783 C1 6 1 6 0 5 C-0.04063832 3.33382885 -0.042721 1.66611905 0 0 Z " fill="#010101" transform="translate(104,184)"/>
<path d="M0 0 C0.70346558 0.00719055 1.40693115 0.0143811 2.13171387 0.02178955 C3.24405899 0.02135147 3.24405899 0.02135147 4.37887573 0.02090454 C6.83550629 0.02230039 9.29183536 0.03787335 11.74841309 0.05352783 C13.44949172 0.05725706 15.1505725 0.06010446 16.85165405 0.06210327 C21.33321035 0.06974684 25.81463741 0.08940149 30.29614258 0.11151123 C34.86745455 0.13195411 39.43878735 0.14110165 44.01013184 0.15118408 C52.98284493 0.17264674 61.95546202 0.20679137 70.92810059 0.24884033 C70.92810059 0.90884033 70.92810059 1.56884033 70.92810059 2.24884033 C46.50810059 2.57884033 22.08810059 2.90884033 -3.07189941 3.24884033 C-3.07189941 21.72884033 -3.07189941 40.20884033 -3.07189941 59.24884033 C31.24810059 59.57884033 65.56810059 59.90884033 100.92810059 60.24884033 C100.92810059 46.05884033 100.92810059 31.86884033 100.92810059 17.24884033 C101.91810059 17.24884033 102.90810059 17.24884033 103.92810059 17.24884033 C103.97744212 23.3360678 104.01379225 29.42317953 104.03796387 35.51055908 C104.0480377 37.5825198 104.06169725 39.65446626 104.07897949 41.72637939 C104.10316723 44.70004797 104.11456967 47.67352903 104.12341309 50.64727783 C104.13373566 51.57752777 104.14405823 52.50777771 104.1546936 53.46621704 C104.15484467 54.32695831 104.15499573 55.18769958 104.15515137 56.07452393 C104.15959259 56.83397308 104.16403381 57.59342224 104.16860962 58.37588501 C103.92810059 60.24884033 103.92810059 60.24884033 101.92810059 62.24884033 C100.0165329 62.50331593 100.0165329 62.50331593 97.63891602 62.50953674 C96.73874252 62.51662155 95.83856903 62.52370636 94.91111755 62.53100586 C93.92092117 62.52852844 92.93072479 62.52605103 91.91052246 62.52349854 C90.34945518 62.53116493 90.34945518 62.53116493 88.7568512 62.53898621 C85.3034598 62.55293058 81.85026685 62.55192193 78.39685059 62.54962158 C76.00553309 62.55350555 73.61421629 62.55783959 71.22290039 62.56260681 C66.20582851 62.57007925 61.18882698 62.56977011 56.17175293 62.56451416 C49.72837106 62.55871509 43.28527622 62.57565639 36.84194183 62.59885883 C31.90242822 62.61355773 26.96298437 62.61447318 22.02345276 62.61134911 C19.64709402 62.61186415 17.27073157 62.617136 14.89439392 62.62716103 C11.57796314 62.63943506 8.26209974 62.63278831 4.94567871 62.62115479 C3.95548233 62.62879852 2.96528595 62.63644226 1.94508362 62.64431763 C1.04491013 62.63730331 0.14473663 62.630289 -0.78271484 62.62306213 C-1.56732841 62.62322988 -2.35194199 62.62339762 -3.16033173 62.62357044 C-4.10655773 62.43807904 -4.10655773 62.43807904 -5.07189941 62.24884033 C-7.33270769 58.85762791 -7.32436207 57.68310938 -7.33068848 53.70758057 C-7.3369928 52.57307968 -7.34329712 51.4385788 -7.34979248 50.2696991 C-7.34574402 49.04465164 -7.34169556 47.81960419 -7.33752441 46.55743408 C-7.33943787 45.30124771 -7.34135132 44.04506134 -7.34332275 42.75080872 C-7.34468474 40.09351864 -7.34198922 37.43659561 -7.3326416 34.77935791 C-7.3212355 31.3705626 -7.32781618 27.96208182 -7.33978653 24.553298 C-7.34874192 21.30466531 -7.34247658 18.05607087 -7.33752441 14.80743408 C-7.34157288 13.5803624 -7.34562134 12.35329071 -7.34979248 11.08903503 C-7.34348816 9.95768631 -7.33718384 8.82633759 -7.33068848 7.66070557 C-7.32909729 6.66159653 -7.3275061 5.66248749 -7.3258667 4.63310242 C-6.82059423 -0.11042975 -4.15244708 0.01777639 0 0 Z " fill="#121212" transform="translate(118.0718994140625,104.75115966796875)"/>
<path d="M0 0 C1.65 0 3.3 0 5 0 C5 1.32 5 2.64 5 4 C6.32 4.33 7.64 4.66 9 5 C9 4.34 9 3.68 9 3 C10.32 3.66 11.64 4.32 13 5 C13 7.33333333 13 9.66666667 13 12 C14.32 12 15.64 12 17 12 C17 13.65 17 15.3 17 17 C15.68 17 14.36 17 13 17 C13.66 19.31 14.32 21.62 15 24 C11.91190305 25.76462683 10.76687864 26 7 26 C7 27.32 7 28.64 7 30 C5.35 30.33 3.7 30.66 2 31 C2 30.01 2 29.02 2 28 C-0.86724686 28.57344937 -1.8614515 28.8614515 -4 31 C-5.9375 30.3125 -5.9375 30.3125 -8 29 C-8.75 26.375 -8.75 26.375 -9 24 C-10.32 23.67 -11.64 23.34 -13 23 C-13.33 21.68 -13.66 20.36 -14 19 C-13.34 19 -12.68 19 -12 19 C-12 17.68 -12 16.36 -12 15 C-12.66 15 -13.32 15 -14 15 C-14 13.02 -14 11.04 -14 9 C-12.68 9 -11.36 9 -10 9 C-10.061875 7.824375 -10.061875 7.824375 -10.125 6.625 C-10 4 -10 4 -8 2 C-5.27130593 2.03287583 -2.7033382 2.56397771 0 3 C0 2.01 0 1.02 0 0 Z " fill="#0E0E0E" transform="translate(205,70)"/>
<path d="M0 0 C0.70346558 0.00719055 1.40693115 0.0143811 2.13171387 0.02178955 C3.24405899 0.02135147 3.24405899 0.02135147 4.37887573 0.02090454 C6.83550629 0.02230039 9.29183536 0.03787335 11.74841309 0.05352783 C13.44949172 0.05725706 15.1505725 0.06010446 16.85165405 0.06210327 C21.33321035 0.06974684 25.81463741 0.08940149 30.29614258 0.11151123 C34.86745455 0.13195411 39.43878735 0.14110165 44.01013184 0.15118408 C52.98284493 0.17264674 61.95546202 0.20679137 70.92810059 0.24884033 C70.92810059 0.90884033 70.92810059 1.56884033 70.92810059 2.24884033 C46.50810059 2.57884033 22.08810059 2.90884033 -3.07189941 3.24884033 C-3.07189941 22.71884033 -3.07189941 42.18884033 -3.07189941 62.24884033 C-4.06189941 61.91884033 -5.05189941 61.58884033 -6.07189941 61.24884033 C-7.37302074 58.64659769 -7.206079 56.73512307 -7.21716309 53.82110596 C-7.22354294 52.68652954 -7.22992279 51.55195313 -7.23649597 50.38299561 C-7.2376088 49.15278687 -7.23872162 47.92257813 -7.23986816 46.65509033 C-7.24319656 45.39748901 -7.24652496 44.1398877 -7.24995422 42.84417725 C-7.25502453 40.1810147 -7.25779417 37.51795417 -7.25720215 34.85479736 C-7.25710041 31.43814948 -7.27076473 28.02170887 -7.28797436 24.60511017 C-7.30174747 21.3509445 -7.30118246 18.09678122 -7.30236816 14.84259033 C-7.30955368 13.61238159 -7.3167392 12.38217285 -7.32414246 11.11468506 C-7.32106583 9.98010864 -7.3179892 8.84553223 -7.31481934 7.67657471 C-7.31624435 6.67444946 -7.31766937 5.67232422 -7.31913757 4.63983154 C-6.82790094 -0.11082053 -4.15512257 0.01778784 0 0 Z " fill="#1A1A1A" transform="translate(118.0718994140625,104.75115966796875)"/>
<path d="M0 0 C1.32 0 2.64 0 4 0 C4 0.66 4 1.32 4 2 C4.61875 1.814375 5.2375 1.62875 5.875 1.4375 C8 1 8 1 10 2 C10 3.32 10 4.64 10 6 C10.99 6.33 11.98 6.66 13 7 C12.42415568 9.38564077 11.77772405 11.66682784 11 14 C11.66 14 12.32 14 13 14 C12.67 14.99 12.34 15.98 12 17 C11.01 17.33 10.02 17.66 9 18 C8.67 18.99 8.34 19.98 8 21 C5 22 5 22 2.8125 21.0625 C1.9153125 20.5365625 1.9153125 20.5365625 1 20 C1 20.66 1 21.32 1 22 C-0.32 21.67 -1.64 21.34 -3 21 C-3 20.34 -3 19.68 -3 19 C-5.475 18.01 -5.475 18.01 -8 17 C-7.67 15.35 -7.34 13.7 -7 12 C-7.66 12 -8.32 12 -9 12 C-9 10.68 -9 9.36 -9 8 C-8.01 7.67 -7.02 7.34 -6 7 C-5.67 5.35 -5.34 3.7 -5 2 C-3.68 2 -2.36 2 -1 2 C-0.67 1.34 -0.34 0.68 0 0 Z " fill="#111111" transform="translate(221,97)"/>
<path d="M0 0 C0.66 0.33 1.32 0.66 2 1 C2 1.66 2 2.32 2 3 C3.32 3 4.64 3 6 3 C6 4.65 6 6.3 6 8 C6.66 8 7.32 8 8 8 C8 8.99 8 9.98 8 11 C7.01 11 6.02 11 5 11 C5.33 12.32 5.66 13.64 6 15 C5.01 15.33 4.02 15.66 3 16 C2.34 15.67 1.68 15.34 1 15 C1 15.99 1 16.98 1 18 C0.01 18 -0.98 18 -2 18 C-2 17.34 -2 16.68 -2 16 C-3.32 16.33 -4.64 16.66 -6 17 C-6.33 15.35 -6.66 13.7 -7 12 C-7.99 12 -8.98 12 -10 12 C-10 11.01 -10 10.02 -10 9 C-9.34 9 -8.68 9 -8 9 C-8.33 7.35 -8.66 5.7 -9 4 C-8.01 4 -7.02 4 -6 4 C-6 3.01 -6 2.02 -6 1 C-4.7934375 1.0309375 -4.7934375 1.0309375 -3.5625 1.0625 C-1.06645115 1.29633621 -1.06645115 1.29633621 0 0 Z " fill="#141414" transform="translate(203,102)"/>
<path d="M0 0 C2.7912125 1.98322993 3.82597224 3.12986121 4.5 6.5 C3.82597224 9.87013879 2.7912125 11.01677007 0 13 C-3.17235276 13.45319325 -5.06487736 13.52990283 -7.875 11.9375 C-9.64273274 8.8930714 -9.36823916 6.4368988 -9 3 C-6.84532543 -0.71082843 -4.00794956 -0.57256422 0 0 Z " fill="#F5F5F5" transform="translate(209,79)"/>
<path d="M0 0 C0.7024585 0.00708984 1.40491699 0.01417969 2.12866211 0.02148438 C2.90661133 0.0240625 3.68456055 0.02664062 4.48608398 0.02929688 C5.2846582 0.05765625 6.08323242 0.08601562 6.90600586 0.11523438 C8.10966797 0.11136719 8.10966797 0.11136719 9.33764648 0.10742188 C12.89402376 0.16644888 15.24874024 0.2883403 18.40209961 2.02148438 C19.84350586 3.61523438 19.84350586 3.61523438 19.84350586 5.61523438 C10.93350586 5.61523438 2.02350586 5.61523438 -7.15649414 5.61523438 C-2.15649414 0.61523438 -2.15649414 0.61523438 0 0 Z " fill="#ECECEC" transform="translate(160.156494140625,178.384765625)"/>
<path d="M0 0 C0.99 0.33 1.98 0.66 3 1 C4.67422986 0.70700977 6.34178227 0.37309899 8 0 C10.62113708 0 12.50935112 0.31292445 15 1 C15 2.98 15 4.96 15 7 C9.46870653 8.52587406 3.70731242 8 -2 8 C-1.34 7.67 -0.68 7.34 0 7 C-0.66 5.02 -1.32 3.04 -2 1 C-1.34 0.67 -0.68 0.34 0 0 Z " fill="#6D6D6D" transform="translate(189,267)"/>
<path d="M0 0 C2.125 0.9375 2.125 0.9375 4 2 C4 2.66 4 3.32 4 4 C3.01 4.495 3.01 4.495 2 5 C1.34444881 7.52733235 1.34444881 7.52733235 1 10 C0.01 10 -0.98 10 -2 10 C-2.33 11.32 -2.66 12.64 -3 14 C-3.66 13.67 -4.32 13.34 -5 13 C-5 12.01 -5 11.02 -5 10 C-6.32 10 -7.64 10 -9 10 C-11.1385485 7.8614515 -11.42655063 6.86724686 -12 4 C-10.35 3.67 -8.7 3.34 -7 3 C-7 3.99 -7 4.98 -7 6 C-5.35 5.67 -3.7 5.34 -2 5 C-2 3.68 -2 2.36 -2 1 C-1.34 0.67 -0.68 0.34 0 0 Z " fill="#E4E4E4" transform="translate(214,95)"/>
<path d="M0 0 C0.66 0.33 1.32 0.66 2 1 C2 1.66 2 2.32 2 3 C2.99 2.67 3.98 2.34 5 2 C5.33 1.34 5.66 0.68 6 0 C6.66 0 7.32 0 8 0 C8.33 0.66 8.66 1.32 9 2 C9.66 1.34 10.32 0.68 11 0 C13.125 0.375 13.125 0.375 15 1 C15 2.98 15 4.96 15 7 C13.1875 7.625 13.1875 7.625 11 8 C10.01 7.34 9.02 6.68 8 6 C7.67 6.66 7.34 7.32 7 8 C7 7.34 7 6.68 7 6 C6.2575 6.350625 5.515 6.70125 4.75 7.0625 C1.8677274 8.04509293 0.78823655 8.0326802 -2 7 C-1.125 1.125 -1.125 1.125 0 0 Z " fill="#525252" transform="translate(207,267)"/>
<path d="M0 0 C0.66 0 1.32 0 2 0 C2.33 1.32 2.66 2.64 3 4 C3.66 3.67 4.32 3.34 5 3 C5 4.32 5 5.64 5 7 C5.99 7.66 6.98 8.32 8 9 C7.195625 8.814375 6.39125 8.62875 5.5625 8.4375 C4.716875 8.293125 3.87125 8.14875 3 8 C2.67 8.33 2.34 8.66 2 9 C0.00045254 9.04254356 -2.00041636 9.04080783 -4 9 C-4.66 9 -5.32 9 -6 9 C-7.32 9 -8.64 9 -10 9 C-10.625 7.125 -10.625 7.125 -11 5 C-10.34 4.34 -9.68 3.68 -9 3 C-7.66400079 3.32248257 -6.33106622 3.65772583 -5 4 C-2.31850007 3.61432869 -2.31850007 3.61432869 0 3 C0 2.01 0 1.02 0 0 Z " fill="#9E9E9E" transform="translate(148,266)"/>
<path d="M0 0 C2.97 0 5.94 0 9 0 C10 4 10 4 9 8 C5.7 8 2.4 8 -1 8 C-2.2077558 4.37673261 -1.54311128 3.35853631 0 0 Z " fill="#A7A7A7" transform="translate(236,267)"/>
<path d="M0 0 C0.33 0.99 0.66 1.98 1 3 C2.98 3 4.96 3 7 3 C7 4.65 7 6.3 7 8 C7.66 8 8.32 8 9 8 C9 6.35 9 4.7 9 3 C9.99 3 10.98 3 12 3 C12.33 2.34 12.66 1.68 13 1 C13 1.66 13 2.32 13 3 C13.99 3 14.98 3 16 3 C16.33 2.34 16.66 1.68 17 1 C17 1.66 17 2.32 17 3 C17.66 3.33 18.32 3.66 19 4 C18.34 4 17.68 4 17 4 C17 5.32 17 6.64 17 8 C17.66 8.33 18.32 8.66 19 9 C18.01 9 17.02 9 16 9 C16 7.35 16 5.7 16 4 C15.01 4 14.02 4 13 4 C13 5.32 13 6.64 13 8 C13.66 8.33 14.32 8.66 15 9 C11.04 9 7.08 9 3 9 C3 7.35 3 5.7 3 4 C2.34 4 1.68 4 1 4 C1 5.65 1 7.3 1 9 C0.67 9 0.34 9 0 9 C0 6.03 0 3.06 0 0 Z " fill="#747474" transform="translate(99,266)"/>
<path d="M0 0 C3.29714793 0.32971479 4.6226839 0.6226839 7 3 C6.67028521 6.29714793 6.3773161 7.6226839 4 10 C-0.55555556 9.44444444 -0.55555556 9.44444444 -2 8 C-2.1875 5.0625 -2.1875 5.0625 -2 2 C-1.34 1.34 -0.68 0.68 0 0 Z " fill="#EDEDED" transform="translate(221,103)"/>
<path d="M0 0 C1.77503906 0.03480469 1.77503906 0.03480469 3.5859375 0.0703125 C5.36871094 0.09738281 5.36871094 0.09738281 7.1875 0.125 C8.10273438 0.14820313 9.01796875 0.17140625 9.9609375 0.1953125 C8.9709375 0.6903125 8.9709375 0.6903125 7.9609375 1.1953125 C7.9609375 2.8453125 7.9609375 4.4953125 7.9609375 6.1953125 C4.0009375 6.1953125 0.0409375 6.1953125 -4.0390625 6.1953125 C-4.3690625 4.8753125 -4.6990625 3.5553125 -5.0390625 2.1953125 C-3.0390625 0.1953125 -3.0390625 0.1953125 0 0 Z " fill="#8B8B8B" transform="translate(162.0390625,268.8046875)"/>
<path d="M0 0 C0.33 1.65 0.66 3.3 1 5 C-2.50776784 6.60355101 -5.14354879 7.22036864 -9 7 C-8.34 6.67 -7.68 6.34 -7 6 C-7.66 4.02 -8.32 2.04 -9 0 C-5.93109813 -1.53445094 -3.29905734 -0.54984289 0 0 Z " fill="#B2B2B2" transform="translate(196,268)"/>
<path d="M0 0 C2.625 0.375 2.625 0.375 5 1 C5.125 3.375 5.125 3.375 5 6 C4.34 6.66 3.68 7.32 3 8 C0.875 7.625 0.875 7.625 -1 7 C-1.625 4.625 -1.625 4.625 -2 2 C-1.34 1.34 -0.68 0.68 0 0 Z " fill="#E5E5E5" transform="translate(200,107)"/>
<path d="M0 0 C1.33841672 0.31229724 2.67139075 0.64830932 4 1 C6.18703385 0.62092718 6.18703385 0.62092718 8 0 C7.01 0.495 7.01 0.495 6 1 C6 2.32 6 3.64 6 5 C6.66 5.33 7.32 5.66 8 6 C7.443125 5.814375 6.88625 5.62875 6.3125 5.4375 C3.600867 4.92448835 1.65628961 5.3359276 -1 6 C-1.625 4.125 -1.625 4.125 -2 2 C-1.34 1.34 -0.68 0.68 0 0 Z " fill="#848484" transform="translate(139,269)"/>
<path d="M0 0 C1.32 0.33 2.64 0.66 4 1 C4 2.98 4 4.96 4 7 C2.35 7.33 0.7 7.66 -1 8 C-2.2077558 4.37673261 -1.54311128 3.35853631 0 0 Z " fill="#878787" transform="translate(236,267)"/>
<path d="M0 0 C1.6875 0.9375 1.6875 0.9375 2.6875 3.9375 C1.6975 4.2675 0.7075 4.5975 -0.3125 4.9375 C-0.9725 4.6075 -1.6325 4.2775 -2.3125 3.9375 C-2.3125 4.9275 -2.3125 5.9175 -2.3125 6.9375 C-3.3025 6.9375 -4.2925 6.9375 -5.3125 6.9375 C-5.3125 6.2775 -5.3125 5.6175 -5.3125 4.9375 C-6.3025 4.6075 -7.2925 4.2775 -8.3125 3.9375 C-2.95597826 -0.0798913 -2.95597826 -0.0798913 0 0 Z " fill="#1B1B1B" transform="translate(206.3125,113.0625)"/>
<path d="M0 0 C0.66 0.33 1.32 0.66 2 1 C2 1.66 2 2.32 2 3 C3.65 2.67 5.3 2.34 7 2 C7 2.99 7 3.98 7 5 C4.03 5.66 1.06 6.32 -2 7 C-1.125 1.125 -1.125 1.125 0 0 Z " fill="#959595" transform="translate(207,267)"/>
<path d="M0 0 C1.32 0.33 2.64 0.66 4 1 C4 2.98 4 4.96 4 7 C2.68 7.33 1.36 7.66 0 8 C0 5.36 0 2.72 0 0 Z " fill="#A4A4A4" transform="translate(218,267)"/>
<path d="M0 0 C1.32 0.33 2.64 0.66 4 1 C4 2.98 4 4.96 4 7 C2.68 7.33 1.36 7.66 0 8 C0 5.36 0 2.72 0 0 Z " fill="#A4A4A4" transform="translate(200,267)"/>
<path d="M0 0 C0.33 0.66 0.66 1.32 1 2 C1.99 2 2.98 2 4 2 C4.33 1.34 4.66 0.68 5 0 C5 0.66 5 1.32 5 2 C5.66 2.33 6.32 2.66 7 3 C6.34 3 5.68 3 5 3 C5 4.32 5 5.64 5 7 C5.66 7.33 6.32 7.66 7 8 C6.01 8 5.02 8 4 8 C4 6.35 4 4.7 4 3 C3.01 3 2.02 3 1 3 C1 4.32 1 5.64 1 7 C1.66 7.33 2.32 7.66 3 8 C2.01 8 1.02 8 0 8 C0 5.36 0 2.72 0 0 Z " fill="#4B4B4B" transform="translate(111,267)"/>
<path d="M0 0 C2.125 0.9375 2.125 0.9375 4 2 C4 2.66 4 3.32 4 4 C2 5.625 2 5.625 0 7 C0 6.34 0 5.68 0 5 C-0.66 5 -1.32 5 -2 5 C-2 3.68 -2 2.36 -2 1 C-1.34 0.67 -0.68 0.34 0 0 Z " fill="#DDDDDD" transform="translate(214,95)"/>
<path d="M0 0 C2 0.25 2 0.25 4 1 C4.33 1.99 4.66 2.98 5 4 C3.35 4.33 1.7 4.66 0 5 C-0.5625 3.0625 -0.5625 3.0625 -1 1 C-0.67 0.67 -0.34 0.34 0 0 Z " fill="#B0B0B0" transform="translate(158,270)"/>
<path d="M0 0 C1.32 0 2.64 0 4 0 C4 0.99 4 1.98 4 3 C3.01 3 2.02 3 1 3 C1 3.66 1 4.32 1 5 C1.99 5.33 2.98 5.66 4 6 C2.68 6 1.36 6 0 6 C-1.125 2.25 -1.125 2.25 0 0 Z " fill="#686868" transform="translate(119,269)"/>
</svg>
