<?xml version="1.0" encoding="UTF-8"?>
<svg version="1.1" xmlns="http://www.w3.org/2000/svg" width="752" height="564">
<path d="M0 0 C248.16 0 496.32 0 752 0 C752 186.12 752 372.24 752 564 C503.84 564 255.68 564 0 564 C0 377.88 0 191.76 0 0 Z " fill="#FEFEFE" transform="translate(0,0)"/>
<path d="M0 0 C0.52368164 0.39509766 1.04736328 0.79019531 1.58691406 1.19726562 C35.37952908 26.75014376 56.7226391 59.93472164 66.1875 101.25 C66.35459473 101.97026367 66.52168945 102.69052734 66.69384766 103.43261719 C71.31905873 124.36276905 70.15656508 147.10645589 66 168 C65.8767334 168.69496582 65.7534668 169.38993164 65.62646484 170.10595703 C63.18817542 183.83806358 57.61327988 196.29955333 52 209 C24.38031817 210.09989883 -2.31398158 201.32647573 -28.00756836 192.05786133 C-30.98770363 191.00434692 -33.98295615 190.01422122 -36.98828125 189.03515625 C-43.24528986 186.96547537 -49.33563486 184.54755283 -55.4375 182.0625 C-57.6416186 181.17111185 -59.84604229 180.28047768 -62.05078125 179.390625 C-63.0867041 178.97232422 -64.12262695 178.55402344 -65.18994141 178.12304688 C-68.48567151 176.80590018 -71.79934641 175.55187401 -75.125 174.3125 C-80.21890607 172.37261034 -85.14420408 170.13237301 -90.06494141 167.79614258 C-95.00861108 165.44906514 -99.99272914 163.20785513 -105 161 C-110.90692214 158.38859683 -116.7890675 155.73545865 -122.63305664 152.98510742 C-126.85130974 151.00020704 -131.08031677 149.04034731 -135.31640625 147.09375 C-149.8186055 140.41864866 -164.18033879 133.52293925 -178.42138672 126.30322266 C-181.39983914 124.79792262 -184.38868975 123.31449314 -187.37939453 121.83374023 C-195.92507172 117.59543835 -204.36417156 113.16433948 -212.79150391 108.69628906 C-215.98601302 107.00739473 -219.18433526 105.32593698 -222.38360596 103.64608765 C-225.49524791 102.01153038 -228.60518533 100.37374595 -231.71490479 98.73553467 C-233.277044 97.91338393 -234.83982738 97.09245596 -236.40325928 96.27276611 C-238.61572903 95.11237988 -240.82569001 93.94734263 -243.03515625 92.78125 C-243.7082634 92.42956757 -244.38137054 92.07788513 -245.07487488 91.71554565 C-247.70342204 90.32347832 -249.88375235 89.11624765 -252 87 C-250.14348745 61.38642013 -230.00228988 36.78288282 -213 19 C-211.69869141 17.63681641 -211.69869141 17.63681641 -210.37109375 16.24609375 C-205.85786242 11.61695279 -205.85786242 11.61695279 -204 10 C-203.34 10 -202.68 10 -202 10 C-202 9.34 -202 8.68 -202 8 C-199.93525098 6.25005576 -197.87559168 4.6470275 -195.6875 3.0625 C-195.0181543 2.57740967 -194.34880859 2.09231934 -193.65917969 1.5925293 C-137.09208722 -38.59135464 -56.74555584 -42.95202073 0 0 Z " fill="#F4845D" transform="translate(477,148)"/>
<path d="M0 0 C1.04591309 0.01434082 2.09182617 0.02868164 3.16943359 0.04345703 C13.15687263 0.25214056 22.70614176 1.02698329 32.1875 4.375 C32.1875 4.705 32.1875 5.035 32.1875 5.375 C31.48367187 5.43969482 30.77984375 5.50438965 30.0546875 5.57104492 C5.00664637 7.23117371 5.00664637 7.23117371 -16.8125 18.375 C-16.42883051 30.46058884 -9.10712482 38.10649998 -0.8125 46.375 C2.75363641 49.50791688 6.45758352 52.44066127 10.1875 55.375 C12.02295108 56.89327681 13.85629513 58.4141045 15.6875 59.9375 C21.03730895 64.30776646 26.55471807 68.37867467 32.1875 72.375 C32.81430664 72.82246582 33.44111328 73.26993164 34.08691406 73.73095703 C47.63937215 83.40527735 61.32689847 92.7220391 75.57495117 101.34448242 C80.08122171 104.07382179 84.527401 106.86789229 88.9375 109.75 C98.48357868 115.95894561 108.36025866 121.62696095 118.1875 127.375 C120.3086535 128.61968985 122.42974639 129.86448299 124.55078125 131.109375 C126.65865596 132.34408843 128.76672413 133.57847167 130.875 134.8125 C131.84163574 135.37928467 132.80827148 135.94606934 133.80419922 136.5300293 C140.20279242 140.26539145 146.66403631 143.86270571 153.1875 147.375 C154.22704834 147.93550049 155.26659668 148.49600098 156.33764648 149.07348633 C164.61074489 153.5263545 172.89712783 157.9543959 181.1875 162.375 C182.19893066 162.91447266 183.21036133 163.45394531 184.25244141 164.00976562 C194.44518703 169.43417071 204.69010897 174.64139527 215.16796875 179.4921875 C219.08936359 181.31394528 222.95382229 183.23710491 226.8125 185.1875 C256.31237802 200.03670331 286.4838209 213.23910798 317.1875 225.375 C318.16283691 225.76091309 319.13817383 226.14682617 320.14306641 226.54443359 C330.92541456 230.77198002 341.77028988 234.1811436 353.04150391 236.85498047 C354.94687106 237.3166906 356.83990794 237.8286379 358.73046875 238.34765625 C367.34761689 240.47963191 375.77538899 240.68348722 384.625 240.75 C386.43955688 240.77090698 386.43955688 240.77090698 388.29077148 240.79223633 C398.44310708 240.93814254 398.44310708 240.93814254 407.1875 236.375 C409.52774787 225.9524528 403.10880548 215.57986585 397.74365234 207.09033203 C394.3953816 202.05874222 390.83809402 197.19037499 387.1875 192.375 C386.42050781 191.36308594 385.65351562 190.35117187 384.86328125 189.30859375 C383.32417625 187.31368889 381.77228848 185.33366464 380.1875 183.375 C384.08738259 183.375 385.32685996 185.04417396 388.125 187.5625 C390.26337963 189.4416821 392.4872635 191.14817478 394.75 192.875 C407.09651588 202.77106235 422.47088214 216.15159488 424.48828125 232.8671875 C424.52803912 240.95128805 422.96388713 247.43815767 417.1875 253.375 C403.50428004 265.27345214 384.01998835 265.7943989 366.8125 265.75 C366.01825623 265.74945618 365.22401245 265.74891235 364.40570068 265.74835205 C351.30064825 265.7072002 338.91772241 264.66891796 326.1875 261.375 C325.23117676 261.12878906 324.27485352 260.88257813 323.28955078 260.62890625 C318.54472549 259.3889129 313.81863171 258.09736721 309.10546875 256.7421875 C308.28320801 256.51466797 307.46094727 256.28714844 306.61376953 256.05273438 C304.99293684 255.59998417 303.37897474 255.12189644 301.77294922 254.61914062 C297.72319736 253.47588083 295.93569522 253.04287431 291.984375 254.796875 C290.97890625 255.56515625 289.9734375 256.3334375 288.9375 257.125 C256.83049966 279.95565027 214.01342536 288.14514274 175.33203125 282.4921875 C140.08270469 276.37698977 110.24492057 260.62347567 84.1875 236.375 C83.52105469 235.76269531 82.85460937 235.15039062 82.16796875 234.51953125 C66.67416282 219.7199488 55.56704731 200.92266023 47.1875 181.375 C46.90922363 180.7365918 46.63094727 180.09818359 46.34423828 179.44042969 C38.54727673 161.26790977 34.93511431 141.46889893 35.125 121.75 C35.12951172 120.84121094 35.13402344 119.93242187 35.13867188 118.99609375 C35.15028822 116.78898911 35.16661832 114.58203303 35.1875 112.375 C34.58784424 112.09301758 33.98818848 111.81103516 33.37036133 111.52050781 C30.17121822 109.84168224 27.58475713 107.48376607 24.875 105.125 C24.26615967 104.59849854 23.65731934 104.07199707 23.0300293 103.52954102 C15.91145325 97.32861166 9.00818614 90.90081048 2.1875 84.375 C1.66494629 83.87581055 1.14239258 83.37662109 0.60400391 82.86230469 C-14.97842652 67.88724709 -34.15800849 47.06011581 -35.1875 24.1875 C-34.38267694 16.00513222 -31.81662374 11.79544676 -25.75 6.234375 C-17.56257856 1.05191143 -9.54382934 -0.24835244 0 0 Z " fill="#B15CC3" transform="translate(181.8125,163.625)"/>
<path d="M0 0 C0.495 0.99 0.495 0.99 1 2 C0.34 2 -0.32 2 -1 2 C-1.33 2.66 -1.66 3.32 -2 4 C-2 3.34 -2 2.68 -2 2 C-8.08459918 2.89792143 -12.39704398 3.66007004 -17 8 C-19.45159064 9.59353392 -21.58444033 10.86877063 -24.375 11.75 C-27.7359753 13.35046443 -29.75668341 15.62160409 -32.25390625 18.34375 C-34.07306316 20.06930376 -35.75036445 20.93268824 -38 22 C-38.66 22.66 -39.32 23.32 -40 24 C-40.86238281 24.38671875 -40.86238281 24.38671875 -41.7421875 24.78125 C-44.97225567 26.52481621 -47.47188039 29.00180709 -50.125 31.5 C-50.66253906 31.99886719 -51.20007813 32.49773437 -51.75390625 33.01171875 C-56.33766701 36.7349515 -56.33766701 36.7349515 -58.3125 41.875 C-57.96919739 45.30802613 -57.19293575 46.44157496 -55 49 C-55 49.66 -55 50.32 -55 51 C-54.01 50.67 -53.02 50.34 -52 50 C-51.6596875 51.051875 -51.6596875 51.051875 -51.3125 52.125 C-47.9781095 59.428903 -41.25031967 65.6366132 -34 69 C-34 69.66 -34 70.32 -34 71 C-32.02 71.495 -32.02 71.495 -30 72 C-30 72.66 -30 73.32 -30 74 C-28.576875 74.4640625 -28.576875 74.4640625 -27.125 74.9375 C-24 76 -24 76 -22 77 C-22 77.66 -22 78.32 -22 79 C-20.5459375 79.185625 -20.5459375 79.185625 -19.0625 79.375 C-18.051875 79.58125 -17.04125 79.7875 -16 80 C-15.67 80.66 -15.34 81.32 -15 82 C-13.34302621 82.69040574 -11.6744239 83.3530635 -10 84 C-9.236875 84.495 -8.47375 84.99 -7.6875 85.5 C-4.19142104 87.45129989 -0.90593077 88.13937119 3 89 C3 89.66 3 90.32 3 91 C4.17369141 91.18175781 4.17369141 91.18175781 5.37109375 91.3671875 C6.38300781 91.53476563 7.39492188 91.70234375 8.4375 91.875 C9.44683594 92.03742188 10.45617187 92.19984375 11.49609375 92.3671875 C12.73552734 92.68042969 12.73552734 92.68042969 14 93 C14.33 93.66 14.66 94.32 15 95 C18.465 94.505 18.465 94.505 22 94 C22.33 94.99 22.66 95.98 23 97 C25.86506565 98.19150349 28.60404198 99.16648212 31.5625 100.0625 C32.41207275 100.32562988 33.26164551 100.58875977 34.13696289 100.85986328 C43.27185194 103.56756863 52.4534578 105 62 105 C62 105.66 62 106.32 62 107 C62.78246094 106.93941406 63.56492187 106.87882812 64.37109375 106.81640625 C69.22425255 107.06193743 73.44620406 108.49095309 78.0625 109.9375 C86.13568974 112.37259491 93.52301643 113.96854552 102 114 C102 114.66 102 115.32 102 116 C104.64 116 107.28 116 110 116 C110.33 116.66 110.66 117.32 111 118 C113.57204139 118.59331981 116.08651268 119.08070886 118.6875 119.5 C123.64670418 120.32126948 128.23705538 121.3356756 133 123 C134.43256474 123.31501424 135.870069 123.60878863 137.3125 123.875 C142.20210862 124.90614195 146.52278559 126.81960717 151 129 C151 129.66 151 130.32 151 131 C151.69867188 131.12117187 152.39734375 131.24234375 153.1171875 131.3671875 C154.48230469 131.61855469 154.48230469 131.61855469 155.875 131.875 C157.23238281 132.11863281 157.23238281 132.11863281 158.6171875 132.3671875 C161 133 161 133 163 135 C165.04501779 135.64758897 167.09027607 136.294428 169.13671875 136.9375 C174.98352072 139.10711819 180.47198437 142.12983541 186 145 C186 145.99 186 146.98 186 148 C186.763125 148.28875 187.52625 148.5775 188.3125 148.875 C191 150 191 150 194 152 C194 152.66 194 153.32 194 154 C195.32 154.33 196.64 154.66 198 155 C198 155.99 198 156.98 198 158 C198.556875 158.061875 199.11375 158.12375 199.6875 158.1875 C203.01698789 159.35732007 204.63568181 161.40501662 207 164 C207.47179687 164.51433594 207.94359375 165.02867187 208.4296875 165.55859375 C212 169.60293079 212 169.60293079 212 173 C213.98 173.66 215.96 174.32 218 175 C220.30698617 182.68995389 218.20617663 189.94641142 215 197 C214.39690397 199.35012905 213.89678579 201.7014689 213.4296875 204.08203125 C213 206 213 206 212 208 C211.34 208 210.68 208 210 208 C210.0309375 209.423125 210.0309375 209.423125 210.0625 210.875 C210 214 210 214 209 216 C208.34 216 207.68 216 207 216 C206.67 217.98 206.34 219.96 206 222 C202.70835171 222.02895225 199.41673601 222.0467823 196.125 222.0625 C194.71927734 222.07506836 194.71927734 222.07506836 193.28515625 222.08789062 C191.94130859 222.09272461 191.94130859 222.09272461 190.5703125 222.09765625 C189.74289551 222.10289307 188.91547852 222.10812988 188.06298828 222.11352539 C186 222 186 222 184 221 C182.10333474 221.08772455 180.20761007 221.19591301 178.3125 221.3125 C160.66211984 221.40255296 143.09962832 213.89112081 126.72729492 207.96411133 C123.86568047 206.95251743 120.98734328 206.00667982 118.1015625 205.06640625 C111.81454637 202.98541049 105.6940415 200.55963886 99.5625 198.0625 C97.3583814 197.17111185 95.15395771 196.28047768 92.94921875 195.390625 C91.9132959 194.97232422 90.87737305 194.55402344 89.81005859 194.12304688 C86.51432849 192.80590018 83.20065359 191.55187401 79.875 190.3125 C74.78109393 188.37261034 69.85579592 186.13237301 64.93505859 183.79614258 C59.99138892 181.44906514 55.00727086 179.20785513 50 177 C44.09307786 174.38859683 38.2109325 171.73545865 32.36694336 168.98510742 C28.14869026 167.00020704 23.91968323 165.04034731 19.68359375 163.09375 C5.1813945 156.41864866 -9.18033879 149.52293925 -23.42138672 142.30322266 C-26.39983914 140.79792262 -29.38868975 139.31449314 -32.37939453 137.83374023 C-40.92507172 133.59543835 -49.36417156 129.16433948 -57.79150391 124.69628906 C-60.98601302 123.00739473 -64.18433526 121.32593698 -67.38360596 119.64608765 C-70.49524791 118.01153038 -73.60518533 116.37374595 -76.71490479 114.73553467 C-78.277044 113.91338393 -79.83982738 113.09245596 -81.40325928 112.27276611 C-83.61572903 111.11237988 -85.82569001 109.94734263 -88.03515625 108.78125 C-88.7082634 108.42956757 -89.38137054 108.07788513 -90.07487488 107.71554565 C-92.70342204 106.32347832 -94.88375235 105.11624765 -97 103 C-95.14348745 77.38642013 -75.00228988 52.78288282 -58 35 C-56.69869141 33.63681641 -56.69869141 33.63681641 -55.37109375 32.24609375 C-50.85786242 27.61695279 -50.85786242 27.61695279 -49 26 C-48.34 26 -47.68 26 -47 26 C-47 25.34 -47 24.68 -47 24 C-44.9353898 22.25017342 -42.87496357 20.64758667 -40.6875 19.0625 C-40.02685547 18.58103516 -39.36621094 18.09957031 -38.68554688 17.60351562 C-9.76592145 -3.02278521 -9.76592145 -3.02278521 0 0 Z " fill="#F2616A" transform="translate(322,132)"/>
<path d="M0 0 C5.73426343 2.53218642 10.24892517 6.99874564 15 11 C15.69609375 11.58136719 16.3921875 12.16273438 17.109375 12.76171875 C19.1111035 14.46980526 21.061389 16.22052871 23 18 C23.8765625 18.79921875 24.753125 19.5984375 25.65625 20.421875 C34.09635633 28.44461344 42.84863523 38.46012051 44.30078125 50.4921875 C44.34053912 58.57628805 42.77638713 65.06315767 37 71 C23.31244471 82.90222199 3.83564131 83.41141417 -13.375 83.375 C-14.16292938 83.37578552 -14.95085876 83.37657104 -15.76266479 83.37738037 C-47.49064905 83.3395673 -47.49064905 83.3395673 -57 77 C-51.00504623 76.83537884 -45.51744648 77.44614376 -39.625 78.5 C-32.97611748 79.63186167 -26.76029001 80.21461238 -20 80 C-19.01 80.495 -19.01 80.495 -18 81 C-16.55151418 81.08342159 -15.09929131 81.10732861 -13.6484375 81.09765625 C-12.79765625 81.09443359 -11.946875 81.09121094 -11.0703125 81.08789062 C-10.18085937 81.07951172 -9.29140625 81.07113281 -8.375 81.0625 C-7.4778125 81.05798828 -6.580625 81.05347656 -5.65625 81.04882812 C-3.43743352 81.03702591 -1.21874982 81.02056155 1 81 C1 80.34 1 79.68 1 79 C1.763125 79.020625 2.52625 79.04125 3.3125 79.0625 C6.10185786 79.12942841 6.10185786 79.12942841 9 78 C10.45891822 78.00546411 11.91797964 78.05040851 13.375 78.125 C17.47891123 78.18486256 19.61288767 77.41936595 23 75 C25.14530755 74.32576048 26.75769107 74 29 74 C28.67 72.68 28.34 71.36 28 70 C28.7425 70.020625 29.485 70.04125 30.25 70.0625 C32.70462279 70.00671312 34.66109261 69.6930096 37 69 C37.103125 68.13375 37.20625 67.2675 37.3125 66.375 C38 63 38 63 39.5625 60.3125 C41.62470821 55.560455 41.2453714 51.10736027 41 46 C40.34 46 39.68 46 39 46 C38.505 42.04 38.505 42.04 38 38 C36.35 38 34.7 38 33 38 C33.309375 38.70125 33.61875 39.4025 33.9375 40.125 C36.32944132 46.5973118 36.99007768 53.46400829 35.125 60.125 C30.69137118 66.123439 24.51257864 69.03634454 17.2265625 70.16015625 C9.80173819 71.1901836 2.4552215 71.26970777 -5.02490234 71.20581055 C-7.2888479 71.18718032 -9.55239091 71.18530411 -11.81640625 71.18554688 C-22.85199486 71.14800514 -22.85199486 71.14800514 -24 70 C-25.36882212 69.78850817 -26.74613294 69.63087552 -28.125 69.5 C-28.94355469 69.41492188 -29.76210938 69.32984375 -30.60546875 69.2421875 C-31.39566406 69.16226563 -32.18585937 69.08234375 -33 69 C-41.75472223 68.04493939 -49.83306065 65.17603197 -58 62 C-58 61.67 -58 61.34 -58 61 C-53.48612998 60.60748956 -50.67434262 61.01029119 -46.5625 62.9375 C-40.74916037 65.47860705 -35.07058103 65.56738459 -28.83203125 65.7265625 C-25 66 -25 66 -21.72485352 67.00268555 C-17.8348543 68.04421709 -14.58875714 68.24361777 -10.5703125 68.23046875 C-9.55661087 68.22978142 -9.55661087 68.22978142 -8.52243042 68.2290802 C-7.10901103 68.22608302 -5.69559418 68.21827382 -4.28222656 68.20581055 C-2.10990863 68.1873719 0.06198639 68.18530246 2.234375 68.18554688 C8.60405175 68.8085745 8.60405175 68.8085745 14 67 C15.55786803 66.70368235 17.1216035 66.43794981 18.6875 66.1875 C23.75938128 65.20795211 28.10372412 63.78940241 31.14453125 59.31640625 C32.33518275 56.09240469 32.22654831 53.23810199 32.1875 49.8125 C32.18105469 48.56082031 32.17460938 47.30914062 32.16796875 46.01953125 C32.34331406 43.1210669 32.34331406 43.1210669 31 42 C30.01 42.99 30.01 42.99 29 44 C28.34 44 27.68 44 27 44 C26.56171875 42.97003906 26.1234375 41.94007813 25.671875 40.87890625 C19.41388188 26.6538963 10.850662 14.52939104 1.109375 2.46875 C0 1 0 1 0 0 Z " fill="#E251B2" transform="translate(562,346)"/>
<path d="M0 0 C1.04591309 0.01434082 2.09182617 0.02868164 3.16943359 0.04345703 C13.15687263 0.25214056 22.70614176 1.02698329 32.1875 4.375 C32.1875 4.705 32.1875 5.035 32.1875 5.375 C31.48367187 5.43969482 30.77984375 5.50438965 30.0546875 5.57104492 C5.91740357 7.56378806 5.91740357 7.56378806 -15.8125 17.375 C-16.4725 17.375 -17.1325 17.375 -17.8125 17.375 C-16.8125 14.375 -16.8125 14.375 -15.8125 12.375 C-13.74609375 11.7421875 -13.74609375 11.7421875 -11.25 11.25 C-10.42371094 11.08242187 -9.59742188 10.91484375 -8.74609375 10.7421875 C-8.10800781 10.62101563 -7.46992188 10.49984375 -6.8125 10.375 C-6.8125 9.715 -6.8125 9.055 -6.8125 8.375 C-3.1825 8.045 0.4475 7.715 4.1875 7.375 C4.1875 6.715 4.1875 6.055 4.1875 5.375 C4.991875 5.25125 5.79625 5.1275 6.625 5 C7.470625 4.79375 8.31625 4.5875 9.1875 4.375 C9.5175 3.715 9.8475 3.055 10.1875 2.375 C8.43784642 2.32070041 6.68770213 2.28207177 4.9375 2.25 C3.96296875 2.22679687 2.9884375 2.20359375 1.984375 2.1796875 C-0.77068045 2.19229158 -0.77068045 2.19229158 -2.8359375 3.38671875 C-5.43038128 4.68394064 -7.30984915 4.46968261 -10.1875 4.3125 C-17.51878679 4.18576233 -21.23266363 6.88013181 -26.8125 11.375 C-27.4725 11.375 -28.1325 11.375 -28.8125 11.375 C-30.85788889 18.32932222 -31.39419634 25.15375787 -31.8125 32.375 C-31.1525 32.375 -30.4925 32.375 -29.8125 32.375 C-29.4825 36.005 -29.1525 39.635 -28.8125 43.375 C-28.1525 43.375 -27.4925 43.375 -26.8125 43.375 C-26.1525 45.025 -25.4925 46.675 -24.8125 48.375 C-23.8225 48.375 -22.8325 48.375 -21.8125 48.375 C-21.8125 50.355 -21.8125 52.335 -21.8125 54.375 C-21.1525 54.705 -20.4925 55.035 -19.8125 55.375 C-17.24254926 56.65997537 -16.90815537 57.87412373 -15.6875 60.4375 C-15.15769531 61.53771484 -15.15769531 61.53771484 -14.6171875 62.66015625 C-14.35164063 63.22605469 -14.08609375 63.79195312 -13.8125 64.375 C-12.4925 64.375 -11.1725 64.375 -9.8125 64.375 C-9.8125 65.695 -9.8125 67.015 -9.8125 68.375 C-8.884375 68.4678125 -8.884375 68.4678125 -7.9375 68.5625 C-7.23625 68.830625 -6.535 69.09875 -5.8125 69.375 C-5.09522222 71.02051962 -4.42924772 72.68922289 -3.8125 74.375 C-2.8225 75.035 -1.8325 75.695 -0.8125 76.375 C-0.131875 77.5196875 -0.131875 77.5196875 0.5625 78.6875 C3.72231341 83.91334525 8.504757 87.563465 13.1875 91.375 C12.5275 92.035 11.8675 92.695 11.1875 93.375 C-11.23523212 71.37259307 -11.23523212 71.37259307 -17.8125 62.375 C-18.58722656 61.32054687 -19.36195313 60.26609375 -20.16015625 59.1796875 C-28.36337878 47.7926794 -36.24707591 34.95985509 -34.8125 20.375 C-33.66005256 14.06751885 -30.38892495 10.48672287 -25.75 6.234375 C-17.56257856 1.05191143 -9.54382934 -0.24835244 0 0 Z " fill="#736ECB" transform="translate(181.8125,163.625)"/>
<path d="M0 0 C0.66 0 1.32 0 2 0 C2.20625 1.299375 2.4125 2.59875 2.625 3.9375 C5.82611045 18.06653921 19.17667803 28.48525363 30 37 C31.83545108 38.51827681 33.66879513 40.0391045 35.5 41.5625 C40.84980895 45.93276646 46.36721807 50.00367467 52 54 C52.94020996 54.67119873 52.94020996 54.67119873 53.89941406 55.35595703 C67.41235775 65.00207029 81.05593685 74.28446459 95.26879883 82.87060547 C102.66450276 87.35687872 109.84804901 92.13709527 117 97 C116.67 97.66 116.34 98.32 116 99 C114.515 98.01 114.515 98.01 113 97 C112.01 97.495 112.01 97.495 111 98 C109.515 97.01 109.515 97.01 108 96 C108.66 96 109.32 96 110 96 C110 95.34 110 94.68 110 94 C109.443125 93.896875 108.88625 93.79375 108.3125 93.6875 C104.00538664 92.40700684 100.73752091 89.802695 97.25 87.0625 C93.13307465 83.91195216 88.80576242 81.89115651 84 80 C84 79.34 84 78.68 84 78 C82.02 77.67 80.04 77.34 78 77 C78 76.01 78 75.02 78 74 C77.4225 73.71125 76.845 73.4225 76.25 73.125 C74.7997845 72.39989225 73.3609113 71.65140616 71.9375 70.875 C69.89863452 69.79420664 69.89863452 69.79420664 67 70 C66.9175 69.38125 66.835 68.7625 66.75 68.125 C66.20665099 65.9003946 66.20665099 65.9003946 64.375 64.9375 C62.36320706 64.14337121 60.33905441 63.38066436 58.3125 62.625 C55 61 55 61 54.0625 58.8125 C54.041875 58.214375 54.02125 57.61625 54 57 C53.0409375 56.814375 53.0409375 56.814375 52.0625 56.625 C51.381875 56.41875 50.70125 56.2125 50 56 C49.67 55.34 49.34 54.68 49 54 C47.344389 53.06606559 45.65049478 52.19897217 43.9375 51.375 C43.01839844 50.92898437 42.09929687 50.48296875 41.15234375 50.0234375 C40.44207031 49.68570313 39.73179687 49.34796875 39 49 C39 48.01 39 47.02 39 46 C37.35 45.67 35.7 45.34 34 45 C34 44.34 34 43.68 34 43 C31.36107824 41.21694476 29.02821137 40.00940379 26 39 C25.71125 38.38125 25.4225 37.7625 25.125 37.125 C23.64421271 34.32795734 21.68453142 33.5831852 19 32 C18.67 31.01 18.34 30.02 18 29 C16.68 29.33 15.36 29.66 14 30 C14 28.35 14 26.7 14 25 C13.01 25.33 12.02 25.66 11 26 C8 21.375 8 21.375 8 18 C7.34 17.67 6.68 17.34 6 17 C5 16 4 15 3 14 C2.67 14 2.34 14 2 14 C1.34 11.36 0.68 8.72 0 6 C-0.66 6 -1.32 6 -2 6 C-1.49396008 3.83125748 -1.00016187 2.00032373 0 0 Z " fill="#7970CA" transform="translate(162,182)"/>
<path d="M0 0 C0.495 0.99 0.495 0.99 1 2 C0.34 2 -0.32 2 -1 2 C-1.33 2.66 -1.66 3.32 -2 4 C-2 3.34 -2 2.68 -2 2 C-8.08459918 2.89792143 -12.39704398 3.66007004 -17 8 C-19.45159064 9.59353392 -21.58444033 10.86877063 -24.375 11.75 C-27.7359753 13.35046443 -29.75668341 15.62160409 -32.25390625 18.34375 C-34.07306316 20.06930376 -35.75036445 20.93268824 -38 22 C-38.66 22.66 -39.32 23.32 -40 24 C-40.86625 24.38865234 -40.86625 24.38865234 -41.75 24.78515625 C-44.94027566 26.50768356 -47.38994248 28.95988352 -50 31.4375 C-55.54780708 36.66260048 -55.54780708 36.66260048 -58.27734375 38.69921875 C-60.59751693 40.45118626 -61.61068408 42.46298832 -63 45 C-64.5625 47.8125 -64.5625 47.8125 -66 50 C-66.66 50 -67.32 50 -68 50 C-68.268125 51.134375 -68.53625 52.26875 -68.8125 53.4375 C-69.204375 54.613125 -69.59625 55.78875 -70 57 C-71.485 57.495 -71.485 57.495 -73 58 C-74.38442 59.96498322 -75.71203834 61.97048465 -77 64 C-77.70125 64.825 -78.4025 65.65 -79.125 66.5 C-81.19088216 69.25450955 -81.94003661 71.74944559 -83 75 C-83.515625 75.495 -84.03125 75.99 -84.5625 76.5 C-86.69311548 78.72325093 -86.6688423 81.01958067 -87 84 C-88.98 84.495 -88.98 84.495 -91 85 C-89.54182071 78.32744541 -86.37453939 73.00560745 -82.875 67.1875 C-82.28750977 66.20426758 -81.70001953 65.22103516 -81.09472656 64.20800781 C-77.14738824 57.68849086 -73.12570867 51.65742119 -68 46 C-67.29617187 45.19046875 -66.59234375 44.3809375 -65.8671875 43.546875 C-60.52682575 37.4808195 -55.04585599 31.37155447 -49 26 C-48.34 26 -47.68 26 -47 26 C-47 25.34 -47 24.68 -47 24 C-44.9353898 22.25017342 -42.87496357 20.64758667 -40.6875 19.0625 C-40.02685547 18.58103516 -39.36621094 18.09957031 -38.68554688 17.60351562 C-9.76592145 -3.02278521 -9.76592145 -3.02278521 0 0 Z " fill="#DF6475" transform="translate(322,132)"/>
<path d="M0 0 C2.66565069 2.36946728 4.07438414 4.80363846 5.625 8 C6.05039062 8.86625 6.47578125 9.7325 6.9140625 10.625 C9.80914224 16.95668519 10.05831999 23.71371568 7.75 30.3125 C4.5364937 37.72141731 -0.83589904 42.20503971 -8.14453125 45.35546875 C-21.42230188 50.34744205 -34.2891761 51.4048027 -48.375 51.375 C-49.16292938 51.37578552 -49.95085876 51.37657104 -50.76266479 51.37738037 C-82.49064905 51.3395673 -82.49064905 51.3395673 -92 45 C-86.00504623 44.83537884 -80.51744648 45.44614376 -74.625 46.5 C-67.97611748 47.63186167 -61.76029001 48.21461238 -55 48 C-54.01 48.495 -54.01 48.495 -53 49 C-51.55151418 49.08342159 -50.09929131 49.10732861 -48.6484375 49.09765625 C-47.79765625 49.09443359 -46.946875 49.09121094 -46.0703125 49.08789062 C-45.18085937 49.07951172 -44.29140625 49.07113281 -43.375 49.0625 C-42.4778125 49.05798828 -41.580625 49.05347656 -40.65625 49.04882812 C-38.43743352 49.03702591 -36.21874982 49.02056155 -34 49 C-34 48.34 -34 47.68 -34 47 C-33.236875 47.020625 -32.47375 47.04125 -31.6875 47.0625 C-28.89814214 47.12942841 -28.89814214 47.12942841 -26 46 C-24.54108178 46.00546411 -23.08202036 46.05040851 -21.625 46.125 C-17.52108877 46.18486256 -15.38711233 45.41936595 -12 43 C-9.85469245 42.32576048 -8.24230893 42 -6 42 C-6.495 40.02 -6.495 40.02 -7 38 C-6.2575 38.020625 -5.515 38.04125 -4.75 38.0625 C-2.29537721 38.00671312 -0.33890739 37.6930096 2 37 C2.103125 36.13375 2.20625 35.2675 2.3125 34.375 C3 31 3 31 4.5625 28.3125 C6.62470821 23.560455 6.2453714 19.10736027 6 14 C5.34 14 4.68 14 4 14 C3.896875 13.13375 3.79375 12.2675 3.6875 11.375 C2.96548932 7.83058395 1.66706956 5.18917655 0 2 C0 1.34 0 0.68 0 0 Z " fill="#EA58A9" transform="translate(597,378)"/>
<path d="M0 0 C-0.33 1.32 -0.66 2.64 -1 4 C-0.0925 4.28875 0.815 4.5775 1.75 4.875 C6.64882399 6.57074677 9.43214809 8.21591464 13 12 C16.48174394 15.79662901 16.48174394 15.79662901 21 18 C24.51820748 21.25462841 27.59466455 24.7927855 30.625 28.5 C31.38039063 29.4178125 32.13578125 30.335625 32.9140625 31.28125 C35 34 35 34 36.58984375 36.78515625 C37.8591132 39.30045423 37.8591132 39.30045423 40.9375 39.9375 C44.06962827 40.00142099 45.46699434 39.78248547 48 38 C48.495 37.01 48.495 37.01 49 36 C52.0625 35.375 52.0625 35.375 55 35 C55.33 34.01 55.66 33.02 56 32 C57.5778125 31.87625 57.5778125 31.87625 59.1875 31.75 C63.33895038 30.93332124 64.86563701 29.71080042 68 27 C70.3125 26.25 70.3125 26.25 72 26 C72 25.34 72 24.68 72 24 C73.32 24 74.64 24 76 24 C76.33 23.34 76.66 22.68 77 22 C78.98 22.66 80.96 23.32 83 24 C80 25 80 25 78.23046875 25.30859375 C74.93489561 26.33016371 72.2072528 28.23206142 69.3125 30.0625 C63.67604729 33.52218832 57.95558755 36.68478635 52 39.5625 C51.30688721 39.90869385 50.61377441 40.2548877 49.8996582 40.61157227 C45.47851793 42.69659332 41.98513846 43.60218983 37 43 C34.8125 40.375 34.8125 40.375 33 37 C27.90643628 28.81391546 21.74536462 22.19748841 13.98046875 16.5078125 C12 15 12 15 10.5390625 13.4921875 C8.59974404 11.61193458 6.51256809 10.37146873 4.1875 9 C3.30578125 8.47921875 2.4240625 7.9584375 1.515625 7.421875 C-0.47389405 6.29736423 -2.51129663 5.25760867 -4.5625 4.25 C-7 3 -7 3 -8 1 C-5.10765685 0.17361624 -3.11257569 0 0 0 Z " fill="#CE55BB" transform="translate(400,392)"/>
<path d="M0 0 C3.0831351 1.19899698 6.06279492 2.47700477 9 4 C9 4.66 9 5.32 9 6 C10.32 6 11.64 6 13 6 C13.268125 6.78375 13.53625 7.5675 13.8125 8.375 C14.84814432 11.28114923 14.84814432 11.28114923 18 13 C18 13.66 18 14.32 18 15 C19.32 15.33 20.64 15.66 22 16 C21.98839844 17.26457031 21.97679687 18.52914063 21.96484375 19.83203125 C21.95546434 21.49218602 21.9463643 23.15234239 21.9375 24.8125 C21.92912109 25.64587891 21.92074219 26.47925781 21.91210938 27.33789062 C21.90888672 28.14033203 21.90566406 28.94277344 21.90234375 29.76953125 C21.89710693 30.50792236 21.89187012 31.24631348 21.88647461 32.00708008 C21.92476787 34.21057409 21.92476787 34.21057409 23 37 C22.67 37.66 22.34 38.32 22 39 C22.39255246 41.17954501 22.86437252 43.34505836 23.375 45.5 C24.53490711 50.62773417 25.33490483 55.56885257 25.75 60.80078125 C26.11582061 64.01885942 26.99752974 66.92575786 28 70 C28.66 70 29.32 70 30 70 C30.103125 71.175625 30.20625 72.35125 30.3125 73.5625 C30.82283554 77.76352303 32.30709811 81.12043316 34 85 C34.4054103 87.32189536 34.76072994 89.65515344 35 92 C21.19106203 76.14064397 18.74400141 45.469084 18.9375 25.375 C18.94201172 24.46621094 18.94652344 23.55742187 18.95117188 22.62109375 C18.96278822 20.41398911 18.97911832 18.20703303 19 16 C18.41049561 15.72671875 17.82099121 15.4534375 17.21362305 15.171875 C15.06639927 14.03515126 13.42115475 12.82707291 11.58203125 11.25 C10.96779297 10.7240625 10.35355469 10.198125 9.72070312 9.65625 C9.09099609 9.1096875 8.46128906 8.563125 7.8125 8 C7.17119141 7.4534375 6.52988281 6.906875 5.86914062 6.34375 C1.13016002 2.26032004 1.13016002 2.26032004 0 0 Z " fill="#886DC4" transform="translate(198,260)"/>
<path d="M0 0 C3.60708223 1.58339056 6.35767939 3.79806616 9.375 6.3125 C10.33792969 7.11171875 11.30085937 7.9109375 12.29296875 8.734375 C13.18628906 9.48203125 14.07960938 10.2296875 15 11 C16.01513672 11.84304688 16.01513672 11.84304688 17.05078125 12.703125 C18.36995322 13.79876187 19.68554927 14.89870344 21 16 C19.66666667 16 18.33333333 16 17 16 C17 17.98 17 19.96 17 22 C17.639375 22.103125 18.27875 22.20625 18.9375 22.3125 C19.618125 22.539375 20.29875 22.76625 21 23 C21.33 23.99 21.66 24.98 22 26 C22.66 26 23.32 26 24 26 C24 26.66 24 27.32 24 28 C24.61875 28.185625 25.2375 28.37125 25.875 28.5625 C29.05602866 30.71437233 29.19451947 33.37533763 30 37 C30.66 37 31.32 37 32 37 C31.25 41.75 31.25 41.75 29 44 C28.34 44 27.68 44 27 44 C26.56171875 42.97003906 26.1234375 41.94007813 25.671875 40.87890625 C19.41388188 26.6538963 10.850662 14.52939104 1.109375 2.46875 C0 1 0 1 0 0 Z " fill="#C35BAF" transform="translate(562,346)"/>
<path d="M0 0 C0.66 0 1.32 0 2 0 C-1.00510343 15.1848787 -5.57654049 28.94417146 -12 43 C-23.36312879 43.45251398 -33.85583729 42.14458114 -45 40 C-41.68629 37.79086 -40.6553979 37.77518447 -36.8125 37.875 C-35.91144531 37.89304687 -35.01039063 37.91109375 -34.08203125 37.9296875 C-33.39496094 37.95289063 -32.70789063 37.97609375 -32 38 C-32 38.33 -32 38.66 -32 39 C-25.73 39.33 -19.46 39.66 -13 40 C-12.67 38.02 -12.34 36.04 -12 34 C-11.34 34 -10.68 34 -10 34 C-9.67 31.36 -9.34 28.72 -9 26 C-8.34 26 -7.68 26 -7 26 C-6.89042969 25.28714844 -6.78085937 24.57429688 -6.66796875 23.83984375 C-5.72071444 18.11781162 -4.40395283 13.30872916 -2 8 C-1.23351784 5.34787767 -0.61427791 2.69337239 0 0 Z " fill="#E88A64" transform="translate(541,314)"/>
<path d="M0 0 C5.24498563 1.3092864 8.47629309 3.77617695 12.1875 7.5625 C12.71633789 8.09391602 13.24517578 8.62533203 13.79003906 9.17285156 C17.86536372 13.45361161 19.8273355 17.13667751 21 23 C19.68 23 18.36 23 17 23 C17.33 24.65 17.66 26.3 18 28 C17.34 28 16.68 28 16 28 C16 26.02 16 24.04 16 22 C15.34 22 14.68 22 14 22 C13.73445312 21.43410156 13.46890625 20.86820312 13.1953125 20.28515625 C12.66550781 19.18494141 12.66550781 19.18494141 12.125 18.0625 C11.77695312 17.33160156 11.42890625 16.60070312 11.0703125 15.84765625 C10.1315023 13.83667541 10.1315023 13.83667541 8 13 C8 12.34 8 11.68 8 11 C7.34 11 6.68 11 6 11 C5.34 10.01 4.68 9.02 4 8 C3.01 7.67 2.02 7.34 1 7 C0.67 4.69 0.34 2.38 0 0 Z " fill="#E753AC" transform="translate(578,361)"/>
<path d="M0 0 C6.50093837 2.50913411 12.06350219 5.903629 17.79638672 9.80883789 C22.85979843 13.25564799 27.99683643 16.56077592 33.1875 19.8125 C43.19877457 26.09545917 53.10658284 32.53346736 63 39 C62.505 39.99 62.505 39.99 62 41 C61.01 40.34 60.02 39.68 59 39 C58.01 39.495 58.01 39.495 57 40 C56.01 39.34 55.02 38.68 54 38 C54.66 38 55.32 38 56 38 C56 37.34 56 36.68 56 36 C55.1646875 35.8453125 55.1646875 35.8453125 54.3125 35.6875 C50.00538664 34.40700684 46.73752091 31.802695 43.25 29.0625 C39.13307465 25.91195216 34.80576242 23.89115651 30 22 C30 21.34 30 20.68 30 20 C28.02 19.67 26.04 19.34 24 19 C24 18.01 24 17.02 24 16 C23.4225 15.71125 22.845 15.4225 22.25 15.125 C20.7997845 14.39989225 19.3609113 13.65140616 17.9375 12.875 C15.89863452 11.79420664 15.89863452 11.79420664 13 12 C12.9175 11.38125 12.835 10.7625 12.75 10.125 C12.20665099 7.9003946 12.20665099 7.9003946 10.375 6.9375 C8.35621954 6.14061298 6.33465057 5.35079598 4.3125 4.5625 C3.219375 4.046875 2.12625 3.53125 1 3 C0.67 2.01 0.34 1.02 0 0 Z " fill="#836AC6" transform="translate(216,240)"/>
<path d="M0 0 C1.46643674 4.24494845 0.19023309 6.7625167 -1.40625 10.78125 C-2.07284832 13.27222268 -1.83156399 14.59284109 -1 17 C-0.01 17 0.98 17 2 17 C2 17.66 2 18.32 2 19 C4.7439005 19.56492069 7.39481809 20.03870766 10.1875 20.3125 C11.115625 20.539375 12.04375 20.76625 13 21 C13.22558594 21.5878125 13.45117188 22.175625 13.68359375 22.78125 C15.7897444 26.33108254 19.22736614 27.4669789 22.875 29.1875 C23.59558594 29.54263672 24.31617188 29.89777344 25.05859375 30.26367188 C28.98847947 32.1912987 28.98847947 32.1912987 33.14501953 33.51293945 C35.48036643 34.12612938 36.31480865 35.31480865 38 37 C39.93618425 37.67156616 39.93618425 37.67156616 42 38 C43.33333333 38.33333333 44.66666667 38.66666667 46 39 C45.67 40.32 45.34 41.64 45 43 C35.31181176 38.29129981 25.7614348 33.33105192 16.26037598 28.25686646 C15.01051907 27.58939269 13.76011755 26.92293765 12.50915527 26.25753784 C10.7204146 25.30528668 8.93409715 24.34863892 7.1484375 23.390625 C6.10864746 22.83407227 5.06885742 22.27751953 3.99755859 21.70410156 C0.88276306 19.93335121 -2.0435121 18.02103018 -5 16 C-3.72093023 3.72093023 -3.72093023 3.72093023 0 0 Z " fill="#DA4377" transform="translate(230,219)"/>
<path d="M0 0 C0.66 0.33 1.32 0.66 2 1 C2 5 2 9 2 13 C1.360625 13.103125 0.72125 13.20625 0.0625 13.3125 C-2.82963783 13.87951973 -2.82963783 13.87951973 -4.81079102 14.71240234 C-11.54351761 17.35271845 -17.83526095 17.41520555 -25 17.3125 C-26.68609375 17.31733398 -26.68609375 17.31733398 -28.40625 17.32226562 C-34.90900595 17.2804839 -40.71375999 16.67144729 -47 15 C-47 14.34 -47 13.68 -47 13 C-48.65 13 -50.3 13 -52 13 C-52 12.67 -52 12.34 -52 12 C-44.69999533 11.87413785 -44.69999533 11.87413785 -41.25585938 12.4934082 C-35.57310084 13.37761066 -29.86550794 13.22630337 -24.125 13.25 C-22.26294922 13.2809375 -22.26294922 13.2809375 -20.36328125 13.3125 C-13.51524396 13.34167162 -8.19304456 13.01283249 -2 10 C-0.41727399 8.41727399 -0.65264253 6.61965997 -0.4375 4.4375 C-0.35371094 3.61121094 -0.26992188 2.78492188 -0.18359375 1.93359375 C-0.09271484 0.97646484 -0.09271484 0.97646484 0 0 Z " fill="#C763B5" transform="translate(590,391)"/>
<path d="M0 0 C0 3 0 3 -1.4375 4.5 C-1.953125 4.995 -2.46875 5.49 -3 6 C-3.33 6.99 -3.66 7.98 -4 9 C-4.66 9 -5.32 9 -6 9 C-6.268125 10.134375 -6.53625 11.26875 -6.8125 12.4375 C-7.204375 13.613125 -7.59625 14.78875 -8 16 C-8.99 16.33 -9.98 16.66 -11 17 C-12.38442 18.96498322 -13.71203834 20.97048465 -15 23 C-16.051875 24.2375 -16.051875 24.2375 -17.125 25.5 C-19.19088216 28.25450955 -19.94003661 30.74944559 -21 34 C-21.515625 34.495 -22.03125 34.99 -22.5625 35.5 C-24.69311548 37.72325093 -24.6688423 40.01958067 -25 43 C-26.98 43.495 -26.98 43.495 -29 44 C-27.54174493 37.32709863 -24.37380403 32.0063455 -20.875 26.1875 C-20.00029053 24.71917725 -20.00029053 24.71917725 -19.10791016 23.22119141 C-15.16328767 16.69121989 -11.03864249 10.73362766 -6 5 C-5.49726563 4.28070313 -4.99453125 3.56140625 -4.4765625 2.8203125 C-3 1 -3 1 0 0 Z " fill="#E1467A" transform="translate(260,173)"/>
<path d="M0 0 C0.99 0 1.98 0 3 0 C3 0.99 3 1.98 3 3 C3.99 3.66 4.98 4.32 6 5 C7.16081213 7.44381502 8 9.28294264 8 12 C8.99 12.33 9.98 12.66 11 13 C11 13.66 11 14.32 11 15 C11.66 15 12.32 15 13 15 C13 15.66 13 16.32 13 17 C13.66 17 14.32 17 15 17 C15.31453125 17.67546875 15.6290625 18.3509375 15.953125 19.046875 C19.0219982 25.72471557 19.0219982 25.72471557 24 31 C24.99 31.33 25.98 31.66 27 32 C28.1875 34.5625 28.1875 34.5625 29 37 C26 37 26 37 23.6171875 34.83203125 C22.6920568 33.8356846 21.7787025 32.82832246 20.875 31.8125 C20.39071533 31.27512207 19.90643066 30.73774414 19.4074707 30.18408203 C0 8.19043305 0 8.19043305 0 0 Z " fill="#8D68C4" transform="translate(237,360)"/>
<path d="M0 0 C0.33 0.66 0.66 1.32 1 2 C1.66 2.33 2.32 2.66 3 3 C5.56995074 4.28497537 5.90434463 5.49912373 7.125 8.0625 C7.47820312 8.79597656 7.83140625 9.52945313 8.1953125 10.28515625 C8.46085938 10.85105469 8.72640625 11.41695312 9 12 C10.32 12 11.64 12 13 12 C13 13.32 13 14.64 13 16 C13.928125 16.0928125 13.928125 16.0928125 14.875 16.1875 C15.57625 16.455625 16.2775 16.72375 17 17 C17.71727778 18.64551962 18.38325228 20.31422289 19 22 C19.99 22.66 20.98 23.32 22 24 C22.45375 24.763125 22.9075 25.52625 23.375 26.3125 C26.53481341 31.53834525 31.317257 35.188465 36 39 C35.34 39.66 34.68 40.32 34 41 C8.31840414 15.79981833 8.31840414 15.79981833 -1 1 C-0.67 0.67 -0.34 0.34 0 0 Z " fill="#7D6FC7" transform="translate(159,216)"/>
<path d="M0 0 C2.31 0.66 4.62 1.32 7 2 C4 3 4 3 2.23046875 3.30859375 C-1.06498111 4.33012549 -3.79306956 6.23168557 -6.6875 8.0625 C-12.39602412 11.57576709 -18.20090344 14.73608315 -24.25 17.625 C-24.97662842 17.97957275 -25.70325684 18.33414551 -26.4519043 18.69946289 C-31.63447957 21.12184014 -31.63447957 21.12184014 -35 20 C-33.20963542 19.0234375 -31.41927083 18.046875 -29.62890625 17.0703125 C-27.83381685 16.08589976 -27.83381685 16.08589976 -27 14 C-23.9375 13.375 -23.9375 13.375 -21 13 C-20.67 12.01 -20.34 11.02 -20 10 C-18.948125 9.9175 -17.89625 9.835 -16.8125 9.75 C-12.66104962 8.93332124 -11.13436299 7.71080042 -8 5 C-5.6875 4.25 -5.6875 4.25 -4 4 C-4 3.34 -4 2.68 -4 2 C-2.68 2 -1.36 2 0 2 C0 1.34 0 0.68 0 0 Z " fill="#E555A7" transform="translate(476,414)"/>
<path d="M0 0 C4.45767302 0.56300476 7.9115756 1.71339807 11.9375 3.6875 C16.81863688 6.01371038 21.7176529 8.14845944 26.75 10.125 C32.23377744 12.28164407 37.63832841 14.55432524 43 17 C43 17.66 43 18.32 43 19 C41.68 19 40.36 19 39 19 C39 18.34 39 17.68 39 17 C38.0925 17.061875 37.185 17.12375 36.25 17.1875 C33 17 33 17 31.24609375 15.6484375 C28.29141905 13.4799632 25.28494324 12.58538538 21.8125 11.4375 C19.52257396 10.68048017 17.24546843 9.88017715 15 9 C14.67 8.34 14.34 7.68 14 7 C9.0821293 4.96501902 4.13269887 3.39010594 -1 2 C-0.67 1.34 -0.34 0.68 0 0 Z " fill="#DF51B4" transform="translate(461,388)"/>
<path d="M0 0 C0.639375 0.144375 1.27875 0.28875 1.9375 0.4375 C5.93844788 1.17236798 9.95504896 1.58581111 14 2 C14 2.66 14 3.32 14 4 C16.97 4.66 19.94 5.32 23 6 C23 6.66 23 7.32 23 8 C26.3 7.67 29.6 7.34 33 7 C33 7.66 33 8.32 33 9 C34.65 9 36.3 9 38 9 C38 9.99 38 10.98 38 12 C29.8755632 11.50151464 22.73551881 9.1886698 15.0625 6.5625 C13.83208984 6.15451172 12.60167969 5.74652344 11.33398438 5.32617188 C2.26737697 2.26737697 2.26737697 2.26737697 0 0 Z " fill="#E98776" transform="translate(450,339)"/>
<path d="M0 0 C3.60708223 1.58339056 6.35767939 3.79806616 9.375 6.3125 C10.33792969 7.11171875 11.30085937 7.9109375 12.29296875 8.734375 C13.18628906 9.48203125 14.07960938 10.2296875 15 11 C16.01513672 11.84304688 16.01513672 11.84304688 17.05078125 12.703125 C18.36995322 13.79876187 19.68554927 14.89870344 21 16 C20.01 16 19.02 16 18 16 C17.67 16.99 17.34 17.98 17 19 C16.34 19 15.68 19 15 19 C14.7525 18.195625 14.505 17.39125 14.25 16.5625 C13.8375 15.716875 13.425 14.87125 13 14 C12.11828125 13.85884766 12.11828125 13.85884766 11.21875 13.71484375 C7.77865101 12.606502 6.25701571 9.83727953 4.25 7 C3.83878906 6.44054687 3.42757812 5.88109375 3.00390625 5.3046875 C0 1.17306894 0 1.17306894 0 0 Z " fill="#E154AC" transform="translate(562,346)"/>
<path d="M0 0 C0.4125 0.45375 0.825 0.9075 1.25 1.375 C3.06408095 3.05950374 4.75285627 3.99265971 7 5 C6.34 5.66 5.68 6.32 5 7 C4.35232207 9.57061311 4.35232207 9.57061311 4 12 C1.69 11.67 -0.62 11.34 -3 11 C-3.309375 10.21625 -3.61875 9.4325 -3.9375 8.625 C-4.92875038 6.07669872 -4.92875038 6.07669872 -6 4 C-5.38125 3.896875 -4.7625 3.79375 -4.125 3.6875 C-1.63473516 3.12474627 -1.63473516 3.12474627 0 0 Z " fill="#FEEEE8" transform="translate(299,184)"/>
<path d="M0 0 C1.00186835 3.15696647 0.98848961 5.3910657 0.3125 8.625 C0.16425781 9.40101563 0.01601563 10.17703125 -0.13671875 10.9765625 C-1 13 -1 13 -2.75390625 14.265625 C-5.37689545 15.12322842 -7.49561718 15.19748376 -10.25 15.125 C-11.14203125 15.10695313 -12.0340625 15.08890625 -12.953125 15.0703125 C-13.96632813 15.03550781 -13.96632813 15.03550781 -15 15 C-15 14.34 -15 13.68 -15 13 C-15.92683594 12.95101563 -16.85367188 12.90203125 -17.80859375 12.8515625 C-19.00613281 12.77679688 -20.20367188 12.70203125 -21.4375 12.625 C-22.63246094 12.55539062 -23.82742188 12.48578125 -25.05859375 12.4140625 C-26.02925781 12.27742188 -26.99992187 12.14078125 -28 12 C-28.33 11.34 -28.66 10.68 -29 10 C-20.75 10.66 -12.5 11.32 -4 12 C-3.01 9.03 -2.02 6.06 -1 3 C-0.67 2.01 -0.34 1.02 0 0 Z " fill="#FDEEE0" transform="translate(533,345)"/>
<path d="M0 0 C3.68690301 1.96358655 7.34619583 3.97571678 11 6 C11.78729492 6.4340918 12.57458984 6.86818359 13.38574219 7.31542969 C15.99355023 8.76025621 18.59116361 10.22217374 21.1875 11.6875 C22.48071167 12.40063354 22.48071167 12.40063354 23.80004883 13.12817383 C24.6020874 13.58474365 25.40412598 14.04131348 26.23046875 14.51171875 C26.95645264 14.91865967 27.68243652 15.32560059 28.43041992 15.74487305 C28.94838135 16.15906494 29.46634277 16.57325684 30 17 C30 17.99 30 18.98 30 20 C29.27296875 19.56429688 28.5459375 19.12859375 27.796875 18.6796875 C21.48394321 14.94048944 15.13021317 11.49582455 8.49609375 8.359375 C6.17372886 7.0946129 4.81326513 5.87107938 3 4 C2.01 3.67 1.02 3.34 0 3 C0 2.01 0 1.02 0 0 Z " fill="#8F66BE" transform="translate(282,281)"/>
<path d="M0 0 C5.15689605 3.88501586 8.56611996 8.18497075 12.1875 13.5 C12.70763672 14.24636719 13.22777344 14.99273437 13.76367188 15.76171875 C19.42851948 23.9370416 19.42851948 23.9370416 21 27 C20.67 27.66 20.34 28.32 20 29 C19.01 28.67 18.02 28.34 17 28 C16.31060191 25.67328146 15.64533078 23.33932406 15 21 C13.62485459 19.2912354 13.62485459 19.2912354 12 18 C11 16.66666667 10 15.33333333 9 14 C8.443125 13.46375 7.88625 12.9275 7.3125 12.375 C6 11 6 11 6 9 C5.34 8.67 4.68 8.34 4 8 C4 7.01 4 6.02 4 5 C3.01 4.67 2.02 4.34 1 4 C0.3125 1.9375 0.3125 1.9375 0 0 Z " fill="#EAAA65" transform="translate(503,172)"/>
<path d="M0 0 C7.28198664 -0.12555149 7.28198664 -0.12555149 10.78125 0.48632812 C13.83056244 0.9729599 16.75273921 1.20037191 19.8359375 1.31640625 C20.89941406 1.35830078 21.96289062 1.40019531 23.05859375 1.44335938 C24.15300781 1.48267578 25.24742187 1.52199219 26.375 1.5625 C28.05142578 1.62727539 28.05142578 1.62727539 29.76171875 1.69335938 C32.50770199 1.79897411 35.25376881 1.9010797 38 2 C38 2.33 38 2.66 38 3 C32.72 3 27.44 3 22 3 C21.67 3.66 21.34 4.32 21 5 C15.36718401 5.2396943 10.45461169 4.38529821 5 3 C5 2.34 5 1.68 5 1 C3.35 1 1.7 1 0 1 C0 0.67 0 0.34 0 0 Z " fill="#CA6BB9" transform="translate(538,403)"/>
<path d="M0 0 C6.23133715 0.94280278 11.1677408 6.20706119 16 10 C16.5273877 10.40943848 17.05477539 10.81887695 17.59814453 11.24072266 C27.32635862 18.81589655 27.32635862 18.81589655 29 23 C28.01 22.67 27.02 22.34 26 22 C26 21.34 26 20.68 26 20 C25.1028125 19.566875 25.1028125 19.566875 24.1875 19.125 C22 18 22 18 19 16 C19 15.34 19 14.68 19 14 C16.09399739 12.74335022 14.20395416 12 11 12 C10.67 10.68 10.34 9.36 10 8 C9.34 8 8.68 8 8 8 C6.29006566 6.3777546 4.62652316 4.70586575 3 3 C2.401875 2.401875 1.80375 1.80375 1.1875 1.1875 C0.795625 0.795625 0.40375 0.40375 0 0 Z " fill="#ECA666" transform="translate(469,144)"/>
<path d="M0 0 C5.71393787 0.37405011 11.12148296 1.19676434 16.6875 2.5625 C21.30170339 3.68605307 25.27022158 4.32998454 30 4 C30 4.66 30 5.32 30 6 C31.65 6 33.3 6 35 6 C35 6.33 35 6.66 35 7 C22.84791537 7.84291917 11.4103734 4.97038071 0 1 C0 0.67 0 0.34 0 0 Z " fill="#A567BC" transform="translate(329,438)"/>
<path d="M0 0 C5.84370508 -0.15255984 11.19956219 0.36194932 16.9375 1.4375 C18.08702148 1.63956055 18.08702148 1.63956055 19.25976562 1.84570312 C24.86314597 2.86314597 24.86314597 2.86314597 26 4 C27.51469448 4.23192865 29.03754562 4.41215238 30.5625 4.5625 C31.38878906 4.64628906 32.21507812 4.73007812 33.06640625 4.81640625 C33.70449219 4.87699219 34.34257813 4.93757813 35 5 C35 5.33 35 5.66 35 6 C27.6307274 6.27207762 20.79435695 5.50576077 13.5625 4.125 C12.58345703 3.95097656 11.60441406 3.77695312 10.59570312 3.59765625 C3.39107143 2.26071429 3.39107143 2.26071429 0 0 Z " fill="#E661AC" transform="translate(505,423)"/>
<path d="M0 0 C0.99 0 1.98 0 3 0 C3 0.66 3 1.32 3 2 C3.928125 2.2784375 3.928125 2.2784375 4.875 2.5625 C8.05602866 4.71437233 8.19451947 7.37533763 9 11 C9.66 11 10.32 11 11 11 C10.25 15.75 10.25 15.75 8 18 C7.67386719 17.26394531 7.34773437 16.52789062 7.01171875 15.76953125 C6.57472656 14.79371094 6.13773438 13.81789063 5.6875 12.8125 C5.25824219 11.84957031 4.82898438 10.88664062 4.38671875 9.89453125 C3.04739439 6.97491603 3.04739439 6.97491603 1.33203125 4.26171875 C0 2 0 2 0 0 Z M4 4 C4.66 5.32 5.32 6.64 6 8 C5.67 6.68 5.34 5.36 5 4 C4.67 4 4.34 4 4 4 Z M7 10 C8 13 8 13 8 13 Z " fill="#D456B8" transform="translate(583,372)"/>
<path d="M0 0 C1.9962709 3.48913436 2.79109218 6.95816025 3.625 10.875 C3.88539063 12.06867188 4.14578125 13.26234375 4.4140625 14.4921875 C4.95735001 17.74466875 5.11061526 20.71170995 5 24 C4.34 23.67 3.68 23.34 3 23 C2.40234375 20.890625 2.40234375 20.890625 1.9375 18.25 C1.78152344 17.38890625 1.62554688 16.5278125 1.46484375 15.640625 C1.31144531 14.76921875 1.15804687 13.8978125 1 13 C0.67065379 11.33254087 0.33851662 9.66562162 0 8 C-0.66 8 -1.32 8 -2 8 C-1.33333333 5.33333333 -0.66666667 2.66666667 0 0 Z " fill="#EEA767" transform="translate(540,240)"/>
<path d="M0 0 C5.67974558 0.51634051 9.89576858 2.75907598 14.8125 5.4375 C15.58787109 5.84548828 16.36324219 6.25347656 17.16210938 6.67382812 C22.86659444 9.73318888 22.86659444 9.73318888 24 12 C19.70788464 11.52309829 17.97916068 10.97916068 15 8 C12.96922316 7.01371583 12.96922316 7.01371583 10.8125 6.3125 C10.09707031 6.06113281 9.38164062 5.80976563 8.64453125 5.55078125 C7.83048828 5.27814453 7.83048828 5.27814453 7 5 C7 4.34 7 3.68 7 3 C6.01 3.33 5.02 3.66 4 4 C1.8125 3.0625 1.8125 3.0625 0 2 C0 1.34 0 0.68 0 0 Z " fill="#E8A569" transform="translate(444,131)"/>
<path d="M0 0 C5.6925109 0.37950073 8.1434604 0.59252617 12 5 C13.97080157 5.74276031 13.97080157 5.74276031 16 6 C17.33333333 6.33333333 18.66666667 6.66666667 20 7 C19.67 8.32 19.34 9.64 19 11 C16.39202649 9.73652837 13.78876593 8.46464776 11.1875 7.1875 C10.44951172 6.83107422 9.71152344 6.47464844 8.95117188 6.10742188 C7.88286133 5.58051758 7.88286133 5.58051758 6.79296875 5.04296875 C6.1383667 4.72352295 5.48376465 4.40407715 4.80932617 4.07495117 C2.88382936 2.93098106 1.51164489 1.64255865 0 0 Z " fill="#E04D7B" transform="translate(256,251)"/>
<path d="M0 0 C-0.33 0.99 -0.66 1.98 -1 3 C-0.22914063 3.03738281 0.54171875 3.07476562 1.3359375 3.11328125 C2.33882813 3.17902344 3.34171875 3.24476563 4.375 3.3125 C5.87160156 3.39951172 5.87160156 3.39951172 7.3984375 3.48828125 C8.68621094 3.74158203 8.68621094 3.74158203 10 4 C10.99 5.485 10.99 5.485 12 7 C4.2501365 6.47458553 -2.6450086 4.44408524 -10 2 C-6.3558226 -0.4294516 -4.28758728 -0.16179575 0 0 Z " fill="#E753A3" transform="translate(493,416)"/>
<path d="M0 0 C0.90105469 0.01804687 1.80210937 0.03609375 2.73046875 0.0546875 C3.41753906 0.07789063 4.10460937 0.10109375 4.8125 0.125 C5.1425 0.785 5.4725 1.445 5.8125 2.125 C8.16849235 2.59251788 8.16849235 2.59251788 10.875 2.75 C12.25365234 2.86214844 12.25365234 2.86214844 13.66015625 2.9765625 C14.37042969 3.02554687 15.08070313 3.07453125 15.8125 3.125 C15.8125 3.785 15.8125 4.445 15.8125 5.125 C7.65765697 4.67848122 -0.23014468 4.01349677 -8.1875 2.125 C-4.87379 -0.08414 -3.8428979 -0.09981553 0 0 Z " fill="#E98C71" transform="translate(504.1875,351.875)"/>
<path d="M0 0 C4.67906334 0.44990994 7.39965218 0.99971015 11 4 C12.65816784 4.68753301 14.32459336 5.35561283 16 6 C16.99 6.66 17.98 7.32 19 8 C19 8.66 19 9.32 19 10 C14.37324343 8.6077541 10.35313769 6.70479016 6.125 4.375 C4.97257812 3.74335938 3.82015625 3.11171875 2.6328125 2.4609375 C1.32957031 1.73777344 1.32957031 1.73777344 0 1 C0 0.67 0 0.34 0 0 Z " fill="#E1577E" transform="translate(279,263)"/>
<path d="M0 0 C0.66 0 1.32 0 2 0 C2 0.99 2 1.98 2 3 C2.99 3 3.98 3 5 3 C4.67 4.98 4.34 6.96 4 9 C1.125 8.8125 1.125 8.8125 -2 8 C-3.375 5.4375 -3.375 5.4375 -4 3 C-3.01 2.67 -2.02 2.34 -1 2 C-0.67 1.34 -0.34 0.68 0 0 Z " fill="#FDE1E3" transform="translate(376,253)"/>
<path d="M0 0 C1.32 0 2.64 0 4 0 C5.33333333 1.33333333 6.66666667 2.66666667 8 4 C9.99437087 5.12461481 12.0215839 6.10599483 14.09765625 7.0703125 C16 8 16 8 19 10 C18.67 10.66 18.34 11.32 18 12 C14.12750294 10.58220053 10.79251936 8.77015212 7.3125 6.5625 C5.88357422 5.66724609 5.88357422 5.66724609 4.42578125 4.75390625 C2 3 2 3 0 0 Z " fill="#9868BA" transform="translate(281,412)"/>
<path d="M0 0 C5.517155 0.6338479 10.26747809 2.50564309 15.375 4.5625 C16.20644531 4.89185547 17.03789063 5.22121094 17.89453125 5.56054688 C19.93184618 6.36844762 21.96684442 7.1817011 24 8 C17.22445444 10.25851519 8.42485407 5.5456969 2 3 C2 2.34 2 1.68 2 1 C1.34 0.67 0.68 0.34 0 0 Z " fill="#C25DAC" transform="translate(496,389)"/>
<path d="M0 0 C0.99 0.33 1.98 0.66 3 1 C3 1.66 3 2.32 3 3 C3.99 3.33 4.98 3.66 6 4 C5.34 5.65 4.68 7.3 4 9 C2.35 9 0.7 9 -1 9 C-1.66 7.02 -2.32 5.04 -3 3 C-2.01 3 -1.02 3 0 3 C0 2.01 0 1.02 0 0 Z " fill="#FEE1E7" transform="translate(305,247)"/>
<path d="M0 0 C2.4375 0.8125 2.4375 0.8125 5 2 C5.33 2.99 5.66 3.98 6 5 C6.99 5 7.98 5 9 5 C9.268125 5.61875 9.53625 6.2375 9.8125 6.875 C10.95556848 9.2995233 10.95556848 9.2995233 14 11 C14 11.66 14 12.32 14 13 C10.33620697 11.42491141 7.70148695 9.15806427 4.75 6.5 C3.85796875 5.7059375 2.9659375 4.911875 2.046875 4.09375 C0 2 0 2 0 0 Z " fill="#9769C0" transform="translate(267,399)"/>
<path d="M0 0 C-2.84274704 3.00067743 -5.22459869 5.30757873 -9 7 C-9.66 7.66 -10.32 8.32 -11 9 C-11.66 8.67 -12.32 8.34 -13 8 C-11.16176868 3.55760765 -8.64972723 1.78558439 -4.375 -0.25 C-2 -1 -2 -1 0 0 Z " fill="#E8636C" transform="translate(293,147)"/>
<path d="M0 0 C0.639375 0.144375 1.27875 0.28875 1.9375 0.4375 C5.93844788 1.17236798 9.95504896 1.58581111 14 2 C14 2.66 14 3.32 14 4 C16.97 4.66 19.94 5.32 23 6 C23 6.33 23 6.66 23 7 C15.50993345 6.50066223 5.51960605 5.51960605 0 0 Z " fill="#E27C69" transform="translate(450,339)"/>
<path d="M0 0 C3.5513315 -0.40586646 4.71446029 -0.21755407 7.625 2 C8.40875 2.66 9.1925 3.32 10 4 C10.99 4 11.98 4 13 4 C13.33 4.66 13.66 5.32 14 6 C16.02463255 6.65213292 16.02463255 6.65213292 18 7 C18 7.66 18 8.32 18 9 C13.8238413 8.3735762 10.51247515 6.95763834 6.75 5.0625 C5.69296875 4.53785156 4.6359375 4.01320313 3.546875 3.47265625 C1 2 1 2 0 0 Z " fill="#9C65BB" transform="translate(299,424)"/>
<path d="M0 0 C1.65 1.32 3.3 2.64 5 4 C4.34 5.32 3.68 6.64 3 8 C1.35 8 -0.3 8 -2 8 C-2.66 6.35 -3.32 4.7 -4 3 C-3.01 3 -2.02 3 -1 3 C-0.67 2.01 -0.34 1.02 0 0 Z " fill="#FAEEFE" transform="translate(299,377)"/>
<path d="M0 0 C2.64 0 5.28 0 8 0 C8.33 0.99 8.66 1.98 9 3 C10.8418639 3.64864252 10.8418639 3.64864252 13 4 C14.42366111 4.50139889 15.84062729 5.02224046 17.25 5.5625 C17.95640625 5.83191406 18.6628125 6.10132813 19.390625 6.37890625 C19.92171875 6.58386719 20.4528125 6.78882813 21 7 C21 7.66 21 8.32 21 9 C13.81783567 6.72564796 6.9241798 3.96415819 0 1 C0 0.67 0 0.34 0 0 Z " fill="#E17179" transform="translate(371,308)"/>
<path d="M0 0 C0.99 0 1.98 0 3 0 C2.690625 0.5775 2.38125 1.155 2.0625 1.75 C0.80714968 4.21905868 0.80714968 4.21905868 0 8 C-4.455 8.495 -4.455 8.495 -9 9 C-9.33 8.34 -9.66 7.68 -10 7 C-7.625 5.9375 -7.625 5.9375 -5 5 C-4.34 5.33 -3.68 5.66 -3 6 C-2.690625 5.195625 -2.38125 4.39125 -2.0625 3.5625 C-1 1 -1 1 0 0 Z " fill="#E56D72" transform="translate(305,189)"/>
<path d="M0 0 C0.99 0 1.98 0 3 0 C2 2 2 2 0.4375 3.4375 C-1.33852827 5.01410534 -1.33852827 5.01410534 -1 8 C1.475 8.99 1.475 8.99 4 10 C0.94736336 10.98120464 -0.94736336 10.98120464 -4 10 C-3.67 7.69 -3.34 5.38 -3 3 C-2.01 2.67 -1.02 2.34 0 2 C0 1.34 0 0.68 0 0 Z " fill="#BF5AB5" transform="translate(356,357)"/>
<path d="M0 0 C0.99 0 1.98 0 3 0 C3.66 1.98 4.32 3.96 5 6 C3.68 6 2.36 6 1 6 C1.33 7.65 1.66 9.3 2 11 C1.34 11 0.68 11 0 11 C-0.19491452 9.54263913 -0.38069358 8.08405407 -0.5625 6.625 C-0.66691406 5.81289063 -0.77132812 5.00078125 -0.87890625 4.1640625 C-1 2 -1 2 0 0 Z " fill="#F34AAF" transform="translate(594,378)"/>
<path d="M0 0 C2.31 0 4.62 0 7 0 C4.74109621 2.51954654 2.582103 3.87332733 -0.5 5.25 C-1.2734375 5.60578125 -2.046875 5.9615625 -2.84375 6.328125 C-5 7 -5 7 -8 6 C-6.20963542 5.0234375 -4.41927083 4.046875 -2.62890625 3.0703125 C-0.83381685 2.08589976 -0.83381685 2.08589976 0 0 Z " fill="#E04FA1" transform="translate(449,428)"/>
<path d="M0 0 C1.62490954 -0.02698189 3.24994633 -0.04638757 4.875 -0.0625 C5.77992188 -0.07410156 6.68484375 -0.08570313 7.6171875 -0.09765625 C10 0 10 0 12 1 C14.0374763 1.22858114 16.08040303 1.41024278 18.125 1.5625 C19.76855469 1.68818359 19.76855469 1.68818359 21.4453125 1.81640625 C22.28835938 1.87699219 23.13140625 1.93757813 24 2 C24 2.33 24 2.66 24 3 C7.29157175 3.18451025 7.29157175 3.18451025 -1 2 C-0.67 1.34 -0.34 0.68 0 0 Z " fill="#E44B9F" transform="translate(532,426)"/>
<path d="M0 0 C-3.65233105 2.43488737 -5.95055805 3.15209204 -10.23046875 2.87890625 C-11.03291016 2.83056641 -11.83535156 2.78222656 -12.66210938 2.73242188 C-13.91217773 2.64831055 -13.91217773 2.64831055 -15.1875 2.5625 C-16.4549707 2.48418945 -16.4549707 2.48418945 -17.74804688 2.40429688 C-19.83236299 2.27476311 -21.91623182 2.13806823 -24 2 C-24 1.67 -24 1.34 -24 1 C-21.50018262 0.8301095 -19.00020399 0.66402047 -16.5 0.5 C-15.80390625 0.45230469 -15.1078125 0.40460938 -14.390625 0.35546875 C-9.58304475 0.04386633 -4.81771254 -0.04340282 0 0 Z " fill="#BE55AC" transform="translate(584,405)"/>
<path d="M0 0 C0.66 0.33 1.32 0.66 2 1 C2 1.66 2 2.32 2 3 C2.66 3.33 3.32 3.66 4 4 C3.67 4.99 3.34 5.98 3 7 C1.35 7 -0.3 7 -2 7 C-2.6875 5.1875 -2.6875 5.1875 -3 3 C-1.5625 1.25 -1.5625 1.25 0 0 Z " fill="#F9D2F8" transform="translate(357,358)"/>
<path d="M0 0 C3.94139078 1.66751148 6.7892812 4.22710649 10 7 C9.34 8.32 8.68 9.64 8 11 C6.66375099 9.35653302 5.33107149 7.71016314 4 6.0625 C3.2575 5.14597656 2.515 4.22945313 1.75 3.28515625 C0 1 0 1 0 0 Z " fill="#CA6EAE" transform="translate(562,346)"/>
<path d="M0 0 C0.33 0 0.66 0 1 0 C1 1.65 1 3.3 1 5 C1.66 5 2.32 5 3 5 C4.3271261 8.9813783 4.06915913 12.85045227 4 17 C2.17568628 13.70986216 1.22218077 10.45566056 0.3125 6.8125 C0.04050781 5.74644531 -0.23148438 4.68039063 -0.51171875 3.58203125 C-0.67285156 2.72996094 -0.83398438 1.87789062 -1 1 C-0.67 0.67 -0.34 0.34 0 0 Z " fill="#FDE9D0" transform="translate(538,227)"/>
<path d="M0 0 C1.51109262 1.51109262 3.01999072 3.02082366 4.5 4.5625 C6.14575015 6.22370953 6.14575015 6.22370953 9 8 C7.02 8.33 5.04 8.66 3 9 C0.70620251 5.55930376 0 4.27709699 0 0 Z " fill="#DE51B7" transform="translate(434,426)"/>
<path d="M0 0 C2.81340953 2.81340953 2.54321889 5.01681831 2.875 8.9375 C2.99617187 10.18402344 3.11734375 11.43054688 3.2421875 12.71484375 C3 16 3 16 1.0078125 17.94140625 C0.34523438 18.29074219 -0.31734375 18.64007813 -1 19 C-0.83628906 18.15179688 -0.67257812 17.30359375 -0.50390625 16.4296875 C0.00948445 12.9354469 0.09850739 9.65372426 0.0625 6.125 C0.05347656 4.97257812 0.04445313 3.82015625 0.03515625 2.6328125 C0.02355469 1.76398438 0.01195312 0.89515625 0 0 Z " fill="#FEE8FC" transform="translate(605,391)"/>
<path d="M0 0 C0.99 0 1.98 0 3 0 C4.6875 2.5 4.6875 2.5 6 5 C5.01 5.66 4.02 6.32 3 7 C2.01 6.34 1.02 5.68 0 5 C-0.1875 2.375 -0.1875 2.375 0 0 Z " fill="#F64BAA" transform="translate(586,369)"/>
<path d="M0 0 C0.33 0.99 0.66 1.98 1 3 C-1.31 4.98 -3.62 6.96 -6 9 C-6.66 8.34 -7.32 7.68 -8 7 C-6.68 6.34 -5.36 5.68 -4 5 C-4 4.34 -4 3.68 -4 3 C-2 1.375 -2 1.375 0 0 Z " fill="#E36779" transform="translate(279,153)"/>
<path d="M0 0 C4.3890815 0.51035831 7.33708062 1.52214277 11 4 C9.68 4.33 8.36 4.66 7 5 C7 4.34 7 3.68 7 3 C6.01 3.33 5.02 3.66 4 4 C1.8125 3.0625 1.8125 3.0625 0 2 C0 1.34 0 0.68 0 0 Z " fill="#EF9E65" transform="translate(444,131)"/>
<path d="M0 0 C0.33 0.66 0.66 1.32 1 2 C0.34 2 -0.32 2 -1 2 C-1.33 2.66 -1.66 3.32 -2 4 C-2 3.34 -2 2.68 -2 2 C-2.78375 2.185625 -3.5675 2.37125 -4.375 2.5625 C-7 3 -7 3 -9 2 C-9 1.34 -9 0.68 -9 0 C-5.49270578 -1.16909807 -3.55692677 -0.85056945 0 0 Z " fill="#E4696A" transform="translate(322,132)"/>
<path d="M0 0 C4.23429756 1.31061591 8.07407404 2.94356259 12 5 C11.67 5.66 11.34 6.32 11 7 C9.68 7 8.36 7 7 7 C6.34 6.01 5.68 5.02 5 4 C3.34738161 2.97695052 1.68208635 1.97383946 0 1 C0 0.67 0 0.34 0 0 Z " fill="#9867B9" transform="translate(315,301)"/>
<path d="M0 0 C0.94875 0.04125 1.8975 0.0825 2.875 0.125 C2.875 0.785 2.875 1.445 2.875 2.125 C3.865 3.115 4.855 4.105 5.875 5.125 C2.245 4.135 -1.385 3.145 -5.125 2.125 C-3.125 0.125 -3.125 0.125 0 0 Z " fill="#FCEEDF" transform="translate(436.125,123.875)"/>
<path d="M0 0 C2.375 0.6875 2.375 0.6875 5 2 C6.3125 4.625 6.3125 4.625 7 7 C4 7 4 7 2.61328125 5.6875 C1.40885417 4.125 0.20442708 2.5625 -1 1 C-0.67 0.67 -0.34 0.34 0 0 Z " fill="#976CC3" transform="translate(259,390)"/>
<path d="M0 0 C0.33 0.99 0.66 1.98 1 3 C1.99 3 2.98 3 4 3 C4 5.97 4 8.94 4 12 C1.49484216 9.49484216 0.94900914 7.38931835 0 4 C0 2.68 0 1.36 0 0 Z " fill="#6A66CF" transform="translate(148,193)"/>
<path d="M0 0 C4.95 0 9.9 0 15 0 C15 0.66 15 1.32 15 2 C13.34385343 2.38218767 11.67542976 2.71395102 10 3 C9.67 2.67 9.34 2.34 9 2 C7.48530552 1.76807135 5.96245438 1.58784762 4.4375 1.4375 C3.61121094 1.35371094 2.78492188 1.26992188 1.93359375 1.18359375 C1.29550781 1.12300781 0.65742187 1.06242187 0 1 C0 0.67 0 0.34 0 0 Z " fill="#E94EAF" transform="translate(529,414)"/>
<path d="M0 0 C4.60853797 0.72008406 8.67237409 2.31295939 13 4 C9.44757118 5.18414294 8.30169438 4.69535532 4.8125 3.5625 C3.91144531 3.27503906 3.01039063 2.98757813 2.08203125 2.69140625 C1.39496094 2.46324219 0.70789063 2.23507812 0 2 C0 1.34 0 0.68 0 0 Z " fill="#FDE3DE" transform="translate(441,337)"/>
<path d="M0 0 C0.99 0.33 1.98 0.66 3 1 C3 1.66 3 2.32 3 3 C4.32 3 5.64 3 7 3 C7 3.66 7 4.32 7 5 C7.66 5 8.32 5 9 5 C8.67 5.66 8.34 6.32 8 7 C5.03 5.35 2.06 3.7 -1 2 C-0.67 1.34 -0.34 0.68 0 0 Z " fill="#DE5E7A" transform="translate(308,276)"/>
<path d="M0 0 C1.48285242 0.95262034 2.96118201 1.91228405 4.4375 2.875 C5.67306641 3.67550781 5.67306641 3.67550781 6.93359375 4.4921875 C9 6 9 6 10 8 C8.32700041 7.34938905 6.66140763 6.67966676 5 6 C4.2575 5.71125 3.515 5.4225 2.75 5.125 C1 4 1 4 0.390625 1.9296875 C0.26171875 1.29289063 0.1328125 0.65609375 0 0 Z " fill="#7F6DBA" transform="translate(232,249)"/>
<path d="M0 0 C0.66 0 1.32 0 2 0 C2 0.66 2 1.32 2 2 C2.66 2.33 3.32 2.66 4 3 C3.01 4.485 3.01 4.485 2 6 C1.01 6 0.02 6 -1 6 C-1.33 4.68 -1.66 3.36 -2 2 C-1.34 2 -0.68 2 0 2 C0 1.34 0 0.68 0 0 Z " fill="#F9D9FD" transform="translate(389,413)"/>
<path d="M0 0 C1.60517097 0.08733576 3.20921662 0.19552224 4.8125 0.3125 C6.15248047 0.39951172 6.15248047 0.39951172 7.51953125 0.48828125 C10.30604 1.06313581 11.24135754 1.8206856 13 4 C8.51474352 3.343621 4.33085971 2.29925791 0 1 C0 0.67 0 0.34 0 0 Z " fill="#FBD8F7" transform="translate(515,395)"/>
<path d="M0 0 C2.475 0.495 2.475 0.495 5 1 C5.33 2.65 5.66 4.3 6 6 C4.35 5.67 2.7 5.34 1 5 C0.67 3.35 0.34 1.7 0 0 Z " fill="#E65ABB" transform="translate(570,354)"/>
<path d="M0 0 C0.66 0.99 1.32 1.98 2 3 C1.38125 3.598125 0.7625 4.19625 0.125 4.8125 C-2.13676954 7.00811144 -2.13676954 7.00811144 -4 10 C-3.5205537 5.78087253 -2.83374881 3.20336822 0 0 Z " fill="#DD3C74" transform="translate(243,194)"/>
<path d="M0 0 C1 3 1 3 -0.125 5.6875 C-2 8 -2 8 -4.6875 8.3125 C-5.450625 8.209375 -6.21375 8.10625 -7 8 C-6.01 7.34 -5.02 6.68 -4 6 C-3.67 5.01 -3.34 4.02 -3 3 C-1.4375 1.3125 -1.4375 1.3125 0 0 Z " fill="#E5656D" transform="translate(299,180)"/>
<path d="M0 0 C0.66 0.33 1.32 0.66 2 1 C0.92892883 1.86949317 -0.15745944 2.72014205 -1.25 3.5625 C-1.85328125 4.03816406 -2.4565625 4.51382813 -3.078125 5.00390625 C-5 6 -5 6 -7.234375 5.65234375 C-7.81703125 5.43707031 -8.3996875 5.22179687 -9 5 C-7.54735962 4.1361871 -6.0876837 3.28419546 -4.625 2.4375 C-3.40683594 1.72400391 -3.40683594 1.72400391 -2.1640625 0.99609375 C-1.44992187 0.66738281 -0.73578125 0.33867187 0 0 Z " fill="#E5757B" transform="translate(311,133)"/>
<path d="M0 0 C-1.26839526 0.50615298 -2.53983102 1.00469099 -3.8125 1.5 C-4.87404297 1.91765625 -4.87404297 1.91765625 -5.95703125 2.34375 C-8 3 -8 3 -11 3 C-11 2.34 -11 1.68 -11 1 C-4.03571429 -1.27678571 -4.03571429 -1.27678571 0 0 Z " fill="#B660B1" transform="translate(442,436)"/>
<path d="M0 0 C0 0.99 0 1.98 0 3 C1.65 3.33 3.3 3.66 5 4 C2.21176345 5.0326802 1.1322726 5.04509293 -1.75 4.0625 C-2.4925 3.711875 -3.235 3.36125 -4 3 C-4 2.34 -4 1.68 -4 1 C-2 0 -2 0 0 0 Z " fill="#A069B7" transform="translate(322,432)"/>
<path d="M0 0 C2.4375 0.75 2.4375 0.75 5 2 C5.8125 4.125 5.8125 4.125 6 6 C3.5625 5.25 3.5625 5.25 1 4 C0.1875 1.875 0.1875 1.875 0 0 Z " fill="#F44CB1" transform="translate(578,361)"/>
<path d="M0 0 C0.33 0 0.66 0 1 0 C1.41879658 1.4100489 1.80921039 2.82854812 2.1875 4.25 C2.51814453 5.43335938 2.51814453 5.43335938 2.85546875 6.640625 C3 9 3 9 0 13 C0 8.71 0 4.42 0 0 Z " fill="#7B62BE" transform="translate(218,288)"/>
<path d="M0 0 C1.17539996 0.92652701 2.34010577 1.86663387 3.5 2.8125 C4.1496875 3.33457031 4.799375 3.85664063 5.46875 4.39453125 C7 6 7 6 7 9 C5.82460004 8.07347299 4.65989423 7.13336613 3.5 6.1875 C2.52546875 5.40439453 2.52546875 5.40439453 1.53125 4.60546875 C0 3 0 3 0 0 Z " fill="#8975C7" transform="translate(187,248)"/>
<path d="M0 0 C4.43458973 1.3937282 6.87378374 3.60582235 10 7 C6.4124787 5.66749209 3.1635377 4.169283 0 2 C0 1.34 0 0.68 0 0 Z " fill="#7969BF" transform="translate(212,236)"/>
<path d="M0 0 C3.16115776 1.36983503 3.9927092 1.9890638 6 5 C4.35 5.33 2.7 5.66 1 6 C0.67 4.02 0.34 2.04 0 0 Z " fill="#7166C8" transform="translate(175,206)"/>
<path d="M0 0 C1 3 1 3 0.0625 5.1875 C-0.4634375 6.0846875 -0.4634375 6.0846875 -1 7 C-1.99 7 -2.98 7 -4 7 C-2.68 4.69 -1.36 2.38 0 0 Z " fill="#DF4F80" transform="translate(247,187)"/>
<path d="M0 0 C0.66 0.66 1.32 1.32 2 2 C-0.97 3.32 -3.94 4.64 -7 6 C-7 5.34 -7 4.68 -7 4 C-6.34 4 -5.68 4 -5 4 C-4.67 3.01 -4.34 2.02 -4 1 C-2.0625 0.1875 -2.0625 0.1875 0 0 Z " fill="#FEEBED" transform="translate(309,132)"/>
<path d="M0 0 C1.32 0 2.64 0 4 0 C3.6875 1.9375 3.6875 1.9375 3 4 C2.01 4.33 1.02 4.66 0 5 C-0.33 4.34 -0.66 3.68 -1 3 C-0.67 2.01 -0.34 1.02 0 0 Z " fill="#EB4CA9" transform="translate(456,424)"/>
<path d="M0 0 C1.32 0 2.64 0 4 0 C4 0.66 4 1.32 4 2 C4.99 2.33 5.98 2.66 7 3 C4 4 4 4 0 4 C0 2.68 0 1.36 0 0 Z " fill="#F1506D" transform="translate(296,209)"/>
<path d="M0 0 C2.31 0 4.62 0 7 0 C7.33 0.99 7.66 1.98 8 3 C5.6568787 2.74438677 3.32156597 2.40729228 1 2 C0.67 1.34 0.34 0.68 0 0 Z " fill="#FB995A" transform="translate(448,172)"/>
</svg>
