<?xml version="1.0" encoding="UTF-8"?>
<svg version="1.1" xmlns="http://www.w3.org/2000/svg" width="740" height="740">
<path d="M0 0 C244.2 0 488.4 0 740 0 C740 244.2 740 488.4 740 740 C495.8 740 251.6 740 0 740 C0 495.8 0 251.6 0 0 Z " fill="#FEFEFE" transform="translate(0,0)"/>
<path d="M0 0 C0.33 0 0.66 0 1 0 C2.32915021 7.97490128 2.08801359 15.94186719 2 24 C2.66 24 3.32 24 4 24 C4.02505615 24.89831543 4.0501123 25.79663086 4.07592773 26.72216797 C4.17098693 30.05074869 4.27022421 33.37914994 4.37231445 36.70751953 C4.41566231 38.1488762 4.45733752 39.59028418 4.49731445 41.03173828 C4.55502088 43.10204541 4.61871371 45.17209432 4.68359375 47.2421875 C4.72025146 48.4885498 4.75690918 49.73491211 4.79467773 51.01904297 C4.80289479 53.92636942 4.80289479 53.92636942 6 56 C6.07181821 58.71760108 6.09299506 61.40859388 6.0625 64.125 C6.05798828 64.87910156 6.05347656 65.63320312 6.04882812 66.41015625 C6.03703499 68.27347127 6.01909942 70.13674555 6 72 C6.66 72 7.32 72 8 72 C8.06058594 73.27617187 8.12117187 74.55234375 8.18359375 75.8671875 C8.26799568 77.53647016 8.35264386 79.20574037 8.4375 80.875 C8.47681641 81.71675781 8.51613281 82.55851562 8.55664062 83.42578125 C8.61948242 84.63427734 8.61948242 84.63427734 8.68359375 85.8671875 C8.72025146 86.61081543 8.75690918 87.35444336 8.79467773 88.12060547 C8.89955865 90.08864312 8.89955865 90.08864312 10 92 C10.08372659 93.52148326 10.10730027 95.04655778 10.09765625 96.5703125 C10.09443359 97.46621094 10.09121094 98.36210937 10.08789062 99.28515625 C10.07951172 100.22230469 10.07113281 101.15945312 10.0625 102.125 C10.05798828 103.06988281 10.05347656 104.01476562 10.04882812 104.98828125 C10.03702357 107.32558387 10.02055759 109.66276061 10 112 C10.66 112 11.32 112 12 112 C12.12117187 112.89460938 12.24234375 113.78921875 12.3671875 114.7109375 C13.5172251 123.01414915 13.5172251 123.01414915 15.0625 131.25 C15.95814151 135.47630839 16.42013163 139.66373862 16.75390625 143.96875 C16.89231607 146.06495754 16.89231607 146.06495754 18 148 C18.31120284 150.55877893 18.50964666 153.11851612 18.71875 155.6875 C18.87136047 158.02268455 18.87136047 158.02268455 20 160 C20.13415472 162.6723621 20.04318541 165.32250488 20 168 C20.66 168 21.32 168 22 168 C22.24234375 169.01578125 22.4846875 170.0315625 22.734375 171.078125 C24.58333945 178.70835857 26.58174393 186.15587943 29.265625 193.546875 C30 196 30 196 30 200 C30.66 200 31.32 200 32 200 C32.26554688 200.67546875 32.53109375 201.3509375 32.8046875 202.046875 C33.33449219 203.38492188 33.33449219 203.38492188 33.875 204.75 C34.39707031 206.07257813 34.39707031 206.07257813 34.9296875 207.421875 C35.92857332 209.95582782 35.92857332 209.95582782 37.1328125 212.078125 C38 214 38 214 38 218 C38.66 218 39.32 218 40 218 C40 219.32 40 220.64 40 222 C40.66 222 41.32 222 42 222 C42 222.66 42 223.32 42 224 C42.66 224 43.32 224 44 224 C44 225.32 44 226.64 44 228 C44.66 228 45.32 228 46 228 C46 228.66 46 229.32 46 230 C46.66 230 47.32 230 48 230 C48 231.32 48 232.64 48 234 C48.66 234 49.32 234 50 234 C50 234.66 50 235.32 50 236 C50.66 236 51.32 236 52 236 C52 236.66 52 237.32 52 238 C52.66 238 53.32 238 54 238 C54 238.66 54 239.32 54 240 C54.66 240 55.32 240 56 240 C56 240.66 56 241.32 56 242 C56.66 242 57.32 242 58 242 C58 242.66 58 243.32 58 244 C58.66 244 59.32 244 60 244 C60 244.66 60 245.32 60 246 C60.66 246 61.32 246 62 246 C62 246.66 62 247.32 62 248 C62.66 248 63.32 248 64 248 C64 248.66 64 249.32 64 250 C64.66 250 65.32 250 66 250 C66 250.66 66 251.32 66 252 C67.98 252.66 69.96 253.32 72 254 C72 254.66 72 255.32 72 256 C72.66 256 73.32 256 74 256 C74 256.66 74 257.32 74 258 C74.53625 258.103125 75.0725 258.20625 75.625 258.3125 C78.62502044 259.18092697 81.2379535 260.55620296 84 262 C84 262.66 84 263.32 84 264 C84.87398438 264.10699219 85.74796875 264.21398437 86.6484375 264.32421875 C90.11774283 265.02374069 92.52824503 266.12762643 95.625 267.8125 C100.7698717 270.48757668 105.86806362 272.44343885 111.40625 274.140625 C114 275 114 275 115.8515625 275.984375 C119.05155065 277.49709667 122.4451061 278.19444694 125.875 279 C129.71940297 279.91295655 133.49076744 280.82656572 137.234375 282.1015625 C139.76094554 282.92234107 141.74382446 283.25151523 144.375 283.375 C148.75461584 283.73457157 152.76779739 284.66260903 157.0078125 285.8046875 C167.06098336 288.41392322 177.25982918 290.06221811 187.5 291.75 C189.40244165 292.06842608 191.30478614 292.38743318 193.20703125 292.70703125 C197.80359893 293.47803345 202.40139582 294.24124311 207 295 C204.23723253 296.84184498 203.1822154 297.32323823 200.08276367 297.83789062 C199.30152634 297.97142944 198.520289 298.10496826 197.71537781 298.24255371 C196.45441032 298.44733337 196.45441032 298.44733337 195.16796875 298.65625 C194.29860184 298.80404907 193.42923492 298.95184814 192.53352356 299.10412598 C189.75261555 299.57624126 186.9702528 300.03889245 184.1875 300.5 C181.41561867 300.96194008 178.6441658 301.42603778 175.87361145 301.89587402 C174.15036964 302.18787438 172.42634266 302.47528937 170.70146179 302.75744629 C166.293098 303.50196671 162.22971109 304.50940085 158 306 C155.33294183 306.45562244 152.67691453 306.86715769 150 307.25 C139.08859095 308.95795151 128.56194907 311.80623623 118 315 C117.14615723 315.25765137 116.29231445 315.51530273 115.41259766 315.78076172 C96.50448749 321.62148685 79.15290823 330.19761819 64 343 C63.13761719 343.6703125 62.27523438 344.340625 61.38671875 345.03125 C59.11043355 346.90890588 57.23014951 348.82596046 55.3125 351.0625 C54.73113281 351.73410156 54.14976562 352.40570313 53.55078125 353.09765625 C51.84721011 355.12541439 51.84721011 355.12541439 50 358 C49.34 358 48.68 358 48 358 C47.6596875 359.2375 47.6596875 359.2375 47.3125 360.5 C45.43066605 365.51822387 42.5161739 369.72778251 39.55078125 374.171875 C2.92525058 431.46535604 5.31493394 526.97424725 1 592 C0.67 592 0.34 592 0 592 C-0.08564209 590.99622314 -0.17128418 589.99244629 -0.25952148 588.95825195 C-0.57910574 585.22135018 -0.90240498 581.48477741 -1.22680664 577.74829102 C-1.36648704 576.13346908 -1.50517032 574.51856056 -1.64282227 572.90356445 C-1.84126626 570.57739968 -2.04333671 568.25157357 -2.24609375 565.92578125 C-2.3065538 565.20787918 -2.36701385 564.48997711 -2.42930603 563.75032043 C-2.67434876 560.97121544 -2.94975479 558.24684322 -3.5065918 555.51123047 C-4.19720126 551.99633242 -4.40447862 548.46201375 -4.6484375 544.89453125 C-4.76603369 543.26764197 -4.88388234 541.64077092 -5.00195312 540.01391602 C-5.06261963 539.16499786 -5.12328613 538.31607971 -5.18579102 537.44143677 C-6.30620152 521.87405565 -7.67656121 506.38805868 -9.64257812 490.90185547 C-9.99348867 488.05286449 -10.30656115 485.20212208 -10.609375 482.34765625 C-11.96924964 469.94504664 -14.06064755 457.74132588 -16.4375 445.5 C-16.58280151 444.74744934 -16.72810303 443.99489868 -16.87780762 443.21954346 C-19.50951952 429.67174538 -22.35651599 416.08278181 -26.8125 403 C-27.06040283 402.26362305 -27.30830566 401.52724609 -27.5637207 400.76855469 C-30.64998 391.82060242 -34.38723374 383.09399737 -38.70703125 374.671875 C-40 372 -40 372 -40 370 C-40.66 370 -41.32 370 -42 370 C-42 368.68 -42 367.36 -42 366 C-42.66 366 -43.32 366 -44 366 C-44.66 364.02 -45.32 362.04 -46 360 C-46.66 360 -47.32 360 -48 360 C-50.125 358.25 -50.125 358.25 -52 356 C-52 354.68 -52 353.36 -52 352 C-52.66 352 -53.32 352 -54 352 C-54 351.34 -54 350.68 -54 350 C-54.66 350 -55.32 350 -56 350 C-56 349.34 -56 348.68 -56 348 C-56.66 348 -57.32 348 -58 348 C-58 347.34 -58 346.68 -58 346 C-58.66 346 -59.32 346 -60 346 C-60 345.34 -60 344.68 -60 344 C-60.66 344 -61.32 344 -62 344 C-62 343.34 -62 342.68 -62 342 C-62.61875 341.855625 -63.2375 341.71125 -63.875 341.5625 C-66 341 -66 341 -68 340 C-68 339.34 -68 338.68 -68 338 C-68.66 338 -69.32 338 -70 338 C-70 337.34 -70 336.68 -70 336 C-70.66 336 -71.32 336 -72 336 C-72 335.34 -72 334.68 -72 334 C-73.32 334 -74.64 334 -76 334 C-76 333.34 -76 332.68 -76 332 C-77.32 332 -78.64 332 -80 332 C-80 331.34 -80 330.68 -80 330 C-81.98 329.34 -83.96 328.68 -86 328 C-86 327.34 -86 326.68 -86 326 C-87.32 326 -88.64 326 -90 326 C-90 325.34 -90 324.68 -90 324 C-90.94875 323.855625 -91.8975 323.71125 -92.875 323.5625 C-96 323 -96 323 -98 322 C-98 321.34 -98 320.68 -98 320 C-99.299375 320.061875 -99.299375 320.061875 -100.625 320.125 C-104.12358468 319.99542279 -106.74551597 319.23980344 -110 318 C-110 317.34 -110 316.68 -110 316 C-111.32 316 -112.64 316 -114 316 C-114 315.34 -114 314.68 -114 314 C-115.1446875 314.04769531 -116.289375 314.09539062 -117.46875 314.14453125 C-122.11902097 314.14146648 -126.08764602 313.05947393 -130.5 311.6875 C-136.42407204 309.93890956 -142.28974067 308.4409176 -148.375 307.375 C-154.11428689 306.36890987 -159.72191469 305.14860153 -165.3515625 303.6484375 C-168.21815154 302.94658827 -171.08467072 302.45311569 -174 302 C-174 301.34 -174 300.68 -174 300 C-178.62 300 -183.24 300 -188 300 C-188 299.34 -188 298.68 -188 298 C-188.79664063 298.02320313 -189.59328125 298.04640625 -190.4140625 298.0703125 C-200.93848858 298.24956063 -200.93848858 298.24956063 -206 296 C-206 295.34 -206 294.68 -206 294 C-200.06 294 -194.12 294 -188 294 C-188 293.34 -188 292.68 -188 292 C-184.7 292 -181.4 292 -178 292 C-178 291.34 -178 290.68 -178 290 C-175.36 290 -172.72 290 -170 290 C-170 289.34 -170 288.68 -170 288 C-168.14761719 287.76216797 -168.14761719 287.76216797 -166.2578125 287.51953125 C-155.19562031 286.0229464 -144.69827127 283.77233994 -134.0078125 280.58496094 C-127.85892905 278.7935304 -122.4130974 277.77096081 -116 278 C-116 277.34 -116 276.68 -116 276 C-114.02 276 -112.04 276 -110 276 C-110 275.34 -110 274.68 -110 274 C-108.42032193 273.32471777 -106.83608097 272.66010306 -105.25 272 C-104.36828125 271.62875 -103.4865625 271.2575 -102.578125 270.875 C-100 270 -100 270 -96 270 C-96 269.34 -96 268.68 -96 268 C-94.68 268 -93.36 268 -92 268 C-92 267.34 -92 266.68 -92 266 C-90.02 266 -88.04 266 -86 266 C-86 265.34 -86 264.68 -86 264 C-84.68 264 -83.36 264 -82 264 C-82 263.34 -82 262.68 -82 262 C-81.34 262 -80.68 262 -80 262 C-80 261.34 -80 260.68 -80 260 C-78.68 260 -77.36 260 -76 260 C-76 259.34 -76 258.68 -76 258 C-75.34 258 -74.68 258 -74 258 C-74 257.34 -74 256.68 -74 256 C-72.68 256 -71.36 256 -70 256 C-70 255.34 -70 254.68 -70 254 C-69.34 254 -68.68 254 -68 254 C-68 253.34 -68 252.68 -68 252 C-67.34 252 -66.68 252 -66 252 C-66 251.34 -66 250.68 -66 250 C-63 248 -63 248 -60 248 C-60 247.34 -60 246.68 -60 246 C-59.34 246 -58.68 246 -58 246 C-58 245.34 -58 244.68 -58 244 C-57.34 244 -56.68 244 -56 244 C-56 243.34 -56 242.68 -56 242 C-55.34 242 -54.68 242 -54 242 C-54 241.34 -54 240.68 -54 240 C-53.34 240 -52.68 240 -52 240 C-52 238.68 -52 237.36 -52 236 C-51.34 236 -50.68 236 -50 236 C-50 235.34 -50 234.68 -50 234 C-49.34 234 -48.68 234 -48 234 C-48 233.34 -48 232.68 -48 232 C-47.34 232 -46.68 232 -46 232 C-46 230.68 -46 229.36 -46 228 C-45.34 228 -44.68 228 -44 228 C-44 227.34 -44 226.68 -44 226 C-43.34 226 -42.68 226 -42 226 C-42 224.68 -42 223.36 -42 222 C-41.34 222 -40.68 222 -40 222 C-40 220.68 -40 219.36 -40 218 C-39.34 218 -38.68 218 -38 218 C-37.01 214.04 -37.01 214.04 -36 210 C-35.34 210 -34.68 210 -34 210 C-33.855625 209.236875 -33.71125 208.47375 -33.5625 207.6875 C-33 205 -33 205 -32 202 C-31.34 202 -30.68 202 -30 202 C-30 200.02 -30 198.04 -30 196 C-29.34 196 -28.68 196 -28 196 C-27.855625 195.13375 -27.71125 194.2675 -27.5625 193.375 C-27.04166667 190.25 -26.52083333 187.125 -26 184 C-25.34 184 -24.68 184 -24 184 C-24 181.36 -24 178.72 -24 176 C-23.34 176 -22.68 176 -22 176 C-22 173.36 -22 170.72 -22 168 C-21.34 168 -20.68 168 -20 168 C-20 166.02 -20 164.04 -20 162 C-19.34 162 -18.68 162 -18 162 C-18 158.7 -18 155.4 -18 152 C-17.34 152 -16.68 152 -16 152 C-16.01160156 151.30132812 -16.02320313 150.60265625 -16.03515625 149.8828125 C-16.04417969 148.97273437 -16.05320312 148.06265625 -16.0625 147.125 C-16.07990234 145.76761719 -16.07990234 145.76761719 -16.09765625 144.3828125 C-16 142 -16 142 -15 140 C-14.79581065 138.00348191 -14.63477704 136.00240179 -14.5 134 C-14.11111111 128.22222222 -14.11111111 128.22222222 -13 126 C-12.76970044 123.62876754 -12.58880058 121.25258057 -12.4375 118.875 C-12.35371094 117.59367187 -12.26992188 116.31234375 -12.18359375 114.9921875 C-12.12300781 114.00476563 -12.06242188 113.01734375 -12 112 C-11.34 112 -10.68 112 -10 112 C-10 108.04 -10 104.08 -10 100 C-9.34 100 -8.68 100 -8 100 C-8.00523682 99.41508789 -8.01047363 98.83017578 -8.01586914 98.22753906 C-8.03670158 95.56837037 -8.04968007 92.90921889 -8.0625 90.25 C-8.07087891 89.32960938 -8.07925781 88.40921875 -8.08789062 87.4609375 C-8.09111328 86.57148438 -8.09433594 85.68203125 -8.09765625 84.765625 C-8.10289307 83.94868164 -8.10812988 83.13173828 -8.11352539 82.29003906 C-8.00225694 80.04552708 -7.55703804 78.16884774 -7 76 C-6.8578299 74.41432161 -6.75495959 72.82481368 -6.68359375 71.234375 C-6.64169922 70.34492188 -6.59980469 69.45546875 -6.55664062 68.5390625 C-6.51732422 67.61867188 -6.47800781 66.69828125 -6.4375 65.75 C-6.37272461 64.34621094 -6.37272461 64.34621094 -6.30664062 62.9140625 C-6.2008195 60.60951359 -6.09873443 58.30486161 -6 56 C-5.34 56 -4.68 56 -4 56 C-4.01160156 54.86820313 -4.02320313 53.73640625 -4.03515625 52.5703125 C-4.04453454 51.08854331 -4.0536347 49.60677235 -4.0625 48.125 C-4.07087891 47.37863281 -4.07925781 46.63226563 -4.08789062 45.86328125 C-4.11328125 40.2265625 -4.11328125 40.2265625 -3 38 C-2.87121153 36.52155911 -2.79776125 35.03807911 -2.75390625 33.5546875 C-2.72224365 32.64928223 -2.69058105 31.74387695 -2.65795898 30.81103516 C-2.61070679 29.35769775 -2.61070679 29.35769775 -2.5625 27.875 C-2.20610639 18.48252743 -1.37207932 9.29816859 0 0 Z " fill="#E7AA05" transform="translate(302,88)"/>
<path d="M0 0 C0.33 0 0.66 0 1 0 C3.1142071 11.40161688 3.20923895 22.44536021 3 34 C3.66 34 4.32 34 5 34 C5.05607422 35.16015625 5.05607422 35.16015625 5.11328125 36.34375 C5.5470995 43.5234378 5.5470995 43.5234378 7.5625 50.375 C8.97072148 53.92616722 9.28250837 56.23322171 9 60 C9.66 60 10.32 60 11 60 C11 61.98 11 63.96 11 66 C11.66 66 12.32 66 13 66 C13 66.66 13 67.32 13 68 C13.66 68 14.32 68 15 68 C15 69.32 15 70.64 15 72 C15.66 72 16.32 72 17 72 C17 72.66 17 73.32 17 74 C17.66 74 18.32 74 19 74 C19 74.66 19 75.32 19 76 C19.66 76 20.32 76 21 76 C21 76.66 21 77.32 21 78 C21.66 78 22.32 78 23 78 C23 78.66 23 79.32 23 80 C24.33417969 80.42345703 24.33417969 80.42345703 25.6953125 80.85546875 C28.56099759 81.84795779 31.14578776 83.00740941 33.875 84.3125 C43.72464103 88.52303357 54.52454711 90.02409883 65 92 C65 92.66 65 93.32 65 94 C64.33581055 94.12528076 63.67162109 94.25056152 62.98730469 94.37963867 C46.76949082 97.27716241 46.76949082 97.27716241 31.3671875 102.88671875 C28.64171979 104.16849812 25.86831415 105.08962203 23 106 C23 106.66 23 107.32 23 108 C22.34 108 21.68 108 21 108 C21 108.66 21 109.32 21 110 C20.34 110 19.68 110 19 110 C19 110.66 19 111.32 19 112 C18.34 112 17.68 112 17 112 C17 112.66 17 113.32 17 114 C16.34 114 15.68 114 15 114 C14.62875 115.175625 14.62875 115.175625 14.25 116.375 C13.27769895 119.19467304 12.21753524 121.88123813 11.0625 124.625 C2.9662207 145.01562936 2.61579053 168.34782675 1 190 C-0.72702367 186.97149549 -1.30471421 184.60027578 -1.52734375 181.1328125 C-1.5955835 180.17536133 -1.66382324 179.21791016 -1.73413086 178.23144531 C-1.80124268 177.20631836 -1.86835449 176.18119141 -1.9375 175.125 C-3.71792371 138.60635324 -3.71792371 138.60635324 -21.51953125 108.13671875 C-23.01735117 106.91216074 -23.01735117 106.91216074 -25 106 C-25 105.34 -25 104.68 -25 104 C-26.32 104 -27.64 104 -29 104 C-29 103.34 -29 102.68 -29 102 C-30.32 102 -31.64 102 -33 102 C-33 101.34 -33 100.68 -33 100 C-34.2375 100.0928125 -34.2375 100.0928125 -35.5 100.1875 C-38.58184131 100.02240136 -40.02100433 99.70512827 -42.75 98.5625 C-47.40276412 96.65089924 -52.01474807 96.29625473 -57 96 C-57 95.34 -57 94.68 -57 94 C-59.64 94 -62.28 94 -65 94 C-65 93.34 -65 92.68 -65 92 C-59.6720132 90.52000367 -54.61645739 89.66440621 -49.1015625 89.24609375 C-46.94527426 89.11436697 -46.94527426 89.11436697 -45 88 C-43.00039988 87.960008 -40.99952758 87.95653201 -39 88 C-39 87.34 -39 86.68 -39 86 C-37.68 86 -36.36 86 -35 86 C-35 85.34 -35 84.68 -35 84 C-33.02 84 -31.04 84 -29 84 C-29 83.34 -29 82.68 -29 82 C-26.03 81.01 -26.03 81.01 -23 80 C-23 79.34 -23 78.68 -23 78 C-22.34 78 -21.68 78 -21 78 C-21 77.34 -21 76.68 -21 76 C-20.34 76 -19.68 76 -19 76 C-19 75.34 -19 74.68 -19 74 C-18.34 74 -17.68 74 -17 74 C-17 73.34 -17 72.68 -17 72 C-16.34 72 -15.68 72 -15 72 C-15 71.34 -15 70.68 -15 70 C-14.34 70 -13.68 70 -13 70 C-13 68.68 -13 67.36 -13 66 C-12.34 66 -11.68 66 -11 66 C-11 64.68 -11 63.36 -11 62 C-10.34 62 -9.68 62 -9 62 C-9 59.36 -9 56.72 -9 54 C-8.34 54 -7.68 54 -7 54 C-7.020625 53.05125 -7.04125 52.1025 -7.0625 51.125 C-7 48 -7 48 -6 46 C-5.79777644 44.33727297 -5.63588613 42.66945815 -5.5 41 C-5.11111111 36.22222222 -5.11111111 36.22222222 -4 34 C-3.76970044 31.62876754 -3.58880058 29.25258057 -3.4375 26.875 C-3.35371094 25.59367187 -3.26992188 24.31234375 -3.18359375 22.9921875 C-3.09271484 21.51105469 -3.09271484 21.51105469 -3 20 C-2.34 20 -1.68 20 -1 20 C-1.01160156 18.72382812 -1.02320313 17.44765625 -1.03515625 16.1328125 C-1.04453417 14.46354313 -1.05363437 12.79427217 -1.0625 11.125 C-1.07087891 10.28324219 -1.07925781 9.44148438 -1.08789062 8.57421875 C-1.09111328 7.76855469 -1.09433594 6.96289062 -1.09765625 6.1328125 C-1.10289307 5.38918457 -1.10812988 4.64555664 -1.11352539 3.87939453 C-1 2 -1 2 0 0 Z " fill="#E6A805" transform="translate(437,62)"/>
<path d="M0 0 C0.66 0 1.32 0 2 0 C3.8990512 6.07696382 4.37208501 12.03457247 4.65795898 18.36328125 C4.83219363 22.26282311 4.83219363 22.26282311 5.5234375 26.09375 C6.20677298 28.82709194 6.09304681 31.43969374 6.0625 34.25 C6.05347656 35.32765625 6.04445313 36.4053125 6.03515625 37.515625 C6.02355469 38.33546875 6.01195312 39.1553125 6 40 C6.66 40 7.32 40 8 40 C8.67250524 42.58193977 9.33817901 45.16532071 10 47.75 C10.28617188 48.84441406 10.28617188 48.84441406 10.578125 49.9609375 C11.46515964 53.44571646 12 56.38123722 12 60 C12.66 60 13.32 60 14 60 C14 61.32 14 62.64 14 64 C14.66 64 15.32 64 16 64 C16.66 65.98 17.32 67.96 18 70 C18.66 70 19.32 70 20 70 C20 70.66 20 71.32 20 72 C20.66 72 21.32 72 22 72 C22 72.66 22 73.32 22 74 C22.66 74 23.32 74 24 74 C24 74.66 24 75.32 24 76 C24.78375 76.226875 25.5675 76.45375 26.375 76.6875 C29.30704748 77.7491034 31.66811147 78.88895477 34.375 80.375 C45.27899526 85.92523182 57.97921206 87.57253143 70 89 C70 89.33 70 89.66 70 90 C69.32533691 90.13575439 68.65067383 90.27150879 67.95556641 90.41137695 C64.84438191 91.04026737 61.73470603 91.67634091 58.625 92.3125 C57.56410156 92.52583984 56.50320313 92.73917969 55.41015625 92.95898438 C46.61899159 94.76575748 37.94603829 96.55465682 30.0625 101 C29.16660156 101.495 28.27070312 101.99 27.34765625 102.5 C25.23892885 103.84733997 23.75043246 105.24434237 22 107 C21.34 107 20.68 107 20 107 C19.73832031 107.55171875 19.47664062 108.1034375 19.20703125 108.671875 C18 111 18 111 16.44921875 113.390625 C6.7208083 129.18041756 5.59250397 148.84226768 3.98730469 166.91040039 C3.88450195 168.03824951 3.78169922 169.16609863 3.67578125 170.328125 C3.5507019 171.82714355 3.5507019 171.82714355 3.4230957 173.35644531 C3.00719524 175.95504321 2.31568833 177.73955153 1 180 C0.90295776 178.87863647 0.90295776 178.87863647 0.80395508 177.73461914 C-0.40103022 164.17982743 -1.77064018 150.74144854 -4.375 137.375 C-4.55957764 136.38894775 -4.74415527 135.40289551 -4.93432617 134.38696289 C-6.19917865 128.23882584 -8.19775641 122.91829551 -10.99853516 117.29931641 C-12 115 -12 115 -12 112 C-12.66 112 -13.32 112 -14 112 C-15.35386936 110.34997172 -16.68678142 108.6825613 -18 107 C-18.99 106.505 -18.99 106.505 -20 106 C-20 105.34 -20 104.68 -20 104 C-20.66 104 -21.32 104 -22 104 C-22 103.34 -22 102.68 -22 102 C-22.66 102 -23.32 102 -24 102 C-24 101.34 -24 100.68 -24 100 C-25.32 100 -26.64 100 -28 100 C-28 99.34 -28 98.68 -28 98 C-29.98 98 -31.96 98 -34 98 C-34 97.34 -34 96.68 -34 96 C-35.32 96 -36.64 96 -38 96 C-38 95.34 -38 94.68 -38 94 C-39.04800781 94.01740234 -39.04800781 94.01740234 -40.1171875 94.03515625 C-41.02726563 94.04417969 -41.93734375 94.05320312 -42.875 94.0625 C-44.23238281 94.07990234 -44.23238281 94.07990234 -45.6171875 94.09765625 C-48 94 -48 94 -50 93 C-52.49457129 92.72620559 -54.98892067 92.55450855 -57.4921875 92.37890625 C-60.04057815 91.99386903 -61.7788664 91.27586046 -64 90 C-64 89.34 -64 88.68 -64 88 C-59.38 88 -54.76 88 -50 88 C-50 87.34 -50 86.68 -50 86 C-49.32453125 85.87882812 -48.6490625 85.75765625 -47.953125 85.6328125 C-47.06109375 85.46523437 -46.1690625 85.29765625 -45.25 85.125 C-44.36828125 84.96257812 -43.4865625 84.80015625 -42.578125 84.6328125 C-40.01117679 84.10347524 -40.01117679 84.10347524 -37.875 82.9375 C-35.23229983 81.61614992 -32.90616409 81.86790163 -30 82 C-30 81.34 -30 80.68 -30 80 C-28.68 80 -27.36 80 -26 80 C-26 79.34 -26 78.68 -26 78 C-24.68 78 -23.36 78 -22 78 C-22 77.34 -22 76.68 -22 76 C-21.34 76 -20.68 76 -20 76 C-20 75.34 -20 74.68 -20 74 C-19.34 74 -18.68 74 -18 74 C-18 73.34 -18 72.68 -18 72 C-17.34 72 -16.68 72 -16 72 C-16 71.34 -16 70.68 -16 70 C-15.34 70 -14.68 70 -14 70 C-14 69.34 -14 68.68 -14 68 C-13.34 68 -12.68 68 -12 68 C-12 66.68 -12 65.36 -12 64 C-11.34 64 -10.68 64 -10 64 C-10 62.68 -10 61.36 -10 60 C-9.34 60 -8.68 60 -8 60 C-8.0928125 58.7625 -8.0928125 58.7625 -8.1875 57.5 C-7.99124049 53.83648911 -7.13454081 51.40365901 -5.796875 48.046875 C-2.75142997 40.22426129 -2.44351735 32.31011449 -2 24 C-1.34 24 -0.68 24 0 24 C0 16.08 0 8.16 0 0 Z " fill="#E5A707" transform="translate(576,156)"/>
<path d="M0 0 C0.33 0 0.66 0 1 0 C2.32915021 7.97490128 2.08801359 15.94186719 2 24 C2.66 24 3.32 24 4 24 C4.02505615 24.89831543 4.0501123 25.79663086 4.07592773 26.72216797 C4.17098693 30.05074869 4.27022421 33.37914994 4.37231445 36.70751953 C4.41566231 38.1488762 4.45733752 39.59028418 4.49731445 41.03173828 C4.55502088 43.10204541 4.61871371 45.17209432 4.68359375 47.2421875 C4.73858032 49.11173096 4.73858032 49.11173096 4.79467773 51.01904297 C4.80289479 53.92636942 4.80289479 53.92636942 6 56 C6.07181821 58.71760108 6.09299506 61.40859388 6.0625 64.125 C6.05798828 64.87910156 6.05347656 65.63320312 6.04882812 66.41015625 C6.03703499 68.27347127 6.01909942 70.13674555 6 72 C5.34 72 4.68 72 4 72 C4 70.02 4 68.04 4 66 C3.34 66 2.68 66 2 66 C2 62.7 2 59.4 2 56 C1.34 56 0.68 56 0 56 C0 54.02 0 52.04 0 50 C0.66 50 1.32 50 2 50 C2 49.34 2 48.68 2 48 C1.34 48 0.68 48 0 48 C0 47.34 0 46.68 0 46 C-0.66 46 -1.32 46 -2 46 C-1.90460938 47.05960938 -1.80921875 48.11921875 -1.7109375 49.2109375 C-1.59839894 50.59891309 -1.48645035 51.98693661 -1.375 53.375 C-1.31054688 54.07367188 -1.24609375 54.77234375 -1.1796875 55.4921875 C-1.03880261 57.32369111 -1.01238341 59.16312748 -1 61 C-1.66 61.66 -2.32 62.32 -3 63 C-3.35368016 65.21072886 -3.35368016 65.21072886 -3.37890625 67.75390625 C-3.41306641 68.69041016 -3.44722656 69.62691406 -3.48242188 70.59179688 C-3.50884766 71.57212891 -3.53527344 72.55246094 -3.5625 73.5625 C-3.62217902 75.50143338 -3.68576609 77.44025178 -3.75390625 79.37890625 C-3.77783447 80.2407251 -3.8017627 81.10254395 -3.82641602 81.99047852 C-4 84 -4 84 -5 85 C-5.15627544 86.38975503 -5.25058677 87.78662959 -5.31640625 89.18359375 C-5.35830078 90.02857422 -5.40019531 90.87355469 -5.44335938 91.74414062 C-5.48267578 92.63294922 -5.52199219 93.52175781 -5.5625 94.4375 C-5.60568359 95.32244141 -5.64886719 96.20738281 -5.69335938 97.11914062 C-5.96996301 102.69688359 -5.96996301 102.69688359 -5.89453125 108.27734375 C-5.86746094 109.15519531 -5.84039062 110.03304687 -5.8125 110.9375 C-5.76029297 112.25041016 -5.76029297 112.25041016 -5.70703125 113.58984375 C-6.06516852 116.53611971 -6.95953111 116.9699683 -9 119 C-9.54262825 121.56364648 -9.54262825 121.56364648 -9.625 124.375 C-9.95663527 130.10755254 -11.03025589 135.28309735 -12.5625 140.8125 C-12.96662109 142.27623047 -12.96662109 142.27623047 -13.37890625 143.76953125 C-13.58386719 144.50558594 -13.78882813 145.24164063 -14 146 C-13.34 146 -12.68 146 -12 146 C-12 147.98 -12 149.96 -12 152 C-12.99 152.33 -13.98 152.66 -15 153 C-15.04898437 153.60328125 -15.09796875 154.2065625 -15.1484375 154.828125 C-15.22320312 155.62734375 -15.29796875 156.4265625 -15.375 157.25 C-15.44460938 158.03890625 -15.51421875 158.8278125 -15.5859375 159.640625 C-16.01507113 162.085877 -16.78600638 163.84836903 -18 166 C-17.34 166 -16.68 166 -16 166 C-16 169.33333333 -16 172.66666667 -16 176 C-15.34 176 -14.68 176 -14 176 C-14 176.66 -14 177.32 -14 178 C-15.485 178.99 -15.485 178.99 -17 180 C-18.10087215 181.08747954 -19.16243355 182.21578905 -20.1875 183.375 C-20.98220703 184.25285156 -20.98220703 184.25285156 -21.79296875 185.1484375 C-23.36407069 187.19010226 -23.36407069 187.19010226 -23 191 C-24.5 193.75 -24.5 193.75 -26 196 C-25.34 196 -24.68 196 -24 196 C-25.29299694 198.88437779 -26.65941363 200.87219421 -29 203 C-27.35 203.33 -25.7 203.66 -24 204 C-24 205.32 -24 206.64 -24 208 C-24.763125 208.061875 -25.52625 208.12375 -26.3125 208.1875 C-29.90652146 209.27406463 -30.23341441 210.76125975 -32 214 C-33.62836738 215.7041054 -35.28769752 217.38025441 -37 219 C-36.505 219.45375 -36.01 219.9075 -35.5 220.375 C-34 222 -34 222 -34 224 C-36.97 224.99 -36.97 224.99 -40 226 C-40 226.66 -40 227.32 -40 228 C-40.31802943 229.66965451 -40.64984951 231.33678518 -41 233 C-42.65 232.67 -44.3 232.34 -46 232 C-46 230.68 -46 229.36 -46 228 C-45.34 228 -44.68 228 -44 228 C-44 227.34 -44 226.68 -44 226 C-43.34 226 -42.68 226 -42 226 C-42 224.68 -42 223.36 -42 222 C-41.34 222 -40.68 222 -40 222 C-40 220.68 -40 219.36 -40 218 C-39.34 218 -38.68 218 -38 218 C-37.34 215.36 -36.68 212.72 -36 210 C-35.34 210 -34.68 210 -34 210 C-33.855625 209.236875 -33.71125 208.47375 -33.5625 207.6875 C-33 205 -33 205 -32 202 C-31.34 202 -30.68 202 -30 202 C-30 200.02 -30 198.04 -30 196 C-29.34 196 -28.68 196 -28 196 C-27.855625 195.13375 -27.71125 194.2675 -27.5625 193.375 C-27.04166667 190.25 -26.52083333 187.125 -26 184 C-25.34 184 -24.68 184 -24 184 C-24 181.36 -24 178.72 -24 176 C-23.34 176 -22.68 176 -22 176 C-22 173.36 -22 170.72 -22 168 C-21.34 168 -20.68 168 -20 168 C-20 166.02 -20 164.04 -20 162 C-19.34 162 -18.68 162 -18 162 C-18 158.7 -18 155.4 -18 152 C-17.34 152 -16.68 152 -16 152 C-16.01160156 151.30132812 -16.02320313 150.60265625 -16.03515625 149.8828125 C-16.04417969 148.97273437 -16.05320312 148.06265625 -16.0625 147.125 C-16.07410156 146.22007812 -16.08570313 145.31515625 -16.09765625 144.3828125 C-16 142 -16 142 -15 140 C-14.79581065 138.00348191 -14.63477704 136.00240179 -14.5 134 C-14.11111111 128.22222222 -14.11111111 128.22222222 -13 126 C-12.76970044 123.62876754 -12.58880058 121.25258057 -12.4375 118.875 C-12.35371094 117.59367187 -12.26992188 116.31234375 -12.18359375 114.9921875 C-12.12300781 114.00476563 -12.06242187 113.01734375 -12 112 C-11.34 112 -10.68 112 -10 112 C-10 108.04 -10 104.08 -10 100 C-9.34 100 -8.68 100 -8 100 C-8.00523682 99.41508789 -8.01047363 98.83017578 -8.01586914 98.22753906 C-8.03670158 95.56837037 -8.04968007 92.90921889 -8.0625 90.25 C-8.07087891 89.32960938 -8.07925781 88.40921875 -8.08789062 87.4609375 C-8.09111328 86.57148438 -8.09433594 85.68203125 -8.09765625 84.765625 C-8.10289307 83.94868164 -8.10812988 83.13173828 -8.11352539 82.29003906 C-8.00225694 80.04552708 -7.55703804 78.16884774 -7 76 C-6.8578299 74.41432161 -6.75495959 72.82481368 -6.68359375 71.234375 C-6.62075195 69.90019531 -6.62075195 69.90019531 -6.55664062 68.5390625 C-6.51732422 67.61867188 -6.47800781 66.69828125 -6.4375 65.75 C-6.37272461 64.34621094 -6.37272461 64.34621094 -6.30664062 62.9140625 C-6.2008195 60.60951359 -6.09873443 58.30486161 -6 56 C-5.34 56 -4.68 56 -4 56 C-4.01160156 54.86820313 -4.02320313 53.73640625 -4.03515625 52.5703125 C-4.04453454 51.08854331 -4.0536347 49.60677235 -4.0625 48.125 C-4.07087891 47.37863281 -4.07925781 46.63226563 -4.08789062 45.86328125 C-4.11328125 40.2265625 -4.11328125 40.2265625 -3 38 C-2.87121153 36.52155911 -2.79776125 35.03807911 -2.75390625 33.5546875 C-2.72224365 32.64928223 -2.69058105 31.74387695 -2.65795898 30.81103516 C-2.62645752 29.84214355 -2.59495605 28.87325195 -2.5625 27.875 C-2.20610639 18.48252743 -1.37207932 9.29816859 0 0 Z M-48 232 C-47.34 232.33 -46.68 232.66 -46 233 C-44.62365591 239.99641577 -44.62365591 239.99641577 -45.9375 243.5 C-46.288125 243.995 -46.63875 244.49 -47 245 C-48.98 245 -50.96 245 -53 245 C-53.33 245.99 -53.66 246.98 -54 248 C-55.65 248.33 -57.3 248.66 -59 249 C-58.34 250.32 -57.68 251.64 -57 253 C-59.18376632 254.21320351 -60.96462344 254.99365036 -63.4375 255.4375 C-66.46722956 256.10256259 -68.4911923 257.18808333 -71 259 C-71.33 259.99 -71.66 260.98 -72 262 C-75.0625 263.1875 -75.0625 263.1875 -78 264 C-78 263.34 -78 262.68 -78 262 C-78.66 262 -79.32 262 -80 262 C-80 261.34 -80 260.68 -80 260 C-78.68 260 -77.36 260 -76 260 C-76 259.34 -76 258.68 -76 258 C-75.34 258 -74.68 258 -74 258 C-74 257.34 -74 256.68 -74 256 C-72.68 256 -71.36 256 -70 256 C-70 255.34 -70 254.68 -70 254 C-69.34 254 -68.68 254 -68 254 C-68 253.34 -68 252.68 -68 252 C-67.34 252 -66.68 252 -66 252 C-66 251.34 -66 250.68 -66 250 C-63 248 -63 248 -60 248 C-60 247.34 -60 246.68 -60 246 C-59.34 246 -58.68 246 -58 246 C-58 245.34 -58 244.68 -58 244 C-57.34 244 -56.68 244 -56 244 C-56 243.34 -56 242.68 -56 242 C-55.34 242 -54.68 242 -54 242 C-54 241.34 -54 240.68 -54 240 C-53.34 240 -52.68 240 -52 240 C-52 238.68 -52 237.36 -52 236 C-51.34 236 -50.68 236 -50 236 C-50 235.34 -50 234.68 -50 234 C-49.34 234 -48.68 234 -48 234 C-48 233.34 -48 232.68 -48 232 Z " fill="#FDD91D" transform="translate(302,88)"/>
<path d="M0 0 C1.98 0 3.96 0 6 0 C5.34 1.98 4.68 3.96 4 6 C1.33333333 6 -1.33333333 6 -4 6 C-6.49582411 6.09871362 -6.49582411 6.09871362 -9 7 C-10.04892238 8.63631892 -11.04906703 10.30485863 -12 12 C-14.19989897 13.39993571 -15.39766663 14 -18 14 C-18.99 14.350625 -19.98 14.70125 -21 15.0625 C-24 16 -24 16 -26 15 C-27.66619446 14.9603287 -29.33391013 14.95615553 -31 15 C-30.01 15.33 -29.02 15.66 -28 16 C-28 18.64 -28 21.28 -28 24 C-30.49092811 25.24546405 -31.41080733 24.7767578 -34 24 C-34 23.34 -34 22.68 -34 22 C-33.34 22 -32.68 22 -32 22 C-32 21.34 -32 20.68 -32 20 C-33.27875 20 -34.5575 20 -35.875 20 C-37.91666667 20 -39.95833333 20 -42 20 C-44.4600933 20.10946551 -46.91663518 20.23532018 -49.375 20.375 C-50.38433594 20.42140625 -50.38433594 20.42140625 -51.4140625 20.46875 C-55.05396743 20.68370502 -57.8868497 21.03632058 -61 23 C-60.505 24.485 -60.505 24.485 -60 26 C-64.12168689 27.62950412 -66.70700357 28.26264601 -71 27 C-71.2475 27.61875 -71.495 28.2375 -71.75 28.875 C-73.20628639 31.35068687 -74.37812506 31.95125002 -77 33 C-75.35 33.33 -73.7 33.66 -72 34 C-72 34.66 -72 35.32 -72 36 C-69.36 36 -66.72 36 -64 36 C-64 36.66 -64 37.32 -64 38 C-60.7 38 -57.4 38 -54 38 C-54 37.34 -54 36.68 -54 36 C-52.68 36 -51.36 36 -50 36 C-50 36.66 -50 37.32 -50 38 C-48.02 38 -46.04 38 -44 38 C-44 39.32 -44 40.64 -44 42 C-41.36 42 -38.72 42 -36 42 C-36 41.34 -36 40.68 -36 40 C-35.34 40 -34.68 40 -34 40 C-34 41.32 -34 42.64 -34 44 C-33.34 44 -32.68 44 -32 44 C-32 43.34 -32 42.68 -32 42 C-29.36 42 -26.72 42 -24 42 C-24 43.32 -24 44.64 -24 46 C-22.35 46 -20.7 46 -19 46 C-19 46.33 -19 46.66 -19 47 C-17.35 47.33 -15.7 47.66 -14 48 C-14 48.66 -14 49.32 -14 50 C-12.68 50 -11.36 50 -10 50 C-10 51.32 -10 52.64 -10 54 C-12.64 53.34 -15.28 52.68 -18 52 C-18 51.34 -18 50.68 -18 50 C-19.32 50 -20.64 50 -22 50 C-22 49.34 -22 48.68 -22 48 C-23.1446875 48.04769531 -24.289375 48.09539062 -25.46875 48.14453125 C-30.11902097 48.14146648 -34.08764602 47.05947393 -38.5 45.6875 C-44.42407204 43.93890956 -50.28974067 42.4409176 -56.375 41.375 C-62.11428689 40.36890987 -67.72191469 39.14860153 -73.3515625 37.6484375 C-76.21815154 36.94658827 -79.08467072 36.45311569 -82 36 C-82 35.34 -82 34.68 -82 34 C-86.62 34 -91.24 34 -96 34 C-96 33.34 -96 32.68 -96 32 C-96.79664062 32.02320313 -97.59328125 32.04640625 -98.4140625 32.0703125 C-108.93848858 32.24956063 -108.93848858 32.24956063 -114 30 C-114 29.34 -114 28.68 -114 28 C-108.06 28 -102.12 28 -96 28 C-96 27.34 -96 26.68 -96 26 C-92.7 26 -89.4 26 -86 26 C-86 25.34 -86 24.68 -86 24 C-83.36 24 -80.72 24 -78 24 C-78 23.34 -78 22.68 -78 22 C-76.76507813 21.84144531 -75.53015625 21.68289063 -74.2578125 21.51953125 C-63.19562031 20.0229464 -52.69827127 17.77233994 -42.0078125 14.58496094 C-35.85892905 12.7935304 -30.4130974 11.77096081 -24 12 C-24 11.34 -24 10.68 -24 10 C-22.02 10 -20.04 10 -18 10 C-18 9.34 -18 8.68 -18 8 C-16.42032193 7.32471777 -14.83608097 6.66010306 -13.25 6 C-12.36828125 5.62875 -11.4865625 5.2575 -10.578125 4.875 C-8 4 -8 4 -4 4 C-4 3.34 -4 2.68 -4 2 C-2.68 2 -1.36 2 0 2 C0 1.34 0 0.68 0 0 Z " fill="#FCD61B" transform="translate(210,354)"/>
<path d="M0 0 C0.33 0 0.66 0 1 0 C3.1142071 11.40161688 3.20923895 22.44536021 3 34 C3.66 34 4.32 34 5 34 C5.05607422 35.16015625 5.05607422 35.16015625 5.11328125 36.34375 C5.5470995 43.5234378 5.5470995 43.5234378 7.5625 50.375 C8.97072148 53.92616722 9.28250837 56.23322171 9 60 C9.66 60 10.32 60 11 60 C11 61.98 11 63.96 11 66 C9.68 66 8.36 66 7 66 C6.67 64.35 6.34 62.7 6 61 C5.67 61 5.34 61 5 61 C5 59.35 5 57.7 5 56 C4.34 56 3.68 56 3 56 C3 54.02 3 52.04 3 50 C3.66 50 4.32 50 5 50 C5 49.34 5 48.68 5 48 C3.515 48.495 3.515 48.495 2 49 C1.67 49.99 1.34 50.98 1 52 C-0.2375 52.61875 -0.2375 52.61875 -1.5 53.25 C-4.35583257 54.81686226 -4.35583257 54.81686226 -4.625 58.25 C-4.810625 60.10625 -4.810625 60.10625 -5 62 C-6.74390426 67.14451758 -8.43240346 69.99500228 -13 73 C-13.33 73 -13.66 73 -14 73 C-14.33 75.97 -14.66 78.94 -15 82 C-16.27875 81.95875 -17.5575 81.9175 -18.875 81.875 C-21.01871492 81.75787127 -21.01871492 81.75787127 -23 82 C-23.66 82.66 -24.32 83.32 -25 84 C-25 85.32 -25 86.64 -25 88 C-26.32 88 -27.64 88 -29 88 C-34.81482766 88.55136389 -34.81482766 88.55136389 -40 91 C-40.33 91.99 -40.66 92.98 -41 94 C-39.02 94 -37.04 94 -35 94 C-35 94.66 -35 95.32 -35 96 C-34.34 96 -33.68 96 -33 96 C-33 95.34 -33 94.68 -33 94 C-32.34 94 -31.68 94 -31 94 C-31 92.68 -31 91.36 -31 90 C-30.34 90 -29.68 90 -29 90 C-29 90.66 -29 91.32 -29 92 C-28.34 92 -27.68 92 -27 92 C-27 91.34 -27 90.68 -27 90 C-26.34 90 -25.68 90 -25 90 C-26.875 93.875 -26.875 93.875 -28 95 C-28.04080783 96.99958364 -28.04254356 99.00045254 -28 101 C-30.475 101.495 -30.475 101.495 -33 102 C-33 101.34 -33 100.68 -33 100 C-34.2375 100.0928125 -34.2375 100.0928125 -35.5 100.1875 C-38.58184131 100.02240136 -40.02100433 99.70512827 -42.75 98.5625 C-47.40276412 96.65089924 -52.01474807 96.29625473 -57 96 C-57 95.34 -57 94.68 -57 94 C-59.64 94 -62.28 94 -65 94 C-65 93.34 -65 92.68 -65 92 C-59.6720132 90.52000367 -54.61645739 89.66440621 -49.1015625 89.24609375 C-46.94527426 89.11436697 -46.94527426 89.11436697 -45 88 C-43.00039988 87.960008 -40.99952758 87.95653201 -39 88 C-39 87.34 -39 86.68 -39 86 C-37.68 86 -36.36 86 -35 86 C-35 85.34 -35 84.68 -35 84 C-33.02 84 -31.04 84 -29 84 C-29 83.34 -29 82.68 -29 82 C-26.03 81.01 -26.03 81.01 -23 80 C-23 79.34 -23 78.68 -23 78 C-22.34 78 -21.68 78 -21 78 C-21 77.34 -21 76.68 -21 76 C-20.34 76 -19.68 76 -19 76 C-19 75.34 -19 74.68 -19 74 C-18.34 74 -17.68 74 -17 74 C-17 73.34 -17 72.68 -17 72 C-16.34 72 -15.68 72 -15 72 C-15 71.34 -15 70.68 -15 70 C-14.34 70 -13.68 70 -13 70 C-13 68.68 -13 67.36 -13 66 C-12.34 66 -11.68 66 -11 66 C-11 64.68 -11 63.36 -11 62 C-10.34 62 -9.68 62 -9 62 C-9 59.36 -9 56.72 -9 54 C-8.34 54 -7.68 54 -7 54 C-7.020625 53.05125 -7.04125 52.1025 -7.0625 51.125 C-7 48 -7 48 -6 46 C-5.79777644 44.33727297 -5.63588613 42.66945815 -5.5 41 C-5.11111111 36.22222222 -5.11111111 36.22222222 -4 34 C-3.76970044 31.62876754 -3.58880058 29.25258057 -3.4375 26.875 C-3.35371094 25.59367187 -3.26992188 24.31234375 -3.18359375 22.9921875 C-3.09271484 21.51105469 -3.09271484 21.51105469 -3 20 C-2.34 20 -1.68 20 -1 20 C-1.01160156 18.72382812 -1.02320313 17.44765625 -1.03515625 16.1328125 C-1.04453417 14.46354313 -1.05363437 12.79427217 -1.0625 11.125 C-1.07087891 10.28324219 -1.07925781 9.44148438 -1.08789062 8.57421875 C-1.09111328 7.76855469 -1.09433594 6.96289062 -1.09765625 6.1328125 C-1.10289307 5.38918457 -1.10812988 4.64555664 -1.11352539 3.87939453 C-1 2 -1 2 0 0 Z " fill="#F9CF20" transform="translate(437,62)"/>
<path d="M0 0 C1.32 0 2.64 0 4 0 C4 1.98 4 3.96 4 6 C4.66 6 5.32 6 6 6 C6 6.66 6 7.32 6 8 C5.01 8.66 4.02 9.32 3 10 C1.89912785 11.08747954 0.83756645 12.21578905 -0.1875 13.375 C-0.71730469 13.96023438 -1.24710937 14.54546875 -1.79296875 15.1484375 C-3.36407069 17.19010226 -3.36407069 17.19010226 -3 21 C-4.5 23.75 -4.5 23.75 -6 26 C-5.34 26 -4.68 26 -4 26 C-5.29299694 28.88437779 -6.65941363 30.87219421 -9 33 C-7.35 33.33 -5.7 33.66 -4 34 C-4 35.32 -4 36.64 -4 38 C-4.763125 38.061875 -5.52625 38.12375 -6.3125 38.1875 C-9.90652146 39.27406463 -10.23341441 40.76125975 -12 44 C-13.62836738 45.7041054 -15.28769752 47.38025441 -17 49 C-16.505 49.45375 -16.01 49.9075 -15.5 50.375 C-14 52 -14 52 -14 54 C-15.98 54.66 -17.96 55.32 -20 56 C-20 56.66 -20 57.32 -20 58 C-20.31802943 59.66965451 -20.64984951 61.33678518 -21 63 C-22.65 62.67 -24.3 62.34 -26 62 C-26 60.68 -26 59.36 -26 58 C-25.34 58 -24.68 58 -24 58 C-24 57.34 -24 56.68 -24 56 C-23.34 56 -22.68 56 -22 56 C-22 54.68 -22 53.36 -22 52 C-21.34 52 -20.68 52 -20 52 C-20 50.68 -20 49.36 -20 48 C-19.34 48 -18.68 48 -18 48 C-17.34 45.36 -16.68 42.72 -16 40 C-15.34 40 -14.68 40 -14 40 C-13.855625 39.236875 -13.71125 38.47375 -13.5625 37.6875 C-13 35 -13 35 -12 32 C-11.34 32 -10.68 32 -10 32 C-10 30.02 -10 28.04 -10 26 C-9.34 26 -8.68 26 -8 26 C-7.855625 25.13375 -7.71125 24.2675 -7.5625 23.375 C-7.04166667 20.25 -6.52083333 17.125 -6 14 C-5.34 14 -4.68 14 -4 14 C-4 12.68 -4 11.36 -4 10 C-3.34 10 -2.68 10 -2 10 C-2 9.34 -2 8.68 -2 8 C-1.34 8 -0.68 8 0 8 C0 5.36 0 2.72 0 0 Z M-28 62 C-27.34 62.33 -26.68 62.66 -26 63 C-24.62365591 69.99641577 -24.62365591 69.99641577 -25.9375 73.5 C-26.288125 73.995 -26.63875 74.49 -27 75 C-28.98 75 -30.96 75 -33 75 C-33.33 75.99 -33.66 76.98 -34 78 C-35.65 78.33 -37.3 78.66 -39 79 C-38.34 80.32 -37.68 81.64 -37 83 C-39.18376632 84.21320351 -40.96462344 84.99365036 -43.4375 85.4375 C-46.46722956 86.10256259 -48.4911923 87.18808333 -51 89 C-51.33 89.99 -51.66 90.98 -52 92 C-55.0625 93.1875 -55.0625 93.1875 -58 94 C-58 93.34 -58 92.68 -58 92 C-58.66 92 -59.32 92 -60 92 C-60 91.34 -60 90.68 -60 90 C-58.68 90 -57.36 90 -56 90 C-56 89.34 -56 88.68 -56 88 C-55.34 88 -54.68 88 -54 88 C-54 87.34 -54 86.68 -54 86 C-52.68 86 -51.36 86 -50 86 C-50 85.34 -50 84.68 -50 84 C-49.34 84 -48.68 84 -48 84 C-48 83.34 -48 82.68 -48 82 C-47.34 82 -46.68 82 -46 82 C-46 81.34 -46 80.68 -46 80 C-43 78 -43 78 -40 78 C-40 77.34 -40 76.68 -40 76 C-39.34 76 -38.68 76 -38 76 C-38 75.34 -38 74.68 -38 74 C-37.34 74 -36.68 74 -36 74 C-36 73.34 -36 72.68 -36 72 C-35.34 72 -34.68 72 -34 72 C-34 71.34 -34 70.68 -34 70 C-33.34 70 -32.68 70 -32 70 C-32 68.68 -32 67.36 -32 66 C-31.34 66 -30.68 66 -30 66 C-30 65.34 -30 64.68 -30 64 C-29.34 64 -28.68 64 -28 64 C-28 63.34 -28 62.68 -28 62 Z " fill="#F9CA1E" transform="translate(282,258)"/>
<path d="M0 0 C0.33 0 0.66 0 1 0 C3.1142071 11.40161688 3.20923895 22.44536021 3 34 C3.66 34 4.32 34 5 34 C5.03738281 34.7734375 5.07476562 35.546875 5.11328125 36.34375 C5.5470995 43.5234378 5.5470995 43.5234378 7.5625 50.375 C8.97072148 53.92616722 9.28250837 56.23322171 9 60 C9.66 60 10.32 60 11 60 C11 61.98 11 63.96 11 66 C9.68 66 8.36 66 7 66 C6.505 63.525 6.505 63.525 6 61 C5.67 61 5.34 61 5 61 C5 59.35 5 57.7 5 56 C4.34 56 3.68 56 3 56 C3 54.02 3 52.04 3 50 C3.66 50 4.32 50 5 50 C5 49.34 5 48.68 5 48 C3.515 48.495 3.515 48.495 2 49 C1.67 49.99 1.34 50.98 1 52 C-1.5 53.5 -1.5 53.5 -4 55 C-4.33 55.99 -4.66 56.98 -5 58 C-6.32 58 -7.64 58 -9 58 C-9 56.68 -9 55.36 -9 54 C-8.34 54 -7.68 54 -7 54 C-7.020625 53.05125 -7.04125 52.1025 -7.0625 51.125 C-7 48 -7 48 -6 46 C-5.79777644 44.33727297 -5.63588613 42.66945815 -5.5 41 C-5.11111111 36.22222222 -5.11111111 36.22222222 -4 34 C-3.76970044 31.62876754 -3.58880058 29.25258057 -3.4375 26.875 C-3.35371094 25.59367187 -3.26992188 24.31234375 -3.18359375 22.9921875 C-3.09271484 21.51105469 -3.09271484 21.51105469 -3 20 C-2.34 20 -1.68 20 -1 20 C-1.01160156 18.72382812 -1.02320313 17.44765625 -1.03515625 16.1328125 C-1.04453417 14.46354313 -1.05363437 12.79427217 -1.0625 11.125 C-1.07087891 10.28324219 -1.07925781 9.44148438 -1.08789062 8.57421875 C-1.09111328 7.76855469 -1.09433594 6.96289062 -1.09765625 6.1328125 C-1.10289307 5.38918457 -1.10812988 4.64555664 -1.11352539 3.87939453 C-1 2 -1 2 0 0 Z " fill="#FDD91E" transform="translate(437,62)"/>
<path d="M0 0 C0.66 0 1.32 0 2 0 C3.8990512 6.07696382 4.37208501 12.03457247 4.65795898 18.36328125 C4.83219363 22.26282311 4.83219363 22.26282311 5.5234375 26.09375 C6.20677298 28.82709194 6.09304681 31.43969374 6.0625 34.25 C6.05347656 35.32765625 6.04445313 36.4053125 6.03515625 37.515625 C6.02355469 38.33546875 6.01195312 39.1553125 6 40 C6.66 40 7.32 40 8 40 C8 41.32 8 42.64 8 44 C6.68 44 5.36 44 4 44 C3.505 42.515 3.505 42.515 3 41 C1.02 43.64 -0.96 46.28 -3 49 C-2.67 49.33 -2.34 49.66 -2 50 C-1.49053992 55.26442086 -1.49053992 55.26442086 -2 58 C-4.375 59.75 -4.375 59.75 -7 61 C-8.32793606 63.06700655 -8.32793606 63.06700655 -9 65 C-8.67 65.33 -8.34 65.66 -8 66 C-7.85884839 68.67058851 -7.95752893 71.32432238 -8 74 C-8.66 74 -9.32 74 -10 74 C-10 72.02 -10 70.04 -10 68 C-10.66 68 -11.32 68 -12 68 C-12 66.68 -12 65.36 -12 64 C-11.34 64 -10.68 64 -10 64 C-10 62.68 -10 61.36 -10 60 C-9.34 60 -8.68 60 -8 60 C-8.061875 59.175 -8.12375 58.35 -8.1875 57.5 C-7.99124049 53.83648911 -7.13454081 51.40365901 -5.796875 48.046875 C-2.75142997 40.22426129 -2.44351735 32.31011449 -2 24 C-1.34 24 -0.68 24 0 24 C0 16.08 0 8.16 0 0 Z " fill="#FCD51C" transform="translate(576,156)"/>
<path d="M0 0 C0.66 0 1.32 0 2 0 C2.495 3.465 2.495 3.465 3 7 C-1.75 8 -1.75 8 -4 8 C-4.66 9.98 -5.32 11.96 -6 14 C-7.32 14 -8.64 14 -10 14 C-10 14.66 -10 15.32 -10 16 C-11.65 16.33 -13.3 16.66 -15 17 C-15.495 19.475 -15.495 19.475 -16 22 C-17.65 22.33 -19.3 22.66 -21 23 C-20.01 23.33 -19.02 23.66 -18 24 C-17 27 -17 27 -18 30 C-18.66 30 -19.32 30 -20 30 C-20 29.34 -20 28.68 -20 28 C-21.32 28 -22.64 28 -24 28 C-24 27.34 -24 26.68 -24 26 C-25.04800781 26.01740234 -25.04800781 26.01740234 -26.1171875 26.03515625 C-27.02726563 26.04417969 -27.93734375 26.05320313 -28.875 26.0625 C-30.23238281 26.07990234 -30.23238281 26.07990234 -31.6171875 26.09765625 C-34 26 -34 26 -36 25 C-38.49457129 24.72620559 -40.98892067 24.55450855 -43.4921875 24.37890625 C-46.04057815 23.99386903 -47.7788664 23.27586046 -50 22 C-50 21.34 -50 20.68 -50 20 C-45.38 20 -40.76 20 -36 20 C-36 19.34 -36 18.68 -36 18 C-35.32453125 17.87882812 -34.6490625 17.75765625 -33.953125 17.6328125 C-33.06109375 17.46523437 -32.1690625 17.29765625 -31.25 17.125 C-30.36828125 16.96257812 -29.4865625 16.80015625 -28.578125 16.6328125 C-26.01117679 16.10347524 -26.01117679 16.10347524 -23.875 14.9375 C-21.23229983 13.61614992 -18.90616409 13.86790163 -16 14 C-16 13.34 -16 12.68 -16 12 C-14.68 12 -13.36 12 -12 12 C-12 11.34 -12 10.68 -12 10 C-10.68 10 -9.36 10 -8 10 C-8 9.34 -8 8.68 -8 8 C-7.34 8 -6.68 8 -6 8 C-6 7.34 -6 6.68 -6 6 C-5.34 6 -4.68 6 -4 6 C-4 5.34 -4 4.68 -4 4 C-3.34 4 -2.68 4 -2 4 C-2 3.34 -2 2.68 -2 2 C-1.34 2 -0.68 2 0 2 C0 1.34 0 0.68 0 0 Z " fill="#FACE1D" transform="translate(562,224)"/>
<path d="M0 0 C0.33 0 0.66 0 1 0 C1.68868502 2.66291542 2.35469646 5.32659962 3 8 C3.2475 9.010625 3.495 10.02125 3.75 11.0625 C4.06346305 14.74569084 3.18099467 17.52648626 2 21 C2.66 21 3.32 21 4 21 C4.33 22.65 4.66 24.3 5 26 C5.33 26 5.66 26 6 26 C6.33 31.28 6.66 36.56 7 42 C7.33 38.04 7.66 34.08 8 30 C8.66 30 9.32 30 10 30 C9.29855434 46.0224956 8.19063336 62.00703831 7 78 C6.67 78 6.34 78 6 78 C5.91435791 76.99622314 5.82871582 75.99244629 5.74047852 74.95825195 C5.42089426 71.22135018 5.09759502 67.48477741 4.77319336 63.74829102 C4.63351296 62.13346908 4.49482968 60.51856056 4.35717773 58.90356445 C4.15873374 56.57739968 3.95666329 54.25157357 3.75390625 51.92578125 C3.66321617 50.84892815 3.66321617 50.84892815 3.57069397 49.75032043 C3.2489247 46.10103616 2.73802632 42.58454049 2 39 C1.55038198 34.84149516 1.25594199 30.67041069 0.9375 26.5 C0.84662109 25.39140625 0.75574219 24.2828125 0.66210938 23.140625 C0.06453256 15.4125639 -0.10781118 7.74962701 0 0 Z " fill="#C76D0C" transform="translate(296,602)"/>
<path d="M0 0 C3.96 0 7.92 0 12 0 C12 0.66 12 1.32 12 2 C15.3 2 18.6 2 22 2 C22 1.34 22 0.68 22 0 C23.32 0 24.64 0 26 0 C26 0.66 26 1.32 26 2 C27.98 2 29.96 2 32 2 C32 3.32 32 4.64 32 6 C34.64 6 37.28 6 40 6 C40 5.34 40 4.68 40 4 C40.66 4 41.32 4 42 4 C42 5.32 42 6.64 42 8 C42.66 8 43.32 8 44 8 C44 7.34 44 6.68 44 6 C46.64 6 49.28 6 52 6 C52 7.32 52 8.64 52 10 C53.65 10 55.3 10 57 10 C57 10.33 57 10.66 57 11 C59.475 11.495 59.475 11.495 62 12 C62 12.66 62 13.32 62 14 C63.32 14 64.64 14 66 14 C66 15.32 66 16.64 66 18 C63.36 17.34 60.72 16.68 58 16 C58 15.34 58 14.68 58 14 C56.68 14 55.36 14 54 14 C54 13.34 54 12.68 54 12 C52.8553125 12.04769531 51.710625 12.09539062 50.53125 12.14453125 C45.88097903 12.14146648 41.91235398 11.05947393 37.5 9.6875 C31.57592023 7.93890728 25.7102607 6.44095553 19.625 5.375 C12.99246512 4.21198036 6.50442699 2.73697766 0 1 C0 0.67 0 0.34 0 0 Z " fill="#FAD324" transform="translate(134,390)"/>
<path d="M0 0 C0.66 0 1.32 0 2 0 C1.88930176 0.78310547 1.77860352 1.56621094 1.66455078 2.37304688 C-0.74550347 19.55690927 -2.79545174 36.68094635 -4 54 C-5.82294625 50.83973222 -6.34830918 48.26350903 -6.6328125 44.640625 C-6.71660156 43.60679687 -6.80039062 42.57296875 -6.88671875 41.5078125 C-6.96535156 40.43273437 -7.04398437 39.35765625 -7.125 38.25 C-7.21136719 37.19039062 -7.29773438 36.13078125 -7.38671875 35.0390625 C-7.83209521 29.34107164 -8.09662503 23.7146803 -8 18 C-6.68 17.34 -5.36 16.68 -4 16 C-4 16.66 -4 17.32 -4 18 C-3.34 18 -2.68 18 -2 18 C-2 14.04 -2 10.08 -2 6 C-2.66 6 -3.32 6 -4 6 C-4 5.34 -4 4.68 -4 4 C-3.01 4 -2.02 4 -1 4 C-0.67 2.68 -0.34 1.36 0 0 Z " fill="#D57003" transform="translate(442,198)"/>
<path d="M0 0 C0.66 0 1.32 0 2 0 C4.06896701 6.62069444 4.42409911 13.17670477 4.78125 20.0546875 C5.04005912 24.7224948 5.47527304 29.35560814 6 34 C5.34 34 4.68 34 4 34 C4 35.32 4 36.64 4 38 C2.68 38 1.36 38 0 38 C0 34.7 0 31.4 0 28 C-0.66 28 -1.32 28 -2 28 C-2 26.68 -2 25.36 -2 24 C-1.34 24 -0.68 24 0 24 C0 16.08 0 8.16 0 0 Z " fill="#FDD918" transform="translate(576,156)"/>
<path d="M0 0 C0.66 0 1.32 0 2 0 C2.06058594 1.27617187 2.12117188 2.55234375 2.18359375 3.8671875 C2.26799568 5.53647016 2.35264386 7.20574037 2.4375 8.875 C2.47681641 9.71675781 2.51613281 10.55851563 2.55664062 11.42578125 C2.59853516 12.23144531 2.64042969 13.03710938 2.68359375 13.8671875 C2.72025146 14.61081543 2.75690918 15.35444336 2.79467773 16.12060547 C2.89955865 18.08864312 2.89955865 18.08864312 4 20 C4.08372659 21.52148326 4.10730027 23.04655778 4.09765625 24.5703125 C4.09282227 25.91416016 4.09282227 25.91416016 4.08789062 27.28515625 C4.07951172 28.22230469 4.07113281 29.15945312 4.0625 30.125 C4.05798828 31.06988281 4.05347656 32.01476562 4.04882812 32.98828125 C4.03702357 35.32558387 4.02055759 37.66276061 4 40 C3.34 40 2.68 40 2 40 C2 39.34 2 38.68 2 38 C1.34 38 0.68 38 0 38 C0 37.34 0 36.68 0 36 C-0.66 36 -1.32 36 -2 36 C-2 34.68 -2 33.36 -2 32 C-0.68 32 0.64 32 2 32 C2 31.34 2 30.68 2 30 C1.34 30 0.68 30 0 30 C0 28.68 0 27.36 0 26 C-0.66 26 -1.32 26 -2 26 C-2 24.68 -2 23.36 -2 22 C-0.68 22 0.64 22 2 22 C2 21.34 2 20.68 2 20 C1.34 20 0.68 20 0 20 C0 13.4 0 6.8 0 0 Z " fill="#FBDE3C" transform="translate(308,160)"/>
<path d="M0 0 C0.33 0 0.66 0 1 0 C2.32915021 7.97490128 2.08801359 15.94186719 2 24 C2.66 24 3.32 24 4 24 C4 29.28 4 34.56 4 40 C3.34 40 2.68 40 2 40 C2 36.7 2 33.4 2 30 C1.34 30 0.68 30 0 30 C0 31.32 0 32.64 0 34 C-0.66 34 -1.32 34 -2 34 C-2.24020685 22.47007127 -1.74018655 11.40443688 0 0 Z " fill="#FBDF47" transform="translate(302,88)"/>
<path d="M0 0 C3.45854519 3.45854519 4 7.21904213 4 12 C4.66 12 5.32 12 6 12 C6.72726052 13.5747294 7.43120422 15.16024279 8.125 16.75 C8.51945312 17.63171875 8.91390625 18.5134375 9.3203125 19.421875 C10 22 10 22 9.25 24.25 C7.75207953 26.34708866 6.36810318 27.05275873 4 28 C4 27.34 4 26.68 4 26 C3.34 26 2.68 26 2 26 C2 25.34 2 24.68 2 24 C2.66 24 3.32 24 4 24 C4 21.36 4 18.72 4 16 C3.34 16 2.68 16 2 16 C1.855625 15.236875 1.71125 14.47375 1.5625 13.6875 C1.0367406 10.91827092 1.0367406 10.91827092 0 8 C-0.66 8 -1.32 8 -2 8 C-2 7.34 -2 6.68 -2 6 C-2.66 6 -3.32 6 -4 6 C-4 5.34 -4 4.68 -4 4 C-3.34 4 -2.68 4 -2 4 C-2 3.34 -2 2.68 -2 2 C-1.34 2 -0.68 2 0 2 C0 1.34 0 0.68 0 0 Z " fill="#F5C31C" transform="translate(328,276)"/>
<path d="M0 0 C1.32 0 2.64 0 4 0 C4 0.66 4 1.32 4 2 C5.32 2 6.64 2 8 2 C8 3.32 8 4.64 8 6 C6.68 6 5.36 6 4 6 C4 6.66 4 7.32 4 8 C2.68 8 1.36 8 0 8 C0 7.34 0 6.68 0 6 C-0.79664062 6.02320313 -1.59328125 6.04640625 -2.4140625 6.0703125 C-12.93848858 6.24956063 -12.93848858 6.24956063 -18 4 C-18 3.34 -18 2.68 -18 2 C-12.06 2 -6.12 2 0 2 C0 1.34 0 0.68 0 0 Z " fill="#FEDB1A" transform="translate(114,380)"/>
<path d="M0 0 C10.49534144 0.53774718 20.6680739 2.15625561 31 4 C24.53367868 8.31088088 15.60223422 8.29239362 8 8 C8.66 7.67 9.32 7.34 10 7 C10 6.34 10 5.68 10 5 C8.68 5 7.36 5 6 5 C6 4.34 6 3.68 6 3 C5.34 3 4.68 3 4 3 C4 2.34 4 1.68 4 1 C2.68 0.67 1.36 0.34 0 0 Z " fill="#CA7B1D" transform="translate(478,379)"/>
<path d="M0 0 C0.66 0 1.32 0 2 0 C2 1.32 2 2.64 2 4 C2.66 4 3.32 4 4 4 C4 3.34 4 2.68 4 2 C6.64 2 9.28 2 12 2 C12 3.32 12 4.64 12 6 C13.65 6 15.3 6 17 6 C17 6.33 17 6.66 17 7 C19.475 7.495 19.475 7.495 22 8 C22 8.66 22 9.32 22 10 C23.32 10 24.64 10 26 10 C26 11.32 26 12.64 26 14 C23.36 13.34 20.72 12.68 18 12 C18 11.34 18 10.68 18 10 C16.68 10 15.36 10 14 10 C14 9.34 14 8.68 14 8 C12.205625 8.061875 12.205625 8.061875 10.375 8.125 C6.57670047 8.13851708 3.55024382 7.42009753 0 6 C0 4.02 0 2.04 0 0 Z " fill="#F9CA13" transform="translate(174,394)"/>
<path d="M0 0 C0.33 0 0.66 0 1 0 C1.68868502 2.66291542 2.35469646 5.32659962 3 8 C3.2475 9.010625 3.495 10.02125 3.75 11.0625 C4.06346305 14.74569084 3.18099467 17.52648626 2 21 C2.66 21 3.32 21 4 21 C4.33 22.65 4.66 24.3 5 26 C5.33 26 5.66 26 6 26 C6.3690205 38.66970387 6.3690205 38.66970387 4 44 C3.67 44 3.34 44 3 44 C1.73945165 38.21110816 1.38780746 32.3973599 0.9375 26.5 C0.84662109 25.39140625 0.75574219 24.2828125 0.66210938 23.140625 C0.06453256 15.4125639 -0.10781118 7.74962701 0 0 Z " fill="#C47C2B" transform="translate(296,602)"/>
<path d="M0 0 C2.25056722 0.11433363 4.50046674 0.24186436 6.75 0.375 C8.62945313 0.47941406 8.62945313 0.47941406 10.546875 0.5859375 C13.69135017 0.96298995 15.29948437 1.52558054 18 3 C14.12541702 3.81449712 10.2502625 4.62624263 6.375 5.4375 C5.28058594 5.66759766 4.18617188 5.89769531 3.05859375 6.13476562 C1.46337891 6.46831055 1.46337891 6.46831055 -0.1640625 6.80859375 C-1.62513428 7.11494751 -1.62513428 7.11494751 -3.11572266 7.42749023 C-6.06878795 8.01365395 -9.02798195 8.52008269 -12 9 C-12 8.34 -12 7.68 -12 7 C-11.34 7 -10.68 7 -10 7 C-10 6.34 -10 5.68 -10 5 C-7.36 5 -4.72 5 -2 5 C-2 4.34 -2 3.68 -2 3 C-1.34 3 -0.68 3 0 3 C0 2.01 0 1.02 0 0 Z " fill="#D18219" transform="translate(628,243)"/>
<path d="M0 0 C0.66 0 1.32 0 2 0 C2.33 2.31 2.66 4.62 3 7 C-1.75 8 -1.75 8 -4 8 C-4.66 9.98 -5.32 11.96 -6 14 C-7.32 14 -8.64 14 -10 14 C-10 14.66 -10 15.32 -10 16 C-11.98 16 -13.96 16 -16 16 C-16 14.68 -16 13.36 -16 12 C-14.68 12 -13.36 12 -12 12 C-12 11.34 -12 10.68 -12 10 C-10.68 10 -9.36 10 -8 10 C-8 9.34 -8 8.68 -8 8 C-7.34 8 -6.68 8 -6 8 C-6 7.34 -6 6.68 -6 6 C-5.34 6 -4.68 6 -4 6 C-4 5.34 -4 4.68 -4 4 C-3.34 4 -2.68 4 -2 4 C-2 3.34 -2 2.68 -2 2 C-1.34 2 -0.68 2 0 2 C0 1.34 0 0.68 0 0 Z " fill="#F7C918" transform="translate(562,224)"/>
<path d="M0 0 C0.66 0 1.32 0 2 0 C2.84667854 9.41767049 3.37080683 18.5871264 2 28 C1.67 28.33 1.34 28.66 1 29 C0.63239269 31.32817964 0.29758419 33.6618385 0 36 C-0.66 36 -1.32 36 -2 36 C-2.02712153 34.083412 -2.04645097 32.1667127 -2.0625 30.25 C-2.07410156 29.18265625 -2.08570313 28.1153125 -2.09765625 27.015625 C-2 24 -2 24 -1.51367188 22.109375 C-0.9470646 19.78262271 -0.79090377 17.6258554 -0.68359375 15.234375 C-0.64169922 14.34492188 -0.59980469 13.45546875 -0.55664062 12.5390625 C-0.51732422 11.61867187 -0.47800781 10.69828125 -0.4375 9.75 C-0.39431641 8.81414062 -0.35113281 7.87828125 -0.30664062 6.9140625 C-0.2008195 4.60951359 -0.09873443 2.30486161 0 0 Z " fill="#FBDF46" transform="translate(296,144)"/>
<path d="M0 0 C0.33 0 0.66 0 1 0 C2.44796872 8.73952546 3.29211698 17.13911833 3 26 C2.34 26 1.68 26 1 26 C1 25.34 1 24.68 1 24 C0.34 24 -0.32 24 -1 24 C-1 24.66 -1 25.32 -1 26 C-1.66 26 -2.32 26 -3 26 C-3 24.02 -3 22.04 -3 20 C-2.34 20 -1.68 20 -1 20 C-1.01160156 18.72382812 -1.02320313 17.44765625 -1.03515625 16.1328125 C-1.04453417 14.46354313 -1.05363437 12.79427217 -1.0625 11.125 C-1.07087891 10.28324219 -1.07925781 9.44148438 -1.08789062 8.57421875 C-1.09111328 7.76855469 -1.09433594 6.96289062 -1.09765625 6.1328125 C-1.10289307 5.38918457 -1.10812988 4.64555664 -1.11352539 3.87939453 C-1 2 -1 2 0 0 Z " fill="#FBDE3D" transform="translate(437,62)"/>
<path d="M0 0 C0.66 0 1.32 0 2 0 C2 4.66666667 2 9.33333333 2 14 C2.04640625 14.75152344 2.0928125 15.50304687 2.140625 16.27734375 C2.17671875 17.15519531 2.2128125 18.03304687 2.25 18.9375 C2.29640625 19.81277344 2.3428125 20.68804687 2.390625 21.58984375 C2 24 2 24 -2 27 C-2 20.73 -2 14.46 -2 8 C-1.34 8 -0.68 8 0 8 C0 5.36 0 2.72 0 0 Z " fill="#FDDB18" transform="translate(294,180)"/>
<path d="M0 0 C0.99 0 1.98 0 3 0 C4.60725635 3.21451269 4.05748185 6.43612536 4 10 C4.66 10 5.32 10 6 10 C6.66 13.63 7.32 17.26 8 21 C6.68 21.33 5.36 21.66 4 22 C2.24836544 18.22777911 1.77509973 15.333361 1.875 11.1875 C1.89304687 10.21167969 1.91109375 9.23585937 1.9296875 8.23046875 C1.95289063 7.49441406 1.97609375 6.75835937 2 6 C1.34 6 0.68 6 0 6 C0 4.02 0 2.04 0 0 Z " fill="#F7CB1D" transform="translate(318,246)"/>
<path d="M0 0 C4.69023454 0.56606279 9.34500026 1.18537505 14 2 C14 2.66 14 3.32 14 4 C6.74 5.32 -0.52 6.64 -8 8 C-8 7.34 -8 6.68 -8 6 C-6.68 6 -5.36 6 -4 6 C-4 4.68 -4 3.36 -4 2 C-2.68 2 -1.36 2 0 2 C0 1.34 0 0.68 0 0 Z " fill="#D4821C" transform="translate(488,152)"/>
<path d="M0 0 C3.26737303 3.26737303 3.95672896 6.83168198 4.125 11.375 C4.08375 12.24125 4.0425 13.1075 4 14 C4.66 14 5.32 14 6 14 C6 15.98 6 17.96 6 20 C4.68 20 3.36 20 2 20 C1.67 18.35 1.34 16.7 1 15 C0.67 15 0.34 15 0 15 C0 13.35 0 11.7 0 10 C-0.66 10 -1.32 10 -2 10 C-2 8.02 -2 6.04 -2 4 C-1.34 4 -0.68 4 0 4 C0 2.68 0 1.36 0 0 Z " fill="#F7C61C" transform="translate(442,108)"/>
<path d="M0 0 C1.32 0 2.64 0 4 0 C4 1.98 4 3.96 4 6 C4.66 6 5.32 6 6 6 C6 6.66 6 7.32 6 8 C5.01 8.66 4.02 9.32 3 10 C1.92658625 11.18022109 0.88578846 12.39072062 -0.125 13.625 C-1.06235058 14.76754176 -2.01561436 15.89772386 -3 17 C-3.33 17 -3.66 17 -4 17 C-4 14.69 -4 12.38 -4 10 C-3.34 10 -2.68 10 -2 10 C-2 9.34 -2 8.68 -2 8 C-1.34 8 -0.68 8 0 8 C0 5.36 0 2.72 0 0 Z " fill="#FED014" transform="translate(282,258)"/>
<path d="M0 0 C0.66 0 1.32 0 2 0 C2 0.66 2 1.32 2 2 C2.66 2 3.32 2 4 2 C4 1.34 4 0.68 4 0 C4.66 0 5.32 0 6 0 C4.125 3.875 4.125 3.875 3 5 C2.95919217 6.99958364 2.95745644 9.00045254 3 11 C1.35 11.33 -0.3 11.66 -2 12 C-2 11.34 -2 10.68 -2 10 C-3.32 10 -4.64 10 -6 10 C-6 8.35 -6 6.7 -6 5 C-5.34 4.67 -4.68 4.34 -4 4 C-4 4.66 -4 5.32 -4 6 C-3.34 6 -2.68 6 -2 6 C-2 5.34 -2 4.68 -2 4 C-1.34 4 -0.68 4 0 4 C0 2.68 0 1.36 0 0 Z " fill="#F7C30E" transform="translate(406,152)"/>
<path d="M0 0 C0.66 0 1.32 0 2 0 C2.12117188 0.89460937 2.24234375 1.78921875 2.3671875 2.7109375 C3.14231708 8.30379557 3.91795776 13.85709264 5.125 19.375 C6.03585996 23.67312045 6.16244852 27.61389008 6 32 C5.01 32.495 5.01 32.495 4 33 C3.34 32.67 2.68 32.34 2 32 C2 31.34 2 30.68 2 30 C2.66 30 3.32 30 4 30 C4 27.36 4 24.72 4 22 C3.34 22 2.68 22 2 22 C2 18.7 2 15.4 2 12 C1.34 12 0.68 12 0 12 C0 8.04 0 4.08 0 0 Z " fill="#F8DA35" transform="translate(312,200)"/>
<path d="M0 0 C1.98 0 3.96 0 6 0 C6 0.66 6 1.32 6 2 C5.34 2 4.68 2 4 2 C4 2.66 4 3.32 4 4 C-4.48706897 8.43642241 -4.48706897 8.43642241 -9.25 7.0625 C-10.1575 6.711875 -11.065 6.36125 -12 6 C-12 5.34 -12 4.68 -12 4 C-10.02 4 -8.04 4 -6 4 C-6 3.34 -6 2.68 -6 2 C-4.02 2 -2.04 2 0 2 C0 1.34 0 0.68 0 0 Z " fill="#FCCF12" transform="translate(192,362)"/>
<path d="M0 0 C0.66 0 1.32 0 2 0 C2 0.66 2 1.32 2 2 C2.66 2 3.32 2 4 2 C4 2.66 4 3.32 4 4 C3.44570312 4.24234375 2.89140625 4.4846875 2.3203125 4.734375 C1.23363281 5.23710937 1.23363281 5.23710937 0.125 5.75 C-0.59429687 6.07484375 -1.31359375 6.3996875 -2.0546875 6.734375 C-4.36105544 8.23490354 -4.82364497 9.56886627 -6 12 C-9.125 13.25 -9.125 13.25 -12 14 C-12 13.34 -12 12.68 -12 12 C-12.66 12 -13.32 12 -14 12 C-14 11.34 -14 10.68 -14 10 C-12.68 10 -11.36 10 -10 10 C-10 9.34 -10 8.68 -10 8 C-9.34 8 -8.68 8 -8 8 C-8 7.34 -8 6.68 -8 6 C-6.68 6 -5.36 6 -4 6 C-4 5.34 -4 4.68 -4 4 C-3.34 4 -2.68 4 -2 4 C-2 3.34 -2 2.68 -2 2 C-1.34 2 -0.68 2 0 2 C0 1.34 0 0.68 0 0 Z " fill="#F7CC1B" transform="translate(236,338)"/>
<path d="M0 0 C0.66 0 1.32 0 2 0 C2 0.66 2 1.32 2 2 C3.65 2 5.3 2 7 2 C6.67 3.98 6.34 5.96 6 8 C0.72 6.68 -4.56 5.36 -10 4 C-10 3.34 -10 2.68 -10 2 C-6.7 2 -3.4 2 0 2 C0 1.34 0 0.68 0 0 Z " fill="#FBCF0D" transform="translate(394,154)"/>
<path d="M0 0 C2.1446143 2.1446143 2.44564603 3.01739998 3.125 5.875 C3.29257812 6.55304688 3.46015625 7.23109375 3.6328125 7.9296875 C4 10 4 10 4 14 C4.66 14 5.32 14 6 14 C6 15.32 6 16.64 6 18 C6.66 18 7.32 18 8 18 C8 18.66 8 19.32 8 20 C4.25 21.125 4.25 21.125 2 20 C1.875 14.25 1.875 14.25 3 12 C2.01 12.33 1.02 12.66 0 13 C0 8.71 0 4.42 0 0 Z " fill="#F2C42D" transform="translate(584,202)"/>
<path d="M0 0 C1.32 0 2.64 0 4 0 C2.26 9.86 2.26 9.86 -1.625 13.375 C-2.40875 13.91125 -3.1925 14.4475 -4 15 C-4 12.69 -4 10.38 -4 8 C-3.34 8 -2.68 8 -2 8 C-2 6.68 -2 5.36 -2 4 C-1.34 4 -0.68 4 0 4 C0 2.68 0 1.36 0 0 Z " fill="#F8CA18" transform="translate(428,120)"/>
<path d="M0 0 C4.62 0 9.24 0 14 0 C14 0.66 14 1.32 14 2 C15.32 2 16.64 2 18 2 C18 2.66 18 3.32 18 4 C15.75026553 4.054138 13.50015617 4.09285491 11.25 4.125 C9.99703125 4.14820313 8.7440625 4.17140625 7.453125 4.1953125 C4.27179508 4.01537302 2.63478104 3.68998582 0 2 C0 1.34 0 0.68 0 0 Z " fill="#FFD70C" transform="translate(512,244)"/>
<path d="M0 0 C0.66 0 1.32 0 2 0 C2.72767003 1.23884319 3.43154815 2.49168341 4.125 3.75 C4.51945312 4.44609375 4.91390625 5.1421875 5.3203125 5.859375 C6 8 6 8 5.25 10.1875 C3.76007009 12.34789837 2.40928735 13.03628506 0 14 C0 13.34 0 12.68 0 12 C-0.66 12 -1.32 12 -2 12 C-2 11.34 -2 10.68 -2 10 C-1.34 10 -0.68 10 0 10 C0 6.7 0 3.4 0 0 Z " fill="#F0BB15" transform="translate(332,290)"/>
<path d="M0 0 C0.99 0.33 1.98 0.66 3 1 C3.5 3.5 3.5 3.5 3 7 C0.63715095 10.01020496 -1.99876652 12.62553014 -5 15 C-5.66 15 -6.32 15 -7 15 C-7 14.34 -7 13.68 -7 13 C-6.34 13 -5.68 13 -5 13 C-4.34 10.36 -3.68 7.72 -3 5 C-2.34 5 -1.68 5 -1 5 C-0.67 3.35 -0.34 1.7 0 0 Z " fill="#F8D029" transform="translate(269,293)"/>
<path d="M0 0 C1.32 0 2.64 0 4 0 C4 5.94 4 11.88 4 18 C2 16 2 16 1.875 12.875 C1.91625 11.92625 1.9575 10.9775 2 10 C1.34 10 0.68 10 0 10 C0 6.7 0 3.4 0 0 Z " fill="#F9F4C9" transform="translate(576,146)"/>
<path d="M0 0 C0.33 0 0.66 0 1 0 C1.02716824 2.54173977 1.04691969 5.08318415 1.0625 7.625 C1.07087891 8.33785156 1.07925781 9.05070312 1.08789062 9.78515625 C1.10710296 13.97344438 0.8267327 17.8728462 0 22 C-0.66 22 -1.32 22 -2 22 C-3.65497356 18.69005287 -3.10084335 15.00877 -3.0625 11.375 C-3.05798828 10.57320313 -3.05347656 9.77140625 -3.04882812 8.9453125 C-3.03703168 6.96350994 -3.01909605 4.98174567 -3 3 C-2.67 3 -2.34 3 -2 3 C-1.67 5.31 -1.34 7.62 -1 10 C-0.67 6.7 -0.34 3.4 0 0 Z " fill="#ECCCB1" transform="translate(579,322)"/>
<path d="M0 0 C0.33 1.32 0.66 2.64 1 4 C1.66 4 2.32 4 3 4 C1.50163895 7.11198065 -0.19933758 10.0534615 -2 13 C-1.67 13.33 -1.34 13.66 -1 14 C-0.85884839 16.67058851 -0.95752893 19.32432238 -1 22 C-1.66 22 -2.32 22 -3 22 C-3 20.02 -3 18.04 -3 16 C-3.66 16 -4.32 16 -5 16 C-5 14.68 -5 13.36 -5 12 C-4.34 12 -3.68 12 -3 12 C-3 10.68 -3 9.36 -3 8 C-2.34 8 -1.68 8 -1 8 C-1.020625 7.05125 -1.04125 6.1025 -1.0625 5.125 C-1 2 -1 2 0 0 Z " fill="#F8CB23" transform="translate(569,208)"/>
<path d="M0 0 C0.33 0 0.66 0 1 0 C3.72464924 10.02040425 2.78341357 19.78386363 2 30 C1.67 30 1.34 30 1 30 C0.69010993 25.88874113 0.3871067 21.77703959 0.09057617 17.66479492 C-0.01135447 16.26491492 -0.11519131 14.86517239 -0.22094727 13.46557617 C-0.37232338 11.4578883 -0.51635601 9.44965096 -0.66015625 7.44140625 C-0.74918213 6.23170166 -0.83820801 5.02199707 -0.92993164 3.77563477 C-0.9530542 2.85967529 -0.97617676 1.94371582 -1 1 C-0.67 0.67 -0.34 0.34 0 0 Z " fill="#C06E23" transform="translate(301,650)"/>
<path d="M0 0 C0.66 0 1.32 0 2 0 C2.05401695 2.91691525 2.09368066 5.83282724 2.125 8.75 C2.15013672 9.9875 2.15013672 9.9875 2.17578125 11.25 C2.18222656 12.04921875 2.18867188 12.8484375 2.1953125 13.671875 C2.20578613 14.4050293 2.21625977 15.13818359 2.22705078 15.89355469 C1.96777544 18.29896076 1.19225925 19.91251494 0 22 C-0.66 22 -1.32 22 -2 22 C-2.125 16.25 -2.125 16.25 -1 14 C-0.76970044 11.62876754 -0.58880058 9.25258057 -0.4375 6.875 C-0.35371094 5.59367188 -0.26992188 4.31234375 -0.18359375 2.9921875 C-0.09271484 1.51105469 -0.09271484 1.51105469 0 0 Z " fill="#FAE048" transform="translate(290,200)"/>
<path d="M0 0 C0.66 0 1.32 0 2 0 C2.05384521 2.29141286 2.09272087 4.58318188 2.125 6.875 C2.14820313 8.15117188 2.17140625 9.42734375 2.1953125 10.7421875 C2 14 2 14 0 16 C-0.39764263 17.98821313 -0.73775349 19.98944339 -1 22 C-1.33 22 -1.66 22 -2 22 C-2 16.06 -2 10.12 -2 4 C-1.34 4 -0.68 4 0 4 C0 2.68 0 1.36 0 0 Z " fill="#FAF7CE" transform="translate(302,82)"/>
<path d="M0 0 C0.66 0 1.32 0 2 0 C2 1.32 2 2.64 2 4 C2.66 4 3.32 4 4 4 C3.34 5.32 2.68 6.64 2 8 C1.34 8 0.68 8 0 8 C0 10.64 0 13.28 0 16 C-0.66 16 -1.32 16 -2 16 C-2 16.66 -2 17.32 -2 18 C-2.66 18 -3.32 18 -4 18 C-4 16.68 -4 15.36 -4 14 C-3.34 14 -2.68 14 -2 14 C-2 11.36 -2 8.72 -2 6 C-1.34 6 -0.68 6 0 6 C0 4.02 0 2.04 0 0 Z " fill="#F9DB38" transform="translate(282,250)"/>
<path d="M0 0 C0.66 0 1.32 0 2 0 C2 0.66 2 1.32 2 2 C2.66 2 3.32 2 4 2 C4 2.66 4 3.32 4 4 C4.66 4 5.32 4 6 4 C7.09658936 7.28976808 6.79953138 8.71303767 6 12 C4.85073734 11.04578192 3.70569459 10.08647955 2.5625 9.125 C1.92441406 8.59132812 1.28632813 8.05765625 0.62890625 7.5078125 C-1 6 -1 6 -2 4 C-1.34 4 -0.68 4 0 4 C0 2.68 0 1.36 0 0 Z " fill="#E4B117" transform="translate(416,164)"/>
<path d="M0 0 C0.66 0 1.32 0 2 0 C2 2.64 2 5.28 2 8 C1.01 8.33 0.02 8.66 -1 9 C-1.33 9.99 -1.66 10.98 -2 12 C-2.66 12 -3.32 12 -4 12 C-4 11.34 -4 10.68 -4 10 C-4.66 10 -5.32 10 -6 10 C-6 9.34 -6 8.68 -6 8 C-5.34 8 -4.68 8 -4 8 C-4 6.68 -4 5.36 -4 4 C-3.34 4 -2.68 4 -2 4 C-2 3.34 -2 2.68 -2 2 C-1.34 2 -0.68 2 0 2 C0 1.34 0 0.68 0 0 Z " fill="#FDD10C" transform="translate(440,102)"/>
<path d="M0 0 C0.33 0.66 0.66 1.32 1 2 C1.66 2 2.32 2 3 2 C3 2.66 3 3.32 3 4 C3.66 4 4.32 4 5 4 C3.66666667 6.66666667 2.33333333 9.33333333 1 12 C-0.32 12 -1.64 12 -3 12 C-3 10.68 -3 9.36 -3 8 C-2.34 8 -1.68 8 -1 8 C-1.020625 7.05125 -1.04125 6.1025 -1.0625 5.125 C-1 2 -1 2 0 0 Z " fill="#FAD534" transform="translate(431,108)"/>
<path d="M0 0 C0.66 0 1.32 0 2 0 C1.34 9.24 0.68 18.48 0 28 C-2.03404654 23.93190692 -2.24655953 22.22048871 -2.1875 17.8125 C-2.18105469 16.74644531 -2.17460937 15.68039063 -2.16796875 14.58203125 C-2 12 -2 12 -1 11 C-0.76636119 9.15108054 -0.58696365 7.29511969 -0.4375 5.4375 C-0.35371094 4.42558594 -0.26992188 3.41367188 -0.18359375 2.37109375 C-0.12300781 1.58863281 -0.06242187 0.80617187 0 0 Z " fill="#CC8444" transform="translate(438,224)"/>
<path d="M0 0 C0.66 0 1.32 0 2 0 C2 3.96 2 7.92 2 12 C1.34 12 0.68 12 0 12 C0 11.34 0 10.68 0 10 C-0.66 10 -1.32 10 -2 10 C-2 9.34 -2 8.68 -2 8 C-2.66 8 -3.32 8 -4 8 C-4 6.68 -4 5.36 -4 4 C-2.68 4 -1.36 4 0 4 C0 2.68 0 1.36 0 0 Z " fill="#FFDF02" transform="translate(310,188)"/>
<path d="M0 0 C0 1.98 0 3.96 0 6 C-1.32 6 -2.64 6 -4 6 C-4 5.34 -4 4.68 -4 4 C-6.64 4 -9.28 4 -12 4 C-12 3.34 -12 2.68 -12 2 C-10.7625 1.67 -9.525 1.34 -8.25 1 C-7.55390625 0.814375 -6.8578125 0.62875 -6.140625 0.4375 C-4 0 -4 0 0 0 Z " fill="#FBDC3D" transform="translate(384,152)"/>
<path d="M0 0 C2 2 2 2 2.1953125 5.6953125 C2.182009 7.17200108 2.15814835 8.64862358 2.125 10.125 C2.11597656 10.87910156 2.10695313 11.63320312 2.09765625 12.41015625 C2.0740687 14.27357254 2.03819719 16.13682593 2 18 C1.34 18 0.68 18 0 18 C0 16.02 0 14.04 0 12 C-0.66 12 -1.32 12 -2 12 C-2 10.68 -2 9.36 -2 8 C-1.34 8 -0.68 8 0 8 C0 5.36 0 2.72 0 0 Z " fill="#FCDF28" transform="translate(306,142)"/>
<path d="M0 0 C0.33 0 0.66 0 1 0 C1.32417212 9.50904899 0.33418593 18.61304896 -1 28 C-1.33 28 -1.66 28 -2 28 C-2.20166126 18.44349683 -2.26439611 9.36085176 0 0 Z " fill="#C0752D" transform="translate(310,580)"/>
<path d="M0 0 C0 2.64 0 5.28 0 8 C-0.66 8 -1.32 8 -2 8 C-2 11.3 -2 14.6 -2 18 C-2.33 18 -2.66 18 -3 18 C-3.24809955 15.3755252 -3.4741699 12.75232855 -3.6875 10.125 C-3.76033203 9.37863281 -3.83316406 8.63226563 -3.90820312 7.86328125 C-4.07421875 5.6953125 -4.07421875 5.6953125 -4 2 C-1 0 -1 0 0 0 Z " fill="#C68123" transform="translate(438,214)"/>
<path d="M0 0 C1.98 0 3.96 0 6 0 C5.34 1.98 4.68 3.96 4 6 C2.02 6 0.04 6 -2 6 C-2 4.68 -2 3.36 -2 2 C-1.34 2 -0.68 2 0 2 C0 1.34 0 0.68 0 0 Z " fill="#F7CC0B" transform="translate(210,354)"/>
<path d="M0 0 C0 0.66 0 1.32 0 2 C-1.24460783 2.67667998 -2.49596896 3.34094719 -3.75 4 C-4.44609375 4.37125 -5.1421875 4.7425 -5.859375 5.125 C-8 6 -8 6 -12 6 C-12 5.34 -12 4.68 -12 4 C-13.32 3.67 -14.64 3.34 -16 3 C-15.15695313 2.86722656 -14.31390625 2.73445313 -13.4453125 2.59765625 C-12.34960938 2.42105469 -11.25390625 2.24445313 -10.125 2.0625 C-8.48917969 1.80146484 -8.48917969 1.80146484 -6.8203125 1.53515625 C-4.32604896 1.06186802 -2.49236265 0 0 0 Z " fill="#F9DB42" transform="translate(156,372)"/>
<path d="M0 0 C1.32 0.33 2.64 0.66 4 1 C3.34 6.28 2.68 11.56 2 17 C1.67 17 1.34 17 1 17 C0.67 11.39 0.34 5.78 0 0 Z " fill="#AD6F46" transform="translate(576,319)"/>
<path d="M0 0 C0.66 0 1.32 0 2 0 C1.01 6.6 0.02 13.2 -1 20 C-1.33 20 -1.66 20 -2 20 C-2 15.38 -2 10.76 -2 6 C-2.66 6 -3.32 6 -4 6 C-4 5.34 -4 4.68 -4 4 C-3.01 4 -2.02 4 -1 4 C-0.67 2.68 -0.34 1.36 0 0 Z " fill="#CF822A" transform="translate(442,198)"/>
<path d="M0 0 C0.66 0 1.32 0 2 0 C3.13764351 4.26616316 4 7.56486311 4 12 C2.68 12 1.36 12 0 12 C0 8.04 0 4.08 0 0 Z " fill="#F9E364" transform="translate(576,156)"/>
<path d="M0 0 C-3.40219265 2.74792483 -7.48464588 6 -12 6 C-12 4.68 -12 3.36 -12 2 C-7.8794254 0.00214565 -4.54805635 -0.17835515 0 0 Z " fill="#D68D16" transform="translate(402,408)"/>
<path d="M0 0 C-0.66 1.32 -1.32 2.64 -2 4 C-2.66 4 -3.32 4 -4 4 C-4 4.66 -4 5.32 -4 6 C-5.32 6 -6.64 6 -8 6 C-8 5.34 -8 4.68 -8 4 C-9.32 3.67 -10.64 3.34 -12 3 C-10.37604003 2.49663233 -8.75079459 1.99741024 -7.125 1.5 C-6.22007812 1.2215625 -5.31515625 0.943125 -4.3828125 0.65625 C-2 0 -2 0 0 0 Z " fill="#FAD53B" transform="translate(180,366)"/>
<path d="M0 0 C1.65 0 3.3 0 5 0 C5.33 1.32 5.66 2.64 6 4 C4.576875 4.4640625 4.576875 4.4640625 3.125 4.9375 C0.13919592 5.87394742 0.13919592 5.87394742 -2 7 C-2 5.35 -2 3.7 -2 2 C-1.34 2 -0.68 2 0 2 C0 1.34 0 0.68 0 0 Z " fill="#F8CB17" transform="translate(262,308)"/>
<path d="M0 0 C0.66 0 1.32 0 2 0 C2.33 4.29 2.66 8.58 3 13 C2.01 13.66 1.02 14.32 0 15 C0 10.05 0 5.1 0 0 Z " fill="#FEDA04" transform="translate(298,136)"/>
<path d="M0 0 C2.64 0 5.28 0 8 0 C8 1.32 8 2.64 8 4 C6.02 4.33 4.04 4.66 2 5 C2 4.01 2 3.02 2 2 C1.34 2 0.68 2 0 2 C0 1.34 0 0.68 0 0 Z " fill="#FBCA0A" transform="translate(270,292)"/>
<path d="M0 0 C0.66 0 1.32 0 2 0 C1.67 1.65 1.34 3.3 1 5 C-0.65 5.33 -2.3 5.66 -4 6 C-4 5.34 -4 4.68 -4 4 C-4.66 4 -5.32 4 -6 4 C-6 3.34 -6 2.68 -6 2 C-4.02 2 -2.04 2 0 2 C0 1.34 0 0.68 0 0 Z " fill="#F7CE32" transform="translate(408,144)"/>
<path d="M0 0 C0.66 0 1.32 0 2 0 C2 1.32 2 2.64 2 4 C2.66 4 3.32 4 4 4 C4 7.96 4 11.92 4 16 C2.14316785 12.28633571 1.48888644 9.7841109 0.875 5.75 C0.70742188 4.67234375 0.53984375 3.5946875 0.3671875 2.484375 C0.24601562 1.66453125 0.12484375 0.8446875 0 0 Z " fill="#D68E2E" transform="translate(284,524)"/>
<path d="M0 0 C3.96 0 7.92 0 12 0 C12 1.32 12 2.64 12 4 C6.06 2.515 6.06 2.515 0 1 C0 0.67 0 0.34 0 0 Z " fill="#F5D149" transform="translate(162,396)"/>
<path d="M0 0 C3.96 0 7.92 0 12 0 C12 0.66 12 1.32 12 2 C12.66 2 13.32 2 14 2 C14 2.66 14 3.32 14 4 C12.04020573 3.71831703 10.08217622 3.42433283 8.125 3.125 C6.48917969 2.88136719 6.48917969 2.88136719 4.8203125 2.6328125 C2 2 2 2 0 0 Z " fill="#F8DB49" transform="translate(134,390)"/>
<path d="M0 0 C2.64 0 5.28 0 8 0 C8 0.66 8 1.32 8 2 C8.66 2 9.32 2 10 2 C10 2.66 10 3.32 10 4 C2.25 3.125 2.25 3.125 0 2 C0 1.34 0 0.68 0 0 Z " fill="#F9E263" transform="translate(96,382)"/>
<path d="M0 0 C0.66 0 1.32 0 2 0 C2 1.32 2 2.64 2 4 C2.66 4 3.32 4 4 4 C2.48601545 7.78496138 1.9855604 8.0072198 -2 10 C-1.34 6.7 -0.68 3.4 0 0 Z " fill="#F8D433" transform="translate(276,272)"/>
<path d="M0 0 C1.32 0 2.64 0 4 0 C4 2.64 4 5.28 4 8 C3.34 8 2.68 8 2 8 C2 7.34 2 6.68 2 6 C1.34 6 0.68 6 0 6 C0 4.02 0 2.04 0 0 Z " fill="#FCCE08" transform="translate(570,206)"/>
<path d="M0 0 C1.32 0 2.64 0 4 0 C4.1953125 6.0546875 4.1953125 6.0546875 4 8 C3.34 8.66 2.68 9.32 2 10 C0.68373308 6.38026598 0 3.90432869 0 0 Z " fill="#DF970B" transform="translate(428,186)"/>
<path d="M0 0 C1.32 0 2.64 0 4 0 C4 0.66 4 1.32 4 2 C4.66 2.33 5.32 2.66 6 3 C0.25 6 0.25 6 -2 6 C-2 4.68 -2 3.36 -2 2 C-1.34 2 -0.68 2 0 2 C0 1.34 0 0.68 0 0 Z " fill="#D7921F" transform="translate(466,160)"/>
<path d="M0 0 C0.66 0 1.32 0 2 0 C2 0.66 2 1.32 2 2 C2.66 2 3.32 2 4 2 C4 2.66 4 3.32 4 4 C4.66 4.33 5.32 4.66 6 5 C5 6 5 6 2.4375 6.0625 C1.2309375 6.0315625 1.2309375 6.0315625 0 6 C0 5.34 0 4.68 0 4 C-0.66 4 -1.32 4 -2 4 C-2 3.34 -2 2.68 -2 2 C-1.34 2 -0.68 2 0 2 C0 1.34 0 0.68 0 0 Z " fill="#EAB020" transform="translate(594,226)"/>
<path d="M0 0 C0.66 0 1.32 0 2 0 C2 0.66 2 1.32 2 2 C3.32 2 4.64 2 6 2 C6 3.32 6 4.64 6 6 C3.36 5.34 0.72 4.68 -2 4 C-2 3.34 -2 2.68 -2 2 C-1.34 2 -0.68 2 0 2 C0 1.34 0 0.68 0 0 Z " fill="#F2C82D" transform="translate(194,402)"/>
<path d="M0 0 C2.64 0 5.28 0 8 0 C8 0.99 8 1.98 8 3 C5.00519083 3.8723412 2.36424089 4.10829766 -0.75 4.0625 C-1.54921875 4.05347656 -2.3484375 4.04445313 -3.171875 4.03515625 C-3.77515625 4.02355469 -4.3784375 4.01195312 -5 4 C-5 3.67 -5 3.34 -5 3 C-1.535 2.505 -1.535 2.505 2 2 C1.34 1.34 0.68 0.68 0 0 Z " fill="#F1DABD" transform="translate(504,382)"/>
<path d="M0 0 C1.31534494 3.65857532 0.65468309 6.08026481 -0.4375 9.75 C-0.86869141 11.22726562 -0.86869141 11.22726562 -1.30859375 12.734375 C-1.53675781 13.48203125 -1.76492188 14.2296875 -2 15 C-2.33 15 -2.66 15 -3 15 C-3 12.03 -3 9.06 -3 6 C-2.34 6 -1.68 6 -1 6 C-0.67 4.02 -0.34 2.04 0 0 Z " fill="#D3881F" transform="translate(325,498)"/>
<path d="M0 0 C0.66 0 1.32 0 2 0 C1.67 1.32 1.34 2.64 1 4 C1.99 4 2.98 4 4 4 C3.45276317 7.37462715 2.9451 9.08235 1 12 C0.67 8.04 0.34 4.08 0 0 Z " fill="#D08724" transform="translate(432,202)"/>
<path d="M0 0 C3.96 0 7.92 0 12 0 C9.50494038 2.49505962 8.32671112 2.35948376 4.875 2.625 C3.96492188 2.69976562 3.05484375 2.77453125 2.1171875 2.8515625 C1.06917969 2.92503906 1.06917969 2.92503906 0 3 C0 2.01 0 1.02 0 0 Z " fill="#D37F11" transform="translate(446,392)"/>
<path d="M0 0 C1.98 0 3.96 0 6 0 C6 1.32 6 2.64 6 4 C4.02 4 2.04 4 0 4 C0 2.68 0 1.36 0 0 Z " fill="#FED009" transform="translate(160,392)"/>
<path d="M0 0 C1.32 0 2.64 0 4 0 C4 0.66 4 1.32 4 2 C5.32 2 6.64 2 8 2 C8 2.66 8 3.32 8 4 C5.36 4 2.72 4 0 4 C0 2.68 0 1.36 0 0 Z " fill="#FDDA2A" transform="translate(124,378)"/>
<path d="M0 0 C1.32 0 2.64 0 4 0 C4 1.32 4 2.64 4 4 C1.36 4.66 -1.28 5.32 -4 6 C-4 5.34 -4 4.68 -4 4 C-2.68 4 -1.36 4 0 4 C0 2.68 0 1.36 0 0 Z " fill="#CE8713" transform="translate(484,154)"/>
<path d="M0 0 C1.32 0 2.64 0 4 0 C3.01 3.3 2.02 6.6 1 10 C0.67 10 0.34 10 0 10 C0 6.7 0 3.4 0 0 Z " fill="#D08F26" transform="translate(328,482)"/>
<path d="M0 0 C0.66 0 1.32 0 2 0 C2 0.66 2 1.32 2 2 C2.66 2 3.32 2 4 2 C4 3.32 4 4.64 4 6 C1.83125748 5.49396008 0.00032373 5.00016187 -2 4 C-2 3.34 -2 2.68 -2 2 C-1.34 2 -0.68 2 0 2 C0 1.34 0 0.68 0 0 Z " fill="#ECB72F" transform="translate(236,424)"/>
<path d="M0 0 C1.98 0 3.96 0 6 0 C6.33 0.99 6.66 1.98 7 3 C5.02 3.99 5.02 3.99 3 5 C2.67 4.01 2.34 3.02 2 2 C1.34 2 0.68 2 0 2 C0 1.34 0 0.68 0 0 Z " fill="#F9C50F" transform="translate(238,338)"/>
<path d="M0 0 C1.98 0.99 1.98 0.99 4 2 C4.75 4.625 4.75 4.625 5 7 C4.01 7.66 3.02 8.32 2 9 C1.34 6.03 0.68 3.06 0 0 Z " fill="#D7901C" transform="translate(570,284)"/>
<path d="M0 0 C0.66 1.32 1.32 2.64 2 4 C1.34 4 0.68 4 0 4 C0 5.32 0 6.64 0 8 C-0.66 8 -1.32 8 -2 8 C-2 7.34 -2 6.68 -2 6 C-2.66 6 -3.32 6 -4 6 C-4 5.34 -4 4.68 -4 4 C-3.34 4 -2.68 4 -2 4 C-2 3.34 -2 2.68 -2 2 C-1.34 2 -0.68 2 0 2 C0 1.34 0 0.68 0 0 Z " fill="#F3BF2E" transform="translate(328,276)"/>
<path d="M0 0 C0.66 0 1.32 0 2 0 C2 0.66 2 1.32 2 2 C2.66 2 3.32 2 4 2 C4 2.66 4 3.32 4 4 C3.34 4 2.68 4 2 4 C1.67 5.32 1.34 6.64 1 8 C0.01 6.68 -0.98 5.36 -2 4 C-1.34 4 -0.68 4 0 4 C0 2.68 0 1.36 0 0 Z " fill="#E7B521" transform="translate(416,164)"/>
<path d="M0 0 C2.64 0 5.28 0 8 0 C8 0.66 8 1.32 8 2 C5.36 2.66 2.72 3.32 0 4 C0 2.68 0 1.36 0 0 Z " fill="#FED31E" transform="translate(142,378)"/>
<path d="M0 0 C5.53846154 -0.36923077 5.53846154 -0.36923077 7.875 1.5 C8.24625 1.995 8.6175 2.49 9 3 C5.23375329 4.25541557 3.62811066 3.37061958 0 2 C0 1.34 0 0.68 0 0 Z " fill="#DD950A" transform="translate(412,364)"/>
<path d="M0 0 C0.66 0 1.32 0 2 0 C2 0.66 2 1.32 2 2 C2.66 2 3.32 2 4 2 C4 2.66 4 3.32 4 4 C2.02 4.66 0.04 5.32 -2 6 C-2 4.68 -2 3.36 -2 2 C-1.34 2 -0.68 2 0 2 C0 1.34 0 0.68 0 0 Z " fill="#F9CA37" transform="translate(236,338)"/>
<path d="M0 0 C0.66 0 1.32 0 2 0 C3.46726798 3.81489674 2.43336419 6.29011622 1 10 C0.67 10 0.34 10 0 10 C0 6.7 0 3.4 0 0 Z " fill="#D16D07" transform="translate(298,623)"/>
<path d="M0 0 C3.3 0 6.6 0 10 0 C5.60171741 2.1991413 2.81449408 2.51855059 -2 3 C-1.34 2.67 -0.68 2.34 0 2 C0 1.34 0 0.68 0 0 Z " fill="#CC9232" transform="translate(418,400)"/>
<path d="M0 0 C0.66 0 1.32 0 2 0 C2 1.98 2 3.96 2 6 C0.68 6 -0.64 6 -2 6 C-2 4.68 -2 3.36 -2 2 C-1.34 2 -0.68 2 0 2 C0 1.34 0 0.68 0 0 Z " fill="#EFB817" transform="translate(340,306)"/>
<path d="M0 0 C1.485 0.99 1.485 0.99 3 2 C3.1875 5.625 3.1875 5.625 3 9 C2.01 9.495 2.01 9.495 1 10 C0.67 6.7 0.34 3.4 0 0 Z " fill="#D2841B" transform="translate(573,294)"/>
<path d="M0 0 C1.98 0 3.96 0 6 0 C6 0.66 6 1.32 6 2 C3.36 2.66 0.72 3.32 -2 4 C-2 3.34 -2 2.68 -2 2 C-1.34 2 -0.68 2 0 2 C0 1.34 0 0.68 0 0 Z " fill="#D58D1A" transform="translate(618,248)"/>
<path d="M0 0 C2.64 0.33 5.28 0.66 8 1 C8 1.33 8 1.66 8 2 C-0.03571429 4.27678571 -0.03571429 4.27678571 -4 3 C-2.68 2.67 -1.36 2.34 0 2 C0 1.34 0 0.68 0 0 Z " fill="#D39456" transform="translate(638,244)"/>
<path d="M0 0 C0.66 0 1.32 0 2 0 C2 1.98 2 3.96 2 6 C0.68 6 -0.64 6 -2 6 C-2 4.68 -2 3.36 -2 2 C-1.34 2 -0.68 2 0 2 C0 1.34 0 0.68 0 0 Z " fill="#FAC70A" transform="translate(554,232)"/>
<path d="M0 0 C1.32 0 2.64 0 4 0 C4 1.98 4 3.96 4 6 C3.34 6 2.68 6 2 6 C2 5.34 2 4.68 2 4 C1.34 4 0.68 4 0 4 C0 2.68 0 1.36 0 0 Z " fill="#FFD622" transform="translate(306,192)"/>
<path d="M0 0 C1.32 0 2.64 0 4 0 C4 1.98 4 3.96 4 6 C3.34 6 2.68 6 2 6 C2 5.34 2 4.68 2 4 C1.34 4 0.68 4 0 4 C0 2.68 0 1.36 0 0 Z " fill="#FDDB3D" transform="translate(574,180)"/>
<path d="M0 0 C2.31 0.66 4.62 1.32 7 2 C6.67 2.66 6.34 3.32 6 4 C4.02 4 2.04 4 0 4 C0 2.68 0 1.36 0 0 Z " fill="#D78B10" transform="translate(438,370)"/>
<path d="M0 0 C0.66 0 1.32 0 2 0 C2 3 2 3 -0.375 5.625 C-3 8 -3 8 -5 9 C-3.7580393 5.56072421 -2.44259716 2.74792181 0 0 Z " fill="#F4F1E1" transform="translate(596,263)"/>
<path d="M0 0 C3.26954202 0.56371414 4.82575883 1.49962266 7 4 C6.67 4.66 6.34 5.32 6 6 C5.34 6 4.68 6 4 6 C4 5.34 4 4.68 4 4 C3.34 4 2.68 4 2 4 C1.34 2.68 0.68 1.36 0 0 Z " fill="#F5F4EF" transform="translate(592,222)"/>
<path d="M0 0 C0.33 0.66 0.66 1.32 1 2 C1.66 2 2.32 2 3 2 C3 3.32 3 4.64 3 6 C1.68 6 0.36 6 -1 6 C-1.042721 4.33388095 -1.04063832 2.66617115 -1 1 C-0.67 0.67 -0.34 0.34 0 0 Z " fill="#F9C705" transform="translate(401,156)"/>
<path d="M0 0 C1.65 0 3.3 0 5 0 C4.67 1.98 4.34 3.96 4 6 C2.68 5.34 1.36 4.68 0 4 C0.66 4 1.32 4 2 4 C2 3.34 2 2.68 2 2 C1.34 2 0.68 2 0 2 C0 1.34 0 0.68 0 0 Z " fill="#F4CB34" transform="translate(396,156)"/>
<path d="M0 0 C1.98 0 3.96 0 6 0 C6 1.32 6 2.64 6 4 C4.02 3.34 2.04 2.68 0 2 C0 1.34 0 0.68 0 0 Z " fill="#F0C02B" transform="translate(216,414)"/>
<path d="M0 0 C1.32 0.33 2.64 0.66 4 1 C3.34 2.98 2.68 4.96 2 7 C1.34 6.67 0.68 6.34 0 6 C0 4.02 0 2.04 0 0 Z " fill="#CA6F0E" transform="translate(576,319)"/>
<path d="M0 0 C1.32 0 2.64 0 4 0 C4 0.66 4 1.32 4 2 C5.32 2 6.64 2 8 2 C8 2.66 8 3.32 8 4 C2.25 3.125 2.25 3.125 0 2 C0 1.34 0 0.68 0 0 Z " fill="#FAE580" transform="translate(512,244)"/>
<path d="M0 0 C1.98 0 3.96 0 6 0 C5.34 1.32 4.68 2.64 4 4 C3.34 4 2.68 4 2 4 C2 3.34 2 2.68 2 2 C1.34 2 0.68 2 0 2 C0 1.34 0 0.68 0 0 Z " fill="#F8D02B" transform="translate(210,354)"/>
<path d="M0 0 C0.99 0.33 1.98 0.66 3 1 C3 2.98 3 4.96 3 7 C2.34 7 1.68 7 1 7 C1 5.68 1 4.36 1 3 C0.34 3 -0.32 3 -1 3 C-0.67 2.01 -0.34 1.02 0 0 Z " fill="#F4CC3F" transform="translate(269,293)"/>
<path d="M0 0 C0.66 0 1.32 0 2 0 C2 0.66 2 1.32 2 2 C2.66 2 3.32 2 4 2 C3.34 3.32 2.68 4.64 2 6 C1.34 6 0.68 6 0 6 C0 4.02 0 2.04 0 0 Z " fill="#FDCE07" transform="translate(274,282)"/>
<path d="M0 0 C0.66 0.66 1.32 1.32 2 2 C1.625 4.125 1.625 4.125 1 6 C0.01 6 -0.98 6 -2 6 C-2 4.68 -2 3.36 -2 2 C-1.34 2 -0.68 2 0 2 C0 1.34 0 0.68 0 0 Z " fill="#F4CA30" transform="translate(324,262)"/>
</svg>
